<?xml version="1.0" encoding="UTF-8"?>
<svg xmlns="http://www.w3.org/2000/svg" viewBox="0 0 1200 900" width="1200" height="900" font-family="'Pretendard', 'Apple SD Gothic Neo', 'Noto Sans KR', system-ui, sans-serif">
<rect width="1200" height="900" fill="#faf8f5"/>

  <rect x="0" y="0" width="1200" height="140" fill="#2c3e50"/>
  <text x="600" y="70" text-anchor="middle" font-size="28" font-weight="700" fill="#fce7f3" letter-spacing="6">TOP RANKING</text>
  <text x="600" y="115" text-anchor="middle" font-size="42" font-weight="900" fill="#ffffff">MBTI 테스트 결과가 달라지는 이유 TOP 5</text>
  
      <g transform="translate(60, 180)">
        <rect x="0" y="0" width="1080" height="95" rx="18" fill="#ffffff" stroke="#7e22ce" stroke-width="2"/>
        <rect x="0" y="0" width="110" height="95" rx="18 0 0 18" fill="#7e22ce"/>
        <text x="55" y="62" text-anchor="middle" font-size="40" font-weight="900" fill="#ffffff">1</text>
        <text x="140" y="40" font-size="30" font-weight="900" fill="#1a1a1a">기분·컨디션 영향</text>
        <text x="140" y="72" font-size="22" font-weight="600" fill="#4b5563">피곤할 때 I 쪽 · 들뜰 때 E 쪽</text>
        
        <g transform="translate(920, 47)">
          <rect x="-70" y="-22" width="140" height="44" rx="22" fill="#7e22ce" opacity="0.15"/>
          <text x="0" y="8" text-anchor="middle" font-size="18" font-weight="900" fill="#7e22ce">상태</text>
        </g>
        
      </g>
    
      <g transform="translate(60, 295)">
        <rect x="0" y="0" width="1080" height="95" rx="18" fill="#ffffff" stroke="#7e22ce" stroke-width="2"/>
        <rect x="0" y="0" width="110" height="95" rx="18 0 0 18" fill="#7e22ce"/>
        <text x="55" y="62" text-anchor="middle" font-size="40" font-weight="900" fill="#ffffff">2</text>
        <text x="140" y="40" font-size="30" font-weight="900" fill="#1a1a1a">상황·맥락 상상</text>
        <text x="140" y="72" font-size="22" font-weight="600" fill="#4b5563">회사 생각 vs 친구 생각 답 달라</text>
        
        <g transform="translate(920, 47)">
          <rect x="-70" y="-22" width="140" height="44" rx="22" fill="#7e22ce" opacity="0.15"/>
          <text x="0" y="8" text-anchor="middle" font-size="18" font-weight="900" fill="#7e22ce">맥락</text>
        </g>
        
      </g>
    
      <g transform="translate(60, 410)">
        <rect x="0" y="0" width="1080" height="95" rx="18" fill="#ffffff" stroke="#7e22ce" stroke-width="2"/>
        <rect x="0" y="0" width="110" height="95" rx="18 0 0 18" fill="#7e22ce"/>
        <text x="55" y="62" text-anchor="middle" font-size="40" font-weight="900" fill="#ffffff">3</text>
        <text x="140" y="40" font-size="30" font-weight="900" fill="#1a1a1a">자기 이상형 투영</text>
        <text x="140" y="72" font-size="22" font-weight="600" fill="#4b5563">"이렇고 싶다"로 답하는 무의식</text>
        
        <g transform="translate(920, 47)">
          <rect x="-70" y="-22" width="140" height="44" rx="22" fill="#7e22ce" opacity="0.15"/>
          <text x="0" y="8" text-anchor="middle" font-size="18" font-weight="900" fill="#7e22ce">왜곡</text>
        </g>
        
      </g>
    
      <g transform="translate(60, 525)">
        <rect x="0" y="0" width="1080" height="95" rx="18" fill="#ffffff" stroke="#7e22ce" stroke-width="2"/>
        <rect x="0" y="0" width="110" height="95" rx="18 0 0 18" fill="#7e22ce"/>
        <text x="55" y="62" text-anchor="middle" font-size="40" font-weight="900" fill="#ffffff">4</text>
        <text x="140" y="40" font-size="30" font-weight="900" fill="#1a1a1a">경계선 유형</text>
        <text x="140" y="72" font-size="22" font-weight="600" fill="#4b5563">50:50 경계에 있으면 매번 반전</text>
        
        <g transform="translate(920, 47)">
          <rect x="-70" y="-22" width="140" height="44" rx="22" fill="#7e22ce" opacity="0.15"/>
          <text x="0" y="8" text-anchor="middle" font-size="18" font-weight="900" fill="#7e22ce">중앙</text>
        </g>
        
      </g>
    
      <g transform="translate(60, 640)">
        <rect x="0" y="0" width="1080" height="95" rx="18" fill="#ffffff" stroke="#7e22ce" stroke-width="2"/>
        <rect x="0" y="0" width="110" height="95" rx="18 0 0 18" fill="#7e22ce"/>
        <text x="55" y="62" text-anchor="middle" font-size="40" font-weight="900" fill="#ffffff">5</text>
        <text x="140" y="40" font-size="30" font-weight="900" fill="#1a1a1a">검사 품질 차이</text>
        <text x="140" y="72" font-size="22" font-weight="600" fill="#4b5563">10문항 vs 100문항 결과 다름</text>
        
        <g transform="translate(920, 47)">
          <rect x="-70" y="-22" width="140" height="44" rx="22" fill="#7e22ce" opacity="0.15"/>
          <text x="0" y="8" text-anchor="middle" font-size="18" font-weight="900" fill="#7e22ce">도구</text>
        </g>
        
      </g>
    
  
<text x="1180" y="892" text-anchor="end" font-size="14" font-weight="600" fill="#9ca3af" opacity="0.85">192types.co.kr · 정확도 과학</text>
</svg>