<?xml version="1.0" encoding="UTF-8"?>
<svg xmlns="http://www.w3.org/2000/svg" viewBox="0 0 1200 900" width="1200" height="900" font-family="'Pretendard', 'Apple SD Gothic Neo', 'Noto Sans KR', system-ui, sans-serif">
<rect width="1200" height="900" fill="#faf8f5"/>

  <rect x="0" y="0" width="1200" height="140" fill="#7e22ce"/>
  <text x="600" y="70" text-anchor="middle" font-size="28" font-weight="700" fill="#ffffff" opacity="0.85" letter-spacing="6">COMPARISON</text>
  <text x="600" y="115" text-anchor="middle" font-size="40" font-weight="900" fill="#ffffff">정확도 높이는 4대 공식</text>
  
      <g transform="translate(60, 175)">
        <rect x="0" y="0" width="1080" height="115" rx="20" fill="#ffffff" stroke="#e5e7eb" stroke-width="2"/>
        <rect x="0" y="0" width="12" height="115" rx="6 0 0 6" fill="#7e22ce"/>
        <text x="40" y="62" font-size="52">🧘</text>
        <text x="125" y="48" font-size="30" font-weight="900" fill="#1a1a1a">컨디션 좋을 때 검사</text>
        <text x="125" y="82" font-size="22" font-weight="600" fill="#4b5563">스트레스 ↓ · 피곤 ↓ 상태에서</text>
      </g>
    
      <g transform="translate(60, 310)">
        <rect x="0" y="0" width="1080" height="115" rx="20" fill="#ffffff" stroke="#e5e7eb" stroke-width="2"/>
        <rect x="0" y="0" width="12" height="115" rx="6 0 0 6" fill="#7e22ce"/>
        <text x="40" y="62" font-size="52">🏠</text>
        <text x="125" y="48" font-size="30" font-weight="900" fill="#1a1a1a">일상 상황 기준</text>
        <text x="125" y="82" font-size="22" font-weight="600" fill="#4b5563">회사 특수 상황 X · 평소 모습으로</text>
      </g>
    
      <g transform="translate(60, 445)">
        <rect x="0" y="0" width="1080" height="115" rx="20" fill="#ffffff" stroke="#e5e7eb" stroke-width="2"/>
        <rect x="0" y="0" width="12" height="115" rx="6 0 0 6" fill="#7e22ce"/>
        <text x="40" y="62" font-size="52">❌</text>
        <text x="125" y="48" font-size="30" font-weight="900" fill="#1a1a1a">"이상형" 제외</text>
        <text x="125" y="82" font-size="22" font-weight="600" fill="#4b5563">되고 싶은 모습 X · 진짜 반응</text>
      </g>
    
      <g transform="translate(60, 580)">
        <rect x="0" y="0" width="1080" height="115" rx="20" fill="#ffffff" stroke="#e5e7eb" stroke-width="2"/>
        <rect x="0" y="0" width="12" height="115" rx="6 0 0 6" fill="#7e22ce"/>
        <text x="40" y="62" font-size="52">📏</text>
        <text x="125" y="48" font-size="30" font-weight="900" fill="#1a1a1a">40문항+ 사용</text>
        <text x="125" y="82" font-size="22" font-weight="600" fill="#4b5563">짧은 검사는 오차 범위 큼</text>
      </g>
    
  
<text x="1180" y="892" text-anchor="end" font-size="14" font-weight="600" fill="#9ca3af" opacity="0.85">192types.co.kr · 정확도 과학</text>
</svg>