<?xml version="1.0" encoding="UTF-8"?>
<svg xmlns="http://www.w3.org/2000/svg" viewBox="0 0 1200 900" width="1200" height="900" font-family="'Pretendard', 'Apple SD Gothic Neo', 'Noto Sans KR', system-ui, sans-serif">
<rect width="1200" height="900" fill="#fafafa"/>

  <text x="600" y="50" text-anchor="middle" font-size="28" font-weight="800" fill="#171717">4가지 이별 반응 유형 — 너는 어떤 방식으로 앓아?</text>
  <text x="600" y="78" text-anchor="middle" font-size="13" font-weight="500" fill="#6b7280">Fi 폭발 · Ti/Te 분석 · Si/Ni 침잠 · Se 전환 · 네 주기능이 결정해</text>

  
      <g transform="translate(60,115)">
        <rect width="520" height="340" rx="18" fill="#ffffff" stroke="#e5e7eb"/>
        <rect width="8" height="340" rx="4" fill="#f43f5e"/>
        <text x="28" y="44" font-size="22" font-weight="800" fill="#f43f5e">😢 울음형 (Fi 폭발)</text>
        <text x="28" y="68" font-size="12" font-weight="600" fill="#6b7280">INFP · ISFP · ENFP · ESFP</text>
        <text x="28" y="92" font-size="13" font-weight="700" fill="#374151">· 감정 먼저 쏟아내고 시작</text>
        
          <g transform="translate(28, 135)">
            <circle cx="7" cy="0" r="6" fill="#f43f5e" opacity="0.25"/>
            <text x="7" y="3" text-anchor="middle" font-size="9" font-weight="800" fill="#f43f5e">1</text>
            <text x="22" y="4" font-size="13" font-weight="600" fill="#374151">이별 당일 10시간 연속 울음</text>
          </g>
        
          <g transform="translate(28, 179)">
            <circle cx="7" cy="0" r="6" fill="#f43f5e" opacity="0.25"/>
            <text x="7" y="3" text-anchor="middle" font-size="9" font-weight="800" fill="#f43f5e">2</text>
            <text x="22" y="4" font-size="13" font-weight="600" fill="#374151">감성 플레이리스트 무한 반복</text>
          </g>
        
          <g transform="translate(28, 223)">
            <circle cx="7" cy="0" r="6" fill="#f43f5e" opacity="0.25"/>
            <text x="7" y="3" text-anchor="middle" font-size="9" font-weight="800" fill="#f43f5e">3</text>
            <text x="22" y="4" font-size="13" font-weight="600" fill="#374151">친구에게 새벽 전화 패턴</text>
          </g>
        
          <g transform="translate(28, 267)">
            <circle cx="7" cy="0" r="6" fill="#f43f5e" opacity="0.25"/>
            <text x="7" y="3" text-anchor="middle" font-size="9" font-weight="800" fill="#f43f5e">4</text>
            <text x="22" y="4" font-size="13" font-weight="600" fill="#374151">우는 게 회복 시작이라 건강한 유형</text>
          </g>
        
      </g>
    
      <g transform="translate(620,115)">
        <rect width="520" height="340" rx="18" fill="#ffffff" stroke="#e5e7eb"/>
        <rect width="8" height="340" rx="4" fill="#0891b2"/>
        <text x="28" y="44" font-size="22" font-weight="800" fill="#0891b2">🔍 분석형 (Ti/Te 가동)</text>
        <text x="28" y="68" font-size="12" font-weight="600" fill="#6b7280">INTP · INTJ · ENTP · ENTJ</text>
        <text x="28" y="92" font-size="13" font-weight="700" fill="#374151">· 원인 파악 끝나야 종결</text>
        
          <g transform="translate(28, 135)">
            <circle cx="7" cy="0" r="6" fill="#0891b2" opacity="0.25"/>
            <text x="7" y="3" text-anchor="middle" font-size="9" font-weight="800" fill="#0891b2">1</text>
            <text x="22" y="4" font-size="13" font-weight="600" fill="#374151">이별 사유를 5단계로 분해</text>
          </g>
        
          <g transform="translate(28, 179)">
            <circle cx="7" cy="0" r="6" fill="#0891b2" opacity="0.25"/>
            <text x="7" y="3" text-anchor="middle" font-size="9" font-weight="800" fill="#0891b2">2</text>
            <text x="22" y="4" font-size="13" font-weight="600" fill="#374151">상대 패턴 역추적 · 엑셀화</text>
          </g>
        
          <g transform="translate(28, 223)">
            <circle cx="7" cy="0" r="6" fill="#0891b2" opacity="0.25"/>
            <text x="7" y="3" text-anchor="middle" font-size="9" font-weight="800" fill="#0891b2">3</text>
            <text x="22" y="4" font-size="13" font-weight="600" fill="#374151">감정보다 "왜" 먼저 해결</text>
          </g>
        
          <g transform="translate(28, 267)">
            <circle cx="7" cy="0" r="6" fill="#0891b2" opacity="0.25"/>
            <text x="7" y="3" text-anchor="middle" font-size="9" font-weight="800" fill="#0891b2">4</text>
            <text x="22" y="4" font-size="13" font-weight="600" fill="#374151">분석 끝나면 빠르게 종결</text>
          </g>
        
      </g>
    
      <g transform="translate(60,490)">
        <rect width="520" height="340" rx="18" fill="#ffffff" stroke="#e5e7eb"/>
        <rect width="8" height="340" rx="4" fill="#059669"/>
        <text x="28" y="44" font-size="22" font-weight="800" fill="#059669">🌑 은둔형 (Si/Ni 침잠)</text>
        <text x="28" y="68" font-size="12" font-weight="600" fill="#6b7280">ISFJ · ISTJ · INFJ · INTJ</text>
        <text x="28" y="92" font-size="13" font-weight="700" fill="#374151">· 조용히 방에서 삭히기</text>
        
          <g transform="translate(28, 135)">
            <circle cx="7" cy="0" r="6" fill="#059669" opacity="0.25"/>
            <text x="7" y="3" text-anchor="middle" font-size="9" font-weight="800" fill="#059669">1</text>
            <text x="22" y="4" font-size="13" font-weight="600" fill="#374151">2~4주 SNS 완전 비공개</text>
          </g>
        
          <g transform="translate(28, 179)">
            <circle cx="7" cy="0" r="6" fill="#059669" opacity="0.25"/>
            <text x="7" y="3" text-anchor="middle" font-size="9" font-weight="800" fill="#059669">2</text>
            <text x="22" y="4" font-size="13" font-weight="600" fill="#374151">가족/가까운 1명 외 연락 차단</text>
          </g>
        
          <g transform="translate(28, 223)">
            <circle cx="7" cy="0" r="6" fill="#059669" opacity="0.25"/>
            <text x="7" y="3" text-anchor="middle" font-size="9" font-weight="800" fill="#059669">3</text>
            <text x="22" y="4" font-size="13" font-weight="600" fill="#374151">일상 루틴으로 몸부터 복구</text>
          </g>
        
          <g transform="translate(28, 267)">
            <circle cx="7" cy="0" r="6" fill="#059669" opacity="0.25"/>
            <text x="7" y="3" text-anchor="middle" font-size="9" font-weight="800" fill="#059669">4</text>
            <text x="22" y="4" font-size="13" font-weight="600" fill="#374151">길지만 재발 확률 낮음</text>
          </g>
        
      </g>
    
      <g transform="translate(620,490)">
        <rect width="520" height="340" rx="18" fill="#ffffff" stroke="#e5e7eb"/>
        <rect width="8" height="340" rx="4" fill="#f59e0b"/>
        <text x="28" y="44" font-size="22" font-weight="800" fill="#f59e0b">✨ 새사람형 (Se 전환)</text>
        <text x="28" y="68" font-size="12" font-weight="600" fill="#6b7280">ESTP · ENTP · ESFP · ENFP</text>
        <text x="28" y="92" font-size="13" font-weight="700" fill="#374151">· 다음 경험으로 덮어쓰기</text>
        
          <g transform="translate(28, 135)">
            <circle cx="7" cy="0" r="6" fill="#f59e0b" opacity="0.25"/>
            <text x="7" y="3" text-anchor="middle" font-size="9" font-weight="800" fill="#f59e0b">1</text>
            <text x="22" y="4" font-size="13" font-weight="600" fill="#374151">1주 내 새로운 만남/소개팅</text>
          </g>
        
          <g transform="translate(28, 179)">
            <circle cx="7" cy="0" r="6" fill="#f59e0b" opacity="0.25"/>
            <text x="7" y="3" text-anchor="middle" font-size="9" font-weight="800" fill="#f59e0b">2</text>
            <text x="22" y="4" font-size="13" font-weight="600" fill="#374151">새 헤어스타일·피트니스 시작</text>
          </g>
        
          <g transform="translate(28, 223)">
            <circle cx="7" cy="0" r="6" fill="#f59e0b" opacity="0.25"/>
            <text x="7" y="3" text-anchor="middle" font-size="9" font-weight="800" fill="#f59e0b">3</text>
            <text x="22" y="4" font-size="13" font-weight="600" fill="#374151">감정은 빠르게 처리</text>
          </g>
        
          <g transform="translate(28, 267)">
            <circle cx="7" cy="0" r="6" fill="#f59e0b" opacity="0.25"/>
            <text x="7" y="3" text-anchor="middle" font-size="9" font-weight="800" fill="#f59e0b">4</text>
            <text x="22" y="4" font-size="13" font-weight="600" fill="#374151">덮어쓰기가 지속되면 패턴화 위험</text>
          </g>
        
      </g>
    
  
<text x="1180" y="892" text-anchor="end" font-size="10" font-weight="500" fill="#9ca3af" opacity="0.85">192types.co.kr · 이별 회복 리포트</text>
</svg>