<?xml version="1.0" encoding="UTF-8"?>
<svg xmlns="http://www.w3.org/2000/svg" viewBox="0 0 1200 900" width="1200" height="900" font-family="'Pretendard', 'Apple SD Gothic Neo', 'Noto Sans KR', system-ui, sans-serif">
<rect width="1200" height="900" fill="#fafafa"/>

  <text x="600" y="50" text-anchor="middle" font-size="42" font-weight="800" fill="#171717">ISTJ 버핏의 투자 10원칙</text>
  <text x="600" y="80" text-anchor="middle" font-size="18" font-weight="500" fill="#6b7280">Si(검증) + Te(실행) 조합의 교과서 · 70년간 변하지 않은 철칙</text>

  
      <g transform="translate(60, 120)">
        <rect width="540" height="130" rx="18" fill="#ffffff" stroke="#e5e7eb"/>
        <rect width="8" height="130" rx="4" fill="#1e3a8a"/>

        <text x="30" y="50" font-size="36" font-weight="900" fill="#eab308">01</text>
        <text x="90" y="50" font-size="22" font-weight="800" fill="#171717">내가 이해하는 사업만 산다</text>

        <g transform="translate(90, 75)">
          <rect width="80" height="26" rx="13" fill="#1e3a8a" opacity="0.15"/>
          <text x="40" y="18" text-anchor="middle" font-size="18" font-weight="900" fill="#1e3a8a">Si 검증</text>
        </g>
      </g>
    
      <g transform="translate(630, 120)">
        <rect width="540" height="130" rx="18" fill="#ffffff" stroke="#e5e7eb"/>
        <rect width="8" height="130" rx="4" fill="#1e3a8a"/>

        <text x="30" y="50" font-size="36" font-weight="900" fill="#eab308">02</text>
        <text x="90" y="50" font-size="22" font-weight="800" fill="#171717">영원히 보유할 기업만 산다</text>

        <g transform="translate(90, 75)">
          <rect width="80" height="26" rx="13" fill="#1e3a8a" opacity="0.15"/>
          <text x="40" y="18" text-anchor="middle" font-size="18" font-weight="900" fill="#1e3a8a">Si 지속</text>
        </g>
      </g>
    
      <g transform="translate(60, 265)">
        <rect width="540" height="130" rx="18" fill="#ffffff" stroke="#e5e7eb"/>
        <rect width="8" height="130" rx="4" fill="#1e3a8a"/>

        <text x="30" y="50" font-size="36" font-weight="900" fill="#eab308">03</text>
        <text x="90" y="50" font-size="22" font-weight="800" fill="#171717">경쟁 우위(해자) 있는 기업만</text>

        <g transform="translate(90, 75)">
          <rect width="80" height="26" rx="13" fill="#1e3a8a" opacity="0.15"/>
          <text x="40" y="18" text-anchor="middle" font-size="18" font-weight="900" fill="#1e3a8a">Te 판단</text>
        </g>
      </g>
    
      <g transform="translate(630, 265)">
        <rect width="540" height="130" rx="18" fill="#ffffff" stroke="#e5e7eb"/>
        <rect width="8" height="130" rx="4" fill="#1e3a8a"/>

        <text x="30" y="50" font-size="36" font-weight="900" fill="#eab308">04</text>
        <text x="90" y="50" font-size="22" font-weight="800" fill="#171717">정직한 경영진이 필수</text>

        <g transform="translate(90, 75)">
          <rect width="80" height="26" rx="13" fill="#1e3a8a" opacity="0.15"/>
          <text x="40" y="18" text-anchor="middle" font-size="18" font-weight="900" fill="#1e3a8a">Si 신뢰</text>
        </g>
      </g>
    
      <g transform="translate(60, 410)">
        <rect width="540" height="130" rx="18" fill="#ffffff" stroke="#e5e7eb"/>
        <rect width="8" height="130" rx="4" fill="#1e3a8a"/>

        <text x="30" y="50" font-size="36" font-weight="900" fill="#eab308">05</text>
        <text x="90" y="50" font-size="22" font-weight="800" fill="#171717">내재 가치보다 싸게 산다</text>

        <g transform="translate(90, 75)">
          <rect width="80" height="26" rx="13" fill="#1e3a8a" opacity="0.15"/>
          <text x="40" y="18" text-anchor="middle" font-size="18" font-weight="900" fill="#1e3a8a">Te 수치</text>
        </g>
      </g>
    
      <g transform="translate(630, 410)">
        <rect width="540" height="130" rx="18" fill="#ffffff" stroke="#e5e7eb"/>
        <rect width="8" height="130" rx="4" fill="#1e3a8a"/>

        <text x="30" y="50" font-size="36" font-weight="900" fill="#eab308">06</text>
        <text x="90" y="50" font-size="22" font-weight="800" fill="#171717">남들이 탐욕스러울 때 두려워한다</text>

        <g transform="translate(90, 75)">
          <rect width="80" height="26" rx="13" fill="#1e3a8a" opacity="0.15"/>
          <text x="40" y="18" text-anchor="middle" font-size="18" font-weight="900" fill="#1e3a8a">Si 역발상</text>
        </g>
      </g>
    
      <g transform="translate(60, 555)">
        <rect width="540" height="130" rx="18" fill="#ffffff" stroke="#e5e7eb"/>
        <rect width="8" height="130" rx="4" fill="#1e3a8a"/>

        <text x="30" y="50" font-size="36" font-weight="900" fill="#eab308">07</text>
        <text x="90" y="50" font-size="22" font-weight="800" fill="#171717">첫 번째 원칙: 돈 잃지 않기</text>

        <g transform="translate(90, 75)">
          <rect width="80" height="26" rx="13" fill="#1e3a8a" opacity="0.15"/>
          <text x="40" y="18" text-anchor="middle" font-size="18" font-weight="900" fill="#1e3a8a">Te 리스크</text>
        </g>
      </g>
    
      <g transform="translate(630, 555)">
        <rect width="540" height="130" rx="18" fill="#ffffff" stroke="#e5e7eb"/>
        <rect width="8" height="130" rx="4" fill="#1e3a8a"/>

        <text x="30" y="50" font-size="36" font-weight="900" fill="#eab308">08</text>
        <text x="90" y="50" font-size="22" font-weight="800" fill="#171717">시간이 훌륭한 기업의 친구</text>

        <g transform="translate(90, 75)">
          <rect width="80" height="26" rx="13" fill="#1e3a8a" opacity="0.15"/>
          <text x="40" y="18" text-anchor="middle" font-size="18" font-weight="900" fill="#1e3a8a">Si 복리</text>
        </g>
      </g>
    
      <g transform="translate(60, 700)">
        <rect width="540" height="130" rx="18" fill="#ffffff" stroke="#e5e7eb"/>
        <rect width="8" height="130" rx="4" fill="#1e3a8a"/>

        <text x="30" y="50" font-size="36" font-weight="900" fill="#eab308">09</text>
        <text x="90" y="50" font-size="22" font-weight="800" fill="#171717">시장 예측 안 한다</text>

        <g transform="translate(90, 75)">
          <rect width="80" height="26" rx="13" fill="#1e3a8a" opacity="0.15"/>
          <text x="40" y="18" text-anchor="middle" font-size="18" font-weight="900" fill="#1e3a8a">Te 현실</text>
        </g>
      </g>
    
      <g transform="translate(630, 700)">
        <rect width="540" height="130" rx="18" fill="#ffffff" stroke="#e5e7eb"/>
        <rect width="8" height="130" rx="4" fill="#1e3a8a"/>

        <text x="30" y="50" font-size="36" font-weight="900" fill="#eab308">10</text>
        <text x="90" y="50" font-size="22" font-weight="800" fill="#171717">내가 아는 사업으로 부자 된다</text>

        <g transform="translate(90, 75)">
          <rect width="80" height="26" rx="13" fill="#1e3a8a" opacity="0.15"/>
          <text x="40" y="18" text-anchor="middle" font-size="18" font-weight="900" fill="#1e3a8a">Si 집중</text>
        </g>
      </g>
    
  
<text x="1180" y="892" text-anchor="end" font-size="10" font-weight="500" fill="#9ca3af" opacity="0.85">192types.co.kr · 경제학 리포트</text>
</svg>