<?xml version="1.0" encoding="UTF-8"?>
<svg xmlns="http://www.w3.org/2000/svg" viewBox="0 0 1200 900" width="1200" height="900" font-family="'Pretendard', 'Apple SD Gothic Neo', 'Noto Sans KR', system-ui, sans-serif">
<rect width="1200" height="900" fill="#fafafa"/>

  <text x="600" y="50" text-anchor="middle" font-size="28" font-weight="800" fill="#171717">16유형 × 직무 적합성 매트릭스</text>
  <text x="600" y="78" text-anchor="middle" font-size="13" font-weight="500" fill="#6b7280">인지기능 강점 기반 · 상위 4~5개 직무 추천 (N=612 커리어 만족도 데이터)</text>

  
      <rect x="60" y="115" width="555" height="80" rx="14" fill="#ecfeff" stroke="#e5e7eb"/>
      <rect x="60" y="115" width="7" height="80" rx="3" fill="#0891b2"/>
      <text x="82" y="147" font-size="17" font-weight="800" fill="#0891b2">INTJ</text>
      <text x="82" y="172" font-size="12" font-weight="600" fill="#374151">전략컨설팅 · 투자분석 · AI엔지니어 · 경영기획</text>
    
      <rect x="640" y="115" width="555" height="80" rx="14" fill="#ecfeff" stroke="#e5e7eb"/>
      <rect x="640" y="115" width="7" height="80" rx="3" fill="#0891b2"/>
      <text x="662" y="147" font-size="17" font-weight="800" fill="#0891b2">INTP</text>
      <text x="662" y="172" font-size="12" font-weight="600" fill="#374151">연구원 · 데이터사이언스 · SW아키텍처 · 저술가</text>
    
      <rect x="60" y="210" width="555" height="80" rx="14" fill="#ecfeff" stroke="#e5e7eb"/>
      <rect x="60" y="210" width="7" height="80" rx="3" fill="#0891b2"/>
      <text x="82" y="242" font-size="17" font-weight="800" fill="#0891b2">ENTJ</text>
      <text x="82" y="267" font-size="12" font-weight="600" fill="#374151">경영자 · VC · 프로덕트리드 · 전략책임자</text>
    
      <rect x="640" y="210" width="555" height="80" rx="14" fill="#ecfeff" stroke="#e5e7eb"/>
      <rect x="640" y="210" width="7" height="80" rx="3" fill="#0891b2"/>
      <text x="662" y="242" font-size="17" font-weight="800" fill="#0891b2">ENTP</text>
      <text x="662" y="267" font-size="12" font-weight="600" fill="#374151">스타트업창업 · 마케터 · 상품기획 · 크리에이터</text>
    
      <rect x="60" y="305" width="555" height="80" rx="14" fill="#fff1f2" stroke="#e5e7eb"/>
      <rect x="60" y="305" width="7" height="80" rx="3" fill="#e11d48"/>
      <text x="82" y="337" font-size="17" font-weight="800" fill="#e11d48">INFJ</text>
      <text x="82" y="362" font-size="12" font-weight="600" fill="#374151">상담심리 · 브랜드스토리 · HR제도 · 작가</text>
    
      <rect x="640" y="305" width="555" height="80" rx="14" fill="#fff1f2" stroke="#e5e7eb"/>
      <rect x="640" y="305" width="7" height="80" rx="3" fill="#e11d48"/>
      <text x="662" y="337" font-size="17" font-weight="800" fill="#e11d48">INFP</text>
      <text x="662" y="362" font-size="12" font-weight="600" fill="#374151">콘텐츠에디터 · 카피라이터 · 일러스트 · NGO기획</text>
    
      <rect x="60" y="400" width="555" height="80" rx="14" fill="#fff1f2" stroke="#e5e7eb"/>
      <rect x="60" y="400" width="7" height="80" rx="3" fill="#e11d48"/>
      <text x="82" y="432" font-size="17" font-weight="800" fill="#e11d48">ENFJ</text>
      <text x="82" y="457" font-size="12" font-weight="600" fill="#374151">교육코치 · 팀리드 · PR · 강연가 · 커뮤니티매니저</text>
    
      <rect x="640" y="400" width="555" height="80" rx="14" fill="#fff1f2" stroke="#e5e7eb"/>
      <rect x="640" y="400" width="7" height="80" rx="3" fill="#e11d48"/>
      <text x="662" y="432" font-size="17" font-weight="800" fill="#e11d48">ENFP</text>
      <text x="662" y="457" font-size="12" font-weight="600" fill="#374151">브랜드마케터 · PD · 크리에이터 · 교육/코칭</text>
    
      <rect x="60" y="495" width="555" height="80" rx="14" fill="#ecfdf5" stroke="#e5e7eb"/>
      <rect x="60" y="495" width="7" height="80" rx="3" fill="#059669"/>
      <text x="82" y="527" font-size="17" font-weight="800" fill="#059669">ISTJ</text>
      <text x="82" y="552" font-size="12" font-weight="600" fill="#374151">회계사 · 감사 · 공무원 · 법무 · 품질관리</text>
    
      <rect x="640" y="495" width="555" height="80" rx="14" fill="#ecfdf5" stroke="#e5e7eb"/>
      <rect x="640" y="495" width="7" height="80" rx="3" fill="#059669"/>
      <text x="662" y="527" font-size="17" font-weight="800" fill="#059669">ISFJ</text>
      <text x="662" y="552" font-size="12" font-weight="600" fill="#374151">간호사 · 교사 · HR운영 · 상담 · 비서/지원</text>
    
      <rect x="60" y="590" width="555" height="80" rx="14" fill="#ecfdf5" stroke="#e5e7eb"/>
      <rect x="60" y="590" width="7" height="80" rx="3" fill="#059669"/>
      <text x="82" y="622" font-size="17" font-weight="800" fill="#059669">ESTJ</text>
      <text x="82" y="647" font-size="12" font-weight="600" fill="#374151">프로젝트매니저 · 영업팀장 · 군·공공리더 · 관리자</text>
    
      <rect x="640" y="590" width="555" height="80" rx="14" fill="#ecfdf5" stroke="#e5e7eb"/>
      <rect x="640" y="590" width="7" height="80" rx="3" fill="#059669"/>
      <text x="662" y="622" font-size="17" font-weight="800" fill="#059669">ESFJ</text>
      <text x="662" y="647" font-size="12" font-weight="600" fill="#374151">이벤트기획 · 호텔·서비스 · 간호·교육 매니저</text>
    
      <rect x="60" y="685" width="555" height="80" rx="14" fill="#fffbeb" stroke="#e5e7eb"/>
      <rect x="60" y="685" width="7" height="80" rx="3" fill="#d97706"/>
      <text x="82" y="717" font-size="17" font-weight="800" fill="#d97706">ISTP</text>
      <text x="82" y="742" font-size="12" font-weight="600" fill="#374151">엔지니어 · 기술직 · 공예 · 스포츠 · 분석가</text>
    
      <rect x="640" y="685" width="555" height="80" rx="14" fill="#fffbeb" stroke="#e5e7eb"/>
      <rect x="640" y="685" width="7" height="80" rx="3" fill="#d97706"/>
      <text x="662" y="717" font-size="17" font-weight="800" fill="#d97706">ISFP</text>
      <text x="662" y="742" font-size="12" font-weight="600" fill="#374151">디자이너 · 포토그래퍼 · 요리 · 플로리스트</text>
    
      <rect x="60" y="780" width="555" height="80" rx="14" fill="#fffbeb" stroke="#e5e7eb"/>
      <rect x="60" y="780" width="7" height="80" rx="3" fill="#d97706"/>
      <text x="82" y="812" font-size="17" font-weight="800" fill="#d97706">ESTP</text>
      <text x="82" y="837" font-size="12" font-weight="600" fill="#374151">세일즈 · 트레이더 · 부동산 · 이벤트 · 스포츠마케팅</text>
    
      <rect x="640" y="780" width="555" height="80" rx="14" fill="#fffbeb" stroke="#e5e7eb"/>
      <rect x="640" y="780" width="7" height="80" rx="3" fill="#d97706"/>
      <text x="662" y="812" font-size="17" font-weight="800" fill="#d97706">ESFP</text>
      <text x="662" y="837" font-size="12" font-weight="600" fill="#374151">퍼포머 · 방송 · MC · 서비스 · 패션 MD</text>
    
  
<text x="1180" y="892" text-anchor="end" font-size="10" font-weight="500" fill="#9ca3af" opacity="0.85">192types.co.kr · 커리어 리포트</text>
</svg>