<?xml version="1.0" encoding="UTF-8"?>
<svg xmlns="http://www.w3.org/2000/svg" viewBox="0 0 1200 900" width="1200" height="900" font-family="'Pretendard', 'Apple SD Gothic Neo', 'Noto Sans KR', system-ui, sans-serif">
<rect width="1200" height="900" fill="#fafafa"/>

  <text x="600" y="55" text-anchor="middle" font-size="28" font-weight="800" fill="#171717">4기질별 커리어 성장 곡선</text>
  <text x="600" y="82" text-anchor="middle" font-size="13" font-weight="500" fill="#6b7280">연봉만이 아닌 "어떤 모양으로 성장하느냐" · 네 기질이 네 속도를 결정해</text>

  
      <g transform="translate(60,115)">
        <rect width="520" height="310" rx="18" fill="#ffffff" stroke="#e5e7eb"/>
        <text x="28" y="40" font-size="17" font-weight="800" fill="#0891b2">담즙질 커브 · ENTJ·ESTJ·ENTP·ESTP</text>
        <text x="28" y="65" font-size="12" font-weight="500" fill="#6b7280">초반 급가속 → 30대 초 플래토 → 임원 점프</text>
        <g transform="translate(28, 95)">
          <line x1="0" y1="180" x2="470" y2="180" stroke="#d1d5db"/>
          <line x1="0" y1="0" x2="0" y2="180" stroke="#d1d5db"/>
          <text x="-8" y="8" text-anchor="end" font-size="10" fill="#9ca3af">연봉</text>
          <text x="465" y="198" text-anchor="end" font-size="10" fill="#9ca3af">연차 →</text>
          <!-- years axis -->
          <text x="0" y="198" text-anchor="middle" font-size="9" fill="#9ca3af">1</text>
          <text x="120" y="198" text-anchor="middle" font-size="9" fill="#9ca3af">5</text>
          <text x="240" y="198" text-anchor="middle" font-size="9" fill="#9ca3af">10</text>
          <text x="360" y="198" text-anchor="middle" font-size="9" fill="#9ca3af">15</text>
          <text x="460" y="198" text-anchor="middle" font-size="9" fill="#9ca3af">20</text>
          <line x1="0" y1="45" x2="470" y2="45" stroke="#f3f4f6"/>
          <line x1="0" y1="90" x2="470" y2="90" stroke="#f3f4f6"/>
          <line x1="0" y1="135" x2="470" y2="135" stroke="#f3f4f6"/>
          <path d="M20,180 Q50,120 120,70 Q200,50 280,60 L400,55 Q440,30 460,18" stroke="#0891b2" stroke-width="4" fill="none"/>
        </g>
      </g>
    
      <g transform="translate(620,115)">
        <rect width="520" height="310" rx="18" fill="#ffffff" stroke="#e5e7eb"/>
        <text x="28" y="40" font-size="17" font-weight="800" fill="#0e7490">우울질 커브 · INTJ·INFJ·INTP·ISTP</text>
        <text x="28" y="65" font-size="12" font-weight="500" fill="#6b7280">느린 시작 → 전문성 축적 → 후반 폭발</text>
        <g transform="translate(28, 95)">
          <line x1="0" y1="180" x2="470" y2="180" stroke="#d1d5db"/>
          <line x1="0" y1="0" x2="0" y2="180" stroke="#d1d5db"/>
          <text x="-8" y="8" text-anchor="end" font-size="10" fill="#9ca3af">연봉</text>
          <text x="465" y="198" text-anchor="end" font-size="10" fill="#9ca3af">연차 →</text>
          <!-- years axis -->
          <text x="0" y="198" text-anchor="middle" font-size="9" fill="#9ca3af">1</text>
          <text x="120" y="198" text-anchor="middle" font-size="9" fill="#9ca3af">5</text>
          <text x="240" y="198" text-anchor="middle" font-size="9" fill="#9ca3af">10</text>
          <text x="360" y="198" text-anchor="middle" font-size="9" fill="#9ca3af">15</text>
          <text x="460" y="198" text-anchor="middle" font-size="9" fill="#9ca3af">20</text>
          <line x1="0" y1="45" x2="470" y2="45" stroke="#f3f4f6"/>
          <line x1="0" y1="90" x2="470" y2="90" stroke="#f3f4f6"/>
          <line x1="0" y1="135" x2="470" y2="135" stroke="#f3f4f6"/>
          <path d="M20,180 L100,170 Q180,155 260,130 Q340,80 400,40 L460,20" stroke="#0e7490" stroke-width="4" fill="none"/>
        </g>
      </g>
    
      <g transform="translate(60,470)">
        <rect width="520" height="310" rx="18" fill="#ffffff" stroke="#e5e7eb"/>
        <text x="28" y="40" font-size="17" font-weight="800" fill="#059669">점액질 커브 · ISFJ·ISTJ·INFP·ISFP</text>
        <text x="28" y="65" font-size="12" font-weight="500" fill="#6b7280">안정적 누적 → 15년차 이후 역전</text>
        <g transform="translate(28, 95)">
          <line x1="0" y1="180" x2="470" y2="180" stroke="#d1d5db"/>
          <line x1="0" y1="0" x2="0" y2="180" stroke="#d1d5db"/>
          <text x="-8" y="8" text-anchor="end" font-size="10" fill="#9ca3af">연봉</text>
          <text x="465" y="198" text-anchor="end" font-size="10" fill="#9ca3af">연차 →</text>
          <!-- years axis -->
          <text x="0" y="198" text-anchor="middle" font-size="9" fill="#9ca3af">1</text>
          <text x="120" y="198" text-anchor="middle" font-size="9" fill="#9ca3af">5</text>
          <text x="240" y="198" text-anchor="middle" font-size="9" fill="#9ca3af">10</text>
          <text x="360" y="198" text-anchor="middle" font-size="9" fill="#9ca3af">15</text>
          <text x="460" y="198" text-anchor="middle" font-size="9" fill="#9ca3af">20</text>
          <line x1="0" y1="45" x2="470" y2="45" stroke="#f3f4f6"/>
          <line x1="0" y1="90" x2="470" y2="90" stroke="#f3f4f6"/>
          <line x1="0" y1="135" x2="470" y2="135" stroke="#f3f4f6"/>
          <path d="M20,180 L100,150 L180,120 L260,90 L340,60 L460,35" stroke="#059669" stroke-width="4" fill="none"/>
        </g>
      </g>
    
      <g transform="translate(620,470)">
        <rect width="520" height="310" rx="18" fill="#ffffff" stroke="#e5e7eb"/>
        <text x="28" y="40" font-size="17" font-weight="800" fill="#f43f5e">다혈질 커브 · ENFP·ESFP·ESFJ·ENFJ</text>
        <text x="28" y="65" font-size="12" font-weight="500" fill="#6b7280">관계 확장형 · 파동형 성장</text>
        <g transform="translate(28, 95)">
          <line x1="0" y1="180" x2="470" y2="180" stroke="#d1d5db"/>
          <line x1="0" y1="0" x2="0" y2="180" stroke="#d1d5db"/>
          <text x="-8" y="8" text-anchor="end" font-size="10" fill="#9ca3af">연봉</text>
          <text x="465" y="198" text-anchor="end" font-size="10" fill="#9ca3af">연차 →</text>
          <!-- years axis -->
          <text x="0" y="198" text-anchor="middle" font-size="9" fill="#9ca3af">1</text>
          <text x="120" y="198" text-anchor="middle" font-size="9" fill="#9ca3af">5</text>
          <text x="240" y="198" text-anchor="middle" font-size="9" fill="#9ca3af">10</text>
          <text x="360" y="198" text-anchor="middle" font-size="9" fill="#9ca3af">15</text>
          <text x="460" y="198" text-anchor="middle" font-size="9" fill="#9ca3af">20</text>
          <line x1="0" y1="45" x2="470" y2="45" stroke="#f3f4f6"/>
          <line x1="0" y1="90" x2="470" y2="90" stroke="#f3f4f6"/>
          <line x1="0" y1="135" x2="470" y2="135" stroke="#f3f4f6"/>
          <path d="M20,180 Q60,100 110,140 Q160,60 220,90 Q280,30 340,70 Q400,20 460,50" stroke="#f43f5e" stroke-width="4" fill="none"/>
        </g>
      </g>
    
  
<text x="1180" y="892" text-anchor="end" font-size="10" font-weight="500" fill="#9ca3af" opacity="0.85">192types.co.kr · 커리어 리포트</text>
</svg>