<?xml version="1.0" encoding="UTF-8"?>
<svg xmlns="http://www.w3.org/2000/svg" viewBox="0 0 1200 900" width="1200" height="900" font-family="'Pretendard', 'Apple SD Gothic Neo', 'Noto Sans KR', system-ui, sans-serif">
<rect width="1200" height="900" fill="#fafafa"/>

  <text x="600" y="50" text-anchor="middle" font-size="28" font-weight="800" fill="#171717">16유형 연봉 상승 속도 랭킹</text>
  <text x="600" y="78" text-anchor="middle" font-size="13" font-weight="500" fill="#6b7280">입사 초봉 대비 10년차 연봉 배율 기준 · 인지기능 + 기질 보정 · 100점 만점</text>

  
      <text x="45" y="138" font-size="14" font-weight="700" fill="#6b7280">01</text>
      <text x="90" y="138" font-size="16" font-weight="800" fill="#0891b2">ENTJ</text>
      <rect x="210" y="119" width="770.8" height="26" rx="13" fill="#22c55e" opacity="0.92"/>
      <text x="968.8" y="137" text-anchor="end" font-size="13" font-weight="800" fill="#fff">94</text>
      <text x="994.8" y="137" font-size="12" font-weight="600" fill="#374151">전략적 이직 + 협상력 최상위</text>
    
      <text x="45" y="182" font-size="14" font-weight="700" fill="#6b7280">02</text>
      <text x="90" y="182" font-size="16" font-weight="800" fill="#0891b2">INTJ</text>
      <rect x="210" y="163" width="721.6" height="26" rx="13" fill="#22c55e" opacity="0.92"/>
      <text x="919.6" y="181" text-anchor="end" font-size="13" font-weight="800" fill="#fff">88</text>
      <text x="945.6" y="181" font-size="12" font-weight="600" fill="#374151">10년 플랜 기반 폭발적 점프</text>
    
      <text x="45" y="226" font-size="14" font-weight="700" fill="#6b7280">03</text>
      <text x="90" y="226" font-size="16" font-weight="800" fill="#059669">ESTJ</text>
      <rect x="210" y="207" width="688.8" height="26" rx="13" fill="#22c55e" opacity="0.92"/>
      <text x="886.8" y="225" text-anchor="end" font-size="13" font-weight="800" fill="#fff">84</text>
      <text x="912.8" y="225" font-size="12" font-weight="600" fill="#374151">조직 내 승진 속도 최상위</text>
    
      <text x="45" y="270" font-size="14" font-weight="700" fill="#6b7280">04</text>
      <text x="90" y="270" font-size="16" font-weight="800" fill="#0891b2">ENTP</text>
      <rect x="210" y="251" width="639.6" height="26" rx="13" fill="#84cc16" opacity="0.92"/>
      <text x="837.6" y="269" text-anchor="end" font-size="13" font-weight="800" fill="#fff">78</text>
      <text x="863.6" y="269" font-size="12" font-weight="600" fill="#374151">창업/프리랜서로 상한선 돌파</text>
    
      <text x="45" y="314" font-size="14" font-weight="700" fill="#6b7280">05</text>
      <text x="90" y="314" font-size="16" font-weight="800" fill="#d97706">ESTP</text>
      <rect x="210" y="295" width="590.4" height="26" rx="13" fill="#84cc16" opacity="0.92"/>
      <text x="788.4" y="313" text-anchor="end" font-size="13" font-weight="800" fill="#fff">72</text>
      <text x="814.4" y="313" font-size="12" font-weight="600" fill="#374151">영업·사업 인센티브 레버리지</text>
    
      <text x="45" y="358" font-size="14" font-weight="700" fill="#6b7280">06</text>
      <text x="90" y="358" font-size="16" font-weight="800" fill="#0891b2">INTP</text>
      <rect x="210" y="339" width="557.6" height="26" rx="13" fill="#84cc16" opacity="0.92"/>
      <text x="755.6" y="357" text-anchor="end" font-size="13" font-weight="800" fill="#fff">68</text>
      <text x="781.6" y="357" font-size="12" font-weight="600" fill="#374151">전문성 축적 후 후반 폭발</text>
    
      <text x="45" y="402" font-size="14" font-weight="700" fill="#6b7280">07</text>
      <text x="90" y="402" font-size="16" font-weight="800" fill="#059669">ESFJ</text>
      <rect x="210" y="383" width="524.8" height="26" rx="13" fill="#84cc16" opacity="0.92"/>
      <text x="722.8" y="401" text-anchor="end" font-size="13" font-weight="800" fill="#fff">64</text>
      <text x="748.8" y="401" font-size="12" font-weight="600" fill="#374151">관계 자본 기반 꾸준한 상승</text>
    
      <text x="45" y="446" font-size="14" font-weight="700" fill="#6b7280">08</text>
      <text x="90" y="446" font-size="16" font-weight="800" fill="#059669">ISTJ</text>
      <rect x="210" y="427" width="492" height="26" rx="13" fill="#84cc16" opacity="0.92"/>
      <text x="690" y="445" text-anchor="end" font-size="13" font-weight="800" fill="#fff">60</text>
      <text x="716" y="445" font-size="12" font-weight="600" fill="#374151">성실 누적형 · 15년차 역전</text>
    
      <text x="45" y="490" font-size="14" font-weight="700" fill="#6b7280">09</text>
      <text x="90" y="490" font-size="16" font-weight="800" fill="#e11d48">ENFJ</text>
      <rect x="210" y="471" width="459.20000000000005" height="26" rx="13" fill="#eab308" opacity="0.92"/>
      <text x="657.2" y="489" text-anchor="end" font-size="13" font-weight="800" fill="#fff">56</text>
      <text x="683.2" y="489" font-size="12" font-weight="600" fill="#374151">리더십 → 매니지먼트 경로</text>
    
      <text x="45" y="534" font-size="14" font-weight="700" fill="#6b7280">10</text>
      <text x="90" y="534" font-size="16" font-weight="800" fill="#e11d48">ENFP</text>
      <rect x="210" y="515" width="426.40000000000003" height="26" rx="13" fill="#eab308" opacity="0.92"/>
      <text x="624.4000000000001" y="533" text-anchor="end" font-size="13" font-weight="800" fill="#fff">52</text>
      <text x="650.4000000000001" y="533" font-size="12" font-weight="600" fill="#374151">브랜드·콘텐츠·교육 분야 강세</text>
    
      <text x="45" y="578" font-size="14" font-weight="700" fill="#6b7280">11</text>
      <text x="90" y="578" font-size="16" font-weight="800" fill="#d97706">ISTP</text>
      <rect x="210" y="559" width="393.59999999999997" height="26" rx="13" fill="#eab308" opacity="0.92"/>
      <text x="591.5999999999999" y="577" text-anchor="end" font-size="13" font-weight="800" fill="#fff">48</text>
      <text x="617.5999999999999" y="577" font-size="12" font-weight="600" fill="#374151">기술직 전문가 프리미엄</text>
    
      <text x="45" y="622" font-size="14" font-weight="700" fill="#6b7280">12</text>
      <text x="90" y="622" font-size="16" font-weight="800" fill="#059669">ISFJ</text>
      <rect x="210" y="603" width="344.4" height="26" rx="13" fill="#eab308" opacity="0.92"/>
      <text x="542.4" y="621" text-anchor="end" font-size="13" font-weight="800" fill="#fff">42</text>
      <text x="568.4" y="621" font-size="12" font-weight="600" fill="#374151">안정 지향 → 대기업 장기근속</text>
    
      <text x="45" y="666" font-size="14" font-weight="700" fill="#6b7280">13</text>
      <text x="90" y="666" font-size="16" font-weight="800" fill="#e11d48">INFJ</text>
      <rect x="210" y="647" width="311.6" height="26" rx="13" fill="#f59e0b" opacity="0.92"/>
      <text x="509.6" y="665" text-anchor="end" font-size="13" font-weight="800" fill="#fff">38</text>
      <text x="535.6" y="665" font-size="12" font-weight="600" fill="#374151">상담·기획 분야 깊이 있는 성장</text>
    
      <text x="45" y="710" font-size="14" font-weight="700" fill="#6b7280">14</text>
      <text x="90" y="710" font-size="16" font-weight="800" fill="#d97706">ESFP</text>
      <rect x="210" y="691" width="278.8" height="26" rx="13" fill="#f59e0b" opacity="0.92"/>
      <text x="476.8" y="709" text-anchor="end" font-size="13" font-weight="800" fill="#fff">34</text>
      <text x="502.8" y="709" font-size="12" font-weight="600" fill="#374151">퍼포먼스·서비스 분야 성장</text>
    
      <text x="45" y="754" font-size="14" font-weight="700" fill="#6b7280">15</text>
      <text x="90" y="754" font-size="16" font-weight="800" fill="#d97706">ISFP</text>
      <rect x="210" y="735" width="246" height="26" rx="13" fill="#f59e0b" opacity="0.92"/>
      <text x="444" y="753" text-anchor="end" font-size="13" font-weight="800" fill="#fff">30</text>
      <text x="470" y="753" font-size="12" font-weight="600" fill="#374151">크리에이터·공예 슬로우 빌드</text>
    
      <text x="45" y="798" font-size="14" font-weight="700" fill="#6b7280">16</text>
      <text x="90" y="798" font-size="16" font-weight="800" fill="#e11d48">INFP</text>
      <rect x="210" y="779" width="213.20000000000002" height="26" rx="13" fill="#f59e0b" opacity="0.92"/>
      <text x="411.20000000000005" y="797" text-anchor="end" font-size="13" font-weight="800" fill="#fff">26</text>
      <text x="437.20000000000005" y="797" font-size="12" font-weight="600" fill="#374151">의미 중심 → 금전 후순위 선택</text>
    

  <g transform="translate(260, 825)">
    
      <rect x="0" y="0" width="14" height="14" rx="3" fill="#22c55e"/>
      <text x="22" y="12" font-size="11" font-weight="700" fill="#374151">급상승 80+</text>
    
      <rect x="140" y="0" width="14" height="14" rx="3" fill="#84cc16"/>
      <text x="162" y="12" font-size="11" font-weight="700" fill="#374151">성장 60~79</text>
    
      <rect x="280" y="0" width="14" height="14" rx="3" fill="#eab308"/>
      <text x="302" y="12" font-size="11" font-weight="700" fill="#374151">안정 40~59</text>
    
      <rect x="420" y="0" width="14" height="14" rx="3" fill="#f59e0b"/>
      <text x="442" y="12" font-size="11" font-weight="700" fill="#374151">슬로우 25~39</text>
    
      <rect x="560" y="0" width="14" height="14" rx="3" fill="#f87171"/>
      <text x="582" y="12" font-size="11" font-weight="700" fill="#374151">비금전형 ~24</text>
    
  </g>
  
<text x="1180" y="892" text-anchor="end" font-size="10" font-weight="500" fill="#9ca3af" opacity="0.85">192types.co.kr · 커리어 리포트</text>
</svg>