<?xml version="1.0" encoding="UTF-8"?>
<svg xmlns="http://www.w3.org/2000/svg" viewBox="0 0 1200 900" width="1200" height="900" font-family="'Pretendard', 'Apple SD Gothic Neo', 'Noto Sans KR', system-ui, sans-serif">
<rect width="1200" height="900" fill="#fafafa"/>

  <defs>
    <radialGradient id="hG" cx="50%" cy="50%" r="70%">
      <stop offset="0%" stop-color="#fff"/>
      <stop offset="100%" stop-color="#eff6ff"/>
    </radialGradient>
  </defs>
  <rect width="1200" height="900" fill="url(#hG)"/>

  <!-- Success graph bars in background -->
  
    <rect x="140" y="680" width="56" height="120" rx="6" fill="#0891b2" opacity="0.3"/>
    <rect x="140" y="680" width="56" height="120" rx="6" fill="#0891b2" opacity="0.7" stroke="#0891b2" stroke-width="2"/>
    <text x="168" y="670" text-anchor="middle" font-size="12" font-weight="800" fill="#0891b2">ENTJ</text>
  
    <rect x="220" y="640" width="56" height="160" rx="6" fill="#0e7490" opacity="0.3"/>
    <rect x="220" y="640" width="56" height="160" rx="6" fill="#0e7490" opacity="0.7" stroke="#0e7490" stroke-width="2"/>
    <text x="248" y="630" text-anchor="middle" font-size="12" font-weight="800" fill="#0e7490">INTJ</text>
  
    <rect x="300" y="660" width="56" height="140" rx="6" fill="#059669" opacity="0.3"/>
    <rect x="300" y="660" width="56" height="140" rx="6" fill="#059669" opacity="0.7" stroke="#059669" stroke-width="2"/>
    <text x="328" y="650" text-anchor="middle" font-size="12" font-weight="800" fill="#059669">ESTJ</text>
  
    <rect x="900" y="700" width="56" height="100" rx="6" fill="#f43f5e" opacity="0.3"/>
    <rect x="900" y="700" width="56" height="100" rx="6" fill="#f43f5e" opacity="0.7" stroke="#f43f5e" stroke-width="2"/>
    <text x="928" y="690" text-anchor="middle" font-size="12" font-weight="800" fill="#f43f5e">ENFP</text>
  
    <rect x="980" y="720" width="56" height="80" rx="6" fill="#e11d48" opacity="0.3"/>
    <rect x="980" y="720" width="56" height="80" rx="6" fill="#e11d48" opacity="0.7" stroke="#e11d48" stroke-width="2"/>
    <text x="1008" y="710" text-anchor="middle" font-size="12" font-weight="800" fill="#e11d48">INFP</text>
  
    <rect x="1060" y="680" width="56" height="120" rx="6" fill="#be123c" opacity="0.3"/>
    <rect x="1060" y="680" width="56" height="120" rx="6" fill="#be123c" opacity="0.7" stroke="#be123c" stroke-width="2"/>
    <text x="1088" y="670" text-anchor="middle" font-size="12" font-weight="800" fill="#be123c">INFJ</text>
  

  <!-- Upward arrows -->
  <text x="420" y="300" font-size="50" opacity="0.15">📈</text>
  <text x="780" y="280" font-size="45" opacity="0.15">💼</text>
  <text x="450" y="620" font-size="40" opacity="0.15">⭐</text>

  <!-- Center card -->
  <rect x="290" y="230" width="620" height="340" rx="28" fill="#ffffff" stroke="#e5e7eb"/>
  <text x="600" y="285" text-anchor="middle" font-size="16" font-weight="600" fill="#6b7280" letter-spacing="8">CAREER SUCCESS · 2026</text>
  <text x="600" y="355" text-anchor="middle" font-size="42" font-weight="800" fill="#171717">MBTI 커리어 성공률</text>
  <text x="600" y="398" text-anchor="middle" font-size="22" font-weight="700" fill="#0284c7">유형별 연봉 상승 속도 랭킹</text>
  <line x1="460" y1="428" x2="740" y2="428" stroke="#e5e7eb"/>
  <text x="600" y="460" text-anchor="middle" font-size="14" font-weight="600" fill="#374151">16유형 × 4기질별 커리어 성장 곡선</text>
  <text x="600" y="488" text-anchor="middle" font-size="13" font-weight="500" fill="#6b7280">연봉 속도 · 직무 적성 · 승진 타이밍 · 이직 패턴</text>
  <text x="600" y="525" text-anchor="middle" font-size="12" font-weight="500" fill="#9ca3af">© 192types · 박서연의 현장 관찰 N=612</text>
  
<text x="1180" y="892" text-anchor="end" font-size="10" font-weight="500" fill="#9ca3af" opacity="0.85">192types.co.kr · 커리어 리포트</text>
</svg>