<?xml version="1.0" encoding="UTF-8"?>
<svg xmlns="http://www.w3.org/2000/svg" viewBox="0 0 1200 900" width="1200" height="900" font-family="'Pretendard', 'Apple SD Gothic Neo', 'Noto Sans KR', system-ui, sans-serif">
<rect width="1200" height="900" fill="#fafafa"/>

  <text x="600" y="50" text-anchor="middle" font-size="28" font-weight="800" fill="#171717">MBTI 승진 &amp; 이직 4대 패턴</text>
  <text x="600" y="78" text-anchor="middle" font-size="13" font-weight="500" fill="#6b7280">네 성장 패턴을 알면 언제 이직/승진을 노려야 하는지 보여</text>

  
      <g transform="translate(60,115)">
        <rect width="520" height="340" rx="18" fill="#ffffff" stroke="#e5e7eb"/>
        <rect width="8" height="340" rx="4" fill="#22c55e"/>
        <text x="28" y="42" font-size="20" font-weight="800" fill="#22c55e">🚀 빠른 내부 승진</text>
        <text x="28" y="66" font-size="12" font-weight="600" fill="#6b7280">ENTJ · ESTJ · ENFJ</text>
        <text x="28" y="90" font-size="12" font-weight="700" fill="#374151">· 3~5년차 첫 승진 · 10년 내 팀장급</text>
        
          <g transform="translate(28, 125)">
            <circle cx="8" cy="0" r="7" fill="#22c55e" opacity="0.25"/>
            <text x="8" y="4" text-anchor="middle" font-size="10" font-weight="800" fill="#22c55e">1</text>
            <text x="26" y="4" font-size="13" font-weight="600" fill="#374151">조직 정치에 능하고 상사 신뢰 확보 빠름</text>
          </g>
        
          <g transform="translate(28, 169)">
            <circle cx="8" cy="0" r="7" fill="#22c55e" opacity="0.25"/>
            <text x="8" y="4" text-anchor="middle" font-size="10" font-weight="800" fill="#22c55e">2</text>
            <text x="26" y="4" font-size="13" font-weight="600" fill="#374151">가시적 성과 지표를 잘 관리</text>
          </g>
        
          <g transform="translate(28, 213)">
            <circle cx="8" cy="0" r="7" fill="#22c55e" opacity="0.25"/>
            <text x="8" y="4" text-anchor="middle" font-size="10" font-weight="800" fill="#22c55e">3</text>
            <text x="26" y="4" font-size="13" font-weight="600" fill="#374151">승진 타이밍에 자기 PR 적극적</text>
          </g>
        
          <g transform="translate(28, 257)">
            <circle cx="8" cy="0" r="7" fill="#22c55e" opacity="0.25"/>
            <text x="8" y="4" text-anchor="middle" font-size="10" font-weight="800" fill="#22c55e">4</text>
            <text x="26" y="4" font-size="13" font-weight="600" fill="#374151">이직보다 내부 사다리가 유리</text>
          </g>
        
      </g>
    
      <g transform="translate(620,115)">
        <rect width="520" height="340" rx="18" fill="#ffffff" stroke="#e5e7eb"/>
        <rect width="8" height="340" rx="4" fill="#0284c7"/>
        <text x="28" y="42" font-size="20" font-weight="800" fill="#0284c7">🎯 전략적 이직 점프</text>
        <text x="28" y="66" font-size="12" font-weight="600" fill="#6b7280">INTJ · ENTP · ESTP · INTP</text>
        <text x="28" y="90" font-size="12" font-weight="700" fill="#374151">· 3~4년 주기 이직 · 연봉 20~40% 점프</text>
        
          <g transform="translate(28, 125)">
            <circle cx="8" cy="0" r="7" fill="#0284c7" opacity="0.25"/>
            <text x="8" y="4" text-anchor="middle" font-size="10" font-weight="800" fill="#0284c7">1</text>
            <text x="26" y="4" font-size="13" font-weight="600" fill="#374151">시장 가치 데이터 기반 협상</text>
          </g>
        
          <g transform="translate(28, 169)">
            <circle cx="8" cy="0" r="7" fill="#0284c7" opacity="0.25"/>
            <text x="8" y="4" text-anchor="middle" font-size="10" font-weight="800" fill="#0284c7">2</text>
            <text x="26" y="4" font-size="13" font-weight="600" fill="#374151">이직 전 6개월 포트폴리오 빌드</text>
          </g>
        
          <g transform="translate(28, 213)">
            <circle cx="8" cy="0" r="7" fill="#0284c7" opacity="0.25"/>
            <text x="8" y="4" text-anchor="middle" font-size="10" font-weight="800" fill="#0284c7">3</text>
            <text x="26" y="4" font-size="13" font-weight="600" fill="#374151">업계 네트워크로 숨은 포지션 포착</text>
          </g>
        
          <g transform="translate(28, 257)">
            <circle cx="8" cy="0" r="7" fill="#0284c7" opacity="0.25"/>
            <text x="8" y="4" text-anchor="middle" font-size="10" font-weight="800" fill="#0284c7">4</text>
            <text x="26" y="4" font-size="13" font-weight="600" fill="#374151">한 회사 최대 5년 원칙</text>
          </g>
        
      </g>
    
      <g transform="translate(60,490)">
        <rect width="520" height="340" rx="18" fill="#ffffff" stroke="#e5e7eb"/>
        <rect width="8" height="340" rx="4" fill="#eab308"/>
        <text x="28" y="42" font-size="20" font-weight="800" fill="#eab308">🛠 전문성 프리미엄</text>
        <text x="28" y="66" font-size="12" font-weight="600" fill="#6b7280">ISTP · INTP · ISTJ · INFJ</text>
        <text x="28" y="90" font-size="12" font-weight="700" fill="#374151">· 10~15년차 전문가 프리미엄 발동</text>
        
          <g transform="translate(28, 125)">
            <circle cx="8" cy="0" r="7" fill="#eab308" opacity="0.25"/>
            <text x="8" y="4" text-anchor="middle" font-size="10" font-weight="800" fill="#eab308">1</text>
            <text x="26" y="4" font-size="13" font-weight="600" fill="#374151">특정 분야 10년+ 깊이 축적</text>
          </g>
        
          <g transform="translate(28, 169)">
            <circle cx="8" cy="0" r="7" fill="#eab308" opacity="0.25"/>
            <text x="8" y="4" text-anchor="middle" font-size="10" font-weight="800" fill="#eab308">2</text>
            <text x="26" y="4" font-size="13" font-weight="600" fill="#374151">자격증 · 저술 · 강연으로 권위 축적</text>
          </g>
        
          <g transform="translate(28, 213)">
            <circle cx="8" cy="0" r="7" fill="#eab308" opacity="0.25"/>
            <text x="8" y="4" text-anchor="middle" font-size="10" font-weight="800" fill="#eab308">3</text>
            <text x="26" y="4" font-size="13" font-weight="600" fill="#374151">프리랜서/컨설팅 전환 시기 포착</text>
          </g>
        
          <g transform="translate(28, 257)">
            <circle cx="8" cy="0" r="7" fill="#eab308" opacity="0.25"/>
            <text x="8" y="4" text-anchor="middle" font-size="10" font-weight="800" fill="#eab308">4</text>
            <text x="26" y="4" font-size="13" font-weight="600" fill="#374151">이직보다 독립이 레버리지</text>
          </g>
        
      </g>
    
      <g transform="translate(620,490)">
        <rect width="520" height="340" rx="18" fill="#ffffff" stroke="#e5e7eb"/>
        <rect width="8" height="340" rx="4" fill="#84cc16"/>
        <text x="28" y="42" font-size="20" font-weight="800" fill="#84cc16">🌱 느린 누적 + 후반 폭발</text>
        <text x="28" y="66" font-size="12" font-weight="600" fill="#6b7280">ISFJ · ENFP · INFP · ISFP · ESFP</text>
        <text x="28" y="90" font-size="12" font-weight="700" fill="#374151">· 15년+ 안정 누적 → 40대 터닝포인트</text>
        
          <g transform="translate(28, 125)">
            <circle cx="8" cy="0" r="7" fill="#84cc16" opacity="0.25"/>
            <text x="8" y="4" text-anchor="middle" font-size="10" font-weight="800" fill="#84cc16">1</text>
            <text x="26" y="4" font-size="13" font-weight="600" fill="#374151">초중기 연봉보다 의미·환경 우선</text>
          </g>
        
          <g transform="translate(28, 169)">
            <circle cx="8" cy="0" r="7" fill="#84cc16" opacity="0.25"/>
            <text x="8" y="4" text-anchor="middle" font-size="10" font-weight="800" fill="#84cc16">2</text>
            <text x="26" y="4" font-size="13" font-weight="600" fill="#374151">번아웃 방지 루틴이 최대 자산</text>
          </g>
        
          <g transform="translate(28, 213)">
            <circle cx="8" cy="0" r="7" fill="#84cc16" opacity="0.25"/>
            <text x="8" y="4" text-anchor="middle" font-size="10" font-weight="800" fill="#84cc16">3</text>
            <text x="26" y="4" font-size="13" font-weight="600" fill="#374151">40대 자기 브랜드 구축 → 폭발</text>
          </g>
        
          <g transform="translate(28, 257)">
            <circle cx="8" cy="0" r="7" fill="#84cc16" opacity="0.25"/>
            <text x="8" y="4" text-anchor="middle" font-size="10" font-weight="800" fill="#84cc16">4</text>
            <text x="26" y="4" font-size="13" font-weight="600" fill="#374151">창업/콘텐츠/강의로 2모작 성공</text>
          </g>
        
      </g>
    
  
<text x="1180" y="892" text-anchor="end" font-size="10" font-weight="500" fill="#9ca3af" opacity="0.85">192types.co.kr · 커리어 리포트</text>
</svg>