<?xml version="1.0" encoding="UTF-8"?>
<svg xmlns="http://www.w3.org/2000/svg" viewBox="0 0 1200 900" width="1200" height="900" font-family="'Pretendard', 'Apple SD Gothic Neo', 'Noto Sans KR', system-ui, sans-serif">
<rect width="1200" height="900" fill="#faf8f5"/>

  <rect x="0" y="0" width="1200" height="140" fill="#ec4899"/>
  <text x="600" y="70" text-anchor="middle" font-size="28" font-weight="700" fill="#ffffff" opacity="0.85" letter-spacing="6">MATRIX</text>
  <text x="600" y="115" text-anchor="middle" font-size="40" font-weight="900" fill="#ffffff">4가지 고백 DNA 모드</text>

  
      <g transform="translate(60, 175)">
        <rect x="0" y="0" width="1080" height="115" rx="20" fill="#ffffff" stroke="#e5e7eb" stroke-width="2"/>
        <rect x="0" y="0" width="12" height="115" rx="6 0 0 6" fill="#ec4899"/>

        <text x="40" y="62" font-size="52">🏹</text>

        <text x="125" y="48" font-size="30" font-weight="900" fill="#1a1a1a">직진형 — ENTJ · ESTP · ESTJ · ENTP</text>
        <text x="125" y="82" font-size="22" font-weight="600" fill="#4b5563">의심 없이 빠르게 제안</text>
      </g>
    
      <g transform="translate(60, 310)">
        <rect x="0" y="0" width="1080" height="115" rx="20" fill="#ffffff" stroke="#e5e7eb" stroke-width="2"/>
        <rect x="0" y="0" width="12" height="115" rx="6 0 0 6" fill="#ec4899"/>

        <text x="40" y="62" font-size="52">🌸</text>

        <text x="125" y="48" font-size="30" font-weight="900" fill="#1a1a1a">편지형 — INFJ · INFP · ENFJ · ENFP</text>
        <text x="125" y="82" font-size="22" font-weight="600" fill="#4b5563">글로 마음 정리 후 전달</text>
      </g>
    
      <g transform="translate(60, 445)">
        <rect x="0" y="0" width="1080" height="115" rx="20" fill="#ffffff" stroke="#e5e7eb" stroke-width="2"/>
        <rect x="0" y="0" width="12" height="115" rx="6 0 0 6" fill="#ec4899"/>

        <text x="40" y="62" font-size="52">🎁</text>

        <text x="125" y="48" font-size="30" font-weight="900" fill="#1a1a1a">행동형 — ISTP · ISFP · ESFP · ISTJ</text>
        <text x="125" y="82" font-size="22" font-weight="600" fill="#4b5563">말보다 행동으로 먼저</text>
      </g>
    
      <g transform="translate(60, 580)">
        <rect x="0" y="0" width="1080" height="115" rx="20" fill="#ffffff" stroke="#e5e7eb" stroke-width="2"/>
        <rect x="0" y="0" width="12" height="115" rx="6 0 0 6" fill="#ec4899"/>

        <text x="40" y="62" font-size="52">🌙</text>

        <text x="125" y="48" font-size="30" font-weight="900" fill="#1a1a1a">잠수형 — INTJ · INTP · ISFJ · ESFJ</text>
        <text x="125" y="82" font-size="22" font-weight="600" fill="#4b5563">간접 신호만 · 직접 고백 회피</text>
      </g>
    
  
<text x="1180" y="892" text-anchor="end" font-size="14" font-weight="600" fill="#9ca3af" opacity="0.85">192types.co.kr · 고백 리포트</text>
</svg>