<?xml version="1.0" encoding="UTF-8"?>
<svg xmlns="http://www.w3.org/2000/svg" viewBox="0 0 1200 900" width="1200" height="900" font-family="'Pretendard', 'Apple SD Gothic Neo', 'Noto Sans KR', system-ui, sans-serif">
<rect width="1200" height="900" fill="#fafafa"/>

  <text x="600" y="45" text-anchor="middle" font-size="30" font-weight="800" fill="#171717">다이어트 동기부여 4분면</text>
  <text x="600" y="72" text-anchor="middle" font-size="13" font-weight="500" fill="#6b7280">가로 = 보상 시점(내부 ↔ 외부), 세로 = 동기원(즉시 ↔ 장기)</text>

  <line x1="600" y1="100" x2="600" y2="800" stroke="#d1d5db" stroke-width="2" stroke-dasharray="8,6"/>
  <line x1="120" y1="450" x2="1080" y2="450" stroke="#d1d5db" stroke-width="2" stroke-dasharray="8,6"/>

  <text x="600" y="93" text-anchor="middle" font-size="14" font-weight="800" fill="#0891b2">즉시 보상 (3일~1주)</text>
  <text x="600" y="820" text-anchor="middle" font-size="14" font-weight="800" fill="#0891b2">장기 보상 (3~6개월)</text>
  <text x="130" y="455" font-size="14" font-weight="800" fill="#6b7280">내부 동기</text>
  <text x="970" y="455" font-size="14" font-weight="800" fill="#6b7280">외부 동기</text>

  <rect x="120" y="100" width="480" height="350" fill="#fff1f2" opacity="0.3"/>
  <rect x="600" y="100" width="480" height="350" fill="#fffbeb" opacity="0.3"/>
  <rect x="120" y="450" width="480" height="350" fill="#ecfeff" opacity="0.3"/>
  <rect x="600" y="450" width="480" height="350" fill="#ecfdf5" opacity="0.3"/>

  
      <circle cx="850" cy="220" r="30" fill="#d97706" opacity="0.18"/>
      <circle cx="850" cy="220" r="24" fill="#d97706" opacity="0.85" stroke="#fff" stroke-width="2"/>
      <text x="850" y="224" text-anchor="middle" font-size="11" font-weight="900" fill="#fff">ESTP</text>
    
      <circle cx="870" cy="270" r="30" fill="#d97706" opacity="0.18"/>
      <circle cx="870" cy="270" r="24" fill="#d97706" opacity="0.85" stroke="#fff" stroke-width="2"/>
      <text x="870" y="274" text-anchor="middle" font-size="11" font-weight="900" fill="#fff">ESFP</text>
    
      <circle cx="850" cy="560" r="30" fill="#059669" opacity="0.18"/>
      <circle cx="850" cy="560" r="24" fill="#059669" opacity="0.85" stroke="#fff" stroke-width="2"/>
      <text x="850" y="564" text-anchor="middle" font-size="11" font-weight="900" fill="#fff">ESTJ</text>
    
      <circle cx="880" cy="620" r="30" fill="#0891b2" opacity="0.18"/>
      <circle cx="880" cy="620" r="24" fill="#0891b2" opacity="0.85" stroke="#fff" stroke-width="2"/>
      <text x="880" y="624" text-anchor="middle" font-size="11" font-weight="900" fill="#fff">ENTJ</text>
    
      <circle cx="780" cy="250" r="30" fill="#d97706" opacity="0.18"/>
      <circle cx="780" cy="250" r="24" fill="#d97706" opacity="0.85" stroke="#fff" stroke-width="2"/>
      <text x="780" y="254" text-anchor="middle" font-size="11" font-weight="900" fill="#fff">ISTP</text>
    
      <circle cx="800" cy="290" r="30" fill="#d97706" opacity="0.18"/>
      <circle cx="800" cy="290" r="24" fill="#d97706" opacity="0.85" stroke="#fff" stroke-width="2"/>
      <text x="800" y="294" text-anchor="middle" font-size="11" font-weight="900" fill="#fff">ISFP</text>
    
      <circle cx="780" cy="580" r="30" fill="#059669" opacity="0.18"/>
      <circle cx="780" cy="580" r="24" fill="#059669" opacity="0.85" stroke="#fff" stroke-width="2"/>
      <text x="780" y="584" text-anchor="middle" font-size="11" font-weight="900" fill="#fff">ISTJ</text>
    
      <circle cx="810" cy="640" r="30" fill="#0891b2" opacity="0.18"/>
      <circle cx="810" cy="640" r="24" fill="#0891b2" opacity="0.85" stroke="#fff" stroke-width="2"/>
      <text x="810" y="644" text-anchor="middle" font-size="11" font-weight="900" fill="#fff">INTJ</text>
    
      <circle cx="340" cy="230" r="30" fill="#e11d48" opacity="0.18"/>
      <circle cx="340" cy="230" r="24" fill="#e11d48" opacity="0.85" stroke="#fff" stroke-width="2"/>
      <text x="340" y="234" text-anchor="middle" font-size="11" font-weight="900" fill="#fff">ENFP</text>
    
      <circle cx="320" cy="290" r="30" fill="#059669" opacity="0.18"/>
      <circle cx="320" cy="290" r="24" fill="#059669" opacity="0.85" stroke="#fff" stroke-width="2"/>
      <text x="320" y="294" text-anchor="middle" font-size="11" font-weight="900" fill="#fff">ESFJ</text>
    
      <circle cx="310" cy="560" r="30" fill="#e11d48" opacity="0.18"/>
      <circle cx="310" cy="560" r="24" fill="#e11d48" opacity="0.85" stroke="#fff" stroke-width="2"/>
      <text x="310" y="564" text-anchor="middle" font-size="11" font-weight="900" fill="#fff">ENFJ</text>
    
      <circle cx="350" cy="640" r="30" fill="#0891b2" opacity="0.18"/>
      <circle cx="350" cy="640" r="24" fill="#0891b2" opacity="0.85" stroke="#fff" stroke-width="2"/>
      <text x="350" y="644" text-anchor="middle" font-size="11" font-weight="900" fill="#fff">ENTP</text>
    
      <circle cx="260" cy="260" r="30" fill="#e11d48" opacity="0.18"/>
      <circle cx="260" cy="260" r="24" fill="#e11d48" opacity="0.85" stroke="#fff" stroke-width="2"/>
      <text x="260" y="264" text-anchor="middle" font-size="11" font-weight="900" fill="#fff">INFP</text>
    
      <circle cx="230" cy="320" r="30" fill="#059669" opacity="0.18"/>
      <circle cx="230" cy="320" r="24" fill="#059669" opacity="0.85" stroke="#fff" stroke-width="2"/>
      <text x="230" y="324" text-anchor="middle" font-size="11" font-weight="900" fill="#fff">ISFJ</text>
    
      <circle cx="220" cy="580" r="30" fill="#e11d48" opacity="0.18"/>
      <circle cx="220" cy="580" r="24" fill="#e11d48" opacity="0.85" stroke="#fff" stroke-width="2"/>
      <text x="220" y="584" text-anchor="middle" font-size="11" font-weight="900" fill="#fff">INFJ</text>
    
      <circle cx="270" cy="650" r="30" fill="#0891b2" opacity="0.18"/>
      <circle cx="270" cy="650" r="24" fill="#0891b2" opacity="0.85" stroke="#fff" stroke-width="2"/>
      <text x="270" y="654" text-anchor="middle" font-size="11" font-weight="900" fill="#fff">INTP</text>
    

  <!-- Quadrant labels -->
  <text x="240" y="150" font-size="13" font-weight="800" fill="#e11d48">감정 · 기분 즉시 보상</text>
  <text x="720" y="150" font-size="13" font-weight="800" fill="#d97706">사회적 인정 · SNS</text>
  <text x="240" y="790" font-size="13" font-weight="800" fill="#0891b2">건강 · 자기성장</text>
  <text x="720" y="790" font-size="13" font-weight="800" fill="#059669">목표 달성 · 수치</text>
  
<text x="1180" y="892" text-anchor="end" font-size="10" font-weight="500" fill="#9ca3af" opacity="0.85">192types.co.kr · 다이어트 리포트</text>
</svg>