<?xml version="1.0" encoding="UTF-8"?>
<svg xmlns="http://www.w3.org/2000/svg" viewBox="0 0 1200 900" width="1200" height="900" font-family="'Pretendard', 'Apple SD Gothic Neo', 'Noto Sans KR', system-ui, sans-serif">
<rect width="1200" height="900" fill="#fafafa"/>

  <text x="600" y="50" text-anchor="middle" font-size="30" font-weight="800" fill="#171717">4가지 다이어트 DNA — 네 유형 접근법</text>
  <text x="600" y="80" text-anchor="middle" font-size="14" font-weight="500" fill="#6b7280">기질별 다이어트 최적화 전략 · 스프린트 / 루틴 / 게임 / 의미</text>

  
      <g transform="translate(60, 115)">
        <rect width="520" height="360" rx="20" fill="#ffffff" stroke="#e5e7eb"/>
        <rect width="8" height="360" rx="4" fill="#0891b2"/>
        <text x="30" y="45" font-size="24" font-weight="900" fill="#0891b2">⚡ 스프린트 다이어트</text>
        <text x="30" y="72" font-size="13" font-weight="700" fill="#6b7280">ENTJ · ESTJ · ENTP · ESTP</text>

        <rect x="30" y="88" width="460" height="40" rx="12" fill="#0891b2" opacity="0.1"/>
        <text x="45" y="113" font-size="13" font-weight="700" fill="#0891b2">고강도 + 단기 목표 + 수치 경쟁</text>

        
          <g transform="translate(30, 160)">
            <circle cx="10" cy="0" r="11" fill="#0891b2" opacity="0.2"/>
            <text x="10" y="5" text-anchor="middle" font-size="12" font-weight="900" fill="#0891b2">1</text>
            <text x="32" y="5" font-size="13" font-weight="600" fill="#374151">월 목표: -3kg 같은 명확 수치</text>
          </g>
        
          <g transform="translate(30, 205)">
            <circle cx="10" cy="0" r="11" fill="#0891b2" opacity="0.2"/>
            <text x="10" y="5" text-anchor="middle" font-size="12" font-weight="900" fill="#0891b2">2</text>
            <text x="32" y="5" font-size="13" font-weight="600" fill="#374151">고강도 운동 · 케톤·간헐적 단식 선호</text>
          </g>
        
          <g transform="translate(30, 250)">
            <circle cx="10" cy="0" r="11" fill="#0891b2" opacity="0.2"/>
            <text x="10" y="5" text-anchor="middle" font-size="12" font-weight="900" fill="#0891b2">3</text>
            <text x="32" y="5" font-size="13" font-weight="600" fill="#374151">결과 미달성 시 더 공격적 세팅</text>
          </g>
        
          <g transform="translate(30, 295)">
            <circle cx="10" cy="0" r="11" fill="#0891b2" opacity="0.2"/>
            <text x="10" y="5" text-anchor="middle" font-size="12" font-weight="900" fill="#0891b2">4</text>
            <text x="32" y="5" font-size="13" font-weight="600" fill="#374151">성공 후 유지 전략 설계 필수</text>
          </g>
        
      </g>
    
      <g transform="translate(620, 115)">
        <rect width="520" height="360" rx="20" fill="#ffffff" stroke="#e5e7eb"/>
        <rect width="8" height="360" rx="4" fill="#059669"/>
        <text x="30" y="45" font-size="24" font-weight="900" fill="#059669">🌾 루틴 다이어트</text>
        <text x="30" y="72" font-size="13" font-weight="700" fill="#6b7280">ISTJ · ISFJ · ESTJ · ESFJ</text>

        <rect x="30" y="88" width="460" height="40" rx="12" fill="#059669" opacity="0.1"/>
        <text x="45" y="113" font-size="13" font-weight="700" fill="#059669">저강도 + 장기 지속 + 습관화</text>

        
          <g transform="translate(30, 160)">
            <circle cx="10" cy="0" r="11" fill="#059669" opacity="0.2"/>
            <text x="10" y="5" text-anchor="middle" font-size="12" font-weight="900" fill="#059669">1</text>
            <text x="32" y="5" font-size="13" font-weight="600" fill="#374151">월 목표: -1~2kg 현실적</text>
          </g>
        
          <g transform="translate(30, 205)">
            <circle cx="10" cy="0" r="11" fill="#059669" opacity="0.2"/>
            <text x="10" y="5" text-anchor="middle" font-size="12" font-weight="900" fill="#059669">2</text>
            <text x="32" y="5" font-size="13" font-weight="600" fill="#374151">같은 시간·같은 장소 루틴 고정</text>
          </g>
        
          <g transform="translate(30, 250)">
            <circle cx="10" cy="0" r="11" fill="#059669" opacity="0.2"/>
            <text x="10" y="5" text-anchor="middle" font-size="12" font-weight="900" fill="#059669">3</text>
            <text x="32" y="5" font-size="13" font-weight="600" fill="#374151">식단도 반복 3~5가지만 돌림</text>
          </g>
        
          <g transform="translate(30, 295)">
            <circle cx="10" cy="0" r="11" fill="#059669" opacity="0.2"/>
            <text x="10" y="5" text-anchor="middle" font-size="12" font-weight="900" fill="#059669">4</text>
            <text x="32" y="5" font-size="13" font-weight="600" fill="#374151">기록·자격 취득(요가 등) 동기</text>
          </g>
        
      </g>
    
      <g transform="translate(60, 510)">
        <rect width="520" height="360" rx="20" fill="#ffffff" stroke="#e5e7eb"/>
        <rect width="8" height="360" rx="4" fill="#d97706"/>
        <text x="30" y="45" font-size="24" font-weight="900" fill="#d97706">🎮 게임화 다이어트</text>
        <text x="30" y="72" font-size="13" font-weight="700" fill="#6b7280">ESTP · ESFP · ISTP · ISFP</text>

        <rect x="30" y="88" width="460" height="40" rx="12" fill="#d97706" opacity="0.1"/>
        <text x="45" y="113" font-size="13" font-weight="700" fill="#d97706">재미 + 도전 + 사회성 활용</text>

        
          <g transform="translate(30, 160)">
            <circle cx="10" cy="0" r="11" fill="#d97706" opacity="0.2"/>
            <text x="10" y="5" text-anchor="middle" font-size="12" font-weight="900" fill="#d97706">1</text>
            <text x="32" y="5" font-size="13" font-weight="600" fill="#374151">크로스핏·PT 그룹·런닝 크루</text>
          </g>
        
          <g transform="translate(30, 205)">
            <circle cx="10" cy="0" r="11" fill="#d97706" opacity="0.2"/>
            <text x="10" y="5" text-anchor="middle" font-size="12" font-weight="900" fill="#d97706">2</text>
            <text x="32" y="5" font-size="13" font-weight="600" fill="#374151">체중보다 퍼포먼스 목표 (5km 완주)</text>
          </g>
        
          <g transform="translate(30, 250)">
            <circle cx="10" cy="0" r="11" fill="#d97706" opacity="0.2"/>
            <text x="10" y="5" text-anchor="middle" font-size="12" font-weight="900" fill="#d97706">3</text>
            <text x="32" y="5" font-size="13" font-weight="600" fill="#374151">지루하면 종목 전환 OK</text>
          </g>
        
          <g transform="translate(30, 295)">
            <circle cx="10" cy="0" r="11" fill="#d97706" opacity="0.2"/>
            <text x="10" y="5" text-anchor="middle" font-size="12" font-weight="900" fill="#d97706">4</text>
            <text x="32" y="5" font-size="13" font-weight="600" fill="#374151">성과 공유로 동기 유지</text>
          </g>
        
      </g>
    
      <g transform="translate(620, 510)">
        <rect width="520" height="360" rx="20" fill="#ffffff" stroke="#e5e7eb"/>
        <rect width="8" height="360" rx="4" fill="#f43f5e"/>
        <text x="30" y="45" font-size="24" font-weight="900" fill="#f43f5e">💖 의미 다이어트</text>
        <text x="30" y="72" font-size="13" font-weight="700" fill="#6b7280">ENFP · INFP · ENFJ · INFJ</text>

        <rect x="30" y="88" width="460" height="40" rx="12" fill="#f43f5e" opacity="0.1"/>
        <text x="45" y="113" font-size="13" font-weight="700" fill="#f43f5e">가치 + 감정 + 몸 돌봄</text>

        
          <g transform="translate(30, 160)">
            <circle cx="10" cy="0" r="11" fill="#f43f5e" opacity="0.2"/>
            <text x="10" y="5" text-anchor="middle" font-size="12" font-weight="900" fill="#f43f5e">1</text>
            <text x="32" y="5" font-size="13" font-weight="600" fill="#374151">"건강한 나" 이상 이미지 설정</text>
          </g>
        
          <g transform="translate(30, 205)">
            <circle cx="10" cy="0" r="11" fill="#f43f5e" opacity="0.2"/>
            <text x="10" y="5" text-anchor="middle" font-size="12" font-weight="900" fill="#f43f5e">2</text>
            <text x="32" y="5" font-size="13" font-weight="600" fill="#374151">감정 폭식 인식 + 대체 루틴</text>
          </g>
        
          <g transform="translate(30, 250)">
            <circle cx="10" cy="0" r="11" fill="#f43f5e" opacity="0.2"/>
            <text x="10" y="5" text-anchor="middle" font-size="12" font-weight="900" fill="#f43f5e">3</text>
            <text x="32" y="5" font-size="13" font-weight="600" fill="#374151">같이 하는 파트너 존재 필수</text>
          </g>
        
          <g transform="translate(30, 295)">
            <circle cx="10" cy="0" r="11" fill="#f43f5e" opacity="0.2"/>
            <text x="10" y="5" text-anchor="middle" font-size="12" font-weight="900" fill="#f43f5e">4</text>
            <text x="32" y="5" font-size="13" font-weight="600" fill="#374151">느린 변화 수용 + 자기 용서</text>
          </g>
        
      </g>
    
  
<text x="1180" y="892" text-anchor="end" font-size="10" font-weight="500" fill="#9ca3af" opacity="0.85">192types.co.kr · 다이어트 리포트</text>
</svg>