<?xml version="1.0" encoding="UTF-8"?>
<svg xmlns="http://www.w3.org/2000/svg" viewBox="0 0 1200 900" width="1200" height="900" font-family="'Pretendard', 'Apple SD Gothic Neo', 'Noto Sans KR', system-ui, sans-serif">
<rect width="1200" height="900" fill="#faf8f5"/>

  <rect width="1200" height="900" fill="#faf8f5"/>
  <rect x="0" y="0" width="1200" height="150" fill="#fee2e2"/>
  <text x="600" y="70" text-anchor="middle" font-size="40" font-weight="900" fill="#dc2626">⛔ 술자리 절대 피해야 할 5가지</text>
  <text x="600" y="115" text-anchor="middle" font-size="24" font-weight="700" fill="#4b5563">MBTI 불문 — 관계 박살나는 행동 TOP 5</text>

  
      <g transform="translate(60, 200)">
        <rect x="0" y="0" width="520" height="160" rx="20" fill="#ffffff" stroke="#dc2626" stroke-width="3"/>
        <g transform="translate(50, 80)">
          <circle cx="0" cy="0" r="38" fill="#dc2626"/>
          <text x="0" y="15" text-anchor="middle" font-size="44" font-weight="900" fill="#ffffff">✕</text>
        </g>
        <text x="110" y="48" font-size="20" font-weight="800" fill="#dc2626" opacity="0.6">NO. 01</text>
        <text x="110" y="88" font-size="28" font-weight="900" fill="#1a1a1a">전 연인 이야기</text>
        <text x="110" y="125" font-size="21" font-weight="600" fill="#4b5563">INFP·ENFP 눈물 버튼</text>
      </g>
    
      <g transform="translate(620, 200)">
        <rect x="0" y="0" width="520" height="160" rx="20" fill="#ffffff" stroke="#dc2626" stroke-width="3"/>
        <g transform="translate(50, 80)">
          <circle cx="0" cy="0" r="38" fill="#dc2626"/>
          <text x="0" y="15" text-anchor="middle" font-size="44" font-weight="900" fill="#ffffff">✕</text>
        </g>
        <text x="110" y="48" font-size="20" font-weight="800" fill="#dc2626" opacity="0.6">NO. 02</text>
        <text x="110" y="88" font-size="28" font-weight="900" fill="#1a1a1a">정치·종교 논쟁</text>
        <text x="110" y="125" font-size="21" font-weight="600" fill="#4b5563">NT형 각성 모드 돌입</text>
      </g>
    
      <g transform="translate(60, 380)">
        <rect x="0" y="0" width="520" height="160" rx="20" fill="#ffffff" stroke="#dc2626" stroke-width="3"/>
        <g transform="translate(50, 80)">
          <circle cx="0" cy="0" r="38" fill="#dc2626"/>
          <text x="0" y="15" text-anchor="middle" font-size="44" font-weight="900" fill="#ffffff">✕</text>
        </g>
        <text x="110" y="48" font-size="20" font-weight="800" fill="#dc2626" opacity="0.6">NO. 03</text>
        <text x="110" y="88" font-size="28" font-weight="900" fill="#1a1a1a">과거 상처 들추기</text>
        <text x="110" y="125" font-size="21" font-weight="600" fill="#4b5563">NF형 통곡 모드 발동</text>
      </g>
    
      <g transform="translate(620, 380)">
        <rect x="0" y="0" width="520" height="160" rx="20" fill="#ffffff" stroke="#dc2626" stroke-width="3"/>
        <g transform="translate(50, 80)">
          <circle cx="0" cy="0" r="38" fill="#dc2626"/>
          <text x="0" y="15" text-anchor="middle" font-size="44" font-weight="900" fill="#ffffff">✕</text>
        </g>
        <text x="110" y="48" font-size="20" font-weight="800" fill="#dc2626" opacity="0.6">NO. 04</text>
        <text x="110" y="88" font-size="28" font-weight="900" fill="#1a1a1a">반강요 술 권하기</text>
        <text x="110" y="125" font-size="21" font-weight="600" fill="#4b5563">ISTP·INTP 즉시 퇴장</text>
      </g>
    
      <g transform="translate(340, 560)">
        <rect x="0" y="0" width="520" height="160" rx="20" fill="#ffffff" stroke="#dc2626" stroke-width="3"/>
        <g transform="translate(50, 80)">
          <circle cx="0" cy="0" r="38" fill="#dc2626"/>
          <text x="0" y="15" text-anchor="middle" font-size="44" font-weight="900" fill="#ffffff">✕</text>
        </g>
        <text x="110" y="48" font-size="20" font-weight="800" fill="#dc2626" opacity="0.6">NO. 05</text>
        <text x="110" y="88" font-size="28" font-weight="900" fill="#1a1a1a">사진 몰래 찍기</text>
        <text x="110" y="125" font-size="21" font-weight="600" fill="#4b5563">모든 유형 도어슬램</text>
      </g>
    
  
<text x="1180" y="892" text-anchor="end" font-size="14" font-weight="600" fill="#9ca3af" opacity="0.85">192types.co.kr · 술버릇 리포트</text>
</svg>