<?xml version="1.0" encoding="UTF-8"?>
<svg xmlns="http://www.w3.org/2000/svg" viewBox="0 0 1200 900" width="1200" height="900" font-family="'Pretendard', 'Apple SD Gothic Neo', 'Noto Sans KR', system-ui, sans-serif">
<rect width="1200" height="900" fill="#faf8f5"/>

  <rect x="0" y="0" width="1200" height="140" fill="#2c3e50"/>
  <text x="600" y="70" text-anchor="middle" font-size="28" font-weight="700" fill="#fce7f3" letter-spacing="6">RANKING</text>
  <text x="600" y="115" text-anchor="middle" font-size="42" font-weight="900" fill="#ffffff">16유형 취중진담 랭킹</text>

  
      <g transform="translate(60, 180)">
        <rect x="0" y="0" width="1080" height="95" rx="18" fill="#ffffff" stroke="#b45309" stroke-width="2"/>
        <rect x="0" y="0" width="110" height="95" rx="18 0 0 18" fill="#b45309"/>
        <text x="55" y="62" text-anchor="middle" font-size="40" font-weight="900" fill="#ffffff">1</text>

        <text x="140" y="40" font-size="30" font-weight="900" fill="#1a1a1a">ENFP</text>
        <text x="140" y="72" font-size="22" font-weight="600" fill="#4b5563">3잔부터 모두한테 사랑 고백</text>

        
        <g transform="translate(920, 47)">
          <rect x="-65" y="-22" width="130" height="44" rx="22" fill="#b45309" opacity="0.15"/>
          <text x="0" y="8" text-anchor="middle" font-size="18" font-weight="900" fill="#b45309">고백형</text>
        </g>
        
      </g>
    
      <g transform="translate(60, 295)">
        <rect x="0" y="0" width="1080" height="95" rx="18" fill="#ffffff" stroke="#b45309" stroke-width="2"/>
        <rect x="0" y="0" width="110" height="95" rx="18 0 0 18" fill="#b45309"/>
        <text x="55" y="62" text-anchor="middle" font-size="40" font-weight="900" fill="#ffffff">2</text>

        <text x="140" y="40" font-size="30" font-weight="900" fill="#1a1a1a">ESFP</text>
        <text x="140" y="72" font-size="22" font-weight="600" fill="#4b5563">테이블 위에서 댄스 타임</text>

        
        <g transform="translate(920, 47)">
          <rect x="-65" y="-22" width="130" height="44" rx="22" fill="#b45309" opacity="0.15"/>
          <text x="0" y="8" text-anchor="middle" font-size="18" font-weight="900" fill="#b45309">댄스형</text>
        </g>
        
      </g>
    
      <g transform="translate(60, 410)">
        <rect x="0" y="0" width="1080" height="95" rx="18" fill="#ffffff" stroke="#b45309" stroke-width="2"/>
        <rect x="0" y="0" width="110" height="95" rx="18 0 0 18" fill="#b45309"/>
        <text x="55" y="62" text-anchor="middle" font-size="40" font-weight="900" fill="#ffffff">3</text>

        <text x="140" y="40" font-size="30" font-weight="900" fill="#1a1a1a">ENFJ</text>
        <text x="140" y="72" font-size="22" font-weight="600" fill="#4b5563">친구 인생 상담 1시간</text>

        
        <g transform="translate(920, 47)">
          <rect x="-65" y="-22" width="130" height="44" rx="22" fill="#b45309" opacity="0.15"/>
          <text x="0" y="8" text-anchor="middle" font-size="18" font-weight="900" fill="#b45309">상담형</text>
        </g>
        
      </g>
    
      <g transform="translate(60, 525)">
        <rect x="0" y="0" width="1080" height="95" rx="18" fill="#ffffff" stroke="#b45309" stroke-width="2"/>
        <rect x="0" y="0" width="110" height="95" rx="18 0 0 18" fill="#b45309"/>
        <text x="55" y="62" text-anchor="middle" font-size="40" font-weight="900" fill="#ffffff">4</text>

        <text x="140" y="40" font-size="30" font-weight="900" fill="#1a1a1a">INFP</text>
        <text x="140" y="72" font-size="22" font-weight="600" fill="#4b5563">조용히 눈물 흘리며 감상적</text>

        
        <g transform="translate(920, 47)">
          <rect x="-65" y="-22" width="130" height="44" rx="22" fill="#b45309" opacity="0.15"/>
          <text x="0" y="8" text-anchor="middle" font-size="18" font-weight="900" fill="#b45309">감성형</text>
        </g>
        
      </g>
    
      <g transform="translate(60, 640)">
        <rect x="0" y="0" width="1080" height="95" rx="18" fill="#ffffff" stroke="#b45309" stroke-width="2"/>
        <rect x="0" y="0" width="110" height="95" rx="18 0 0 18" fill="#b45309"/>
        <text x="55" y="62" text-anchor="middle" font-size="40" font-weight="900" fill="#ffffff">5</text>

        <text x="140" y="40" font-size="30" font-weight="900" fill="#1a1a1a">INTJ</text>
        <text x="140" y="72" font-size="22" font-weight="600" fill="#4b5563">평소 안 하던 진지한 철학</text>

        
        <g transform="translate(920, 47)">
          <rect x="-65" y="-22" width="130" height="44" rx="22" fill="#b45309" opacity="0.15"/>
          <text x="0" y="8" text-anchor="middle" font-size="18" font-weight="900" fill="#b45309">각성형</text>
        </g>
        
      </g>
    
      <g transform="translate(60, 755)">
        <rect x="0" y="0" width="1080" height="95" rx="18" fill="#ffffff" stroke="#b45309" stroke-width="2"/>
        <rect x="0" y="0" width="110" height="95" rx="18 0 0 18" fill="#b45309"/>
        <text x="55" y="62" text-anchor="middle" font-size="40" font-weight="900" fill="#ffffff">6</text>

        <text x="140" y="40" font-size="30" font-weight="900" fill="#1a1a1a">ISTJ</text>
        <text x="140" y="72" font-size="22" font-weight="600" fill="#4b5563">똑같이 멀쩡, 집에 걸어감</text>

        
        <g transform="translate(920, 47)">
          <rect x="-65" y="-22" width="130" height="44" rx="22" fill="#b45309" opacity="0.15"/>
          <text x="0" y="8" text-anchor="middle" font-size="18" font-weight="900" fill="#b45309">무변화형</text>
        </g>
        
      </g>
    
  
<text x="1180" y="892" text-anchor="end" font-size="14" font-weight="600" fill="#9ca3af" opacity="0.85">192types.co.kr · 술버릇 리포트</text>
</svg>