<?xml version="1.0" encoding="UTF-8"?>
<svg xmlns="http://www.w3.org/2000/svg" viewBox="0 0 1200 900" width="1200" height="900" font-family="'Pretendard', 'Apple SD Gothic Neo', 'Noto Sans KR', system-ui, sans-serif">
<rect width="1200" height="900" fill="#faf8f5"/>

  <rect x="0" y="0" width="1200" height="140" fill="#0284c7"/>
  <text x="600" y="70" text-anchor="middle" font-size="28" font-weight="700" fill="#ffffff" opacity="0.85" letter-spacing="6">MATRIX</text>
  <text x="600" y="115" text-anchor="middle" font-size="40" font-weight="900" fill="#ffffff">4가지 운전 DNA 모드</text>

  
      <g transform="translate(60, 175)">
        <rect x="0" y="0" width="1080" height="115" rx="20" fill="#ffffff" stroke="#e5e7eb" stroke-width="2"/>
        <rect x="0" y="0" width="12" height="115" rx="6 0 0 6" fill="#0284c7"/>

        <text x="40" y="62" font-size="52">🛡</text>

        <text x="125" y="48" font-size="30" font-weight="900" fill="#1a1a1a">신중형 — ISTJ · ISFJ · INFP · ISFP</text>
        <text x="125" y="82" font-size="22" font-weight="600" fill="#4b5563">안전거리 최우선 · 방어운전</text>
      </g>
    
      <g transform="translate(60, 310)">
        <rect x="0" y="0" width="1080" height="115" rx="20" fill="#ffffff" stroke="#e5e7eb" stroke-width="2"/>
        <rect x="0" y="0" width="12" height="115" rx="6 0 0 6" fill="#0284c7"/>

        <text x="40" y="62" font-size="52">🚀</text>

        <text x="125" y="48" font-size="30" font-weight="900" fill="#1a1a1a">질주형 — ESTP · ENTP · ESTJ · ENTJ</text>
        <text x="125" y="82" font-size="22" font-weight="600" fill="#4b5563">빠른 차선 변경 · 추월 즐김</text>
      </g>
    
      <g transform="translate(60, 445)">
        <rect x="0" y="0" width="1080" height="115" rx="20" fill="#ffffff" stroke="#e5e7eb" stroke-width="2"/>
        <rect x="0" y="0" width="12" height="115" rx="6 0 0 6" fill="#0284c7"/>

        <text x="40" y="62" font-size="52">🤝</text>

        <text x="125" y="48" font-size="30" font-weight="900" fill="#1a1a1a">양보형 — ENFJ · ESFJ · INFJ · ENFP</text>
        <text x="125" y="82" font-size="22" font-weight="600" fill="#4b5563">깜빡이 양보 · 경적 절대 X</text>
      </g>
    
      <g transform="translate(60, 580)">
        <rect x="0" y="0" width="1080" height="115" rx="20" fill="#ffffff" stroke="#e5e7eb" stroke-width="2"/>
        <rect x="0" y="0" width="12" height="115" rx="6 0 0 6" fill="#0284c7"/>

        <text x="40" y="62" font-size="52">🌱</text>

        <text x="125" y="48" font-size="30" font-weight="900" fill="#1a1a1a">초보형 — INTP · ISTP · INTJ · ESFP</text>
        <text x="125" y="82" font-size="22" font-weight="600" fill="#4b5563">운전 자체 선호 안 함</text>
      </g>
    
  
<text x="1180" y="892" text-anchor="end" font-size="14" font-weight="600" fill="#9ca3af" opacity="0.85">192types.co.kr · 운전 리포트</text>
</svg>