<?xml version="1.0" encoding="UTF-8"?>
<svg xmlns="http://www.w3.org/2000/svg" viewBox="0 0 1200 900" width="1200" height="900" font-family="'Pretendard', 'Apple SD Gothic Neo', 'Noto Sans KR', system-ui, sans-serif">
<rect width="1200" height="900" fill="#faf8f5"/>

  <rect x="0" y="0" width="1200" height="140" fill="#2c3e50"/>
  <text x="600" y="70" text-anchor="middle" font-size="28" font-weight="700" fill="#fce7f3" letter-spacing="6">TOP RANKING</text>
  <text x="600" y="115" text-anchor="middle" font-size="42" font-weight="900" fill="#ffffff">무료 MBTI 검사 신뢰도 TOP 5</text>
  
      <g transform="translate(60, 180)">
        <rect x="0" y="0" width="1080" height="95" rx="18" fill="#ffffff" stroke="#4338ca" stroke-width="2"/>
        <rect x="0" y="0" width="110" height="95" rx="18 0 0 18" fill="#4338ca"/>
        <text x="55" y="62" text-anchor="middle" font-size="40" font-weight="900" fill="#ffffff">1</text>
        <text x="140" y="40" font-size="30" font-weight="900" fill="#1a1a1a">16Personalities.com</text>
        <text x="140" y="72" font-size="22" font-weight="600" fill="#4b5563">60문항 · 영어/한국어 · 프리미엄 유료</text>
        
        <g transform="translate(920, 47)">
          <rect x="-70" y="-22" width="140" height="44" rx="22" fill="#4338ca" opacity="0.15"/>
          <text x="0" y="8" text-anchor="middle" font-size="18" font-weight="900" fill="#4338ca">글로벌</text>
        </g>
        
      </g>
    
      <g transform="translate(60, 295)">
        <rect x="0" y="0" width="1080" height="95" rx="18" fill="#ffffff" stroke="#4338ca" stroke-width="2"/>
        <rect x="0" y="0" width="110" height="95" rx="18 0 0 18" fill="#4338ca"/>
        <text x="55" y="62" text-anchor="middle" font-size="40" font-weight="900" fill="#ffffff">2</text>
        <text x="140" y="40" font-size="30" font-weight="900" fill="#1a1a1a">192types.com</text>
        <text x="140" y="72" font-size="22" font-weight="600" fill="#4b5563">100문항 · 16유형 × 4기질 × 3강도</text>
        
        <g transform="translate(920, 47)">
          <rect x="-70" y="-22" width="140" height="44" rx="22" fill="#4338ca" opacity="0.15"/>
          <text x="0" y="8" text-anchor="middle" font-size="18" font-weight="900" fill="#4338ca">정밀</text>
        </g>
        
      </g>
    
      <g transform="translate(60, 410)">
        <rect x="0" y="0" width="1080" height="95" rx="18" fill="#ffffff" stroke="#4338ca" stroke-width="2"/>
        <rect x="0" y="0" width="110" height="95" rx="18 0 0 18" fill="#4338ca"/>
        <text x="55" y="62" text-anchor="middle" font-size="40" font-weight="900" fill="#ffffff">3</text>
        <text x="140" y="40" font-size="30" font-weight="900" fill="#1a1a1a">심리스케일</text>
        <text x="140" y="72" font-size="22" font-weight="600" fill="#4b5563">48문항 · 빠른 결과</text>
        
        <g transform="translate(920, 47)">
          <rect x="-70" y="-22" width="140" height="44" rx="22" fill="#4338ca" opacity="0.15"/>
          <text x="0" y="8" text-anchor="middle" font-size="18" font-weight="900" fill="#4338ca">빠름</text>
        </g>
        
      </g>
    
      <g transform="translate(60, 525)">
        <rect x="0" y="0" width="1080" height="95" rx="18" fill="#ffffff" stroke="#4338ca" stroke-width="2"/>
        <rect x="0" y="0" width="110" height="95" rx="18 0 0 18" fill="#4338ca"/>
        <text x="55" y="62" text-anchor="middle" font-size="40" font-weight="900" fill="#ffffff">4</text>
        <text x="140" y="40" font-size="30" font-weight="900" fill="#1a1a1a">TruthConsulting</text>
        <text x="140" y="72" font-size="22" font-weight="600" fill="#4b5563">MBTI® 한국 공식 유료 + 간이 무료</text>
        
        <g transform="translate(920, 47)">
          <rect x="-70" y="-22" width="140" height="44" rx="22" fill="#4338ca" opacity="0.15"/>
          <text x="0" y="8" text-anchor="middle" font-size="18" font-weight="900" fill="#4338ca">공식</text>
        </g>
        
      </g>
    
      <g transform="translate(60, 640)">
        <rect x="0" y="0" width="1080" height="95" rx="18" fill="#ffffff" stroke="#4338ca" stroke-width="2"/>
        <rect x="0" y="0" width="110" height="95" rx="18 0 0 18" fill="#4338ca"/>
        <text x="55" y="62" text-anchor="middle" font-size="40" font-weight="900" fill="#ffffff">5</text>
        <text x="140" y="40" font-size="30" font-weight="900" fill="#1a1a1a">네이버 백과 간이</text>
        <text x="140" y="72" font-size="22" font-weight="600" fill="#4b5563">10~20문항 · 참고용</text>
        
        <g transform="translate(920, 47)">
          <rect x="-70" y="-22" width="140" height="44" rx="22" fill="#4338ca" opacity="0.15"/>
          <text x="0" y="8" text-anchor="middle" font-size="18" font-weight="900" fill="#4338ca">심플</text>
        </g>
        
      </g>
    
  
<text x="1180" y="892" text-anchor="end" font-size="14" font-weight="600" fill="#9ca3af" opacity="0.85">192types.co.kr · 무료 검사 리포트</text>
</svg>