<?xml version="1.0" encoding="UTF-8"?>
<svg xmlns="http://www.w3.org/2000/svg" viewBox="0 0 1200 900" width="1200" height="900" font-family="'Pretendard', 'Apple SD Gothic Neo', 'Noto Sans KR', system-ui, sans-serif">
<rect width="1200" height="900" fill="#fafafa"/>

  <text x="600" y="50" text-anchor="middle" font-size="30" font-weight="800" fill="#171717">16유형 절친 가능성 랭킹</text>
  <text x="600" y="80" text-anchor="middle" font-size="14" font-weight="500" fill="#6b7280">관계 유지력 · 공감 능력 · 장기 연결 지속성 종합 100점 만점</text>

  
      <text x="50" y="142" font-size="14" font-weight="800" fill="#9ca3af">01</text>
      <text x="95" y="142" font-size="18" font-weight="800" fill="#e11d48">ENFJ</text>
      <rect x="170" y="125" width="720" height="30" rx="15" fill="#e11d48" opacity="0.25"/>
      <rect x="170" y="125" width="720" height="30" rx="15" fill="#e11d48" opacity="0.85"/>
      <text x="900" y="145" font-size="14" font-weight="800" fill="#e11d48">96</text>
      <text x="930" y="147" font-size="13" font-weight="600" fill="#6b7280">주변 돌봄 본능</text>
    
      <text x="50" y="189" font-size="14" font-weight="800" fill="#9ca3af">02</text>
      <text x="95" y="189" font-size="18" font-weight="800" fill="#059669">ESFJ</text>
      <rect x="170" y="172" width="705" height="30" rx="15" fill="#059669" opacity="0.25"/>
      <rect x="170" y="172" width="705" height="30" rx="15" fill="#059669" opacity="0.85"/>
      <text x="885" y="192" font-size="14" font-weight="800" fill="#059669">94</text>
      <text x="930" y="194" font-size="13" font-weight="600" fill="#6b7280">관계 유지의 달인</text>
    
      <text x="50" y="236" font-size="14" font-weight="800" fill="#9ca3af">03</text>
      <text x="95" y="236" font-size="18" font-weight="800" fill="#d97706">ESFP</text>
      <rect x="170" y="219" width="660" height="30" rx="15" fill="#d97706" opacity="0.25"/>
      <rect x="170" y="219" width="660" height="30" rx="15" fill="#d97706" opacity="0.85"/>
      <text x="840" y="239" font-size="14" font-weight="800" fill="#d97706">88</text>
      <text x="930" y="241" font-size="13" font-weight="600" fill="#6b7280">분위기 살리는 친구</text>
    
      <text x="50" y="283" font-size="14" font-weight="800" fill="#9ca3af">04</text>
      <text x="95" y="283" font-size="18" font-weight="800" fill="#e11d48">ENFP</text>
      <rect x="170" y="266" width="645" height="30" rx="15" fill="#e11d48" opacity="0.25"/>
      <rect x="170" y="266" width="645" height="30" rx="15" fill="#e11d48" opacity="0.85"/>
      <text x="825" y="286" font-size="14" font-weight="800" fill="#e11d48">86</text>
      <text x="930" y="288" font-size="13" font-weight="600" fill="#6b7280">에너지 주는 존재</text>
    
      <text x="50" y="330" font-size="14" font-weight="800" fill="#9ca3af">05</text>
      <text x="95" y="330" font-size="18" font-weight="800" fill="#059669">ISFJ</text>
      <rect x="170" y="313" width="630" height="30" rx="15" fill="#059669" opacity="0.25"/>
      <rect x="170" y="313" width="630" height="30" rx="15" fill="#059669" opacity="0.85"/>
      <text x="810" y="333" font-size="14" font-weight="800" fill="#059669">84</text>
      <text x="930" y="335" font-size="13" font-weight="600" fill="#6b7280">조용한 평생 동반</text>
    
      <text x="50" y="377" font-size="14" font-weight="800" fill="#9ca3af">06</text>
      <text x="95" y="377" font-size="18" font-weight="800" fill="#e11d48">INFJ</text>
      <rect x="170" y="360" width="585" height="30" rx="15" fill="#e11d48" opacity="0.25"/>
      <rect x="170" y="360" width="585" height="30" rx="15" fill="#e11d48" opacity="0.85"/>
      <text x="765" y="380" font-size="14" font-weight="800" fill="#e11d48">78</text>
      <text x="930" y="382" font-size="13" font-weight="600" fill="#6b7280">소수 깊은 관계</text>
    
      <text x="50" y="424" font-size="14" font-weight="800" fill="#9ca3af">07</text>
      <text x="95" y="424" font-size="18" font-weight="800" fill="#0891b2">ENTJ</text>
      <rect x="170" y="407" width="525" height="30" rx="15" fill="#0891b2" opacity="0.25"/>
      <rect x="170" y="407" width="525" height="30" rx="15" fill="#0891b2" opacity="0.85"/>
      <text x="705" y="427" font-size="14" font-weight="800" fill="#0891b2">70</text>
      <text x="930" y="429" font-size="13" font-weight="600" fill="#6b7280">성과형 파트너</text>
    
      <text x="50" y="471" font-size="14" font-weight="800" fill="#9ca3af">08</text>
      <text x="95" y="471" font-size="18" font-weight="800" fill="#e11d48">INFP</text>
      <rect x="170" y="454" width="495" height="30" rx="15" fill="#e11d48" opacity="0.25"/>
      <rect x="170" y="454" width="495" height="30" rx="15" fill="#e11d48" opacity="0.85"/>
      <text x="675" y="474" font-size="14" font-weight="800" fill="#e11d48">66</text>
      <text x="930" y="476" font-size="13" font-weight="600" fill="#6b7280">영혼의 친구</text>
    
      <text x="50" y="518" font-size="14" font-weight="800" fill="#9ca3af">09</text>
      <text x="95" y="518" font-size="18" font-weight="800" fill="#d97706">ISFP</text>
      <rect x="170" y="501" width="480" height="30" rx="15" fill="#d97706" opacity="0.25"/>
      <rect x="170" y="501" width="480" height="30" rx="15" fill="#d97706" opacity="0.85"/>
      <text x="660" y="521" font-size="14" font-weight="800" fill="#d97706">64</text>
      <text x="930" y="523" font-size="13" font-weight="600" fill="#6b7280">편안한 같이 있기</text>
    
      <text x="50" y="565" font-size="14" font-weight="800" fill="#9ca3af">10</text>
      <text x="95" y="565" font-size="18" font-weight="800" fill="#059669">ESTJ</text>
      <rect x="170" y="548" width="435" height="30" rx="15" fill="#059669" opacity="0.25"/>
      <rect x="170" y="548" width="435" height="30" rx="15" fill="#059669" opacity="0.85"/>
      <text x="615" y="568" font-size="14" font-weight="800" fill="#059669">58</text>
      <text x="930" y="570" font-size="13" font-weight="600" fill="#6b7280">실리적 동료</text>
    
      <text x="50" y="612" font-size="14" font-weight="800" fill="#9ca3af">11</text>
      <text x="95" y="612" font-size="18" font-weight="800" fill="#0891b2">ENTP</text>
      <rect x="170" y="595" width="405" height="30" rx="15" fill="#0891b2" opacity="0.25"/>
      <rect x="170" y="595" width="405" height="30" rx="15" fill="#0891b2" opacity="0.85"/>
      <text x="585" y="615" font-size="14" font-weight="800" fill="#0891b2">54</text>
      <text x="930" y="617" font-size="13" font-weight="600" fill="#6b7280">지적 자극 파트너</text>
    
      <text x="50" y="659" font-size="14" font-weight="800" fill="#9ca3af">12</text>
      <text x="95" y="659" font-size="18" font-weight="800" fill="#d97706">ESTP</text>
      <rect x="170" y="642" width="360" height="30" rx="15" fill="#d97706" opacity="0.25"/>
      <rect x="170" y="642" width="360" height="30" rx="15" fill="#d97706" opacity="0.85"/>
      <text x="540" y="662" font-size="14" font-weight="800" fill="#d97706">48</text>
      <text x="930" y="664" font-size="13" font-weight="600" fill="#6b7280">논 친구 최강</text>
    
      <text x="50" y="706" font-size="14" font-weight="800" fill="#9ca3af">13</text>
      <text x="95" y="706" font-size="18" font-weight="800" fill="#059669">ISTJ</text>
      <rect x="170" y="689" width="315" height="30" rx="15" fill="#059669" opacity="0.25"/>
      <rect x="170" y="689" width="315" height="30" rx="15" fill="#059669" opacity="0.85"/>
      <text x="495" y="709" font-size="14" font-weight="800" fill="#059669">42</text>
      <text x="930" y="711" font-size="13" font-weight="600" fill="#6b7280">약속 지키는 친구</text>
    
      <text x="50" y="753" font-size="14" font-weight="800" fill="#9ca3af">14</text>
      <text x="95" y="753" font-size="18" font-weight="800" fill="#0891b2">INTJ</text>
      <rect x="170" y="736" width="255" height="30" rx="15" fill="#0891b2" opacity="0.25"/>
      <rect x="170" y="736" width="255" height="30" rx="15" fill="#0891b2" opacity="0.85"/>
      <text x="435" y="756" font-size="14" font-weight="800" fill="#0891b2">34</text>
      <text x="930" y="758" font-size="13" font-weight="600" fill="#6b7280">소수 검증 후</text>
    
      <text x="50" y="800" font-size="14" font-weight="800" fill="#9ca3af">15</text>
      <text x="95" y="800" font-size="18" font-weight="800" fill="#d97706">ISTP</text>
      <rect x="170" y="783" width="210" height="30" rx="15" fill="#d97706" opacity="0.25"/>
      <rect x="170" y="783" width="210" height="30" rx="15" fill="#d97706" opacity="0.85"/>
      <text x="390" y="803" font-size="14" font-weight="800" fill="#d97706">28</text>
      <text x="930" y="805" font-size="13" font-weight="600" fill="#6b7280">적당한 거리 유지</text>
    
      <text x="50" y="847" font-size="14" font-weight="800" fill="#9ca3af">16</text>
      <text x="95" y="847" font-size="18" font-weight="800" fill="#0891b2">INTP</text>
      <rect x="170" y="830" width="165" height="30" rx="15" fill="#0891b2" opacity="0.25"/>
      <rect x="170" y="830" width="165" height="30" rx="15" fill="#0891b2" opacity="0.85"/>
      <text x="345" y="850" font-size="14" font-weight="800" fill="#0891b2">22</text>
      <text x="930" y="852" font-size="13" font-weight="600" fill="#6b7280">친구 개념 재정의</text>
    
  
<text x="1180" y="892" text-anchor="end" font-size="10" font-weight="500" fill="#9ca3af" opacity="0.85">192types.co.kr · 친구 관계 리포트</text>
</svg>