<?xml version="1.0" encoding="UTF-8"?>
<svg xmlns="http://www.w3.org/2000/svg" viewBox="0 0 1200 900" width="1200" height="900" font-family="'Pretendard', 'Apple SD Gothic Neo', 'Noto Sans KR', system-ui, sans-serif">
<rect width="1200" height="900" fill="#faf8f5"/>

  <rect x="0" y="0" width="1200" height="140" fill="#9333ea"/>
  <text x="600" y="70" text-anchor="middle" font-size="28" font-weight="700" fill="#ffffff" opacity="0.85" letter-spacing="6">TIMELINE</text>
  <text x="600" y="115" text-anchor="middle" font-size="42" font-weight="900" fill="#ffffff">고윤정 필모그래피 · ISTP 흔적</text>

  <line x1="160" y1="240" x2="160" y2="820" stroke="#9333ea" stroke-width="4"/>

  
      <g transform="translate(0, 240)">
        <circle cx="160" cy="0" r="22" fill="#9333ea"/>
        <circle cx="160" cy="0" r="12" fill="#ffffff"/>

        <rect x="220" y="-40" width="920" height="85" rx="16" fill="#ffffff" stroke="#9333ea" stroke-width="2"/>
        <text x="245" y="-5" font-size="28" font-weight="900" fill="#9333ea">2019</text>
        <text x="340" y="-5" font-size="24" font-weight="800" fill="#1a1a1a">데뷔 · 모델</text>
        <text x="245" y="28" font-size="20" font-weight="600" fill="#4b5563">조용한 등장, 기본기 중심</text>
      </g>
    
      <g transform="translate(0, 355)">
        <circle cx="160" cy="0" r="22" fill="#9333ea"/>
        <circle cx="160" cy="0" r="12" fill="#ffffff"/>

        <rect x="220" y="-40" width="920" height="85" rx="16" fill="#ffffff" stroke="#9333ea" stroke-width="2"/>
        <text x="245" y="-5" font-size="28" font-weight="900" fill="#9333ea">2022</text>
        <text x="340" y="-5" font-size="24" font-weight="800" fill="#1a1a1a">스물다섯 스물하나</text>
        <text x="245" y="28" font-size="20" font-weight="600" fill="#4b5563">차분한 절제의 연기력 입증</text>
      </g>
    
      <g transform="translate(0, 470)">
        <circle cx="160" cy="0" r="22" fill="#9333ea"/>
        <circle cx="160" cy="0" r="12" fill="#ffffff"/>

        <rect x="220" y="-40" width="920" height="85" rx="16" fill="#ffffff" stroke="#9333ea" stroke-width="2"/>
        <text x="245" y="-5" font-size="28" font-weight="900" fill="#9333ea">2023</text>
        <text x="340" y="-5" font-size="24" font-weight="800" fill="#1a1a1a">무빙 · 장희수 役</text>
        <text x="245" y="28" font-size="20" font-weight="600" fill="#4b5563">강함과 섬세함의 공존 (Ti+Se)</text>
      </g>
    
      <g transform="translate(0, 585)">
        <circle cx="160" cy="0" r="22" fill="#9333ea"/>
        <circle cx="160" cy="0" r="12" fill="#ffffff"/>

        <rect x="220" y="-40" width="920" height="85" rx="16" fill="#ffffff" stroke="#9333ea" stroke-width="2"/>
        <text x="245" y="-5" font-size="28" font-weight="900" fill="#9333ea">2024</text>
        <text x="340" y="-5" font-size="24" font-weight="800" fill="#1a1a1a">선재 업고 튀어 · 김태하</text>
        <text x="245" y="28" font-size="20" font-weight="600" fill="#4b5563">미지근한 매력의 정수</text>
      </g>
    
      <g transform="translate(0, 700)">
        <circle cx="160" cy="0" r="22" fill="#9333ea"/>
        <circle cx="160" cy="0" r="12" fill="#ffffff"/>

        <rect x="220" y="-40" width="920" height="85" rx="16" fill="#ffffff" stroke="#9333ea" stroke-width="2"/>
        <text x="245" y="-5" font-size="28" font-weight="900" fill="#9333ea">2025</text>
        <text x="340" y="-5" font-size="24" font-weight="800" fill="#1a1a1a">이번 생도 잘 부탁해</text>
        <text x="245" y="28" font-size="20" font-weight="600" fill="#4b5563">존재감 100% 주연 안착</text>
      </g>
    
  
<text x="1180" y="892" text-anchor="end" font-size="14" font-weight="600" fill="#9ca3af" opacity="0.85">192types.co.kr · 셀럽 MBTI</text>
</svg>