<?xml version="1.0" encoding="UTF-8"?>
<svg xmlns="http://www.w3.org/2000/svg" viewBox="0 0 1200 900" width="1200" height="900" font-family="'Pretendard', 'Apple SD Gothic Neo', 'Noto Sans KR', system-ui, sans-serif">
<rect width="1200" height="900" fill="#faf8f5"/>

  <rect x="0" y="0" width="1200" height="140" fill="#9333ea"/>
  <text x="600" y="70" text-anchor="middle" font-size="28" font-weight="700" fill="#ffffff" opacity="0.85" letter-spacing="6">MATRIX</text>
  <text x="600" y="115" text-anchor="middle" font-size="40" font-weight="900" fill="#ffffff">ISTP 고윤정 매력 포인트 4</text>

  
      <g transform="translate(60, 175)">
        <rect x="0" y="0" width="1080" height="115" rx="20" fill="#ffffff" stroke="#e5e7eb" stroke-width="2"/>
        <rect x="0" y="0" width="12" height="115" rx="6 0 0 6" fill="#9333ea"/>

        <text x="40" y="62" font-size="52">🎯</text>

        <text x="125" y="48" font-size="30" font-weight="900" fill="#1a1a1a">차갑지 않은 절제</text>
        <text x="125" y="82" font-size="22" font-weight="600" fill="#4b5563">Ti 절제 + Se 따뜻함의 균형</text>
      </g>
    
      <g transform="translate(60, 310)">
        <rect x="0" y="0" width="1080" height="115" rx="20" fill="#ffffff" stroke="#e5e7eb" stroke-width="2"/>
        <rect x="0" y="0" width="12" height="115" rx="6 0 0 6" fill="#9333ea"/>

        <text x="40" y="62" font-size="52">🌊</text>

        <text x="125" y="48" font-size="30" font-weight="900" fill="#1a1a1a">깊은 물처럼 잔잔</text>
        <text x="125" y="82" font-size="22" font-weight="600" fill="#4b5563">감정 파동 적지만 본질은 깊음</text>
      </g>
    
      <g transform="translate(60, 445)">
        <rect x="0" y="0" width="1080" height="115" rx="20" fill="#ffffff" stroke="#e5e7eb" stroke-width="2"/>
        <rect x="0" y="0" width="12" height="115" rx="6 0 0 6" fill="#9333ea"/>

        <text x="40" y="62" font-size="52">🔥</text>

        <text x="125" y="48" font-size="30" font-weight="900" fill="#1a1a1a">순간 폭발 연기력</text>
        <text x="125" y="82" font-size="22" font-weight="600" fill="#4b5563">Se 현장 본능이 주는 몰입</text>
      </g>
    
      <g transform="translate(60, 580)">
        <rect x="0" y="0" width="1080" height="115" rx="20" fill="#ffffff" stroke="#e5e7eb" stroke-width="2"/>
        <rect x="0" y="0" width="12" height="115" rx="6 0 0 6" fill="#9333ea"/>

        <text x="40" y="62" font-size="52">💎</text>

        <text x="125" y="48" font-size="30" font-weight="900" fill="#1a1a1a">자기 중심 단단</text>
        <text x="125" y="82" font-size="22" font-weight="600" fill="#4b5563">Fi 3차 + Ti가 만드는 코어</text>
      </g>
    
  
<text x="1180" y="892" text-anchor="end" font-size="14" font-weight="600" fill="#9ca3af" opacity="0.85">192types.co.kr · 셀럽 MBTI</text>
</svg>