<?xml version="1.0" encoding="UTF-8"?>
<svg xmlns="http://www.w3.org/2000/svg" viewBox="0 0 1200 900" width="1200" height="900" font-family="'Pretendard', 'Apple SD Gothic Neo', 'Noto Sans KR', system-ui, sans-serif">
<rect width="1200" height="900" fill="#faf8f5"/>

  <rect x="0" y="0" width="1200" height="140" fill="#9333ea"/>
  <text x="600" y="70" text-anchor="middle" font-size="28" font-weight="700" fill="#ffffff" opacity="0.85" letter-spacing="6">MATRIX</text>
  <text x="600" y="115" text-anchor="middle" font-size="40" font-weight="900" fill="#ffffff">고윤정의 ISTP 인지기능 DNA</text>

  
      <g transform="translate(60, 175)">
        <rect x="0" y="0" width="1080" height="115" rx="20" fill="#ffffff" stroke="#e5e7eb" stroke-width="2"/>
        <rect x="0" y="0" width="12" height="115" rx="6 0 0 6" fill="#9333ea"/>

        <text x="40" y="62" font-size="52">🧠</text>

        <text x="125" y="48" font-size="30" font-weight="900" fill="#1a1a1a">Ti 주기능 — 내적 논리</text>
        <text x="125" y="82" font-size="22" font-weight="600" fill="#4b5563">"생각 많지 않다" = 깊게 핵심만</text>
      </g>
    
      <g transform="translate(60, 310)">
        <rect x="0" y="0" width="1080" height="115" rx="20" fill="#ffffff" stroke="#e5e7eb" stroke-width="2"/>
        <rect x="0" y="0" width="12" height="115" rx="6 0 0 6" fill="#9333ea"/>

        <text x="40" y="62" font-size="52">👁</text>

        <text x="125" y="48" font-size="30" font-weight="900" fill="#1a1a1a">Se 보조 — 현장 감각</text>
        <text x="125" y="82" font-size="22" font-weight="600" fill="#4b5563">연기 시 즉각 반응 · 장면 몰입</text>
      </g>
    
      <g transform="translate(60, 445)">
        <rect x="0" y="0" width="1080" height="115" rx="20" fill="#ffffff" stroke="#e5e7eb" stroke-width="2"/>
        <rect x="0" y="0" width="12" height="115" rx="6 0 0 6" fill="#9333ea"/>

        <text x="40" y="62" font-size="52">🔮</text>

        <text x="125" y="48" font-size="30" font-weight="900" fill="#1a1a1a">Ni 3차 — 깊은 통찰</text>
        <text x="125" y="82" font-size="22" font-weight="600" fill="#4b5563">캐릭터 본질 꿰뚫는 시선</text>
      </g>
    
      <g transform="translate(60, 580)">
        <rect x="0" y="0" width="1080" height="115" rx="20" fill="#ffffff" stroke="#e5e7eb" stroke-width="2"/>
        <rect x="0" y="0" width="12" height="115" rx="6 0 0 6" fill="#9333ea"/>

        <text x="40" y="62" font-size="52">💝</text>

        <text x="125" y="48" font-size="30" font-weight="900" fill="#1a1a1a">Fe 열등 — 감정 표현 X</text>
        <text x="125" y="82" font-size="22" font-weight="600" fill="#4b5563">"미지근한 성격" = 담담한 사랑</text>
      </g>
    
  
<text x="1180" y="892" text-anchor="end" font-size="14" font-weight="600" fill="#9ca3af" opacity="0.85">192types.co.kr · 셀럽 MBTI</text>
</svg>