<?xml version="1.0" encoding="UTF-8"?>
<svg xmlns="http://www.w3.org/2000/svg" viewBox="0 0 1200 900" width="1200" height="900" font-family="'Pretendard', 'Apple SD Gothic Neo', 'Noto Sans KR', system-ui, sans-serif">
<rect width="1200" height="900" fill="#fafafa"/>

  <text x="600" y="52" text-anchor="middle" font-size="28" font-weight="800" fill="#171717">리스크 감수성 16유형 순위</text>
  <text x="600" y="82" text-anchor="middle" font-size="13" font-weight="500" fill="#6b7280">얼마나 큰 리스크를 감당할 수 있는지 · 100점 만점</text>

  
      <text x="45" y="146" font-size="16" font-weight="800" fill="#f59e0b">1</text>
      <circle cx="95" cy="141" r="12" fill="#0891b2"/>
      <text x="115" y="146" font-size="15" font-weight="800" fill="#0891b2">ENTP</text>
      <text x="170" y="146" font-size="11" fill="#6b7280">신기술·크립토 얼리어답터</text>
      <rect x="430" y="130" width="752" height="22" rx="11" fill="#0891b2" opacity="1"/>
      <text x="1192" y="146" font-size="12" font-weight="800" fill="#0891b2">94</text>
    
      <text x="45" y="190" font-size="16" font-weight="800" fill="#9ca3af">2</text>
      <circle cx="95" cy="185" r="12" fill="#d97706"/>
      <text x="115" y="190" font-size="15" font-weight="800" fill="#d97706">ESTP</text>
      <text x="170" y="190" font-size="11" fill="#6b7280">단타·급매 기회포착</text>
      <rect x="430" y="174" width="728" height="22" rx="11" fill="#d97706" opacity="1"/>
      <text x="1168" y="190" font-size="12" font-weight="800" fill="#d97706">91</text>
    
      <text x="45" y="234" font-size="16" font-weight="800" fill="#b45309">3</text>
      <circle cx="95" cy="229" r="12" fill="#0891b2"/>
      <text x="115" y="234" font-size="15" font-weight="800" fill="#0891b2">ENTJ</text>
      <text x="170" y="234" font-size="11" fill="#6b7280">레버리지·사업 투자</text>
      <rect x="430" y="218" width="704" height="22" rx="11" fill="#0891b2" opacity="1"/>
      <text x="1144" y="234" font-size="12" font-weight="800" fill="#0891b2">88</text>
    
      <text x="45" y="278" font-size="13" font-weight="600" fill="#374151">4</text>
      <circle cx="95" cy="273" r="12" fill="#0891b2"/>
      <text x="115" y="278" font-size="13" font-weight="700" fill="#0891b2">INTP</text>
      <text x="170" y="278" font-size="11" fill="#6b7280">이론 만든 후 적극 실행</text>
      <rect x="430" y="262" width="656" height="22" rx="11" fill="#0891b2" opacity="1"/>
      <text x="1096" y="278" font-size="12" font-weight="800" fill="#0891b2">82</text>
    
      <text x="45" y="322" font-size="13" font-weight="600" fill="#374151">5</text>
      <circle cx="95" cy="317" r="12" fill="#0891b2"/>
      <text x="115" y="322" font-size="13" font-weight="700" fill="#0891b2">INTJ</text>
      <text x="170" y="322" font-size="11" fill="#6b7280">분석 후 큰 베팅</text>
      <rect x="430" y="306" width="624" height="22" rx="11" fill="#0891b2" opacity="1"/>
      <text x="1064" y="322" font-size="12" font-weight="800" fill="#0891b2">78</text>
    
      <text x="45" y="366" font-size="13" font-weight="600" fill="#374151">6</text>
      <circle cx="95" cy="361" r="12" fill="#d97706"/>
      <text x="115" y="366" font-size="13" font-weight="700" fill="#d97706">ESFP</text>
      <text x="170" y="366" font-size="11" fill="#6b7280">기분 따라 과감한 지출</text>
      <rect x="430" y="350" width="576" height="22" rx="11" fill="#d97706" opacity="1"/>
      <text x="1016" y="366" font-size="12" font-weight="800" fill="#d97706">72</text>
    
      <text x="45" y="410" font-size="13" font-weight="600" fill="#374151">7</text>
      <circle cx="95" cy="405" r="12" fill="#e11d48"/>
      <text x="115" y="410" font-size="13" font-weight="700" fill="#e11d48">ENFP</text>
      <text x="170" y="410" font-size="11" fill="#6b7280">꽂히면 올인</text>
      <rect x="430" y="394" width="528" height="22" rx="11" fill="#e11d48" opacity="1"/>
      <text x="968" y="410" font-size="12" font-weight="800" fill="#e11d48">66</text>
    
      <text x="45" y="454" font-size="13" font-weight="600" fill="#374151">8</text>
      <circle cx="95" cy="449" r="12" fill="#d97706"/>
      <text x="115" y="454" font-size="13" font-weight="700" fill="#d97706">ISTP</text>
      <text x="170" y="454" font-size="11" fill="#6b7280">이해한 분야만 과감</text>
      <rect x="430" y="438" width="496" height="22" rx="11" fill="#d97706" opacity="1"/>
      <text x="936" y="454" font-size="12" font-weight="800" fill="#d97706">62</text>
    
      <text x="45" y="498" font-size="13" font-weight="600" fill="#374151">9</text>
      <circle cx="95" cy="493" r="12" fill="#d97706"/>
      <text x="115" y="498" font-size="13" font-weight="700" fill="#d97706">ISFP</text>
      <text x="170" y="498" font-size="11" fill="#6b7280">감각적 수집품 투자</text>
      <rect x="430" y="482" width="400" height="22" rx="11" fill="#d97706" opacity="0.55"/>
      <text x="840" y="498" font-size="12" font-weight="800" fill="#d97706">50</text>
    
      <text x="45" y="542" font-size="13" font-weight="600" fill="#374151">10</text>
      <circle cx="95" cy="537" r="12" fill="#e11d48"/>
      <text x="115" y="542" font-size="13" font-weight="700" fill="#e11d48">ENFJ</text>
      <text x="170" y="542" font-size="11" fill="#6b7280">관계·커리어에 베팅</text>
      <rect x="430" y="526" width="352" height="22" rx="11" fill="#e11d48" opacity="0.55"/>
      <text x="792" y="542" font-size="12" font-weight="800" fill="#e11d48">44</text>
    
      <text x="45" y="586" font-size="13" font-weight="600" fill="#374151">11</text>
      <circle cx="95" cy="581" r="12" fill="#e11d48"/>
      <text x="115" y="586" font-size="13" font-weight="700" fill="#e11d48">INFP</text>
      <text x="170" y="586" font-size="11" fill="#6b7280">가치 맞으면 후원</text>
      <rect x="430" y="570" width="304" height="22" rx="11" fill="#e11d48" opacity="0.55"/>
      <text x="744" y="586" font-size="12" font-weight="800" fill="#e11d48">38</text>
    
      <text x="45" y="630" font-size="13" font-weight="600" fill="#374151">12</text>
      <circle cx="95" cy="625" r="12" fill="#e11d48"/>
      <text x="115" y="630" font-size="13" font-weight="700" fill="#e11d48">INFJ</text>
      <text x="170" y="630" font-size="11" fill="#6b7280">조용히 ESG 장기</text>
      <rect x="430" y="614" width="272" height="22" rx="11" fill="#e11d48" opacity="0.55"/>
      <text x="712" y="630" font-size="12" font-weight="800" fill="#e11d48">34</text>
    
      <text x="45" y="674" font-size="13" font-weight="600" fill="#374151">13</text>
      <circle cx="95" cy="669" r="12" fill="#059669"/>
      <text x="115" y="674" font-size="13" font-weight="700" fill="#059669">ESTJ</text>
      <text x="170" y="674" font-size="11" fill="#6b7280">검증된 자산만</text>
      <rect x="430" y="658" width="224" height="22" rx="11" fill="#059669" opacity="0.55"/>
      <text x="664" y="674" font-size="12" font-weight="800" fill="#059669">28</text>
    
      <text x="45" y="718" font-size="13" font-weight="600" fill="#374151">14</text>
      <circle cx="95" cy="713" r="12" fill="#059669"/>
      <text x="115" y="718" font-size="13" font-weight="700" fill="#059669">ISTJ</text>
      <text x="170" y="718" font-size="11" fill="#6b7280">예적금·국채 선호</text>
      <rect x="430" y="702" width="176" height="22" rx="11" fill="#059669" opacity="0.55"/>
      <text x="616" y="718" font-size="12" font-weight="800" fill="#059669">22</text>
    
      <text x="45" y="762" font-size="13" font-weight="600" fill="#374151">15</text>
      <circle cx="95" cy="757" r="12" fill="#059669"/>
      <text x="115" y="762" font-size="13" font-weight="700" fill="#059669">ESFJ</text>
      <text x="170" y="762" font-size="11" fill="#6b7280">가족 안정이 우선</text>
      <rect x="430" y="746" width="144" height="22" rx="11" fill="#059669" opacity="0.55"/>
      <text x="584" y="762" font-size="12" font-weight="800" fill="#059669">18</text>
    
      <text x="45" y="806" font-size="13" font-weight="600" fill="#374151">16</text>
      <circle cx="95" cy="801" r="12" fill="#059669"/>
      <text x="115" y="806" font-size="13" font-weight="700" fill="#059669">ISFJ</text>
      <text x="170" y="806" font-size="11" fill="#6b7280">원금 보장이 최우선</text>
      <rect x="430" y="790" width="112" height="22" rx="11" fill="#059669" opacity="0.55"/>
      <text x="552" y="806" font-size="12" font-weight="800" fill="#059669">14</text>
    
  
<text x="1180" y="892" text-anchor="end" font-size="10" font-weight="500" fill="#9ca3af" opacity="0.85">192types.co.kr · MBTI 경제학 시리즈</text>
</svg>