<?xml version="1.0" encoding="UTF-8"?>
<svg xmlns="http://www.w3.org/2000/svg" viewBox="0 0 1200 900" width="1200" height="900" font-family="'Pretendard', 'Apple SD Gothic Neo', 'Noto Sans KR', system-ui, sans-serif">
<rect width="1200" height="900" fill="#fafafa"/>

  <defs>
    <radialGradient id="hG" cx="50%" cy="45%" r="70%">
      <stop offset="0%" stop-color="#ffffff"/>
      <stop offset="100%" stop-color="#f3f4f6"/>
    </radialGradient>
    <linearGradient id="coinG" x1="0%" y1="0%" x2="100%" y2="100%">
      <stop offset="0%" stop-color="#facc15"/>
      <stop offset="100%" stop-color="#ca8a04"/>
    </linearGradient>
  </defs>
  <rect width="1200" height="900" fill="url(#hG)"/>

  <!-- Scattered coins with MBTI types -->
  
    <circle cx="160" cy="260" r="62" fill="#0891b2" opacity="0.1"/>
    <circle cx="160" cy="260" r="52" fill="#0891b2"/>
    <text x="160" y="266" text-anchor="middle" font-size="20.8" font-weight="800" fill="#fff">INTJ</text>
  
    <circle cx="1040" cy="240" r="64" fill="#0891b2" opacity="0.1"/>
    <circle cx="1040" cy="240" r="54" fill="#0891b2"/>
    <text x="1040" y="246" text-anchor="middle" font-size="21.6" font-weight="800" fill="#fff">INTP</text>
  
    <circle cx="200" cy="560" r="58" fill="#059669" opacity="0.1"/>
    <circle cx="200" cy="560" r="48" fill="#059669"/>
    <text x="200" y="566" text-anchor="middle" font-size="19.200000000000003" font-weight="800" fill="#fff">ISTJ</text>
  
    <circle cx="1010" cy="590" r="56" fill="#f59e0b" opacity="0.1"/>
    <circle cx="1010" cy="590" r="46" fill="#f59e0b"/>
    <text x="1010" y="596" text-anchor="middle" font-size="18.400000000000002" font-weight="800" fill="#fff">ESFP</text>
  
    <circle cx="130" cy="740" r="50" fill="#f43f5e" opacity="0.1"/>
    <circle cx="130" cy="740" r="40" fill="#f43f5e"/>
    <text x="130" y="746" text-anchor="middle" font-size="16" font-weight="800" fill="#fff">ENFP</text>
  
    <circle cx="1080" cy="780" r="54" fill="#06b6d4" opacity="0.1"/>
    <circle cx="1080" cy="780" r="44" fill="#06b6d4"/>
    <text x="1080" y="786" text-anchor="middle" font-size="17.6" font-weight="800" fill="#fff">ENTJ</text>
  

  <!-- Currency symbols decoration -->
  <text x="350" y="280" font-size="40" font-weight="800" fill="#65a30d" opacity="0.15">₩</text>
  <text x="880" y="350" font-size="36" font-weight="800" fill="#65a30d" opacity="0.15">$</text>
  <text x="400" y="670" font-size="32" font-weight="800" fill="#65a30d" opacity="0.15">€</text>
  <text x="820" y="650" font-size="44" font-weight="800" fill="#65a30d" opacity="0.15">¥</text>

  <!-- Center card -->
  <rect x="270" y="220" width="660" height="280" rx="24" fill="#ffffff" stroke="#e5e7eb" stroke-width="1"/>
  <text x="600" y="275" text-anchor="middle" font-size="17" font-weight="600" fill="#6b7280" letter-spacing="8">MBTI ECONOMICS · 2026</text>
  <text x="600" y="345" text-anchor="middle" font-size="46" font-weight="800" fill="#171717">MBTI 재테크 DNA</text>
  <text x="600" y="388" text-anchor="middle" font-size="26" font-weight="700" fill="#374151">내 유형의 돈 관리 스타일</text>
  <line x1="460" y1="413" x2="740" y2="413" stroke="#e5e7eb" stroke-width="1"/>
  <text x="600" y="438" text-anchor="middle" font-size="15" font-weight="500" fill="#6b7280">16유형 × 4기질 × 3가지 머니 프로파일</text>
  <text x="600" y="465" text-anchor="middle" font-size="13" font-weight="500" fill="#9ca3af">소비 · 저축 · 투자 · 리스크 · 커플 돈궁합</text>

  <g transform="translate(300, 540)">
    
      <g transform="translate(0,0)">
        <circle cx="12" cy="24" r="9" fill="#0891b2"/>
        <text x="28" y="29" font-size="13" font-weight="600" fill="#374151">NT · 전략가</text>
      </g>
    
      <g transform="translate(155,0)">
        <circle cx="12" cy="24" r="9" fill="#e11d48"/>
        <text x="28" y="29" font-size="13" font-weight="600" fill="#374151">NF · 가치기반</text>
      </g>
    
      <g transform="translate(330,0)">
        <circle cx="12" cy="24" r="9" fill="#059669"/>
        <text x="28" y="29" font-size="13" font-weight="600" fill="#374151">SJ · 안정형</text>
      </g>
    
      <g transform="translate(490,0)">
        <circle cx="12" cy="24" r="9" fill="#d97706"/>
        <text x="28" y="29" font-size="13" font-weight="600" fill="#374151">SP · 기회포착</text>
      </g>
    
  </g>

  <text x="600" y="680" text-anchor="middle" font-size="13" font-weight="500" fill="#6b7280">32가지 지출 패턴 · 16가지 투자 성향 · 실전 액션 체크리스트</text>
  
<text x="1180" y="892" text-anchor="end" font-size="10" font-weight="500" fill="#9ca3af" opacity="0.85">192types.co.kr · MBTI 경제학 시리즈</text>
</svg>