<?xml version="1.0" encoding="UTF-8"?>
<svg xmlns="http://www.w3.org/2000/svg" viewBox="0 0 1200 900" width="1200" height="900" font-family="'Pretendard', 'Apple SD Gothic Neo', 'Noto Sans KR', system-ui, sans-serif">
<rect width="1200" height="900" fill="#fafafa"/>

  <text x="600" y="56" text-anchor="middle" font-size="30" font-weight="800" fill="#171717">16유형 지출 카테고리 TOP 8</text>
  <text x="600" y="86" text-anchor="middle" font-size="14" font-weight="500" fill="#6b7280">각 카테고리에 돈을 제일 많이 쓰는 유형 상위 3</text>
  <text x="600" y="112" text-anchor="middle" font-size="12" font-weight="500" fill="#9ca3af">"나 이거 맞아..." 싶으면 카드 명세서 한 번 보기</text>

  
    <rect x="100" y="180" width="300" height="160" rx="14" fill="#fff" stroke="#d97706" stroke-width="2"/>
    <rect x="100" y="180" width="300" height="42" rx="14" fill="#d97706"/>
    <rect x="100" y="208" width="300" height="14" fill="#d97706"/>
    <text x="250" y="208" text-anchor="middle" font-size="16" font-weight="800" fill="#fff">🍽 외식·경험</text>

    
      <g transform="translate(120, 250)">
        <rect x="0" y="0" width="76" height="60" rx="10" fill="#d97706" opacity="0.12"/>
        <text x="38" y="22" text-anchor="middle" font-size="10" font-weight="600" fill="#d97706">TOP 1</text>
        <text x="38" y="46" text-anchor="middle" font-size="15" font-weight="800" fill="#d97706">ESFP</text>
      </g>
    
      <g transform="translate(210, 250)">
        <rect x="0" y="0" width="76" height="60" rx="10" fill="#d97706" opacity="0.12"/>
        <text x="38" y="22" text-anchor="middle" font-size="10" font-weight="600" fill="#d97706">TOP 2</text>
        <text x="38" y="46" text-anchor="middle" font-size="15" font-weight="800" fill="#d97706">ENFP</text>
      </g>
    
      <g transform="translate(300, 250)">
        <rect x="0" y="0" width="76" height="60" rx="10" fill="#d97706" opacity="0.12"/>
        <text x="38" y="22" text-anchor="middle" font-size="10" font-weight="600" fill="#d97706">TOP 3</text>
        <text x="38" y="46" text-anchor="middle" font-size="15" font-weight="800" fill="#d97706">ESTP</text>
      </g>
    
  
    <rect x="450" y="180" width="300" height="160" rx="14" fill="#fff" stroke="#0891b2" stroke-width="2"/>
    <rect x="450" y="180" width="300" height="42" rx="14" fill="#0891b2"/>
    <rect x="450" y="208" width="300" height="14" fill="#0891b2"/>
    <text x="600" y="208" text-anchor="middle" font-size="16" font-weight="800" fill="#fff">📚 지식·책</text>

    
      <g transform="translate(470, 250)">
        <rect x="0" y="0" width="76" height="60" rx="10" fill="#0891b2" opacity="0.12"/>
        <text x="38" y="22" text-anchor="middle" font-size="10" font-weight="600" fill="#0891b2">TOP 1</text>
        <text x="38" y="46" text-anchor="middle" font-size="15" font-weight="800" fill="#0891b2">INTP</text>
      </g>
    
      <g transform="translate(560, 250)">
        <rect x="0" y="0" width="76" height="60" rx="10" fill="#0891b2" opacity="0.12"/>
        <text x="38" y="22" text-anchor="middle" font-size="10" font-weight="600" fill="#0891b2">TOP 2</text>
        <text x="38" y="46" text-anchor="middle" font-size="15" font-weight="800" fill="#0891b2">INTJ</text>
      </g>
    
      <g transform="translate(650, 250)">
        <rect x="0" y="0" width="76" height="60" rx="10" fill="#0891b2" opacity="0.12"/>
        <text x="38" y="22" text-anchor="middle" font-size="10" font-weight="600" fill="#0891b2">TOP 3</text>
        <text x="38" y="46" text-anchor="middle" font-size="15" font-weight="800" fill="#0891b2">INFJ</text>
      </g>
    
  
    <rect x="800" y="180" width="300" height="160" rx="14" fill="#fff" stroke="#f59e0b" stroke-width="2"/>
    <rect x="800" y="180" width="300" height="42" rx="14" fill="#f59e0b"/>
    <rect x="800" y="208" width="300" height="14" fill="#f59e0b"/>
    <text x="950" y="208" text-anchor="middle" font-size="16" font-weight="800" fill="#fff">🛠 도구·취미</text>

    
      <g transform="translate(820, 250)">
        <rect x="0" y="0" width="76" height="60" rx="10" fill="#f59e0b" opacity="0.12"/>
        <text x="38" y="22" text-anchor="middle" font-size="10" font-weight="600" fill="#f59e0b">TOP 1</text>
        <text x="38" y="46" text-anchor="middle" font-size="15" font-weight="800" fill="#f59e0b">ISTP</text>
      </g>
    
      <g transform="translate(910, 250)">
        <rect x="0" y="0" width="76" height="60" rx="10" fill="#f59e0b" opacity="0.12"/>
        <text x="38" y="22" text-anchor="middle" font-size="10" font-weight="600" fill="#f59e0b">TOP 2</text>
        <text x="38" y="46" text-anchor="middle" font-size="15" font-weight="800" fill="#f59e0b">ISFP</text>
      </g>
    
      <g transform="translate(1000, 250)">
        <rect x="0" y="0" width="76" height="60" rx="10" fill="#f59e0b" opacity="0.12"/>
        <text x="38" y="22" text-anchor="middle" font-size="10" font-weight="600" fill="#f59e0b">TOP 3</text>
        <text x="38" y="46" text-anchor="middle" font-size="15" font-weight="800" fill="#f59e0b">ENTP</text>
      </g>
    
  
    <rect x="100" y="400" width="300" height="160" rx="14" fill="#fff" stroke="#e11d48" stroke-width="2"/>
    <rect x="100" y="400" width="300" height="42" rx="14" fill="#e11d48"/>
    <rect x="100" y="428" width="300" height="14" fill="#e11d48"/>
    <text x="250" y="428" text-anchor="middle" font-size="16" font-weight="800" fill="#fff">🎁 선물·관계</text>

    
      <g transform="translate(120, 470)">
        <rect x="0" y="0" width="76" height="60" rx="10" fill="#e11d48" opacity="0.12"/>
        <text x="38" y="22" text-anchor="middle" font-size="10" font-weight="600" fill="#e11d48">TOP 1</text>
        <text x="38" y="46" text-anchor="middle" font-size="15" font-weight="800" fill="#e11d48">ESFJ</text>
      </g>
    
      <g transform="translate(210, 470)">
        <rect x="0" y="0" width="76" height="60" rx="10" fill="#e11d48" opacity="0.12"/>
        <text x="38" y="22" text-anchor="middle" font-size="10" font-weight="600" fill="#e11d48">TOP 2</text>
        <text x="38" y="46" text-anchor="middle" font-size="15" font-weight="800" fill="#e11d48">ENFJ</text>
      </g>
    
      <g transform="translate(300, 470)">
        <rect x="0" y="0" width="76" height="60" rx="10" fill="#e11d48" opacity="0.12"/>
        <text x="38" y="22" text-anchor="middle" font-size="10" font-weight="600" fill="#e11d48">TOP 3</text>
        <text x="38" y="46" text-anchor="middle" font-size="15" font-weight="800" fill="#e11d48">ISFJ</text>
      </g>
    
  
    <rect x="450" y="400" width="300" height="160" rx="14" fill="#fff" stroke="#f43f5e" stroke-width="2"/>
    <rect x="450" y="400" width="300" height="42" rx="14" fill="#f43f5e"/>
    <rect x="450" y="428" width="300" height="14" fill="#f43f5e"/>
    <text x="600" y="428" text-anchor="middle" font-size="16" font-weight="800" fill="#fff">🎨 예술·디자인</text>

    
      <g transform="translate(470, 470)">
        <rect x="0" y="0" width="76" height="60" rx="10" fill="#f43f5e" opacity="0.12"/>
        <text x="38" y="22" text-anchor="middle" font-size="10" font-weight="600" fill="#f43f5e">TOP 1</text>
        <text x="38" y="46" text-anchor="middle" font-size="15" font-weight="800" fill="#f43f5e">INFP</text>
      </g>
    
      <g transform="translate(560, 470)">
        <rect x="0" y="0" width="76" height="60" rx="10" fill="#f43f5e" opacity="0.12"/>
        <text x="38" y="22" text-anchor="middle" font-size="10" font-weight="600" fill="#f43f5e">TOP 2</text>
        <text x="38" y="46" text-anchor="middle" font-size="15" font-weight="800" fill="#f43f5e">ISFP</text>
      </g>
    
      <g transform="translate(650, 470)">
        <rect x="0" y="0" width="76" height="60" rx="10" fill="#f43f5e" opacity="0.12"/>
        <text x="38" y="22" text-anchor="middle" font-size="10" font-weight="600" fill="#f43f5e">TOP 3</text>
        <text x="38" y="46" text-anchor="middle" font-size="15" font-weight="800" fill="#f43f5e">INFJ</text>
      </g>
    
  
    <rect x="800" y="400" width="300" height="160" rx="14" fill="#fff" stroke="#059669" stroke-width="2"/>
    <rect x="800" y="400" width="300" height="42" rx="14" fill="#059669"/>
    <rect x="800" y="428" width="300" height="14" fill="#059669"/>
    <text x="950" y="428" text-anchor="middle" font-size="16" font-weight="800" fill="#fff">🏠 안정·자산</text>

    
      <g transform="translate(820, 470)">
        <rect x="0" y="0" width="76" height="60" rx="10" fill="#059669" opacity="0.12"/>
        <text x="38" y="22" text-anchor="middle" font-size="10" font-weight="600" fill="#059669">TOP 1</text>
        <text x="38" y="46" text-anchor="middle" font-size="15" font-weight="800" fill="#059669">ISTJ</text>
      </g>
    
      <g transform="translate(910, 470)">
        <rect x="0" y="0" width="76" height="60" rx="10" fill="#059669" opacity="0.12"/>
        <text x="38" y="22" text-anchor="middle" font-size="10" font-weight="600" fill="#059669">TOP 2</text>
        <text x="38" y="46" text-anchor="middle" font-size="15" font-weight="800" fill="#059669">ESTJ</text>
      </g>
    
      <g transform="translate(1000, 470)">
        <rect x="0" y="0" width="76" height="60" rx="10" fill="#059669" opacity="0.12"/>
        <text x="38" y="22" text-anchor="middle" font-size="10" font-weight="600" fill="#059669">TOP 3</text>
        <text x="38" y="46" text-anchor="middle" font-size="15" font-weight="800" fill="#059669">ISFJ</text>
      </g>
    
  
    <rect x="275" y="620" width="300" height="160" rx="14" fill="#fff" stroke="#06b6d4" stroke-width="2"/>
    <rect x="275" y="620" width="300" height="42" rx="14" fill="#06b6d4"/>
    <rect x="275" y="648" width="300" height="14" fill="#06b6d4"/>
    <text x="425" y="648" text-anchor="middle" font-size="16" font-weight="800" fill="#fff">💼 투자·수익</text>

    
      <g transform="translate(295, 690)">
        <rect x="0" y="0" width="76" height="60" rx="10" fill="#06b6d4" opacity="0.12"/>
        <text x="38" y="22" text-anchor="middle" font-size="10" font-weight="600" fill="#06b6d4">TOP 1</text>
        <text x="38" y="46" text-anchor="middle" font-size="15" font-weight="800" fill="#06b6d4">ENTJ</text>
      </g>
    
      <g transform="translate(385, 690)">
        <rect x="0" y="0" width="76" height="60" rx="10" fill="#06b6d4" opacity="0.12"/>
        <text x="38" y="22" text-anchor="middle" font-size="10" font-weight="600" fill="#06b6d4">TOP 2</text>
        <text x="38" y="46" text-anchor="middle" font-size="15" font-weight="800" fill="#06b6d4">INTJ</text>
      </g>
    
      <g transform="translate(475, 690)">
        <rect x="0" y="0" width="76" height="60" rx="10" fill="#06b6d4" opacity="0.12"/>
        <text x="38" y="22" text-anchor="middle" font-size="10" font-weight="600" fill="#06b6d4">TOP 3</text>
        <text x="38" y="46" text-anchor="middle" font-size="15" font-weight="800" fill="#06b6d4">ESTP</text>
      </g>
    
  
    <rect x="625" y="620" width="300" height="160" rx="14" fill="#fff" stroke="#10b981" stroke-width="2"/>
    <rect x="625" y="620" width="300" height="42" rx="14" fill="#10b981"/>
    <rect x="625" y="648" width="300" height="14" fill="#10b981"/>
    <text x="775" y="648" text-anchor="middle" font-size="16" font-weight="800" fill="#fff">✈ 여행·모험</text>

    
      <g transform="translate(645, 690)">
        <rect x="0" y="0" width="76" height="60" rx="10" fill="#10b981" opacity="0.12"/>
        <text x="38" y="22" text-anchor="middle" font-size="10" font-weight="600" fill="#10b981">TOP 1</text>
        <text x="38" y="46" text-anchor="middle" font-size="15" font-weight="800" fill="#10b981">ENFP</text>
      </g>
    
      <g transform="translate(735, 690)">
        <rect x="0" y="0" width="76" height="60" rx="10" fill="#10b981" opacity="0.12"/>
        <text x="38" y="22" text-anchor="middle" font-size="10" font-weight="600" fill="#10b981">TOP 2</text>
        <text x="38" y="46" text-anchor="middle" font-size="15" font-weight="800" fill="#10b981">ENTP</text>
      </g>
    
      <g transform="translate(825, 690)">
        <rect x="0" y="0" width="76" height="60" rx="10" fill="#10b981" opacity="0.12"/>
        <text x="38" y="22" text-anchor="middle" font-size="10" font-weight="600" fill="#10b981">TOP 3</text>
        <text x="38" y="46" text-anchor="middle" font-size="15" font-weight="800" fill="#10b981">ESFP</text>
      </g>
    
  
  
<text x="1180" y="892" text-anchor="end" font-size="10" font-weight="500" fill="#9ca3af" opacity="0.85">192types.co.kr · MBTI 경제학 시리즈</text>
</svg>