<?xml version="1.0" encoding="UTF-8"?>
<svg xmlns="http://www.w3.org/2000/svg" viewBox="0 0 1200 900" width="1200" height="900" font-family="'Pretendard', 'Apple SD Gothic Neo', 'Noto Sans KR', system-ui, sans-serif">
<rect width="1200" height="900" fill="#fafafa"/>

  <text x="600" y="56" text-anchor="middle" font-size="42" font-weight="800" fill="#171717">리스크 × 투자 시야 매트릭스</text>
  <text x="600" y="86" text-anchor="middle" font-size="20" font-weight="500" fill="#6b7280">16유형을 감수성과 시간지평으로 펼쳐본 맵</text>

  <!-- Quadrant backgrounds -->
  <rect x="150" y="140" width="450" height="310" fill="#ecfdf5" opacity="0.55"/>
  <rect x="600" y="140" width="450" height="310" fill="#ecfeff" opacity="0.55"/>
  <rect x="150" y="450" width="450" height="310" fill="#fff1f2" opacity="0.55"/>
  <rect x="600" y="450" width="450" height="310" fill="#fffbeb" opacity="0.55"/>

  <!-- Quadrant labels -->
  <text x="170" y="170" font-size="18" font-weight="700" fill="#047857" letter-spacing="2">SJ · 보수적 저축가</text>
  <text x="170" y="188" font-size="15" fill="#047857" opacity="0.8">연금·예적금·장기운용</text>

  <text x="1030" y="170" text-anchor="end" font-size="18" font-weight="700" fill="#0e7490" letter-spacing="2">NT · 전략 투자가</text>
  <text x="1030" y="188" text-anchor="end" font-size="15" fill="#0e7490" opacity="0.8">가치투자·레버리지·포트폴리오</text>

  <text x="170" y="480" font-size="18" font-weight="700" fill="#be123c" letter-spacing="2">NF · 가치기반 소비자</text>
  <text x="170" y="498" font-size="15" fill="#be123c" opacity="0.8">ESG·후원·경험 중심 지출</text>

  <text x="1030" y="480" text-anchor="end" font-size="18" font-weight="700" fill="#b45309" letter-spacing="2">SP · 기회포착형</text>
  <text x="1030" y="498" text-anchor="end" font-size="15" fill="#b45309" opacity="0.8">단타·스윙·사이드잡·즉흥소비</text>

  <!-- Axes -->
  <line x1="150" y1="450" x2="1050" y2="450" stroke="#d1d5db" stroke-width="1.5"/>
  <line x1="600" y1="140" x2="600" y2="760" stroke="#d1d5db" stroke-width="1.5"/>
  <polygon points="1050,450 1040,445 1040,455" fill="#d1d5db"/>
  <polygon points="600,140 595,150 605,150" fill="#d1d5db"/>
  <polygon points="150,450 160,445 160,455" fill="#d1d5db"/>
  <polygon points="600,760 595,750 605,750" fill="#d1d5db"/>

  <text x="140" y="455" text-anchor="end" font-size="18" font-weight="600" fill="#374151">리스크 회피</text>
  <text x="1060" y="455" font-size="18" font-weight="600" fill="#374151">리스크 추구</text>
  <text x="600" y="128" text-anchor="middle" font-size="18" font-weight="600" fill="#374151">장기 시야</text>
  <text x="600" y="780" text-anchor="middle" font-size="18" font-weight="600" fill="#374151">단기 시야</text>

  
    <circle cx="250" cy="240" r="30" fill="#059669"/>
    <text x="250" y="245" text-anchor="middle" font-size="18" font-weight="800" fill="#fff">ISTJ</text>
  
    <circle cx="340" cy="320" r="30" fill="#059669"/>
    <text x="340" y="325" text-anchor="middle" font-size="18" font-weight="800" fill="#fff">ESTJ</text>
  
    <circle cx="480" cy="230" r="30" fill="#059669"/>
    <text x="480" y="235" text-anchor="middle" font-size="18" font-weight="800" fill="#fff">ISFJ</text>
  
    <circle cx="540" cy="380" r="30" fill="#059669"/>
    <text x="540" y="385" text-anchor="middle" font-size="18" font-weight="800" fill="#fff">ESFJ</text>
  
    <circle cx="740" cy="220" r="30" fill="#0891b2"/>
    <text x="740" y="225" text-anchor="middle" font-size="18" font-weight="800" fill="#fff">INTJ</text>
  
    <circle cx="900" cy="280" r="30" fill="#0891b2"/>
    <text x="900" y="285" text-anchor="middle" font-size="18" font-weight="800" fill="#fff">ENTJ</text>
  
    <circle cx="700" cy="380" r="30" fill="#0891b2"/>
    <text x="700" y="385" text-anchor="middle" font-size="18" font-weight="800" fill="#fff">INTP</text>
  
    <circle cx="960" cy="370" r="30" fill="#0891b2"/>
    <text x="960" y="375" text-anchor="middle" font-size="18" font-weight="800" fill="#fff">ENTP</text>
  
    <circle cx="290" cy="540" r="30" fill="#e11d48"/>
    <text x="290" y="545" text-anchor="middle" font-size="18" font-weight="800" fill="#fff">INFJ</text>
  
    <circle cx="420" cy="600" r="30" fill="#e11d48"/>
    <text x="420" y="605" text-anchor="middle" font-size="18" font-weight="800" fill="#fff">INFP</text>
  
    <circle cx="360" cy="690" r="30" fill="#e11d48"/>
    <text x="360" y="695" text-anchor="middle" font-size="18" font-weight="800" fill="#fff">ENFJ</text>
  
    <circle cx="520" cy="660" r="30" fill="#e11d48"/>
    <text x="520" y="665" text-anchor="middle" font-size="18" font-weight="800" fill="#fff">ENFP</text>
  
    <circle cx="680" cy="540" r="30" fill="#d97706"/>
    <text x="680" y="545" text-anchor="middle" font-size="18" font-weight="800" fill="#fff">ISTP</text>
  
    <circle cx="860" cy="580" r="30" fill="#d97706"/>
    <text x="860" y="585" text-anchor="middle" font-size="18" font-weight="800" fill="#fff">ESTP</text>
  
    <circle cx="760" cy="680" r="30" fill="#d97706"/>
    <text x="760" y="685" text-anchor="middle" font-size="18" font-weight="800" fill="#fff">ISFP</text>
  
    <circle cx="960" cy="700" r="30" fill="#d97706"/>
    <text x="960" y="705" text-anchor="middle" font-size="18" font-weight="800" fill="#fff">ESFP</text>
  

  <!-- Legend -->
  <g transform="translate(150, 810)">
    <rect x="0" y="0" width="900" height="56" fill="#fff" stroke="#e5e7eb" stroke-width="1" rx="8"/>
    
      <circle cx="30" cy="28" r="8" fill="#059669"/>
      <text x="45" y="24" font-size="17" font-weight="700" fill="#374151">SJ · 안정형</text>
      <text x="45" y="42" font-size="14" fill="#6b7280">예적금 · 연금</text>
    
      <circle cx="250" cy="28" r="8" fill="#0891b2"/>
      <text x="265" y="24" font-size="17" font-weight="700" fill="#374151">NT · 전략형</text>
      <text x="265" y="42" font-size="14" fill="#6b7280">장기·분석</text>
    
      <circle cx="470" cy="28" r="8" fill="#e11d48"/>
      <text x="485" y="24" font-size="17" font-weight="700" fill="#374151">NF · 가치형</text>
      <text x="485" y="42" font-size="14" fill="#6b7280">의미·경험</text>
    
      <circle cx="690" cy="28" r="8" fill="#d97706"/>
      <text x="705" y="24" font-size="17" font-weight="700" fill="#374151">SP · 기회형</text>
      <text x="705" y="42" font-size="14" fill="#6b7280">실전·즉흥</text>
    
  </g>
  
<text x="1180" y="892" text-anchor="end" font-size="10" font-weight="500" fill="#9ca3af" opacity="0.85">192types.co.kr · MBTI 경제학 시리즈</text>
</svg>