<?xml version="1.0" encoding="UTF-8"?>
<svg xmlns="http://www.w3.org/2000/svg" viewBox="0 0 1200 900" width="1200" height="900" font-family="'Pretendard', 'Apple SD Gothic Neo', 'Noto Sans KR', system-ui, sans-serif">
<rect width="1200" height="900" fill="#fafafa"/>

  <text x="600" y="52" text-anchor="middle" font-size="39" font-weight="800" fill="#171717">저축률 16유형 순위</text>
  <text x="600" y="82" text-anchor="middle" font-size="18" font-weight="500" fill="#6b7280">소득 대비 저축 비율 · 100점 만점</text>

  
      <text x="45" y="146" font-size="16" font-weight="800" fill="#f59e0b">1</text>
      <circle cx="95" cy="141" r="12" fill="#059669"/>
      <text x="115" y="146" font-size="15" font-weight="800" fill="#059669">ISTJ</text>
      <text x="170" y="146" font-size="15" fill="#6b7280">월급의 50%+ 자동 이체</text>
      <rect x="430" y="130" width="768" height="22" rx="11" fill="#059669" opacity="1"/>
      <text x="1208" y="146" font-size="17" font-weight="800" fill="#059669">96</text>
    
      <text x="45" y="190" font-size="16" font-weight="800" fill="#9ca3af">2</text>
      <circle cx="95" cy="185" r="12" fill="#059669"/>
      <text x="115" y="190" font-size="15" font-weight="800" fill="#059669">ISFJ</text>
      <text x="170" y="190" font-size="15" fill="#6b7280">가족 미래 대비 비상금</text>
      <rect x="430" y="174" width="736" height="22" rx="11" fill="#059669" opacity="1"/>
      <text x="1176" y="190" font-size="17" font-weight="800" fill="#059669">92</text>
    
      <text x="45" y="234" font-size="16" font-weight="800" fill="#b45309">3</text>
      <circle cx="95" cy="229" r="12" fill="#0891b2"/>
      <text x="115" y="234" font-size="15" font-weight="800" fill="#0891b2">INTJ</text>
      <text x="170" y="234" font-size="15" fill="#6b7280">장기 계획형 체계 저축</text>
      <rect x="430" y="218" width="704" height="22" rx="11" fill="#0891b2" opacity="1"/>
      <text x="1144" y="234" font-size="17" font-weight="800" fill="#0891b2">88</text>
    
      <text x="45" y="278" font-size="13" font-weight="600" fill="#374151">4</text>
      <circle cx="95" cy="273" r="12" fill="#059669"/>
      <text x="115" y="278" font-size="13" font-weight="700" fill="#059669">ESTJ</text>
      <text x="170" y="278" font-size="15" fill="#6b7280">목표 기반 타임라인 저축</text>
      <rect x="430" y="262" width="680" height="22" rx="11" fill="#059669" opacity="1"/>
      <text x="1120" y="278" font-size="17" font-weight="800" fill="#059669">85</text>
    
      <text x="45" y="322" font-size="13" font-weight="600" fill="#374151">5</text>
      <circle cx="95" cy="317" r="12" fill="#e11d48"/>
      <text x="115" y="322" font-size="13" font-weight="700" fill="#e11d48">INFJ</text>
      <text x="170" y="322" font-size="15" fill="#6b7280">조용한 꾸준함</text>
      <rect x="430" y="306" width="624" height="22" rx="11" fill="#e11d48" opacity="1"/>
      <text x="1064" y="322" font-size="17" font-weight="800" fill="#e11d48">78</text>
    
      <text x="45" y="366" font-size="13" font-weight="600" fill="#374151">6</text>
      <circle cx="95" cy="361" r="12" fill="#059669"/>
      <text x="115" y="366" font-size="13" font-weight="700" fill="#059669">ESFJ</text>
      <text x="170" y="366" font-size="15" fill="#6b7280">가족 이벤트 대비</text>
      <rect x="430" y="350" width="592" height="22" rx="11" fill="#059669" opacity="1"/>
      <text x="1032" y="366" font-size="17" font-weight="800" fill="#059669">74</text>
    
      <text x="45" y="410" font-size="13" font-weight="600" fill="#374151">7</text>
      <circle cx="95" cy="405" r="12" fill="#0891b2"/>
      <text x="115" y="410" font-size="13" font-weight="700" fill="#0891b2">INTP</text>
      <text x="170" y="410" font-size="15" fill="#6b7280">이론상 합리적 배분</text>
      <rect x="430" y="394" width="528" height="22" rx="11" fill="#0891b2" opacity="1"/>
      <text x="968" y="410" font-size="17" font-weight="800" fill="#0891b2">66</text>
    
      <text x="45" y="454" font-size="13" font-weight="600" fill="#374151">8</text>
      <circle cx="95" cy="449" r="12" fill="#d97706"/>
      <text x="115" y="454" font-size="13" font-weight="700" fill="#d97706">ISTP</text>
      <text x="170" y="454" font-size="15" fill="#6b7280">도구 살 때만 지출, 나머지 저축</text>
      <rect x="430" y="438" width="496" height="22" rx="11" fill="#d97706" opacity="1"/>
      <text x="936" y="454" font-size="17" font-weight="800" fill="#d97706">62</text>
    
      <text x="45" y="498" font-size="13" font-weight="600" fill="#374151">9</text>
      <circle cx="95" cy="493" r="12" fill="#0891b2"/>
      <text x="115" y="498" font-size="13" font-weight="700" fill="#0891b2">ENTJ</text>
      <text x="170" y="498" font-size="15" fill="#6b7280">재투자 우선 저축 후순위</text>
      <rect x="430" y="482" width="464" height="22" rx="11" fill="#0891b2" opacity="0.55"/>
      <text x="904" y="498" font-size="17" font-weight="800" fill="#0891b2">58</text>
    
      <text x="45" y="542" font-size="13" font-weight="600" fill="#374151">10</text>
      <circle cx="95" cy="537" r="12" fill="#d97706"/>
      <text x="115" y="542" font-size="13" font-weight="700" fill="#d97706">ISFP</text>
      <text x="170" y="542" font-size="15" fill="#6b7280">감각적 소비 빈번</text>
      <rect x="430" y="526" width="384" height="22" rx="11" fill="#d97706" opacity="0.55"/>
      <text x="824" y="542" font-size="17" font-weight="800" fill="#d97706">48</text>
    
      <text x="45" y="586" font-size="13" font-weight="600" fill="#374151">11</text>
      <circle cx="95" cy="581" r="12" fill="#0891b2"/>
      <text x="115" y="586" font-size="13" font-weight="700" fill="#0891b2">ENTP</text>
      <text x="170" y="586" font-size="15" fill="#6b7280">포트폴리오 자주 리셋</text>
      <rect x="430" y="570" width="336" height="22" rx="11" fill="#0891b2" opacity="0.55"/>
      <text x="776" y="586" font-size="17" font-weight="800" fill="#0891b2">42</text>
    
      <text x="45" y="630" font-size="13" font-weight="600" fill="#374151">12</text>
      <circle cx="95" cy="625" r="12" fill="#e11d48"/>
      <text x="115" y="630" font-size="13" font-weight="700" fill="#e11d48">INFP</text>
      <text x="170" y="630" font-size="15" fill="#6b7280">충동 후원 소비</text>
      <rect x="430" y="614" width="304" height="22" rx="11" fill="#e11d48" opacity="0.55"/>
      <text x="744" y="630" font-size="17" font-weight="800" fill="#e11d48">38</text>
    
      <text x="45" y="674" font-size="13" font-weight="600" fill="#374151">13</text>
      <circle cx="95" cy="669" r="12" fill="#e11d48"/>
      <text x="115" y="674" font-size="13" font-weight="700" fill="#e11d48">ENFJ</text>
      <text x="170" y="674" font-size="15" fill="#6b7280">관계 유지비가 큼</text>
      <rect x="430" y="658" width="272" height="22" rx="11" fill="#e11d48" opacity="0.55"/>
      <text x="712" y="674" font-size="17" font-weight="800" fill="#e11d48">34</text>
    
      <text x="45" y="718" font-size="13" font-weight="600" fill="#374151">14</text>
      <circle cx="95" cy="713" r="12" fill="#e11d48"/>
      <text x="115" y="718" font-size="13" font-weight="700" fill="#e11d48">ENFP</text>
      <text x="170" y="718" font-size="15" fill="#6b7280">경험형 소비자</text>
      <rect x="430" y="702" width="224" height="22" rx="11" fill="#e11d48" opacity="0.55"/>
      <text x="664" y="718" font-size="17" font-weight="800" fill="#e11d48">28</text>
    
      <text x="45" y="762" font-size="13" font-weight="600" fill="#374151">15</text>
      <circle cx="95" cy="757" r="12" fill="#d97706"/>
      <text x="115" y="762" font-size="13" font-weight="700" fill="#d97706">ESTP</text>
      <text x="170" y="762" font-size="15" fill="#6b7280">쓰고 버는 구조</text>
      <rect x="430" y="746" width="176" height="22" rx="11" fill="#d97706" opacity="0.55"/>
      <text x="616" y="762" font-size="17" font-weight="800" fill="#d97706">22</text>
    
      <text x="45" y="806" font-size="13" font-weight="600" fill="#374151">16</text>
      <circle cx="95" cy="801" r="12" fill="#d97706"/>
      <text x="115" y="806" font-size="13" font-weight="700" fill="#d97706">ESFP</text>
      <text x="170" y="806" font-size="15" fill="#6b7280">지금의 즐거움 우선</text>
      <rect x="430" y="790" width="128" height="22" rx="11" fill="#d97706" opacity="0.55"/>
      <text x="568" y="806" font-size="17" font-weight="800" fill="#d97706">16</text>
    
  
<text x="1180" y="892" text-anchor="end" font-size="10" font-weight="500" fill="#9ca3af" opacity="0.85">192types.co.kr · MBTI 경제학 시리즈</text>
</svg>