<?xml version="1.0" encoding="UTF-8"?>
<svg xmlns="http://www.w3.org/2000/svg" viewBox="0 0 1200 900" width="1200" height="900" font-family="'Pretendard', 'Apple SD Gothic Neo', 'Noto Sans KR', system-ui, sans-serif">
<rect width="1200" height="900" fill="#fafafa"/>

  <text x="600" y="56" text-anchor="middle" font-size="30" font-weight="800" fill="#171717">유형별 재테크 액션 체크리스트</text>
  <text x="600" y="86" text-anchor="middle" font-size="14" font-weight="500" fill="#6b7280">오늘 당장 시작할 수 있는 4가지</text>

  
      <rect x="60" y="130" width="540" height="310" rx="16" fill="#fff" stroke="#0891b2" stroke-width="2"/>
      <rect x="60" y="130" width="540" height="60" rx="16" fill="#0891b2"/>
      <rect x="60" y="174" width="540" height="16" fill="#0891b2"/>
      <text x="90" y="168" font-size="20" font-weight="800" fill="#fff">NT · 전략가</text>

      
        <g transform="translate(90, 220)">
          <rect x="-5" y="-20" width="500" height="46" rx="8" fill="#0891b2" opacity="0.06"/>
          <rect x="5" y="-10" width="24" height="24" rx="5" fill="none" stroke="#0891b2" stroke-width="2"/>
          <text x="15" y="6" text-anchor="middle" font-size="14" font-weight="800" fill="#0891b2">1</text>
          <text x="42" y="6" font-size="13" font-weight="600" fill="#374151">월 포트폴리오 리밸런싱 (3·6·9·12월)</text>
        </g>
      
        <g transform="translate(90, 274)">
          <rect x="-5" y="-20" width="500" height="46" rx="8" fill="#0891b2" opacity="0.06"/>
          <rect x="5" y="-10" width="24" height="24" rx="5" fill="none" stroke="#0891b2" stroke-width="2"/>
          <text x="15" y="6" text-anchor="middle" font-size="14" font-weight="800" fill="#0891b2">2</text>
          <text x="42" y="6" font-size="13" font-weight="600" fill="#374151">관심 기업 재무제표 분기별 체크</text>
        </g>
      
        <g transform="translate(90, 328)">
          <rect x="-5" y="-20" width="500" height="46" rx="8" fill="#0891b2" opacity="0.06"/>
          <rect x="5" y="-10" width="24" height="24" rx="5" fill="none" stroke="#0891b2" stroke-width="2"/>
          <text x="15" y="6" text-anchor="middle" font-size="14" font-weight="800" fill="#0891b2">3</text>
          <text x="42" y="6" font-size="13" font-weight="600" fill="#374151">레버리지 상한 자산의 30% 룰</text>
        </g>
      
        <g transform="translate(90, 382)">
          <rect x="-5" y="-20" width="500" height="46" rx="8" fill="#0891b2" opacity="0.06"/>
          <rect x="5" y="-10" width="24" height="24" rx="5" fill="none" stroke="#0891b2" stroke-width="2"/>
          <text x="15" y="6" text-anchor="middle" font-size="14" font-weight="800" fill="#0891b2">4</text>
          <text x="42" y="6" font-size="13" font-weight="600" fill="#374151">세후 수익률 엑셀 자동 계산 시트 만들기</text>
        </g>
      
    
      <rect x="620" y="130" width="540" height="310" rx="16" fill="#fff" stroke="#e11d48" stroke-width="2"/>
      <rect x="620" y="130" width="540" height="60" rx="16" fill="#e11d48"/>
      <rect x="620" y="174" width="540" height="16" fill="#e11d48"/>
      <text x="650" y="168" font-size="20" font-weight="800" fill="#fff">NF · 가치형</text>

      
        <g transform="translate(650, 220)">
          <rect x="-5" y="-20" width="500" height="46" rx="8" fill="#e11d48" opacity="0.06"/>
          <rect x="5" y="-10" width="24" height="24" rx="5" fill="none" stroke="#e11d48" stroke-width="2"/>
          <text x="15" y="6" text-anchor="middle" font-size="14" font-weight="800" fill="#e11d48">1</text>
          <text x="42" y="6" font-size="13" font-weight="600" fill="#374151">ESG 펀드 1~2개 장기 보유</text>
        </g>
      
        <g transform="translate(650, 274)">
          <rect x="-5" y="-20" width="500" height="46" rx="8" fill="#e11d48" opacity="0.06"/>
          <rect x="5" y="-10" width="24" height="24" rx="5" fill="none" stroke="#e11d48" stroke-width="2"/>
          <text x="15" y="6" text-anchor="middle" font-size="14" font-weight="800" fill="#e11d48">2</text>
          <text x="42" y="6" font-size="13" font-weight="600" fill="#374151">월 후원·기부 예산 고정 (5~10%)</text>
        </g>
      
        <g transform="translate(650, 328)">
          <rect x="-5" y="-20" width="500" height="46" rx="8" fill="#e11d48" opacity="0.06"/>
          <rect x="5" y="-10" width="24" height="24" rx="5" fill="none" stroke="#e11d48" stroke-width="2"/>
          <text x="15" y="6" text-anchor="middle" font-size="14" font-weight="800" fill="#e11d48">3</text>
          <text x="42" y="6" font-size="13" font-weight="600" fill="#374151">충동 후원 소비 2주 쿨링오프</text>
        </g>
      
        <g transform="translate(650, 382)">
          <rect x="-5" y="-20" width="500" height="46" rx="8" fill="#e11d48" opacity="0.06"/>
          <rect x="5" y="-10" width="24" height="24" rx="5" fill="none" stroke="#e11d48" stroke-width="2"/>
          <text x="15" y="6" text-anchor="middle" font-size="14" font-weight="800" fill="#e11d48">4</text>
          <text x="42" y="6" font-size="13" font-weight="600" fill="#374151">가치관 맞는 브랜드 정기구독 정리</text>
        </g>
      
    
      <rect x="60" y="470" width="540" height="310" rx="16" fill="#fff" stroke="#059669" stroke-width="2"/>
      <rect x="60" y="470" width="540" height="60" rx="16" fill="#059669"/>
      <rect x="60" y="514" width="540" height="16" fill="#059669"/>
      <text x="90" y="508" font-size="20" font-weight="800" fill="#fff">SJ · 안정형</text>

      
        <g transform="translate(90, 560)">
          <rect x="-5" y="-20" width="500" height="46" rx="8" fill="#059669" opacity="0.06"/>
          <rect x="5" y="-10" width="24" height="24" rx="5" fill="none" stroke="#059669" stroke-width="2"/>
          <text x="15" y="6" text-anchor="middle" font-size="14" font-weight="800" fill="#059669">1</text>
          <text x="42" y="6" font-size="13" font-weight="600" fill="#374151">월급의 40%+ 자동 이체 저축</text>
        </g>
      
        <g transform="translate(90, 614)">
          <rect x="-5" y="-20" width="500" height="46" rx="8" fill="#059669" opacity="0.06"/>
          <rect x="5" y="-10" width="24" height="24" rx="5" fill="none" stroke="#059669" stroke-width="2"/>
          <text x="15" y="6" text-anchor="middle" font-size="14" font-weight="800" fill="#059669">2</text>
          <text x="42" y="6" font-size="13" font-weight="600" fill="#374151">비상금 6개월치 기본 확보</text>
        </g>
      
        <g transform="translate(90, 668)">
          <rect x="-5" y="-20" width="500" height="46" rx="8" fill="#059669" opacity="0.06"/>
          <rect x="5" y="-10" width="24" height="24" rx="5" fill="none" stroke="#059669" stroke-width="2"/>
          <text x="15" y="6" text-anchor="middle" font-size="14" font-weight="800" fill="#059669">3</text>
          <text x="42" y="6" font-size="13" font-weight="600" fill="#374151">보험·연금 점검 연 1회</text>
        </g>
      
        <g transform="translate(90, 722)">
          <rect x="-5" y="-20" width="500" height="46" rx="8" fill="#059669" opacity="0.06"/>
          <rect x="5" y="-10" width="24" height="24" rx="5" fill="none" stroke="#059669" stroke-width="2"/>
          <text x="15" y="6" text-anchor="middle" font-size="14" font-weight="800" fill="#059669">4</text>
          <text x="42" y="6" font-size="13" font-weight="600" fill="#374151">수익형 자산 10% 할당해 기회 놓치기 방지</text>
        </g>
      
    
      <rect x="620" y="470" width="540" height="310" rx="16" fill="#fff" stroke="#d97706" stroke-width="2"/>
      <rect x="620" y="470" width="540" height="60" rx="16" fill="#d97706"/>
      <rect x="620" y="514" width="540" height="16" fill="#d97706"/>
      <text x="650" y="508" font-size="20" font-weight="800" fill="#fff">SP · 기회형</text>

      
        <g transform="translate(650, 560)">
          <rect x="-5" y="-20" width="500" height="46" rx="8" fill="#d97706" opacity="0.06"/>
          <rect x="5" y="-10" width="24" height="24" rx="5" fill="none" stroke="#d97706" stroke-width="2"/>
          <text x="15" y="6" text-anchor="middle" font-size="14" font-weight="800" fill="#d97706">1</text>
          <text x="42" y="6" font-size="13" font-weight="600" fill="#374151">현금 흐름 일일 체크 습관</text>
        </g>
      
        <g transform="translate(650, 614)">
          <rect x="-5" y="-20" width="500" height="46" rx="8" fill="#d97706" opacity="0.06"/>
          <rect x="5" y="-10" width="24" height="24" rx="5" fill="none" stroke="#d97706" stroke-width="2"/>
          <text x="15" y="6" text-anchor="middle" font-size="14" font-weight="800" fill="#d97706">2</text>
          <text x="42" y="6" font-size="13" font-weight="600" fill="#374151">투자 포지션 사이즈 5% 제한</text>
        </g>
      
        <g transform="translate(650, 668)">
          <rect x="-5" y="-20" width="500" height="46" rx="8" fill="#d97706" opacity="0.06"/>
          <rect x="5" y="-10" width="24" height="24" rx="5" fill="none" stroke="#d97706" stroke-width="2"/>
          <text x="15" y="6" text-anchor="middle" font-size="14" font-weight="800" fill="#d97706">3</text>
          <text x="42" y="6" font-size="13" font-weight="600" fill="#374151">월 고정 저축 자동화로 즉흥 방지</text>
        </g>
      
        <g transform="translate(650, 722)">
          <rect x="-5" y="-20" width="500" height="46" rx="8" fill="#d97706" opacity="0.06"/>
          <rect x="5" y="-10" width="24" height="24" rx="5" fill="none" stroke="#d97706" stroke-width="2"/>
          <text x="15" y="6" text-anchor="middle" font-size="14" font-weight="800" fill="#d97706">4</text>
          <text x="42" y="6" font-size="13" font-weight="600" fill="#374151">사이드잡·부업 수익 별도 계좌 분리</text>
        </g>
      
    
  
<text x="1180" y="892" text-anchor="end" font-size="10" font-weight="500" fill="#9ca3af" opacity="0.85">192types.co.kr · MBTI 경제학 시리즈</text>
</svg>