<?xml version="1.0" encoding="UTF-8"?>
<svg xmlns="http://www.w3.org/2000/svg" viewBox="0 0 1200 900" width="1200" height="900" font-family="'Pretendard', 'Apple SD Gothic Neo', 'Noto Sans KR', system-ui, sans-serif">
<rect width="1200" height="900" fill="#fafafa"/>

  <text x="600" y="56" text-anchor="middle" font-size="42" font-weight="800" fill="#171717">4기질 × 돈 관리 핵심 차이</text>
  <text x="600" y="86" text-anchor="middle" font-size="20" font-weight="500" fill="#6b7280">MBTI 같아도 기질 다르면 지출·저축 패턴 완전히 달라</text>

  
      <rect x="60" y="130" width="540" height="310" rx="16" fill="#fff" stroke="#f59e0b" stroke-width="2"/>
      <rect x="60" y="130" width="540" height="72" rx="16" fill="#f59e0b"/>
      <rect x="60" y="186" width="540" height="16" fill="#f59e0b"/>
      <text x="90" y="165" font-size="31" font-weight="800" fill="#fff">다혈질 (Sanguine)</text>
      <text x="90" y="188" font-size="18" font-weight="500" fill="#fff" opacity="0.9">충동 소비 · 경험 우선</text>

      <g transform="translate(90, 235)">
        <text x="0" y="0" font-size="17" font-weight="700" fill="#65a30d">✓ 강점</text>
        <text x="60" y="0" font-size="20" font-weight="600" fill="#374151">생활의 즐거움</text>
      </g>
      <g transform="translate(90, 280)">
        <text x="0" y="0" font-size="17" font-weight="700" fill="#e11d48">⚠ 약점</text>
        <text x="60" y="0" font-size="20" font-weight="600" fill="#374151">즉흥 결제</text>
      </g>
      <g transform="translate(90, 330)">
        <rect x="-10" y="-22" width="490" height="70" rx="10" fill="#f59e0b" opacity="0.08"/>
        <text x="0" y="0" font-size="17" font-weight="700" fill="#f59e0b">💡 실전 팁</text>
        <text x="0" y="22" font-size="20" font-weight="600" fill="#f59e0b">2주 쿨링오프 룰</text>
      </g>
    
      <rect x="620" y="130" width="540" height="310" rx="16" fill="#fff" stroke="#dc2626" stroke-width="2"/>
      <rect x="620" y="130" width="540" height="72" rx="16" fill="#dc2626"/>
      <rect x="620" y="186" width="540" height="16" fill="#dc2626"/>
      <text x="650" y="165" font-size="31" font-weight="800" fill="#fff">담즙질 (Choleric)</text>
      <text x="650" y="188" font-size="18" font-weight="500" fill="#fff" opacity="0.9">목표지향 · 과감한 투자</text>

      <g transform="translate(650, 235)">
        <text x="0" y="0" font-size="17" font-weight="700" fill="#65a30d">✓ 강점</text>
        <text x="60" y="0" font-size="20" font-weight="600" fill="#374151">빠른 결단</text>
      </g>
      <g transform="translate(650, 280)">
        <text x="0" y="0" font-size="17" font-weight="700" fill="#e11d48">⚠ 약점</text>
        <text x="60" y="0" font-size="20" font-weight="600" fill="#374151">과신 레버리지</text>
      </g>
      <g transform="translate(650, 330)">
        <rect x="-10" y="-22" width="490" height="70" rx="10" fill="#dc2626" opacity="0.08"/>
        <text x="0" y="0" font-size="17" font-weight="700" fill="#dc2626">💡 실전 팁</text>
        <text x="0" y="22" font-size="20" font-weight="600" fill="#dc2626">포지션 사이즈 제한</text>
      </g>
    
      <rect x="60" y="470" width="540" height="310" rx="16" fill="#fff" stroke="#0891b2" stroke-width="2"/>
      <rect x="60" y="470" width="540" height="72" rx="16" fill="#0891b2"/>
      <rect x="60" y="526" width="540" height="16" fill="#0891b2"/>
      <text x="90" y="505" font-size="31" font-weight="800" fill="#fff">점액질 (Phlegmatic)</text>
      <text x="90" y="528" font-size="18" font-weight="500" fill="#fff" opacity="0.9">안정 지향 · 루틴 저축</text>

      <g transform="translate(90, 575)">
        <text x="0" y="0" font-size="17" font-weight="700" fill="#65a30d">✓ 강점</text>
        <text x="60" y="0" font-size="20" font-weight="600" fill="#374151">꾸준한 축적</text>
      </g>
      <g transform="translate(90, 620)">
        <text x="0" y="0" font-size="17" font-weight="700" fill="#e11d48">⚠ 약점</text>
        <text x="60" y="0" font-size="20" font-weight="600" fill="#374151">기회 놓침</text>
      </g>
      <g transform="translate(90, 670)">
        <rect x="-10" y="-22" width="490" height="70" rx="10" fill="#0891b2" opacity="0.08"/>
        <text x="0" y="0" font-size="17" font-weight="700" fill="#0891b2">💡 실전 팁</text>
        <text x="0" y="22" font-size="20" font-weight="600" fill="#0891b2">월 10% 위험자산 할당</text>
      </g>
    
      <rect x="620" y="470" width="540" height="310" rx="16" fill="#fff" stroke="#7c3aed" stroke-width="2"/>
      <rect x="620" y="470" width="540" height="72" rx="16" fill="#7c3aed"/>
      <rect x="620" y="526" width="540" height="16" fill="#7c3aed"/>
      <text x="650" y="505" font-size="31" font-weight="800" fill="#fff">우울질 (Melancholic)</text>
      <text x="650" y="528" font-size="18" font-weight="500" fill="#fff" opacity="0.9">치밀 분석 · 과도한 대비</text>

      <g transform="translate(650, 575)">
        <text x="0" y="0" font-size="17" font-weight="700" fill="#65a30d">✓ 강점</text>
        <text x="60" y="0" font-size="20" font-weight="600" fill="#374151">리스크 관리</text>
      </g>
      <g transform="translate(650, 620)">
        <text x="0" y="0" font-size="17" font-weight="700" fill="#e11d48">⚠ 약점</text>
        <text x="60" y="0" font-size="20" font-weight="600" fill="#374151">분석마비</text>
      </g>
      <g transform="translate(650, 670)">
        <rect x="-10" y="-22" width="490" height="70" rx="10" fill="#7c3aed" opacity="0.08"/>
        <text x="0" y="0" font-size="17" font-weight="700" fill="#7c3aed">💡 실전 팁</text>
        <text x="0" y="22" font-size="20" font-weight="600" fill="#7c3aed">실행 데드라인 설정</text>
      </g>
    
  
<text x="1180" y="892" text-anchor="end" font-size="10" font-weight="500" fill="#9ca3af" opacity="0.85">192types.co.kr · MBTI 경제학 시리즈</text>
</svg>