<?xml version="1.0" encoding="UTF-8"?>
<svg xmlns="http://www.w3.org/2000/svg" viewBox="0 0 1200 900" width="1200" height="900" font-family="'Pretendard', 'Apple SD Gothic Neo', 'Noto Sans KR', system-ui, sans-serif">
<rect width="1200" height="900" fill="#faf8f5"/>

  <!-- 상단 제목 -->
  <rect x="0" y="0" width="1200" height="140" fill="#2c3e50"/>
  <text x="600" y="70" text-anchor="middle" font-size="30" font-weight="700" fill="#fce7f3" letter-spacing="6">SITUATION × GIFT MATRIX</text>
  <text x="600" y="115" text-anchor="middle" font-size="44" font-weight="900" fill="#ffffff">상황별 맞춤 선물 매칭표</text>

  <!-- 5개 상황 카드 (세로 스택) -->
  
      <g transform="translate(60, 180)">
        <rect x="0" y="0" width="1080" height="115" rx="20" fill="#fdf2f8"/>
        <rect x="0" y="0" width="10" height="115" rx="5" fill="#ec4899"/>

        <text x="60" y="72" font-size="60">🎂</text>

        <text x="150" y="52" font-size="36" font-weight="900" fill="#1a1a1a">생일</text>
        <text x="150" y="88" font-size="24" font-weight="600" fill="#4b5563">각인 주얼리 or 시그니처 향수</text>

        <g transform="translate(950, 57)">
          <rect x="-70" y="-22" width="140" height="44" rx="22" fill="#ec4899"/>
          <text x="0" y="8" text-anchor="middle" font-size="18" font-weight="800" fill="#ffffff">추천 ★★★★★</text>
        </g>
      </g>
    
      <g transform="translate(60, 315)">
        <rect x="0" y="0" width="1080" height="115" rx="20" fill="#ecfdf5"/>
        <rect x="0" y="0" width="10" height="115" rx="5" fill="#10b981"/>

        <text x="60" y="72" font-size="60">🎄</text>

        <text x="150" y="52" font-size="36" font-weight="900" fill="#1a1a1a">크리스마스</text>
        <text x="150" y="88" font-size="24" font-weight="600" fill="#4b5563">시즌 한정 캔들 + 손편지</text>

        <g transform="translate(950, 57)">
          <rect x="-70" y="-22" width="140" height="44" rx="22" fill="#10b981"/>
          <text x="0" y="8" text-anchor="middle" font-size="18" font-weight="800" fill="#ffffff">추천 ★★★★★</text>
        </g>
      </g>
    
      <g transform="translate(60, 450)">
        <rect x="0" y="0" width="1080" height="115" rx="20" fill="#fdf6f8"/>
        <rect x="0" y="0" width="10" height="115" rx="5" fill="#b76e79"/>

        <text x="60" y="72" font-size="60">💕</text>

        <text x="150" y="52" font-size="36" font-weight="900" fill="#1a1a1a">1주년</text>
        <text x="150" y="88" font-size="24" font-weight="600" fill="#4b5563">실버 목걸이 (각인 필수)</text>

        <g transform="translate(950, 57)">
          <rect x="-70" y="-22" width="140" height="44" rx="22" fill="#b76e79"/>
          <text x="0" y="8" text-anchor="middle" font-size="18" font-weight="800" fill="#ffffff">추천 ★★★★★</text>
        </g>
      </g>
    
      <g transform="translate(60, 585)">
        <rect x="0" y="0" width="1080" height="115" rx="20" fill="#faf5ff"/>
        <rect x="0" y="0" width="10" height="115" rx="5" fill="#a855f7"/>

        <text x="60" y="72" font-size="60">💍</text>

        <text x="150" y="52" font-size="36" font-weight="900" fill="#1a1a1a">프로포즈</text>
        <text x="150" y="88" font-size="24" font-weight="600" fill="#4b5563">작은 주얼리 + 프리미엄 향수</text>

        <g transform="translate(950, 57)">
          <rect x="-70" y="-22" width="140" height="44" rx="22" fill="#a855f7"/>
          <text x="0" y="8" text-anchor="middle" font-size="18" font-weight="800" fill="#ffffff">추천 ★★★★★</text>
        </g>
      </g>
    
      <g transform="translate(60, 720)">
        <rect x="0" y="0" width="1080" height="115" rx="20" fill="#fff7ed"/>
        <rect x="0" y="0" width="10" height="115" rx="5" fill="#fb923c"/>

        <text x="60" y="72" font-size="60">🎉</text>

        <text x="150" y="52" font-size="36" font-weight="900" fill="#1a1a1a">승진 축하</text>
        <text x="150" y="88" font-size="24" font-weight="600" fill="#4b5563">고급 텀블러 (각인) or 만년필</text>

        <g transform="translate(950, 57)">
          <rect x="-70" y="-22" width="140" height="44" rx="22" fill="#fb923c"/>
          <text x="0" y="8" text-anchor="middle" font-size="18" font-weight="800" fill="#ffffff">추천 ★★★★★</text>
        </g>
      </g>
    
  
<text x="1180" y="892" text-anchor="end" font-size="14" font-weight="600" fill="#9ca3af" opacity="0.85">192types.co.kr · 선물 가이드</text>
</svg>