<?xml version="1.0" encoding="UTF-8"?>
<svg xmlns="http://www.w3.org/2000/svg" viewBox="0 0 1200 900" width="1200" height="900" font-family="'Pretendard', 'Apple SD Gothic Neo', 'Noto Sans KR', system-ui, sans-serif">
<rect width="1200" height="900" fill="#faf8f5"/>

  <defs>
    <linearGradient id="top10Bg" x1="0" y1="0" x2="1" y2="1">
      <stop offset="0%" stop-color="#fef9e7"/>
      <stop offset="100%" stop-color="#fce7f3"/>
    </linearGradient>
  </defs>
  <rect width="1200" height="900" fill="url(#top10Bg)"/>

  <!-- 상단 라벨 -->
  <text x="600" y="90" text-anchor="middle" font-size="24" font-weight="700" fill="#ec4899" letter-spacing="8">EDITOR'S SELECTION</text>

  <!-- 거대한 TOP 10 -->
  <g transform="translate(600, 430)">
    <text x="0" y="0" text-anchor="middle" font-size="320" font-weight="900" fill="#2c3e50" letter-spacing="-8">TOP</text>
    <text x="0" y="150" text-anchor="middle" font-size="200" font-weight="900" fill="#ec4899">10</text>
  </g>

  <!-- 서브타이틀 -->
  <text x="600" y="670" text-anchor="middle" font-size="46" font-weight="900" fill="#1a1a1a">ISTJ 여자가 진심으로 좋아하는</text>
  <text x="600" y="720" text-anchor="middle" font-size="46" font-weight="900" fill="#1a1a1a">선물 10가지</text>

  <!-- 하단 카테고리 태그 -->
  <g transform="translate(600, 790)">
    
      <g transform="translate(-400, 0)">
        <rect x="-80" y="-22" width="160" height="44" rx="22" fill="#ec4899"/>
        <text x="0" y="8" text-anchor="middle" font-size="20" font-weight="900" fill="#ffffff">💎 주얼리</text>
      </g>
    
      <g transform="translate(-200, 0)">
        <rect x="-80" y="-22" width="160" height="44" rx="22" fill="#a855f7"/>
        <text x="0" y="8" text-anchor="middle" font-size="20" font-weight="900" fill="#ffffff">🌸 뷰티</text>
      </g>
    
      <g transform="translate(0, 0)">
        <rect x="-80" y="-22" width="160" height="44" rx="22" fill="#fb923c"/>
        <text x="0" y="8" text-anchor="middle" font-size="20" font-weight="900" fill="#ffffff">🥤 데일리</text>
      </g>
    
      <g transform="translate(200, 0)">
        <rect x="-80" y="-22" width="160" height="44" rx="22" fill="#10b981"/>
        <text x="0" y="8" text-anchor="middle" font-size="20" font-weight="900" fill="#ffffff">🧴 스킨케어</text>
      </g>
    
      <g transform="translate(400, 0)">
        <rect x="-80" y="-22" width="160" height="44" rx="22" fill="#b76e79"/>
        <text x="0" y="8" text-anchor="middle" font-size="20" font-weight="900" fill="#ffffff">🕯 홈카페</text>
      </g>
    
  </g>
  
<text x="1180" y="892" text-anchor="end" font-size="14" font-weight="600" fill="#9ca3af" opacity="0.85">192types.co.kr · 선물 가이드</text>
</svg>