<?xml version="1.0" encoding="UTF-8"?>
<svg xmlns="http://www.w3.org/2000/svg" viewBox="0 0 1200 900" width="1200" height="900" font-family="'Pretendard', 'Apple SD Gothic Neo', 'Noto Sans KR', system-ui, sans-serif">
<rect width="1200" height="900" fill="#fafafa"/>

  <text x="600" y="50" text-anchor="middle" font-size="42" font-weight="800" fill="#171717">MBTI 답장 속도 랭킹 TOP 16</text>
  <text x="600" y="80" text-anchor="middle" font-size="20" font-weight="500" fill="#6b7280">친구끼리 평소 카톡 답장 평균 속도 기준 · 100점 만점</text>

  
      <text x="50" y="142" font-size="20" font-weight="800" fill="#9ca3af">01</text>
      <text x="95" y="142" font-size="25" font-weight="800" fill="#059669">ESFJ</text>
      <rect x="170" y="125" width="720" height="30" rx="15" fill="#059669" opacity="0.25"/>
      <rect x="170" y="125" width="720" height="30" rx="15" fill="#059669" opacity="0.85"/>
      <text x="900" y="145" font-size="20" font-weight="800" fill="#059669">96</text>
      <text x="930" y="138" font-size="17" font-weight="700" fill="#374151">평균 30초</text>
      <text x="930" y="155" font-size="15" font-weight="500" fill="#6b7280">보이자마자 답장</text>
    
      <text x="50" y="189" font-size="20" font-weight="800" fill="#9ca3af">02</text>
      <text x="95" y="189" font-size="25" font-weight="800" fill="#e11d48">ENFJ</text>
      <rect x="170" y="172" width="690" height="30" rx="15" fill="#e11d48" opacity="0.25"/>
      <rect x="170" y="172" width="690" height="30" rx="15" fill="#e11d48" opacity="0.85"/>
      <text x="870" y="192" font-size="20" font-weight="800" fill="#e11d48">92</text>
      <text x="930" y="185" font-size="17" font-weight="700" fill="#374151">평균 1분</text>
      <text x="930" y="202" font-size="15" font-weight="500" fill="#6b7280">상대 감정 먼저 체크</text>
    
      <text x="50" y="236" font-size="20" font-weight="800" fill="#9ca3af">03</text>
      <text x="95" y="236" font-size="25" font-weight="800" fill="#059669">ESTJ</text>
      <rect x="170" y="219" width="660" height="30" rx="15" fill="#059669" opacity="0.25"/>
      <rect x="170" y="219" width="660" height="30" rx="15" fill="#059669" opacity="0.85"/>
      <text x="840" y="239" font-size="20" font-weight="800" fill="#059669">88</text>
      <text x="930" y="232" font-size="17" font-weight="700" fill="#374151">평균 2분</text>
      <text x="930" y="249" font-size="15" font-weight="500" fill="#6b7280">업무적 답장 빠름</text>
    
      <text x="50" y="283" font-size="20" font-weight="800" fill="#9ca3af">04</text>
      <text x="95" y="283" font-size="25" font-weight="800" fill="#d97706">ESFP</text>
      <rect x="170" y="266" width="630" height="30" rx="15" fill="#d97706" opacity="0.25"/>
      <rect x="170" y="266" width="630" height="30" rx="15" fill="#d97706" opacity="0.85"/>
      <text x="810" y="286" font-size="20" font-weight="800" fill="#d97706">84</text>
      <text x="930" y="279" font-size="17" font-weight="700" fill="#374151">평균 3분</text>
      <text x="930" y="296" font-size="15" font-weight="500" fill="#6b7280">기분 좋으면 즉시</text>
    
      <text x="50" y="330" font-size="20" font-weight="800" fill="#9ca3af">05</text>
      <text x="95" y="330" font-size="25" font-weight="800" fill="#e11d48">ENFP</text>
      <rect x="170" y="313" width="585" height="30" rx="15" fill="#e11d48" opacity="0.25"/>
      <rect x="170" y="313" width="585" height="30" rx="15" fill="#e11d48" opacity="0.85"/>
      <text x="765" y="333" font-size="20" font-weight="800" fill="#e11d48">78</text>
      <text x="930" y="326" font-size="17" font-weight="700" fill="#374151">평균 5분</text>
      <text x="930" y="343" font-size="15" font-weight="500" fill="#6b7280">하고 싶은 말 많음</text>
    
      <text x="50" y="377" font-size="20" font-weight="800" fill="#9ca3af">06</text>
      <text x="95" y="377" font-size="25" font-weight="800" fill="#0891b2">ENTJ</text>
      <rect x="170" y="360" width="555" height="30" rx="15" fill="#0891b2" opacity="0.25"/>
      <rect x="170" y="360" width="555" height="30" rx="15" fill="#0891b2" opacity="0.85"/>
      <text x="735" y="380" font-size="20" font-weight="800" fill="#0891b2">74</text>
      <text x="930" y="373" font-size="17" font-weight="700" fill="#374151">평균 8분</text>
      <text x="930" y="390" font-size="15" font-weight="500" fill="#6b7280">필요한 답만 빠르게</text>
    
      <text x="50" y="424" font-size="20" font-weight="800" fill="#9ca3af">07</text>
      <text x="95" y="424" font-size="25" font-weight="800" fill="#d97706">ESTP</text>
      <rect x="170" y="407" width="510" height="30" rx="15" fill="#d97706" opacity="0.25"/>
      <rect x="170" y="407" width="510" height="30" rx="15" fill="#d97706" opacity="0.85"/>
      <text x="690" y="427" font-size="20" font-weight="800" fill="#d97706">68</text>
      <text x="930" y="420" font-size="17" font-weight="700" fill="#374151">평균 15분</text>
      <text x="930" y="437" font-size="15" font-weight="500" fill="#6b7280">관심 갈 때만</text>
    
      <text x="50" y="471" font-size="20" font-weight="800" fill="#9ca3af">08</text>
      <text x="95" y="471" font-size="25" font-weight="800" fill="#0891b2">ENTP</text>
      <rect x="170" y="454" width="465" height="30" rx="15" fill="#0891b2" opacity="0.25"/>
      <rect x="170" y="454" width="465" height="30" rx="15" fill="#0891b2" opacity="0.85"/>
      <text x="645" y="474" font-size="20" font-weight="800" fill="#0891b2">62</text>
      <text x="930" y="467" font-size="17" font-weight="700" fill="#374151">평균 25분</text>
      <text x="930" y="484" font-size="15" font-weight="500" fill="#6b7280">흥미 따라 급변</text>
    
      <text x="50" y="518" font-size="20" font-weight="800" fill="#9ca3af">09</text>
      <text x="95" y="518" font-size="25" font-weight="800" fill="#059669">ISFJ</text>
      <rect x="170" y="501" width="435" height="30" rx="15" fill="#059669" opacity="0.25"/>
      <rect x="170" y="501" width="435" height="30" rx="15" fill="#059669" opacity="0.85"/>
      <text x="615" y="521" font-size="20" font-weight="800" fill="#059669">58</text>
      <text x="930" y="514" font-size="17" font-weight="700" fill="#374151">평균 45분</text>
      <text x="930" y="531" font-size="15" font-weight="500" fill="#6b7280">생각 정리 후 답장</text>
    
      <text x="50" y="565" font-size="20" font-weight="800" fill="#9ca3af">10</text>
      <text x="95" y="565" font-size="25" font-weight="800" fill="#059669">ISTJ</text>
      <rect x="170" y="548" width="390" height="30" rx="15" fill="#059669" opacity="0.25"/>
      <rect x="170" y="548" width="390" height="30" rx="15" fill="#059669" opacity="0.85"/>
      <text x="570" y="568" font-size="20" font-weight="800" fill="#059669">52</text>
      <text x="930" y="561" font-size="17" font-weight="700" fill="#374151">평균 1시간</text>
      <text x="930" y="578" font-size="15" font-weight="500" fill="#6b7280">일 끝나면 답장</text>
    
      <text x="50" y="612" font-size="20" font-weight="800" fill="#9ca3af">11</text>
      <text x="95" y="612" font-size="25" font-weight="800" fill="#d97706">ISFP</text>
      <rect x="170" y="595" width="345" height="30" rx="15" fill="#d97706" opacity="0.25"/>
      <rect x="170" y="595" width="345" height="30" rx="15" fill="#d97706" opacity="0.85"/>
      <text x="525" y="615" font-size="20" font-weight="800" fill="#d97706">46</text>
      <text x="930" y="608" font-size="17" font-weight="700" fill="#374151">평균 2시간</text>
      <text x="930" y="625" font-size="15" font-weight="500" fill="#6b7280">기분 따라 오락가락</text>
    
      <text x="50" y="659" font-size="20" font-weight="800" fill="#9ca3af">12</text>
      <text x="95" y="659" font-size="25" font-weight="800" fill="#e11d48">INFJ</text>
      <rect x="170" y="642" width="300" height="30" rx="15" fill="#e11d48" opacity="0.25"/>
      <rect x="170" y="642" width="300" height="30" rx="15" fill="#e11d48" opacity="0.85"/>
      <text x="480" y="662" font-size="20" font-weight="800" fill="#e11d48">40</text>
      <text x="930" y="655" font-size="17" font-weight="700" fill="#374151">평균 3시간</text>
      <text x="930" y="672" font-size="15" font-weight="500" fill="#6b7280">답장 완벽주의</text>
    
      <text x="50" y="706" font-size="20" font-weight="800" fill="#9ca3af">13</text>
      <text x="95" y="706" font-size="25" font-weight="800" fill="#d97706">ISTP</text>
      <rect x="170" y="689" width="240" height="30" rx="15" fill="#d97706" opacity="0.25"/>
      <rect x="170" y="689" width="240" height="30" rx="15" fill="#d97706" opacity="0.85"/>
      <text x="420" y="709" font-size="20" font-weight="800" fill="#d97706">32</text>
      <text x="930" y="702" font-size="17" font-weight="700" fill="#374151">평균 반나절</text>
      <text x="930" y="719" font-size="15" font-weight="500" fill="#6b7280">답장 필요성 고민</text>
    
      <text x="50" y="753" font-size="20" font-weight="800" fill="#9ca3af">14</text>
      <text x="95" y="753" font-size="25" font-weight="800" fill="#0891b2">INTJ</text>
      <rect x="170" y="736" width="195" height="30" rx="15" fill="#0891b2" opacity="0.25"/>
      <rect x="170" y="736" width="195" height="30" rx="15" fill="#0891b2" opacity="0.85"/>
      <text x="375" y="756" font-size="20" font-weight="800" fill="#0891b2">26</text>
      <text x="930" y="749" font-size="17" font-weight="700" fill="#374151">평균 하루</text>
      <text x="930" y="766" font-size="15" font-weight="500" fill="#6b7280">본인 일정 우선</text>
    
      <text x="50" y="800" font-size="20" font-weight="800" fill="#9ca3af">15</text>
      <text x="95" y="800" font-size="25" font-weight="800" fill="#0891b2">INTP</text>
      <rect x="170" y="783" width="150" height="30" rx="15" fill="#0891b2" opacity="0.25"/>
      <rect x="170" y="783" width="150" height="30" rx="15" fill="#0891b2" opacity="0.85"/>
      <text x="330" y="803" font-size="20" font-weight="800" fill="#0891b2">20</text>
      <text x="930" y="796" font-size="17" font-weight="700" fill="#374151">평균 1~2일</text>
      <text x="930" y="813" font-size="15" font-weight="500" fill="#6b7280">답장 존재 잊음</text>
    
      <text x="50" y="847" font-size="20" font-weight="800" fill="#9ca3af">16</text>
      <text x="95" y="847" font-size="25" font-weight="800" fill="#e11d48">INFP</text>
      <rect x="170" y="830" width="90" height="30" rx="15" fill="#e11d48" opacity="0.25"/>
      <rect x="170" y="830" width="90" height="30" rx="15" fill="#e11d48" opacity="0.85"/>
      <text x="270" y="850" font-size="20" font-weight="800" fill="#e11d48">12</text>
      <text x="930" y="843" font-size="17" font-weight="700" fill="#374151">평균 3일+</text>
      <text x="930" y="860" font-size="15" font-weight="500" fill="#6b7280">에너지 있을 때만</text>
    
  
<text x="1180" y="892" text-anchor="end" font-size="10" font-weight="500" fill="#9ca3af" opacity="0.85">192types.co.kr · 카톡 스타일 리포트</text>
</svg>