<?xml version="1.0" encoding="UTF-8"?>
<svg xmlns="http://www.w3.org/2000/svg" viewBox="0 0 1200 900" width="1200" height="900" font-family="'Pretendard', 'Apple SD Gothic Neo', 'Noto Sans KR', system-ui, sans-serif">
<rect width="1200" height="900" fill="#fafafa"/>

  <text x="600" y="55" text-anchor="middle" font-size="39" font-weight="800" fill="#171717">4기질별 "호감 → 사랑" 감정 곡선</text>
  <text x="600" y="82" text-anchor="middle" font-size="18" font-weight="500" fill="#6b7280">같은 MBTI여도 기질에 따라 빠지는 속도와 모양이 완전히 달라져</text>

  
      <g transform="translate(60,110)">
        <rect width="520" height="310" rx="18" fill="#ffffff" stroke="#e5e7eb"/>
        <text x="28" y="40" font-size="24" font-weight="800" fill="#f43f5e">다혈질 (Sanguine) · ENFP·ESFP·ESFJ·ENFJ</text>
        <text x="28" y="65" font-size="17" font-weight="500" fill="#6b7280">폭발적 상승 → 빠른 정점 → 유지 난이도</text>
        <!-- Chart axes -->
        <g transform="translate(28, 95)">
          <line x1="0" y1="180" x2="470" y2="180" stroke="#d1d5db"/>
          <line x1="0" y1="0" x2="0" y2="180" stroke="#d1d5db"/>
          <text x="-8" y="8" text-anchor="end" font-size="14" fill="#9ca3af">몰입</text>
          <text x="465" y="198" text-anchor="end" font-size="14" fill="#9ca3af">시간 →</text>
          <!-- grid -->
          <line x1="0" y1="45" x2="470" y2="45" stroke="#f3f4f6"/>
          <line x1="0" y1="90" x2="470" y2="90" stroke="#f3f4f6"/>
          <line x1="0" y1="135" x2="470" y2="135" stroke="#f3f4f6"/>
          <path d="M20,180 Q50,180 80,60 Q120,10 160,20 Q260,60 360,90 Q420,110 460,100" stroke="#f43f5e" stroke-width="4" fill="none"/>
        </g>
      </g>
    
      <g transform="translate(620,110)">
        <rect width="520" height="310" rx="18" fill="#ffffff" stroke="#e5e7eb"/>
        <text x="28" y="40" font-size="24" font-weight="800" fill="#0891b2">담즙질 (Choleric) · ENTJ·ESTJ·ENTP·ESTP</text>
        <text x="28" y="65" font-size="17" font-weight="500" fill="#6b7280">조건 확인 후 급가속 → 안정</text>
        <!-- Chart axes -->
        <g transform="translate(28, 95)">
          <line x1="0" y1="180" x2="470" y2="180" stroke="#d1d5db"/>
          <line x1="0" y1="0" x2="0" y2="180" stroke="#d1d5db"/>
          <text x="-8" y="8" text-anchor="end" font-size="14" fill="#9ca3af">몰입</text>
          <text x="465" y="198" text-anchor="end" font-size="14" fill="#9ca3af">시간 →</text>
          <!-- grid -->
          <line x1="0" y1="45" x2="470" y2="45" stroke="#f3f4f6"/>
          <line x1="0" y1="90" x2="470" y2="90" stroke="#f3f4f6"/>
          <line x1="0" y1="135" x2="470" y2="135" stroke="#f3f4f6"/>
          <path d="M20,180 L120,170 L180,150 Q220,80 280,50 L460,45" stroke="#0891b2" stroke-width="4" fill="none"/>
        </g>
      </g>
    
      <g transform="translate(60,470)">
        <rect width="520" height="310" rx="18" fill="#ffffff" stroke="#e5e7eb"/>
        <text x="28" y="40" font-size="24" font-weight="800" fill="#059669">점액질 (Phlegmatic) · ISFJ·ISTJ·INFP·ISFP</text>
        <text x="28" y="65" font-size="17" font-weight="500" fill="#6b7280">완만 상승 → 장기 유지</text>
        <!-- Chart axes -->
        <g transform="translate(28, 95)">
          <line x1="0" y1="180" x2="470" y2="180" stroke="#d1d5db"/>
          <line x1="0" y1="0" x2="0" y2="180" stroke="#d1d5db"/>
          <text x="-8" y="8" text-anchor="end" font-size="14" fill="#9ca3af">몰입</text>
          <text x="465" y="198" text-anchor="end" font-size="14" fill="#9ca3af">시간 →</text>
          <!-- grid -->
          <line x1="0" y1="45" x2="470" y2="45" stroke="#f3f4f6"/>
          <line x1="0" y1="90" x2="470" y2="90" stroke="#f3f4f6"/>
          <line x1="0" y1="135" x2="470" y2="135" stroke="#f3f4f6"/>
          <path d="M20,180 Q140,170 220,140 Q320,100 460,50" stroke="#059669" stroke-width="4" fill="none"/>
        </g>
      </g>
    
      <g transform="translate(620,470)">
        <rect width="520" height="310" rx="18" fill="#ffffff" stroke="#e5e7eb"/>
        <text x="28" y="40" font-size="24" font-weight="800" fill="#0e7490">우울질 (Melancholic) · INTJ·INFJ·ISTP·INTP</text>
        <text x="28" y="65" font-size="17" font-weight="500" fill="#6b7280">저강도 관찰 → 확신 후 깊이 몰입</text>
        <!-- Chart axes -->
        <g transform="translate(28, 95)">
          <line x1="0" y1="180" x2="470" y2="180" stroke="#d1d5db"/>
          <line x1="0" y1="0" x2="0" y2="180" stroke="#d1d5db"/>
          <text x="-8" y="8" text-anchor="end" font-size="14" fill="#9ca3af">몰입</text>
          <text x="465" y="198" text-anchor="end" font-size="14" fill="#9ca3af">시간 →</text>
          <!-- grid -->
          <line x1="0" y1="45" x2="470" y2="45" stroke="#f3f4f6"/>
          <line x1="0" y1="90" x2="470" y2="90" stroke="#f3f4f6"/>
          <line x1="0" y1="135" x2="470" y2="135" stroke="#f3f4f6"/>
          <path d="M20,180 L180,175 L260,170 Q310,130 340,90 Q400,30 460,25" stroke="#0e7490" stroke-width="4" fill="none"/>
        </g>
      </g>
    
  
<text x="1180" y="892" text-anchor="end" font-size="10" font-weight="500" fill="#9ca3af" opacity="0.85">192types.co.kr · MBTI 연애 시리즈</text>
</svg>