<?xml version="1.0" encoding="UTF-8"?>
<svg xmlns="http://www.w3.org/2000/svg" viewBox="0 0 1200 900" width="1200" height="900" font-family="'Pretendard', 'Apple SD Gothic Neo', 'Noto Sans KR', system-ui, sans-serif">
<rect width="1200" height="900" fill="#fafafa"/>

  <text x="600" y="50" text-anchor="middle" font-size="28" font-weight="800" fill="#171717">16유형 연애 속도 랭킹 — 첫 만남 → 연애 확정까지 평균 일수</text>
  <text x="600" y="78" text-anchor="middle" font-size="13" font-weight="500" fill="#6b7280">낮을수록 금사빠, 높을수록 신중 · 박서연 데이터 리포트 N=412 + 인지기능 보정</text>

  
      <text x="45" y="133" font-size="14" font-weight="700" fill="#6b7280">01</text>
      <text x="85" y="133" font-size="16" font-weight="800" fill="#e11d48">ENFP</text>
      <rect x="210" y="115" width="41.5" height="26" rx="13" fill="#f43f5e" opacity="0.88"/>
      <text x="241.5" y="133" text-anchor="end" font-size="13" font-weight="800" fill="#fff">9일</text>
      <text x="265.5" y="133" font-size="12" font-weight="600" fill="#374151">호감 → 올인 풀스윙</text>
    
      <text x="45" y="178" font-size="14" font-weight="700" fill="#6b7280">02</text>
      <text x="85" y="178" font-size="16" font-weight="800" fill="#d97706">ESFP</text>
      <rect x="210" y="160" width="50.72222222222222" height="26" rx="13" fill="#f43f5e" opacity="0.88"/>
      <text x="250.72222222222223" y="178" text-anchor="end" font-size="13" font-weight="800" fill="#fff">11일</text>
      <text x="274.72222222222223" y="178" font-size="12" font-weight="600" fill="#374151">지금 이 순간에 빠짐</text>
    
      <text x="45" y="223" font-size="14" font-weight="700" fill="#6b7280">03</text>
      <text x="85" y="223" font-size="16" font-weight="800" fill="#0891b2">ENTP</text>
      <rect x="210" y="205" width="64.55555555555556" height="26" rx="13" fill="#f43f5e" opacity="0.88"/>
      <text x="264.55555555555554" y="223" text-anchor="end" font-size="13" font-weight="800" fill="#fff">14일</text>
      <text x="288.55555555555554" y="223" font-size="12" font-weight="600" fill="#374151">재밌으면 그 날 훅</text>
    
      <text x="45" y="268" font-size="14" font-weight="700" fill="#6b7280">04</text>
      <text x="85" y="268" font-size="16" font-weight="800" fill="#d97706">ESTP</text>
      <rect x="210" y="250" width="73.77777777777779" height="26" rx="13" fill="#f43f5e" opacity="0.88"/>
      <text x="273.77777777777777" y="268" text-anchor="end" font-size="13" font-weight="800" fill="#fff">16일</text>
      <text x="297.77777777777777" y="268" font-size="12" font-weight="600" fill="#374151">끌리면 바로 행동</text>
    
      <text x="45" y="313" font-size="14" font-weight="700" fill="#6b7280">05</text>
      <text x="85" y="313" font-size="16" font-weight="800" fill="#e11d48">ENFJ</text>
      <rect x="210" y="295" width="101.44444444444444" height="26" rx="13" fill="#d97706" opacity="0.88"/>
      <text x="301.44444444444446" y="313" text-anchor="end" font-size="13" font-weight="800" fill="#fff">22일</text>
      <text x="325.44444444444446" y="313" font-size="12" font-weight="600" fill="#374151">확신 서면 올인</text>
    
      <text x="45" y="358" font-size="14" font-weight="700" fill="#6b7280">06</text>
      <text x="85" y="358" font-size="16" font-weight="800" fill="#d97706">ISFP</text>
      <rect x="210" y="340" width="129.11111111111111" height="26" rx="13" fill="#d97706" opacity="0.88"/>
      <text x="329.1111111111111" y="358" text-anchor="end" font-size="13" font-weight="800" fill="#fff">28일</text>
      <text x="353.1111111111111" y="358" font-size="12" font-weight="600" fill="#374151">조용히 빠르게</text>
    
      <text x="45" y="403" font-size="14" font-weight="700" fill="#6b7280">07</text>
      <text x="85" y="403" font-size="16" font-weight="800" fill="#059669">ESFJ</text>
      <rect x="210" y="385" width="147.55555555555557" height="26" rx="13" fill="#d97706" opacity="0.88"/>
      <text x="347.55555555555554" y="403" text-anchor="end" font-size="13" font-weight="800" fill="#fff">32일</text>
      <text x="371.55555555555554" y="403" font-size="12" font-weight="600" fill="#374151">상호 호감 확인 후 돌진</text>
    
      <text x="45" y="448" font-size="14" font-weight="700" fill="#6b7280">08</text>
      <text x="85" y="448" font-size="16" font-weight="800" fill="#d97706">ISTP</text>
      <rect x="210" y="430" width="184.44444444444443" height="26" rx="13" fill="#d97706" opacity="0.88"/>
      <text x="384.44444444444446" y="448" text-anchor="end" font-size="13" font-weight="800" fill="#fff">40일</text>
      <text x="408.44444444444446" y="448" font-size="12" font-weight="600" fill="#374151">말 없이 관찰 후 결심</text>
    
      <text x="45" y="493" font-size="14" font-weight="700" fill="#6b7280">09</text>
      <text x="85" y="493" font-size="16" font-weight="800" fill="#e11d48">INFP</text>
      <rect x="210" y="475" width="221.33333333333334" height="26" rx="13" fill="#d97706" opacity="0.88"/>
      <text x="421.33333333333337" y="493" text-anchor="end" font-size="13" font-weight="800" fill="#fff">48일</text>
      <text x="445.33333333333337" y="493" font-size="12" font-weight="600" fill="#374151">짝사랑 기간 김</text>
    
      <text x="45" y="538" font-size="14" font-weight="700" fill="#6b7280">10</text>
      <text x="85" y="538" font-size="16" font-weight="800" fill="#0891b2">ENTJ</text>
      <rect x="210" y="520" width="239.77777777777774" height="26" rx="13" fill="#d97706" opacity="0.88"/>
      <text x="439.7777777777777" y="538" text-anchor="end" font-size="13" font-weight="800" fill="#fff">52일</text>
      <text x="463.7777777777777" y="538" font-size="12" font-weight="600" fill="#374151">조건·호감 계산 후 결정</text>
    
      <text x="45" y="583" font-size="14" font-weight="700" fill="#6b7280">11</text>
      <text x="85" y="583" font-size="16" font-weight="800" fill="#0891b2">INTP</text>
      <rect x="210" y="565" width="313.55555555555554" height="26" rx="13" fill="#d97706" opacity="0.88"/>
      <text x="513.5555555555555" y="583" text-anchor="end" font-size="13" font-weight="800" fill="#fff">68일</text>
      <text x="537.5555555555555" y="583" font-size="12" font-weight="600" fill="#374151">분석 끝나야 고백</text>
    
      <text x="45" y="628" font-size="14" font-weight="700" fill="#6b7280">12</text>
      <text x="85" y="628" font-size="16" font-weight="800" fill="#059669">ESTJ</text>
      <rect x="210" y="610" width="341.22222222222223" height="26" rx="13" fill="#d97706" opacity="0.88"/>
      <text x="541.2222222222222" y="628" text-anchor="end" font-size="13" font-weight="800" fill="#fff">74일</text>
      <text x="565.2222222222222" y="628" font-size="12" font-weight="600" fill="#374151">미래 그림 맞아야</text>
    
      <text x="45" y="673" font-size="14" font-weight="700" fill="#6b7280">13</text>
      <text x="85" y="673" font-size="16" font-weight="800" fill="#059669">ISFJ</text>
      <rect x="210" y="655" width="442.6666666666667" height="26" rx="13" fill="#0891b2" opacity="0.88"/>
      <text x="642.6666666666667" y="673" text-anchor="end" font-size="13" font-weight="800" fill="#fff">96일</text>
      <text x="666.6666666666667" y="673" font-size="12" font-weight="600" fill="#374151">진심 확인 여러 번</text>
    
      <text x="45" y="718" font-size="14" font-weight="700" fill="#6b7280">14</text>
      <text x="85" y="718" font-size="16" font-weight="800" fill="#e11d48">INFJ</text>
      <rect x="210" y="700" width="544.1111111111111" height="26" rx="13" fill="#0891b2" opacity="0.88"/>
      <text x="744.1111111111111" y="718" text-anchor="end" font-size="13" font-weight="800" fill="#fff">118일</text>
      <text x="768.1111111111111" y="718" font-size="12" font-weight="600" fill="#374151">영혼 점검 통과해야</text>
    
      <text x="45" y="763" font-size="14" font-weight="700" fill="#6b7280">15</text>
      <text x="85" y="763" font-size="16" font-weight="800" fill="#059669">ISTJ</text>
      <rect x="210" y="745" width="654.7777777777777" height="26" rx="13" fill="#0891b2" opacity="0.88"/>
      <text x="854.7777777777777" y="763" text-anchor="end" font-size="13" font-weight="800" fill="#fff">142일</text>
      <text x="878.7777777777777" y="763" font-size="12" font-weight="600" fill="#374151">검증된 루틴만</text>
    
      <text x="45" y="808" font-size="14" font-weight="700" fill="#6b7280">16</text>
      <text x="85" y="808" font-size="16" font-weight="800" fill="#0891b2">INTJ</text>
      <rect x="210" y="790" width="774.6666666666666" height="26" rx="13" fill="#0891b2" opacity="0.88"/>
      <text x="974.6666666666666" y="808" text-anchor="end" font-size="13" font-weight="800" fill="#fff">168일</text>
      <text x="998.6666666666666" y="808" font-size="12" font-weight="600" fill="#374151">5단계 시뮬레이션 후</text>
    

  <!-- Legend -->
  <g transform="translate(280, 830)">
    
      <rect x="0" y="0" width="14" height="14" rx="3" fill="#f43f5e"/>
      <text x="22" y="12" font-size="12" font-weight="700" fill="#374151">⚡ 금사빠 Zone</text>
    
      <rect x="210" y="0" width="14" height="14" rx="3" fill="#d97706"/>
      <text x="232" y="12" font-size="12" font-weight="700" fill="#374151">⚖ 균형 Zone</text>
    
      <rect x="420" y="0" width="14" height="14" rx="3" fill="#0891b2"/>
      <text x="442" y="12" font-size="12" font-weight="700" fill="#374151">🔒 J병 Zone</text>
    
  </g>
  
<text x="1180" y="892" text-anchor="end" font-size="10" font-weight="500" fill="#9ca3af" opacity="0.85">192types.co.kr · MBTI 연애 시리즈</text>
</svg>