<?xml version="1.0" encoding="UTF-8"?>
<svg xmlns="http://www.w3.org/2000/svg" viewBox="0 0 1200 900" width="1200" height="900" font-family="'Pretendard', 'Apple SD Gothic Neo', 'Noto Sans KR', system-ui, sans-serif">
<rect width="1200" height="900" fill="#fafafa"/>

  <defs>
    <radialGradient id="hG" cx="50%" cy="45%" r="70%">
      <stop offset="0%" stop-color="#ffffff"/>
      <stop offset="100%" stop-color="#fdf2f8"/>
    </radialGradient>
    <linearGradient id="heartG" x1="0%" y1="0%" x2="100%" y2="100%">
      <stop offset="0%" stop-color="#f472b6"/>
      <stop offset="100%" stop-color="#be185d"/>
    </linearGradient>
  </defs>
  <rect width="1200" height="900" fill="url(#hG)"/>

  <!-- Scattered hearts with MBTI types (floating) -->
  
    <g transform="translate(180,230) scale(1.2)">
      <path d="M0,-30 C-24,-60 -60,-40 -60,-10 C-60,30 0,55 0,55 C0,55 60,30 60,-10 C60,-40 24,-60 0,-30 Z" fill="#f43f5e" opacity="0.15"/>
      <path d="M0,-26 C-20,-52 -52,-35 -52,-8 C-52,26 0,48 0,48 C0,48 52,26 52,-8 C52,-35 20,-52 0,-26 Z" fill="#f43f5e"/>
      <text x="0" y="5" text-anchor="middle" font-size="18" font-weight="800" fill="#fff">ENFP</text>
      <text x="0" y="74" text-anchor="middle" font-size="12" font-weight="700" fill="#f43f5e">금사빠</text>
    </g>
  
    <g transform="translate(1030,210) scale(1.1)">
      <path d="M0,-30 C-24,-60 -60,-40 -60,-10 C-60,30 0,55 0,55 C0,55 60,30 60,-10 C60,-40 24,-60 0,-30 Z" fill="#f59e0b" opacity="0.15"/>
      <path d="M0,-26 C-20,-52 -52,-35 -52,-8 C-52,26 0,48 0,48 C0,48 52,26 52,-8 C52,-35 20,-52 0,-26 Z" fill="#f59e0b"/>
      <text x="0" y="5" text-anchor="middle" font-size="18" font-weight="800" fill="#fff">ESFP</text>
      <text x="0" y="74" text-anchor="middle" font-size="12" font-weight="700" fill="#f59e0b">즉흥빠짐</text>
    </g>
  
    <g transform="translate(200,680) scale(1)">
      <path d="M0,-30 C-24,-60 -60,-40 -60,-10 C-60,30 0,55 0,55 C0,55 60,30 60,-10 C60,-40 24,-60 0,-30 Z" fill="#0891b2" opacity="0.15"/>
      <path d="M0,-26 C-20,-52 -52,-35 -52,-8 C-52,26 0,48 0,48 C0,48 52,26 52,-8 C52,-35 20,-52 0,-26 Z" fill="#0891b2"/>
      <text x="0" y="5" text-anchor="middle" font-size="18" font-weight="800" fill="#fff">INTJ</text>
      <text x="0" y="74" text-anchor="middle" font-size="12" font-weight="700" fill="#0891b2">5단계 검증</text>
    </g>
  
    <g transform="translate(1020,700) scale(1)">
      <path d="M0,-30 C-24,-60 -60,-40 -60,-10 C-60,30 0,55 0,55 C0,55 60,30 60,-10 C60,-40 24,-60 0,-30 Z" fill="#059669" opacity="0.15"/>
      <path d="M0,-26 C-20,-52 -52,-35 -52,-8 C-52,26 0,48 0,48 C0,48 52,26 52,-8 C52,-35 20,-52 0,-26 Z" fill="#059669"/>
      <text x="0" y="5" text-anchor="middle" font-size="18" font-weight="800" fill="#fff">ISTJ</text>
      <text x="0" y="74" text-anchor="middle" font-size="12" font-weight="700" fill="#059669">J병</text>
    </g>
  
    <g transform="translate(130,440) scale(0.9)">
      <path d="M0,-30 C-24,-60 -60,-40 -60,-10 C-60,30 0,55 0,55 C0,55 60,30 60,-10 C60,-40 24,-60 0,-30 Z" fill="#e11d48" opacity="0.15"/>
      <path d="M0,-26 C-20,-52 -52,-35 -52,-8 C-52,26 0,48 0,48 C0,48 52,26 52,-8 C52,-35 20,-52 0,-26 Z" fill="#e11d48"/>
      <text x="0" y="5" text-anchor="middle" font-size="18" font-weight="800" fill="#fff">INFP</text>
      <text x="0" y="74" text-anchor="middle" font-size="12" font-weight="700" fill="#e11d48">짝사랑</text>
    </g>
  
    <g transform="translate(1080,450) scale(0.9)">
      <path d="M0,-30 C-24,-60 -60,-40 -60,-10 C-60,30 0,55 0,55 C0,55 60,30 60,-10 C60,-40 24,-60 0,-30 Z" fill="#06b6d4" opacity="0.15"/>
      <path d="M0,-26 C-20,-52 -52,-35 -52,-8 C-52,26 0,48 0,48 C0,48 52,26 52,-8 C52,-35 20,-52 0,-26 Z" fill="#06b6d4"/>
      <text x="0" y="5" text-anchor="middle" font-size="18" font-weight="800" fill="#fff">ENTP</text>
      <text x="0" y="74" text-anchor="middle" font-size="12" font-weight="700" fill="#06b6d4">재밌으면 훅</text>
    </g>
  

  <!-- Center card -->
  <rect x="290" y="290" width="620" height="320" rx="28" fill="#ffffff" stroke="#e5e7eb" stroke-width="1"/>
  <text x="600" y="340" text-anchor="middle" font-size="16" font-weight="600" fill="#6b7280" letter-spacing="9">MBTI · LOVE SPEED · 2026</text>
  <text x="600" y="410" text-anchor="middle" font-size="44" font-weight="800" fill="#171717">MBTI 연애 속도 순위</text>
  <text x="600" y="455" text-anchor="middle" font-size="23" font-weight="700" fill="#ec4899">금사빠부터 J병까지</text>
  <line x1="460" y1="485" x2="740" y2="485" stroke="#e5e7eb" stroke-width="1"/>
  <text x="600" y="516" text-anchor="middle" font-size="14" font-weight="600" fill="#374151">첫 만남 → 연애 확정 평균 일수 · 16유형 랭킹</text>
  <text x="600" y="544" text-anchor="middle" font-size="13" font-weight="500" fill="#6b7280">인지기능 + 4기질로 분석한 감정 돌입 속도</text>
  <text x="600" y="580" text-anchor="middle" font-size="12" font-weight="500" fill="#9ca3af">© 192types · ENFP 박서연의 현장 리포트</text>
  
<text x="1180" y="892" text-anchor="end" font-size="10" font-weight="500" fill="#9ca3af" opacity="0.85">192types.co.kr · MBTI 연애 시리즈</text>
</svg>