<?xml version="1.0" encoding="UTF-8"?>
<svg xmlns="http://www.w3.org/2000/svg" viewBox="0 0 1200 900" width="1200" height="900" font-family="'Pretendard', 'Apple SD Gothic Neo', 'Noto Sans KR', system-ui, sans-serif">
<rect width="1200" height="900" fill="#fafafa"/>

  <text x="600" y="50" text-anchor="middle" font-size="30" font-weight="800" fill="#171717">MBTI 결혼 만족도 랭킹 TOP 16</text>
  <text x="600" y="80" text-anchor="middle" font-size="14" font-weight="500" fill="#6b7280">결혼 5~20년차 장기 만족도 · 관계 안정성 + 갈등 회복력 종합 100점</text>

  
      <text x="50" y="142" font-size="14" font-weight="800" fill="#9ca3af">01</text>
      <text x="95" y="142" font-size="18" font-weight="800" fill="#059669">ISFJ</text>
      <rect x="170" y="125" width="705" height="30" rx="15" fill="#059669" opacity="0.25"/>
      <rect x="170" y="125" width="705" height="30" rx="15" fill="#059669" opacity="0.85"/>
      <text x="885" y="145" font-size="14" font-weight="800" fill="#059669">94</text>
      <text x="920" y="147" font-size="13" font-weight="600" fill="#6b7280">헌신형 · 가정 중심</text>
    
      <text x="50" y="189" font-size="14" font-weight="800" fill="#9ca3af">02</text>
      <text x="95" y="189" font-size="18" font-weight="800" fill="#059669">ESFJ</text>
      <rect x="170" y="172" width="690" height="30" rx="15" fill="#059669" opacity="0.25"/>
      <rect x="170" y="172" width="690" height="30" rx="15" fill="#059669" opacity="0.85"/>
      <text x="870" y="192" font-size="14" font-weight="800" fill="#059669">92</text>
      <text x="920" y="194" font-size="13" font-weight="600" fill="#6b7280">케어 공유 파트너</text>
    
      <text x="50" y="236" font-size="14" font-weight="800" fill="#9ca3af">03</text>
      <text x="95" y="236" font-size="18" font-weight="800" fill="#e11d48">ENFJ</text>
      <rect x="170" y="219" width="660" height="30" rx="15" fill="#e11d48" opacity="0.25"/>
      <rect x="170" y="219" width="660" height="30" rx="15" fill="#e11d48" opacity="0.85"/>
      <text x="840" y="239" font-size="14" font-weight="800" fill="#e11d48">88</text>
      <text x="920" y="241" font-size="13" font-weight="600" fill="#6b7280">동반 성장 리더</text>
    
      <text x="50" y="283" font-size="14" font-weight="800" fill="#9ca3af">04</text>
      <text x="95" y="283" font-size="18" font-weight="800" fill="#059669">ISTJ</text>
      <rect x="170" y="266" width="645" height="30" rx="15" fill="#059669" opacity="0.25"/>
      <rect x="170" y="266" width="645" height="30" rx="15" fill="#059669" opacity="0.85"/>
      <text x="825" y="286" font-size="14" font-weight="800" fill="#059669">86</text>
      <text x="920" y="288" font-size="13" font-weight="600" fill="#6b7280">약속 지키는 반려자</text>
    
      <text x="50" y="330" font-size="14" font-weight="800" fill="#9ca3af">05</text>
      <text x="95" y="330" font-size="18" font-weight="800" fill="#059669">ESTJ</text>
      <rect x="170" y="313" width="615" height="30" rx="15" fill="#059669" opacity="0.25"/>
      <rect x="170" y="313" width="615" height="30" rx="15" fill="#059669" opacity="0.85"/>
      <text x="795" y="333" font-size="14" font-weight="800" fill="#059669">82</text>
      <text x="920" y="335" font-size="13" font-weight="600" fill="#6b7280">가정 운영의 CEO</text>
    
      <text x="50" y="377" font-size="14" font-weight="800" fill="#9ca3af">06</text>
      <text x="95" y="377" font-size="18" font-weight="800" fill="#e11d48">INFJ</text>
      <rect x="170" y="360" width="570" height="30" rx="15" fill="#e11d48" opacity="0.25"/>
      <rect x="170" y="360" width="570" height="30" rx="15" fill="#e11d48" opacity="0.85"/>
      <text x="750" y="380" font-size="14" font-weight="800" fill="#e11d48">76</text>
      <text x="920" y="382" font-size="13" font-weight="600" fill="#6b7280">영혼의 파트너</text>
    
      <text x="50" y="424" font-size="14" font-weight="800" fill="#9ca3af">07</text>
      <text x="95" y="424" font-size="18" font-weight="800" fill="#d97706">ISFP</text>
      <rect x="170" y="407" width="540" height="30" rx="15" fill="#d97706" opacity="0.25"/>
      <rect x="170" y="407" width="540" height="30" rx="15" fill="#d97706" opacity="0.85"/>
      <text x="720" y="427" font-size="14" font-weight="800" fill="#d97706">72</text>
      <text x="920" y="429" font-size="13" font-weight="600" fill="#6b7280">조용한 동반자</text>
    
      <text x="50" y="471" font-size="14" font-weight="800" fill="#9ca3af">08</text>
      <text x="95" y="471" font-size="18" font-weight="800" fill="#e11d48">ENFP</text>
      <rect x="170" y="454" width="495" height="30" rx="15" fill="#e11d48" opacity="0.25"/>
      <rect x="170" y="454" width="495" height="30" rx="15" fill="#e11d48" opacity="0.85"/>
      <text x="675" y="474" font-size="14" font-weight="800" fill="#e11d48">66</text>
      <text x="920" y="476" font-size="13" font-weight="600" fill="#6b7280">감정 기복 많음</text>
    
      <text x="50" y="518" font-size="14" font-weight="800" fill="#9ca3af">09</text>
      <text x="95" y="518" font-size="18" font-weight="800" fill="#0891b2">ENTJ</text>
      <rect x="170" y="501" width="465" height="30" rx="15" fill="#0891b2" opacity="0.25"/>
      <rect x="170" y="501" width="465" height="30" rx="15" fill="#0891b2" opacity="0.85"/>
      <text x="645" y="521" font-size="14" font-weight="800" fill="#0891b2">62</text>
      <text x="920" y="523" font-size="13" font-weight="600" fill="#6b7280">성취 중심 결혼</text>
    
      <text x="50" y="565" font-size="14" font-weight="800" fill="#9ca3af">10</text>
      <text x="95" y="565" font-size="18" font-weight="800" fill="#d97706">ESFP</text>
      <rect x="170" y="548" width="435" height="30" rx="15" fill="#d97706" opacity="0.25"/>
      <rect x="170" y="548" width="435" height="30" rx="15" fill="#d97706" opacity="0.85"/>
      <text x="615" y="568" font-size="14" font-weight="800" fill="#d97706">58</text>
      <text x="920" y="570" font-size="13" font-weight="600" fill="#6b7280">현재 중심 부부</text>
    
      <text x="50" y="612" font-size="14" font-weight="800" fill="#9ca3af">11</text>
      <text x="95" y="612" font-size="18" font-weight="800" fill="#e11d48">INFP</text>
      <rect x="170" y="595" width="390" height="30" rx="15" fill="#e11d48" opacity="0.25"/>
      <rect x="170" y="595" width="390" height="30" rx="15" fill="#e11d48" opacity="0.85"/>
      <text x="570" y="615" font-size="14" font-weight="800" fill="#e11d48">52</text>
      <text x="920" y="617" font-size="13" font-weight="600" fill="#6b7280">이상-현실 갭 큼</text>
    
      <text x="50" y="659" font-size="14" font-weight="800" fill="#9ca3af">12</text>
      <text x="95" y="659" font-size="18" font-weight="800" fill="#0891b2">INTJ</text>
      <rect x="170" y="642" width="360" height="30" rx="15" fill="#0891b2" opacity="0.25"/>
      <rect x="170" y="642" width="360" height="30" rx="15" fill="#0891b2" opacity="0.85"/>
      <text x="540" y="662" font-size="14" font-weight="800" fill="#0891b2">48</text>
      <text x="920" y="664" font-size="13" font-weight="600" fill="#6b7280">감정 표현 약점</text>
    
      <text x="50" y="706" font-size="14" font-weight="800" fill="#9ca3af">13</text>
      <text x="95" y="706" font-size="18" font-weight="800" fill="#0891b2">ENTP</text>
      <rect x="170" y="689" width="315" height="30" rx="15" fill="#0891b2" opacity="0.25"/>
      <rect x="170" y="689" width="315" height="30" rx="15" fill="#0891b2" opacity="0.85"/>
      <text x="495" y="709" font-size="14" font-weight="800" fill="#0891b2">42</text>
      <text x="920" y="711" font-size="13" font-weight="600" fill="#6b7280">루틴 권태 빠름</text>
    
      <text x="50" y="753" font-size="14" font-weight="800" fill="#9ca3af">14</text>
      <text x="95" y="753" font-size="18" font-weight="800" fill="#d97706">ESTP</text>
      <rect x="170" y="736" width="270" height="30" rx="15" fill="#d97706" opacity="0.25"/>
      <rect x="170" y="736" width="270" height="30" rx="15" fill="#d97706" opacity="0.85"/>
      <text x="450" y="756" font-size="14" font-weight="800" fill="#d97706">36</text>
      <text x="920" y="758" font-size="13" font-weight="600" fill="#6b7280">자극 추구 리스크</text>
    
      <text x="50" y="800" font-size="14" font-weight="800" fill="#9ca3af">15</text>
      <text x="95" y="800" font-size="18" font-weight="800" fill="#d97706">ISTP</text>
      <rect x="170" y="783" width="225" height="30" rx="15" fill="#d97706" opacity="0.25"/>
      <rect x="170" y="783" width="225" height="30" rx="15" fill="#d97706" opacity="0.85"/>
      <text x="405" y="803" font-size="14" font-weight="800" fill="#d97706">30</text>
      <text x="920" y="805" font-size="13" font-weight="600" fill="#6b7280">독립성 우선</text>
    
      <text x="50" y="847" font-size="14" font-weight="800" fill="#9ca3af">16</text>
      <text x="95" y="847" font-size="18" font-weight="800" fill="#0891b2">INTP</text>
      <rect x="170" y="830" width="180" height="30" rx="15" fill="#0891b2" opacity="0.25"/>
      <rect x="170" y="830" width="180" height="30" rx="15" fill="#0891b2" opacity="0.85"/>
      <text x="360" y="850" font-size="14" font-weight="800" fill="#0891b2">24</text>
      <text x="920" y="852" font-size="13" font-weight="600" fill="#6b7280">결혼 제도 회의</text>
    
  
<text x="1180" y="892" text-anchor="end" font-size="10" font-weight="500" fill="#9ca3af" opacity="0.85">192types.co.kr · 결혼 만족도 리포트</text>
</svg>