<?xml version="1.0" encoding="UTF-8"?>
<svg xmlns="http://www.w3.org/2000/svg" viewBox="0 0 1200 900" width="1200" height="900" font-family="'Pretendard', 'Apple SD Gothic Neo', 'Noto Sans KR', system-ui, sans-serif">
<rect width="1200" height="900" fill="#fafafa"/>

  <text x="600" y="50" text-anchor="middle" font-size="30" font-weight="800" fill="#171717">4가지 결혼 스타일 — 너는 어느 쪽?</text>
  <text x="600" y="80" text-anchor="middle" font-size="14" font-weight="500" fill="#6b7280">기질별 결혼 접근법 · 로맨스 / 파트너 / 가족 / 독립</text>

  
      <g transform="translate(60, 115)">
        <rect width="520" height="360" rx="20" fill="#ffffff" stroke="#e5e7eb"/>
        <rect width="8" height="360" rx="4" fill="#ec4899"/>
        <text x="30" y="45" font-size="24" font-weight="900" fill="#ec4899">💖 로맨스형 결혼</text>
        <text x="30" y="72" font-size="13" font-weight="700" fill="#6b7280">ENFP · INFP · ENFJ · INFJ</text>

        <rect x="30" y="88" width="460" height="40" rx="12" fill="#ec4899" opacity="0.1"/>
        <text x="45" y="113" font-size="13" font-weight="700" fill="#ec4899">감정적 연결이 결혼의 본질</text>

        
          <g transform="translate(30, 160)">
            <circle cx="10" cy="0" r="11" fill="#ec4899" opacity="0.2"/>
            <text x="10" y="5" text-anchor="middle" font-size="12" font-weight="900" fill="#ec4899">1</text>
            <text x="32" y="5" font-size="13" font-weight="600" fill="#374151">기념일·서프라이즈 필수</text>
          </g>
        
          <g transform="translate(30, 205)">
            <circle cx="10" cy="0" r="11" fill="#ec4899" opacity="0.2"/>
            <text x="10" y="5" text-anchor="middle" font-size="12" font-weight="900" fill="#ec4899">2</text>
            <text x="32" y="5" font-size="13" font-weight="600" fill="#374151">감정 대화를 매일 요구</text>
          </g>
        
          <g transform="translate(30, 250)">
            <circle cx="10" cy="0" r="11" fill="#ec4899" opacity="0.2"/>
            <text x="10" y="5" text-anchor="middle" font-size="12" font-weight="900" fill="#ec4899">3</text>
            <text x="32" y="5" font-size="13" font-weight="600" fill="#374151">권태 오면 로맨스 재점화로 회복</text>
          </g>
        
          <g transform="translate(30, 295)">
            <circle cx="10" cy="0" r="11" fill="#ec4899" opacity="0.2"/>
            <text x="10" y="5" text-anchor="middle" font-size="12" font-weight="900" fill="#ec4899">4</text>
            <text x="32" y="5" font-size="13" font-weight="600" fill="#374151">파트너의 내면 성장에 투자</text>
          </g>
        
      </g>
    
      <g transform="translate(620, 115)">
        <rect width="520" height="360" rx="20" fill="#ffffff" stroke="#e5e7eb"/>
        <rect width="8" height="360" rx="4" fill="#0891b2"/>
        <text x="30" y="45" font-size="24" font-weight="900" fill="#0891b2">🤝 파트너형 결혼</text>
        <text x="30" y="72" font-size="13" font-weight="700" fill="#6b7280">ENTJ · INTJ · ENTP · INTP</text>

        <rect x="30" y="88" width="460" height="40" rx="12" fill="#0891b2" opacity="0.1"/>
        <text x="45" y="113" font-size="13" font-weight="700" fill="#0891b2">공동 목표 달성이 결혼의 본질</text>

        
          <g transform="translate(30, 160)">
            <circle cx="10" cy="0" r="11" fill="#0891b2" opacity="0.2"/>
            <text x="10" y="5" text-anchor="middle" font-size="12" font-weight="900" fill="#0891b2">1</text>
            <text x="32" y="5" font-size="13" font-weight="600" fill="#374151">재정·커리어 전략 함께 설계</text>
          </g>
        
          <g transform="translate(30, 205)">
            <circle cx="10" cy="0" r="11" fill="#0891b2" opacity="0.2"/>
            <text x="10" y="5" text-anchor="middle" font-size="12" font-weight="900" fill="#0891b2">2</text>
            <text x="32" y="5" font-size="13" font-weight="600" fill="#374151">감정보다 실행·결과 공유</text>
          </g>
        
          <g transform="translate(30, 250)">
            <circle cx="10" cy="0" r="11" fill="#0891b2" opacity="0.2"/>
            <text x="10" y="5" text-anchor="middle" font-size="12" font-weight="900" fill="#0891b2">3</text>
            <text x="32" y="5" font-size="13" font-weight="600" fill="#374151">각자 독립 공간 존중</text>
          </g>
        
          <g transform="translate(30, 295)">
            <circle cx="10" cy="0" r="11" fill="#0891b2" opacity="0.2"/>
            <text x="10" y="5" text-anchor="middle" font-size="12" font-weight="900" fill="#0891b2">4</text>
            <text x="32" y="5" font-size="13" font-weight="600" fill="#374151">갈등은 문제 해결 회의로</text>
          </g>
        
      </g>
    
      <g transform="translate(60, 510)">
        <rect width="520" height="360" rx="20" fill="#ffffff" stroke="#e5e7eb"/>
        <rect width="8" height="360" rx="4" fill="#059669"/>
        <text x="30" y="45" font-size="24" font-weight="900" fill="#059669">🏡 가족형 결혼</text>
        <text x="30" y="72" font-size="13" font-weight="700" fill="#6b7280">ISFJ · ESFJ · ISTJ · ESTJ</text>

        <rect x="30" y="88" width="460" height="40" rx="12" fill="#059669" opacity="0.1"/>
        <text x="45" y="113" font-size="13" font-weight="700" fill="#059669">가정 안정이 결혼의 본질</text>

        
          <g transform="translate(30, 160)">
            <circle cx="10" cy="0" r="11" fill="#059669" opacity="0.2"/>
            <text x="10" y="5" text-anchor="middle" font-size="12" font-weight="900" fill="#059669">1</text>
            <text x="32" y="5" font-size="13" font-weight="600" fill="#374151">자녀·집안·친척 관계 중심</text>
          </g>
        
          <g transform="translate(30, 205)">
            <circle cx="10" cy="0" r="11" fill="#059669" opacity="0.2"/>
            <text x="10" y="5" text-anchor="middle" font-size="12" font-weight="900" fill="#059669">2</text>
            <text x="32" y="5" font-size="13" font-weight="600" fill="#374151">역할 분담 명확 · 루틴 견고</text>
          </g>
        
          <g transform="translate(30, 250)">
            <circle cx="10" cy="0" r="11" fill="#059669" opacity="0.2"/>
            <text x="10" y="5" text-anchor="middle" font-size="12" font-weight="900" fill="#059669">3</text>
            <text x="32" y="5" font-size="13" font-weight="600" fill="#374151">경제·주거 안정 최우선</text>
          </g>
        
          <g transform="translate(30, 295)">
            <circle cx="10" cy="0" r="11" fill="#059669" opacity="0.2"/>
            <text x="10" y="5" text-anchor="middle" font-size="12" font-weight="900" fill="#059669">4</text>
            <text x="32" y="5" font-size="13" font-weight="600" fill="#374151">갈등 회피보다 시스템으로 관리</text>
          </g>
        
      </g>
    
      <g transform="translate(620, 510)">
        <rect width="520" height="360" rx="20" fill="#ffffff" stroke="#e5e7eb"/>
        <rect width="8" height="360" rx="4" fill="#d97706"/>
        <text x="30" y="45" font-size="24" font-weight="900" fill="#d97706">🌿 독립형 결혼</text>
        <text x="30" y="72" font-size="13" font-weight="700" fill="#6b7280">ISTP · ISFP · ESTP · ESFP</text>

        <rect x="30" y="88" width="460" height="40" rx="12" fill="#d97706" opacity="0.1"/>
        <text x="45" y="113" font-size="13" font-weight="700" fill="#d97706">서로의 자유가 결혼의 본질</text>

        
          <g transform="translate(30, 160)">
            <circle cx="10" cy="0" r="11" fill="#d97706" opacity="0.2"/>
            <text x="10" y="5" text-anchor="middle" font-size="12" font-weight="900" fill="#d97706">1</text>
            <text x="32" y="5" font-size="13" font-weight="600" fill="#374151">각자 취미·친구·여행 보장</text>
          </g>
        
          <g transform="translate(30, 205)">
            <circle cx="10" cy="0" r="11" fill="#d97706" opacity="0.2"/>
            <text x="10" y="5" text-anchor="middle" font-size="12" font-weight="900" fill="#d97706">2</text>
            <text x="32" y="5" font-size="13" font-weight="600" fill="#374151">과도한 감정 대화 지양</text>
          </g>
        
          <g transform="translate(30, 250)">
            <circle cx="10" cy="0" r="11" fill="#d97706" opacity="0.2"/>
            <text x="10" y="5" text-anchor="middle" font-size="12" font-weight="900" fill="#d97706">3</text>
            <text x="32" y="5" font-size="13" font-weight="600" fill="#374151">현재 즐거움 우선</text>
          </g>
        
          <g transform="translate(30, 295)">
            <circle cx="10" cy="0" r="11" fill="#d97706" opacity="0.2"/>
            <text x="10" y="5" text-anchor="middle" font-size="12" font-weight="900" fill="#d97706">4</text>
            <text x="32" y="5" font-size="13" font-weight="600" fill="#374151">결혼 룰은 최소한만</text>
          </g>
        
      </g>
    
  
<text x="1180" y="892" text-anchor="end" font-size="10" font-weight="500" fill="#9ca3af" opacity="0.85">192types.co.kr · 결혼 만족도 리포트</text>
</svg>