<?xml version="1.0" encoding="UTF-8"?>
<svg xmlns="http://www.w3.org/2000/svg" viewBox="0 0 1200 900" width="1200" height="900" font-family="'Pretendard', 'Apple SD Gothic Neo', 'Noto Sans KR', system-ui, sans-serif">
<rect width="1200" height="900" fill="#faf8f5"/>

  <text x="600" y="130" text-anchor="middle" font-size="48" font-weight="900" fill="#1a1a1a">기질별 맥모닝 도착 시간표</text>
  <rect x="500" y="160" width="200" height="6" fill="#f59e0b"/>
  
        <rect x="100" y="220" width="1000" height="110" rx="20" fill="#ffffff" stroke="#ef4444" stroke-width="3"/>
        <rect x="100" y="220" width="180" height="110" rx="20" fill="#ef4444"/>
        <text x="190" y="285" text-anchor="middle" font-size="34" font-weight="900" fill="#ffffff">07:30</text>
        <text x="310" y="270" font-size="28" font-weight="800" fill="#1a1a1a">담즙질 오픈런형</text>
        <text x="310" y="302" font-size="18" font-weight="500" fill="#4b5563">ENTJ·ESTJ — 6시 기상 + 7시 운동 + 맥모닝 + 9시 전 사무실</text>
      

        <rect x="100" y="350" width="1000" height="110" rx="20" fill="#ffffff" stroke="#3b82f6" stroke-width="3"/>
        <rect x="100" y="350" width="180" height="110" rx="20" fill="#3b82f6"/>
        <text x="190" y="415" text-anchor="middle" font-size="34" font-weight="900" fill="#ffffff">08:15</text>
        <text x="310" y="400" font-size="28" font-weight="800" fill="#1a1a1a">우울질 루틴형</text>
        <text x="310" y="432" font-size="18" font-weight="500" fill="#4b5563">INTJ·INFJ — 3년째 같은 시간, 같은 메뉴, 같은 자리</text>
      

        <rect x="100" y="480" width="1000" height="110" rx="20" fill="#ffffff" stroke="#10b981" stroke-width="3"/>
        <rect x="100" y="480" width="180" height="110" rx="20" fill="#10b981"/>
        <text x="190" y="545" text-anchor="middle" font-size="34" font-weight="900" fill="#ffffff">스킵</text>
        <text x="310" y="530" font-size="28" font-weight="800" fill="#1a1a1a">점액질 아침 건너뛰기</text>
        <text x="310" y="562" font-size="18" font-weight="500" fill="#4b5563">ISFJ·ISTJ — 10시 따뜻한 물 + 비스킷으로 11:30 브런치까지 버팀</text>
      

        <rect x="100" y="610" width="1000" height="110" rx="20" fill="#ffffff" stroke="#fcd34d" stroke-width="3"/>
        <rect x="100" y="610" width="180" height="110" rx="20" fill="#fcd34d"/>
        <text x="190" y="675" text-anchor="middle" font-size="34" font-weight="900" fill="#ffffff">10:27</text>
        <text x="310" y="660" font-size="28" font-weight="800" fill="#1a1a1a">다혈질 아슬아슬형</text>
        <text x="310" y="692" font-size="18" font-weight="500" fill="#4b5563">ENFP·ESFP — 알람 5번 끈 뒤 마감 3분 전 겨우 세이프</text>
      
  
<text x="1180" y="892" text-anchor="end" font-size="14" font-weight="600" fill="#9ca3af" opacity="0.85">192types.co.kr</text>
</svg>