<?xml version="1.0" encoding="UTF-8"?>
<svg xmlns="http://www.w3.org/2000/svg" viewBox="0 0 1200 900" width="1200" height="900" font-family="'Pretendard', 'Apple SD Gothic Neo', 'Noto Sans KR', system-ui, sans-serif">
<rect width="1200" height="900" fill="#fafafa"/>

  <defs>
    <radialGradient id="hG" cx="50%" cy="45%" r="70%">
      <stop offset="0%" stop-color="#ffffff"/>
      <stop offset="100%" stop-color="#f3f4f6"/>
    </radialGradient>
  </defs>
  <rect width="1200" height="900" fill="url(#hG)"/>

  
      <circle cx="130" cy="260" r="60" fill="#0891b2" opacity="0.1"/>
      <circle cx="130" cy="260" r="50" fill="#0891b2"/>
      <text x="130" y="265" text-anchor="middle" font-size="20" font-weight="800" fill="#fff">INTJ</text>
    
      <circle cx="1060" cy="240" r="60" fill="#e11d48" opacity="0.1"/>
      <circle cx="1060" cy="240" r="50" fill="#e11d48"/>
      <text x="1060" y="245" text-anchor="middle" font-size="20" font-weight="800" fill="#fff">INFJ</text>
    
      <circle cx="200" cy="480" r="60" fill="#0891b2" opacity="0.1"/>
      <circle cx="200" cy="480" r="50" fill="#0891b2"/>
      <text x="200" y="485" text-anchor="middle" font-size="20" font-weight="800" fill="#fff">ENTJ</text>
    
      <circle cx="1080" cy="500" r="60" fill="#e11d48" opacity="0.1"/>
      <circle cx="1080" cy="500" r="50" fill="#e11d48"/>
      <text x="1080" y="505" text-anchor="middle" font-size="20" font-weight="800" fill="#fff">INFP</text>
    
      <circle cx="110" cy="680" r="60" fill="#059669" opacity="0.1"/>
      <circle cx="110" cy="680" r="50" fill="#059669"/>
      <text x="110" y="685" text-anchor="middle" font-size="20" font-weight="800" fill="#fff">ISTJ</text>
    
      <circle cx="1090" cy="700" r="60" fill="#d97706" opacity="0.1"/>
      <circle cx="1090" cy="700" r="50" fill="#d97706"/>
      <text x="1090" y="705" text-anchor="middle" font-size="20" font-weight="800" fill="#fff">ISFP</text>
    

  <!-- Gender tag chips top -->
  <g transform="translate(430, 150)">
    <rect x="0" y="0" width="140" height="38" rx="19" fill="#fdf2f8" stroke="#db2777" stroke-width="1.5"/>
    <text x="70" y="24" text-anchor="middle" font-size="14" font-weight="700" fill="#be185d">♀ 여자 16유형</text>
    <rect x="165" y="0" width="140" height="38" rx="19" fill="#eff6ff" stroke="#2563eb" stroke-width="1.5"/>
    <text x="235" y="24" text-anchor="middle" font-size="14" font-weight="700" fill="#1d4ed8">♂ 남자 16유형</text>
  </g>

  <!-- Center card -->
  <rect x="270" y="230" width="660" height="270" rx="24" fill="#ffffff" stroke="#e5e7eb" stroke-width="1"/>
  <text x="600" y="285" text-anchor="middle" font-size="17" font-weight="600" fill="#6b7280" letter-spacing="8">PILLAR GUIDE · 2026</text>
  <text x="600" y="352" text-anchor="middle" font-size="46" font-weight="800" fill="#171717">MBTI 여자 · 남자 특징</text>
  <text x="600" y="395" text-anchor="middle" font-size="30" font-weight="700" fill="#374151">완전 정리</text>
  <line x1="460" y1="420" x2="740" y2="420" stroke="#e5e7eb" stroke-width="1"/>
  <text x="600" y="445" text-anchor="middle" font-size="16" font-weight="500" fill="#6b7280">16유형 × 성별 = 32가지 조합 · 인지기능 기반 해석</text>
  <text x="600" y="473" text-anchor="middle" font-size="13" font-weight="500" fill="#9ca3af">매력 포인트 · 연애 스타일 · 오해받는 이유</text>

  <!-- Bottom 4-temperament chip row -->
  <g transform="translate(300, 560)">
    
      <g transform="translate(0,0)">
        <circle cx="12" cy="24" r="9" fill="#0891b2"/>
        <text x="28" y="29" font-size="13" font-weight="600" fill="#374151">NT 분석가형</text>
      </g>
    
      <g transform="translate(155,0)">
        <circle cx="12" cy="24" r="9" fill="#e11d48"/>
        <text x="28" y="29" font-size="13" font-weight="600" fill="#374151">NF 이상주의형</text>
      </g>
    
      <g transform="translate(320,0)">
        <circle cx="12" cy="24" r="9" fill="#059669"/>
        <text x="28" y="29" font-size="13" font-weight="600" fill="#374151">SJ 관리자형</text>
      </g>
    
      <g transform="translate(470,0)">
        <circle cx="12" cy="24" r="9" fill="#d97706"/>
        <text x="28" y="29" font-size="13" font-weight="600" fill="#374151">SP 기회포착형</text>
      </g>
    
  </g>

  <!-- Decorative badge: total 32 -->
  <g transform="translate(545, 630)">
    <rect x="0" y="0" width="110" height="44" rx="22" fill="#171717"/>
    <text x="55" y="29" text-anchor="middle" font-size="15" font-weight="800" fill="#fff">TOTAL · 32</text>
  </g>
  <text x="600" y="705" text-anchor="middle" font-size="13" font-weight="500" fill="#6b7280">한 번에 읽는 16유형 × 여자 · 남자 가이드</text>
  
<text x="1180" y="892" text-anchor="end" font-size="10" font-weight="500" fill="#9ca3af" opacity="0.85">192types.co.kr · MBTI 성별 특징 가이드</text>
</svg>