<?xml version="1.0" encoding="UTF-8"?>
<svg xmlns="http://www.w3.org/2000/svg" viewBox="0 0 1200 900" width="1200" height="900" font-family="'Pretendard', 'Apple SD Gothic Neo', 'Noto Sans KR', system-ui, sans-serif">
<rect width="1200" height="900" fill="#fafafa"/>

  <text x="600" y="50" text-anchor="middle" font-size="42" font-weight="800" fill="#171717">부자 TOP 10 공통 인지기능</text>
  <text x="600" y="80" text-anchor="middle" font-size="18" font-weight="500" fill="#6b7280">사용 빈도 % · Ni + Te 조합이 핵심 "부의 공식"</text>

  
      <g transform="translate(120, 150)">
        <circle cx="40" cy="40" r="40" fill="#0e7490" opacity="0.15"/>
        <circle cx="40" cy="40" r="36" fill="#0e7490" opacity="0.85"/>
        <text x="40" y="47" text-anchor="middle" font-size="31" font-weight="900" fill="#fff">Ni</text>

        <text x="110" y="30" font-size="28" font-weight="800" fill="#0e7490">내향 직관</text>

        <rect x="110" y="48" width="480" height="22" rx="11" fill="#0e7490" opacity="0.25"/>
        <rect x="110" y="48" width="480" height="22" rx="11" fill="#0e7490" opacity="0.85"/>
        <text x="600" y="65" font-size="20" font-weight="900" fill="#0e7490">60%</text>

        <text x="110" y="98" font-size="18" font-weight="500" fill="#374151">장기 비전 · 10년 후 시나리오 감지</text>
      </g>
    
      <g transform="translate(120, 310)">
        <circle cx="40" cy="40" r="40" fill="#0e7490" opacity="0.15"/>
        <circle cx="40" cy="40" r="36" fill="#0e7490" opacity="0.85"/>
        <text x="40" y="47" text-anchor="middle" font-size="31" font-weight="900" fill="#fff">Te</text>

        <text x="110" y="30" font-size="28" font-weight="800" fill="#0e7490">외향 사고</text>

        <rect x="110" y="48" width="560" height="22" rx="11" fill="#0e7490" opacity="0.25"/>
        <rect x="110" y="48" width="560" height="22" rx="11" fill="#0e7490" opacity="0.85"/>
        <text x="680" y="65" font-size="20" font-weight="900" fill="#0e7490">70%</text>

        <text x="110" y="98" font-size="18" font-weight="500" fill="#374151">감정 배제 + 효율 극대화 실행</text>
      </g>
    
      <g transform="translate(120, 470)">
        <circle cx="40" cy="40" r="40" fill="#06b6d4" opacity="0.15"/>
        <circle cx="40" cy="40" r="36" fill="#06b6d4" opacity="0.85"/>
        <text x="40" y="47" text-anchor="middle" font-size="31" font-weight="900" fill="#fff">Ti</text>

        <text x="110" y="30" font-size="28" font-weight="800" fill="#06b6d4">내향 사고</text>

        <rect x="110" y="48" width="320" height="22" rx="11" fill="#06b6d4" opacity="0.25"/>
        <rect x="110" y="48" width="320" height="22" rx="11" fill="#06b6d4" opacity="0.85"/>
        <text x="440" y="65" font-size="20" font-weight="900" fill="#06b6d4">40%</text>

        <text x="110" y="98" font-size="18" font-weight="500" fill="#374151">시스템 · 논리 구조 분석</text>
      </g>
    
      <g transform="translate(120, 630)">
        <circle cx="40" cy="40" r="40" fill="#d97706" opacity="0.15"/>
        <circle cx="40" cy="40" r="36" fill="#d97706" opacity="0.85"/>
        <text x="40" y="47" text-anchor="middle" font-size="31" font-weight="900" fill="#fff">Se</text>

        <text x="110" y="30" font-size="28" font-weight="800" fill="#d97706">외향 감각</text>

        <rect x="110" y="48" width="160" height="22" rx="11" fill="#d97706" opacity="0.25"/>
        <rect x="110" y="48" width="160" height="22" rx="11" fill="#d97706" opacity="0.85"/>
        <text x="280" y="65" font-size="20" font-weight="900" fill="#d97706">20%</text>

        <text x="110" y="98" font-size="18" font-weight="500" fill="#374151">실시간 기회 포착(소수형)</text>
      </g>
    
  
<text x="1180" y="892" text-anchor="end" font-size="10" font-weight="500" fill="#9ca3af" opacity="0.85">192types.co.kr · 경제학 리포트</text>
</svg>