<?xml version="1.0" encoding="UTF-8"?>
<svg xmlns="http://www.w3.org/2000/svg" viewBox="0 0 1200 900" width="1200" height="900" font-family="'Pretendard', 'Apple SD Gothic Neo', 'Noto Sans KR', system-ui, sans-serif">
<rect width="1200" height="900" fill="#fafafa"/>

  <text x="600" y="50" text-anchor="middle" font-size="42" font-weight="800" fill="#171717">부자 TOP 10 MBTI 분포</text>
  <text x="600" y="80" text-anchor="middle" font-size="18" font-weight="500" fill="#6b7280">NT 분석가형(INTJ+ENTJ+INTP)이 80% — 일반 인구 비율 5% 대비 16배</text>

  <!-- Bars -->
  
      <g transform="translate(200, 160)">
        <text x="0" y="40" font-size="34" font-weight="900" fill="#0e7490">INTJ</text>
        <rect x="120" y="20" width="700" height="44" rx="22" fill="#0e7490" opacity="0.25"/>
        <rect x="120" y="20" width="700" height="44" rx="22" fill="#0e7490" opacity="0.85"/>
        <text x="830" y="48" font-size="28" font-weight="900" fill="#0e7490">4명</text>
        <text x="890" y="48" font-size="20" font-weight="600" fill="#6b7280">40%</text>
      </g>
    
      <g transform="translate(200, 290)">
        <text x="0" y="40" font-size="34" font-weight="900" fill="#0891b2">ENTJ</text>
        <rect x="120" y="20" width="350" height="44" rx="22" fill="#0891b2" opacity="0.25"/>
        <rect x="120" y="20" width="350" height="44" rx="22" fill="#0891b2" opacity="0.85"/>
        <text x="480" y="48" font-size="28" font-weight="900" fill="#0891b2">2명</text>
        <text x="540" y="48" font-size="20" font-weight="600" fill="#6b7280">20%</text>
      </g>
    
      <g transform="translate(200, 420)">
        <text x="0" y="40" font-size="34" font-weight="900" fill="#06b6d4">INTP</text>
        <rect x="120" y="20" width="350" height="44" rx="22" fill="#06b6d4" opacity="0.25"/>
        <rect x="120" y="20" width="350" height="44" rx="22" fill="#06b6d4" opacity="0.85"/>
        <text x="480" y="48" font-size="28" font-weight="900" fill="#06b6d4">2명</text>
        <text x="540" y="48" font-size="20" font-weight="600" fill="#6b7280">20%</text>
      </g>
    
      <g transform="translate(200, 550)">
        <text x="0" y="40" font-size="34" font-weight="900" fill="#059669">ISTJ</text>
        <rect x="120" y="20" width="175" height="44" rx="22" fill="#059669" opacity="0.25"/>
        <rect x="120" y="20" width="175" height="44" rx="22" fill="#059669" opacity="0.85"/>
        <text x="305" y="48" font-size="28" font-weight="900" fill="#059669">1명</text>
        <text x="365" y="48" font-size="20" font-weight="600" fill="#6b7280">10%</text>
      </g>
    
      <g transform="translate(200, 680)">
        <text x="0" y="40" font-size="34" font-weight="900" fill="#d97706">ESTP</text>
        <rect x="120" y="20" width="175" height="44" rx="22" fill="#d97706" opacity="0.25"/>
        <rect x="120" y="20" width="175" height="44" rx="22" fill="#d97706" opacity="0.85"/>
        <text x="305" y="48" font-size="28" font-weight="900" fill="#d97706">1명</text>
        <text x="365" y="48" font-size="20" font-weight="600" fill="#6b7280">10%</text>
      </g>
    

  <!-- Insight box -->
  <rect x="100" y="810" width="1000" height="70" rx="16" fill="#fef9c3" stroke="#a16207"/>
  <text x="600" y="840" text-anchor="middle" font-size="20" font-weight="800" fill="#a16207">💡 공통점: Ni(장기 비전) 또는 Ti(논리 분석) 주·보조기능 · Te(효율 실행) 보유</text>
  <text x="600" y="865" text-anchor="middle" font-size="18" font-weight="600" fill="#171717">→ "10~20년 미래 설계 + 감정 배제한 실행" 조합이 부의 공식</text>
  
<text x="1180" y="892" text-anchor="end" font-size="10" font-weight="500" fill="#9ca3af" opacity="0.85">192types.co.kr · 경제학 리포트</text>
</svg>