<?xml version="1.0" encoding="UTF-8"?>
<svg xmlns="http://www.w3.org/2000/svg" viewBox="0 0 1200 900" width="1200" height="900" font-family="'Pretendard', 'Apple SD Gothic Neo', 'Noto Sans KR', system-ui, sans-serif">
<rect width="1200" height="900" fill="#fafafa"/>

  <text x="600" y="50" text-anchor="middle" font-size="42" font-weight="800" fill="#171717">세계 부자 TOP 10 MBTI 추정</text>
  <text x="600" y="80" text-anchor="middle" font-size="18" font-weight="500" fill="#6b7280">공개된 인터뷰 · 전기 · 행동 패턴 기반 · 2026년 기준</text>

  
      <g transform="translate(60, 120)">
        <rect width="1080" height="62" rx="18" fill="#ffffff" stroke="#e5e7eb"/>
        <rect width="8" height="62" rx="4" fill="#0891b2"/>

        <text x="30" y="40" font-size="31" font-weight="900" fill="#eab308">#1</text>

        <text x="90" y="26" font-size="24" font-weight="900" fill="#171717">일론 머스크</text>
        <text x="90" y="48" font-size="17" font-weight="600" fill="#6b7280">Tesla · SpaceX · X</text>

        <g transform="translate(530, 18)">
          <rect width="70" height="28" rx="14" fill="#0891b2"/>
          <text x="35" y="20" text-anchor="middle" font-size="20" font-weight="900" fill="#fff">INTJ</text>
        </g>

        <text x="620" y="38" font-size="18" font-weight="700" fill="#15803d">약 4천억 달러</text>
        <text x="790" y="38" font-size="17" font-weight="600" fill="#374151">Ni 비전 + Te 실행</text>
      </g>
    
      <g transform="translate(60, 192)">
        <rect width="1080" height="62" rx="18" fill="#ffffff" stroke="#e5e7eb"/>
        <rect width="8" height="62" rx="4" fill="#0891b2"/>

        <text x="30" y="40" font-size="31" font-weight="900" fill="#eab308">#2</text>

        <text x="90" y="26" font-size="24" font-weight="900" fill="#171717">제프 베조스</text>
        <text x="90" y="48" font-size="17" font-weight="600" fill="#6b7280">Amazon</text>

        <g transform="translate(530, 18)">
          <rect width="70" height="28" rx="14" fill="#0891b2"/>
          <text x="35" y="20" text-anchor="middle" font-size="20" font-weight="900" fill="#fff">INTJ</text>
        </g>

        <text x="620" y="38" font-size="18" font-weight="700" fill="#15803d">약 2천억 달러</text>
        <text x="790" y="38" font-size="17" font-weight="600" fill="#374151">Ni 장기 + Te 효율</text>
      </g>
    
      <g transform="translate(60, 264)">
        <rect width="1080" height="62" rx="18" fill="#ffffff" stroke="#e5e7eb"/>
        <rect width="8" height="62" rx="4" fill="#0891b2"/>

        <text x="30" y="40" font-size="31" font-weight="900" fill="#eab308">#3</text>

        <text x="90" y="26" font-size="24" font-weight="900" fill="#171717">마크 저커버그</text>
        <text x="90" y="48" font-size="17" font-weight="600" fill="#6b7280">Meta</text>

        <g transform="translate(530, 18)">
          <rect width="70" height="28" rx="14" fill="#0891b2"/>
          <text x="35" y="20" text-anchor="middle" font-size="20" font-weight="900" fill="#fff">INTJ</text>
        </g>

        <text x="620" y="38" font-size="18" font-weight="700" fill="#15803d">약 2천억 달러</text>
        <text x="790" y="38" font-size="17" font-weight="600" fill="#374151">Ni 비전 + Ti 분석</text>
      </g>
    
      <g transform="translate(60, 336)">
        <rect width="1080" height="62" rx="18" fill="#ffffff" stroke="#e5e7eb"/>
        <rect width="8" height="62" rx="4" fill="#d97706"/>

        <text x="30" y="40" font-size="31" font-weight="900" fill="#eab308">#4</text>

        <text x="90" y="26" font-size="24" font-weight="900" fill="#171717">래리 엘리슨</text>
        <text x="90" y="48" font-size="17" font-weight="600" fill="#6b7280">Oracle</text>

        <g transform="translate(530, 18)">
          <rect width="70" height="28" rx="14" fill="#d97706"/>
          <text x="35" y="20" text-anchor="middle" font-size="20" font-weight="900" fill="#fff">ESTP</text>
        </g>

        <text x="620" y="38" font-size="18" font-weight="700" fill="#15803d">약 1.8천억 달러</text>
        <text x="790" y="38" font-size="17" font-weight="600" fill="#374151">Se 기회 + Ti 실전</text>
      </g>
    
      <g transform="translate(60, 408)">
        <rect width="1080" height="62" rx="18" fill="#ffffff" stroke="#e5e7eb"/>
        <rect width="8" height="62" rx="4" fill="#0891b2"/>

        <text x="30" y="40" font-size="31" font-weight="900" fill="#eab308">#5</text>

        <text x="90" y="26" font-size="24" font-weight="900" fill="#171717">베르나르 아르노</text>
        <text x="90" y="48" font-size="17" font-weight="600" fill="#6b7280">LVMH</text>

        <g transform="translate(530, 18)">
          <rect width="70" height="28" rx="14" fill="#0891b2"/>
          <text x="35" y="20" text-anchor="middle" font-size="20" font-weight="900" fill="#fff">ENTJ</text>
        </g>

        <text x="620" y="38" font-size="18" font-weight="700" fill="#15803d">약 1.7천억 달러</text>
        <text x="790" y="38" font-size="17" font-weight="600" fill="#374151">Te 지배 + Ni 브랜드</text>
      </g>
    
      <g transform="translate(60, 480)">
        <rect width="1080" height="62" rx="18" fill="#ffffff" stroke="#e5e7eb"/>
        <rect width="8" height="62" rx="4" fill="#059669"/>

        <text x="30" y="40" font-size="31" font-weight="900" fill="#eab308">#6</text>

        <text x="90" y="26" font-size="24" font-weight="900" fill="#171717">워런 버핏</text>
        <text x="90" y="48" font-size="17" font-weight="600" fill="#6b7280">Berkshire</text>

        <g transform="translate(530, 18)">
          <rect width="70" height="28" rx="14" fill="#059669"/>
          <text x="35" y="20" text-anchor="middle" font-size="20" font-weight="900" fill="#fff">ISTJ</text>
        </g>

        <text x="620" y="38" font-size="18" font-weight="700" fill="#15803d">약 1.5천억 달러</text>
        <text x="790" y="38" font-size="17" font-weight="600" fill="#374151">Si 꾸준 + Te 판단</text>
      </g>
    
      <g transform="translate(60, 552)">
        <rect width="1080" height="62" rx="18" fill="#ffffff" stroke="#e5e7eb"/>
        <rect width="8" height="62" rx="4" fill="#0891b2"/>

        <text x="30" y="40" font-size="31" font-weight="900" fill="#eab308">#7</text>

        <text x="90" y="26" font-size="24" font-weight="900" fill="#171717">래리 페이지</text>
        <text x="90" y="48" font-size="17" font-weight="600" fill="#6b7280">Google/Alphabet</text>

        <g transform="translate(530, 18)">
          <rect width="70" height="28" rx="14" fill="#0891b2"/>
          <text x="35" y="20" text-anchor="middle" font-size="20" font-weight="900" fill="#fff">INTP</text>
        </g>

        <text x="620" y="38" font-size="18" font-weight="700" fill="#15803d">약 1.5천억 달러</text>
        <text x="790" y="38" font-size="17" font-weight="600" fill="#374151">Ti 논리 + Ne 혁신</text>
      </g>
    
      <g transform="translate(60, 624)">
        <rect width="1080" height="62" rx="18" fill="#ffffff" stroke="#e5e7eb"/>
        <rect width="8" height="62" rx="4" fill="#0891b2"/>

        <text x="30" y="40" font-size="31" font-weight="900" fill="#eab308">#8</text>

        <text x="90" y="26" font-size="24" font-weight="900" fill="#171717">세르게이 브린</text>
        <text x="90" y="48" font-size="17" font-weight="600" fill="#6b7280">Google/Alphabet</text>

        <g transform="translate(530, 18)">
          <rect width="70" height="28" rx="14" fill="#0891b2"/>
          <text x="35" y="20" text-anchor="middle" font-size="20" font-weight="900" fill="#fff">INTP</text>
        </g>

        <text x="620" y="38" font-size="18" font-weight="700" fill="#15803d">약 1.4천억 달러</text>
        <text x="790" y="38" font-size="17" font-weight="600" fill="#374151">Ti 논리 + Ne 탐색</text>
      </g>
    
      <g transform="translate(60, 696)">
        <rect width="1080" height="62" rx="18" fill="#ffffff" stroke="#e5e7eb"/>
        <rect width="8" height="62" rx="4" fill="#0891b2"/>

        <text x="30" y="40" font-size="31" font-weight="900" fill="#eab308">#9</text>

        <text x="90" y="26" font-size="24" font-weight="900" fill="#171717">빌 게이츠</text>
        <text x="90" y="48" font-size="17" font-weight="600" fill="#6b7280">Microsoft</text>

        <g transform="translate(530, 18)">
          <rect width="70" height="28" rx="14" fill="#0891b2"/>
          <text x="35" y="20" text-anchor="middle" font-size="20" font-weight="900" fill="#fff">INTJ</text>
        </g>

        <text x="620" y="38" font-size="18" font-weight="700" fill="#15803d">약 1.4천억 달러</text>
        <text x="790" y="38" font-size="17" font-weight="600" fill="#374151">Ni 전략 + Te 효율</text>
      </g>
    
      <g transform="translate(60, 768)">
        <rect width="1080" height="62" rx="18" fill="#ffffff" stroke="#e5e7eb"/>
        <rect width="8" height="62" rx="4" fill="#0891b2"/>

        <text x="30" y="40" font-size="31" font-weight="900" fill="#eab308">#10</text>

        <text x="90" y="26" font-size="24" font-weight="900" fill="#171717">스티브 발머</text>
        <text x="90" y="48" font-size="17" font-weight="600" fill="#6b7280">Microsoft 前</text>

        <g transform="translate(530, 18)">
          <rect width="70" height="28" rx="14" fill="#0891b2"/>
          <text x="35" y="20" text-anchor="middle" font-size="20" font-weight="900" fill="#fff">ENTJ</text>
        </g>

        <text x="620" y="38" font-size="18" font-weight="700" fill="#15803d">약 1.3천억 달러</text>
        <text x="790" y="38" font-size="17" font-weight="600" fill="#374151">Te 추진 + Ni 구조</text>
      </g>
    
  
<text x="1180" y="892" text-anchor="end" font-size="10" font-weight="500" fill="#9ca3af" opacity="0.85">192types.co.kr · 경제학 리포트</text>
</svg>