<?xml version="1.0" encoding="UTF-8"?>
<svg xmlns="http://www.w3.org/2000/svg" viewBox="0 0 1200 900" width="1200" height="900" font-family="'Pretendard', 'Apple SD Gothic Neo', 'Noto Sans KR', system-ui, sans-serif">
<rect width="1200" height="900" fill="#faf8f5"/>

  <!-- 배경 그라디언트 -->
  <defs>
    <linearGradient id="magBg" x1="0" y1="0" x2="1" y2="1">
      <stop offset="0%" stop-color="#fdf2f8"/>
      <stop offset="100%" stop-color="#faf5ff"/>
    </linearGradient>
  </defs>
  <rect width="1200" height="900" fill="url(#magBg)"/>

  <!-- 좌상단 대형 타이틀 -->
  <g transform="translate(60, 90)">
    <text font-size="24" font-weight="700" fill="#ec4899" letter-spacing="6">ISTJ GIFT GUIDE · 2026</text>
    <text y="90" font-size="96" font-weight="900" fill="#1a1a1a">TOP 10</text>
    <text y="140" font-size="40" font-weight="800" fill="#4b5563">여친 선물 · 절대 실패 없는 공식</text>
    <line x1="0" y1="170" x2="200" y2="170" stroke="#ec4899" stroke-width="6"/>
  </g>

  <!-- 우상단 BEST 표시 -->
  <g transform="translate(970, 130)">
    <circle cx="80" cy="80" r="80" fill="#ec4899"/>
    <circle cx="80" cy="80" r="68" fill="none" stroke="#ffffff" stroke-width="3"/>
    <text x="80" y="60" text-anchor="middle" font-size="20" font-weight="900" fill="#ffffff">EDITOR</text>
    <text x="80" y="90" text-anchor="middle" font-size="32" font-weight="900" fill="#ffffff">PICK</text>
    <text x="80" y="120" text-anchor="middle" font-size="18" font-weight="700" fill="#ffffff">★★★★★</text>
  </g>

  <!-- 제품 4개 (비대칭 그리드) -->
  
      <g transform="translate(60, 330)">
        <!-- 큰 이모지 배경 -->
        <rect x="0" y="0" width="520" height="240" rx="32" fill="#ffffff" stroke="#f472b6" stroke-width="3"/>
        <rect x="0" y="0" width="520" height="60" rx="32 32 0 0" fill="#f472b6"/>
        <text x="30" y="42" font-size="26" font-weight="900" fill="#ffffff">#01</text>
        <text x="490" y="42" text-anchor="end" font-size="22" font-weight="700" fill="#ffffff">주얼리</text>

        <!-- 제품 이모지 일러스트 -->
        <circle cx="130" cy="150" r="60" fill="#f472b6" opacity="0.15"/>
        <text x="130" y="175" text-anchor="middle" font-size="80">💎</text>

        <!-- 제품명 -->
        <text x="220" y="130" font-size="28" font-weight="900" fill="#1a1a1a">이름 각인 실버 목걸이</text>
        <text x="220" y="165" font-size="20" font-weight="600" fill="#6b7280">ISTJ 여자 호감도 ★★★★★</text>

        <!-- 하단 CTA -->
        <rect x="220" y="185" width="260" height="36" rx="18" fill="#f472b6"/>
        <text x="350" y="209" text-anchor="middle" font-size="18" font-weight="800" fill="#ffffff">자세히 보기 →</text>
      </g>
    
      <g transform="translate(620, 330)">
        <!-- 큰 이모지 배경 -->
        <rect x="0" y="0" width="520" height="240" rx="32" fill="#ffffff" stroke="#c084fc" stroke-width="3"/>
        <rect x="0" y="0" width="520" height="60" rx="32 32 0 0" fill="#c084fc"/>
        <text x="30" y="42" font-size="26" font-weight="900" fill="#ffffff">#02</text>
        <text x="490" y="42" text-anchor="end" font-size="22" font-weight="700" fill="#ffffff">뷰티</text>

        <!-- 제품 이모지 일러스트 -->
        <circle cx="130" cy="150" r="60" fill="#c084fc" opacity="0.15"/>
        <text x="130" y="175" text-anchor="middle" font-size="80">🌸</text>

        <!-- 제품명 -->
        <text x="220" y="130" font-size="28" font-weight="900" fill="#1a1a1a">조 말론 시그니처 향수</text>
        <text x="220" y="165" font-size="20" font-weight="600" fill="#6b7280">ISTJ 여자 호감도 ★★★★★</text>

        <!-- 하단 CTA -->
        <rect x="220" y="185" width="260" height="36" rx="18" fill="#c084fc"/>
        <text x="350" y="209" text-anchor="middle" font-size="18" font-weight="800" fill="#ffffff">자세히 보기 →</text>
      </g>
    
      <g transform="translate(60, 600)">
        <!-- 큰 이모지 배경 -->
        <rect x="0" y="0" width="520" height="240" rx="32" fill="#ffffff" stroke="#fb923c" stroke-width="3"/>
        <rect x="0" y="0" width="520" height="60" rx="32 32 0 0" fill="#fb923c"/>
        <text x="30" y="42" font-size="26" font-weight="900" fill="#ffffff">#03</text>
        <text x="490" y="42" text-anchor="end" font-size="22" font-weight="700" fill="#ffffff">데일리</text>

        <!-- 제품 이모지 일러스트 -->
        <circle cx="130" cy="150" r="60" fill="#fb923c" opacity="0.15"/>
        <text x="130" y="175" text-anchor="middle" font-size="80">🥤</text>

        <!-- 제품명 -->
        <text x="220" y="130" font-size="28" font-weight="900" fill="#1a1a1a">스탠리 퀜처 텀블러</text>
        <text x="220" y="165" font-size="20" font-weight="600" fill="#6b7280">ISTJ 여자 호감도 ★★★★★</text>

        <!-- 하단 CTA -->
        <rect x="220" y="185" width="260" height="36" rx="18" fill="#fb923c"/>
        <text x="350" y="209" text-anchor="middle" font-size="18" font-weight="800" fill="#ffffff">자세히 보기 →</text>
      </g>
    
      <g transform="translate(620, 600)">
        <!-- 큰 이모지 배경 -->
        <rect x="0" y="0" width="520" height="240" rx="32" fill="#ffffff" stroke="#a3e635" stroke-width="3"/>
        <rect x="0" y="0" width="520" height="60" rx="32 32 0 0" fill="#a3e635"/>
        <text x="30" y="42" font-size="26" font-weight="900" fill="#ffffff">#04</text>
        <text x="490" y="42" text-anchor="end" font-size="22" font-weight="700" fill="#ffffff">뷰티</text>

        <!-- 제품 이모지 일러스트 -->
        <circle cx="130" cy="150" r="60" fill="#a3e635" opacity="0.15"/>
        <text x="130" y="175" text-anchor="middle" font-size="80">🧴</text>

        <!-- 제품명 -->
        <text x="220" y="130" font-size="28" font-weight="900" fill="#1a1a1a">록시땅 핸드크림 세트</text>
        <text x="220" y="165" font-size="20" font-weight="600" fill="#6b7280">ISTJ 여자 호감도 ★★★★★</text>

        <!-- 하단 CTA -->
        <rect x="220" y="185" width="260" height="36" rx="18" fill="#a3e635"/>
        <text x="350" y="209" text-anchor="middle" font-size="18" font-weight="800" fill="#ffffff">자세히 보기 →</text>
      </g>
    
  
<text x="1180" y="892" text-anchor="end" font-size="14" font-weight="600" fill="#9ca3af" opacity="0.85">192types.co.kr · 선물 가이드</text>
</svg>