<?xml version="1.0" encoding="UTF-8"?>
<svg xmlns="http://www.w3.org/2000/svg" viewBox="0 0 1200 900" width="1200" height="900" font-family="'Pretendard', 'Apple SD Gothic Neo', 'Noto Sans KR', system-ui, sans-serif">
<rect width="1200" height="900" fill="#faf8f5"/>

  <!-- 노트 배경 -->
  <rect width="1200" height="900" fill="#fdf6e3"/>

  <!-- 스프링 바인더 구멍 -->
  
    <circle cx="90" cy="100" r="14" fill="#d4c5a0"/>
    <circle cx="90" cy="100" r="9" fill="#fdf6e3"/>
  
    <circle cx="90" cy="220" r="14" fill="#d4c5a0"/>
    <circle cx="90" cy="220" r="9" fill="#fdf6e3"/>
  
    <circle cx="90" cy="340" r="14" fill="#d4c5a0"/>
    <circle cx="90" cy="340" r="9" fill="#fdf6e3"/>
  
    <circle cx="90" cy="460" r="14" fill="#d4c5a0"/>
    <circle cx="90" cy="460" r="9" fill="#fdf6e3"/>
  
    <circle cx="90" cy="580" r="14" fill="#d4c5a0"/>
    <circle cx="90" cy="580" r="9" fill="#fdf6e3"/>
  
    <circle cx="90" cy="700" r="14" fill="#d4c5a0"/>
    <circle cx="90" cy="700" r="9" fill="#fdf6e3"/>
  
    <circle cx="90" cy="820" r="14" fill="#d4c5a0"/>
    <circle cx="90" cy="820" r="9" fill="#fdf6e3"/>
  
  <line x1="135" y1="60" x2="135" y2="850" stroke="#dc2626" stroke-width="2" opacity="0.5"/>

  <!-- 노트 줄 -->
  
    <line x1="150" y1="130" x2="1150" y2="130" stroke="#e8dcc0" stroke-width="1.5"/>
  
    <line x1="150" y1="180" x2="1150" y2="180" stroke="#e8dcc0" stroke-width="1.5"/>
  
    <line x1="150" y1="230" x2="1150" y2="230" stroke="#e8dcc0" stroke-width="1.5"/>
  
    <line x1="150" y1="280" x2="1150" y2="280" stroke="#e8dcc0" stroke-width="1.5"/>
  
    <line x1="150" y1="330" x2="1150" y2="330" stroke="#e8dcc0" stroke-width="1.5"/>
  
    <line x1="150" y1="380" x2="1150" y2="380" stroke="#e8dcc0" stroke-width="1.5"/>
  
    <line x1="150" y1="430" x2="1150" y2="430" stroke="#e8dcc0" stroke-width="1.5"/>
  
    <line x1="150" y1="480" x2="1150" y2="480" stroke="#e8dcc0" stroke-width="1.5"/>
  
    <line x1="150" y1="530" x2="1150" y2="530" stroke="#e8dcc0" stroke-width="1.5"/>
  
    <line x1="150" y1="580" x2="1150" y2="580" stroke="#e8dcc0" stroke-width="1.5"/>
  
    <line x1="150" y1="630" x2="1150" y2="630" stroke="#e8dcc0" stroke-width="1.5"/>
  
    <line x1="150" y1="680" x2="1150" y2="680" stroke="#e8dcc0" stroke-width="1.5"/>
  
    <line x1="150" y1="730" x2="1150" y2="730" stroke="#e8dcc0" stroke-width="1.5"/>
  
    <line x1="150" y1="780" x2="1150" y2="780" stroke="#e8dcc0" stroke-width="1.5"/>
  

  <!-- 스카치테이프 (좌상단) -->
  <g transform="translate(180, 70) rotate(-5)" opacity="0.7">
    <rect x="0" y="0" width="200" height="42" fill="#ffffff" opacity="0.6"/>
    <rect x="0" y="0" width="200" height="42" fill="none" stroke="#fbbf24" stroke-width="1" opacity="0.5"/>
  </g>

  <!-- 제목 (손글씨 느낌) -->
  <g transform="translate(200, 115)">
    <text font-size="56" font-weight="900" fill="#1a1a1a" font-family="'Nanum Pen Script', 'Nanum Myeongjo', 'Gamja Flower', 'Jua', cursive, 'Pretendard', 'Apple SD Gothic Neo', 'Noto Sans KR', system-ui, sans-serif">
      ISTJ 여친 선물 5원칙 ✎
    </text>
    <text y="40" font-size="26" font-weight="600" fill="#b76e79" font-family="'Nanum Pen Script', 'Nanum Myeongjo', 'Gamja Flower', 'Jua', cursive, 'Pretendard', 'Apple SD Gothic Neo', 'Noto Sans KR', system-ui, sans-serif">
      — 박서연이 실패 3번 끝에 얻은 공식
    </text>
  </g>

  <!-- 5가지 원칙 -->
  
      <g transform="translate(175, 230)">
        <!-- 체크박스 스타일 번호 -->
        <rect x="0" y="0" width="70" height="70" rx="14" fill="#ffe5ec" stroke="#ec4899" stroke-width="3"/>
        <text x="35" y="48" text-anchor="middle" font-size="32" font-weight="900" fill="#ec4899">01</text>

        <!-- 본문 -->
        <text x="100" y="35" font-size="36" font-weight="900" fill="#1a1a1a" font-family="'Nanum Pen Script', 'Nanum Myeongjo', 'Gamja Flower', 'Jua', cursive, 'Pretendard', 'Apple SD Gothic Neo', 'Noto Sans KR', system-ui, sans-serif">실용성 &gt; 화려함</text>
        <text x="100" y="66" font-size="22" font-weight="600" fill="#4b5563">ISTJ는 "쓸모"가 사랑의 증거</text>
      </g>
    
      <g transform="translate(175, 340)">
        <!-- 체크박스 스타일 번호 -->
        <rect x="0" y="0" width="70" height="70" rx="14" fill="#ffe5ec" stroke="#ec4899" stroke-width="3"/>
        <text x="35" y="48" text-anchor="middle" font-size="32" font-weight="900" fill="#ec4899">02</text>

        <!-- 본문 -->
        <text x="100" y="35" font-size="36" font-weight="900" fill="#1a1a1a" font-family="'Nanum Pen Script', 'Nanum Myeongjo', 'Gamja Flower', 'Jua', cursive, 'Pretendard', 'Apple SD Gothic Neo', 'Noto Sans KR', system-ui, sans-serif">검증된 브랜드</text>
        <text x="100" y="66" font-size="22" font-weight="600" fill="#4b5563">오래된 신뢰가 이긴다</text>
      </g>
    
      <g transform="translate(175, 450)">
        <!-- 체크박스 스타일 번호 -->
        <rect x="0" y="0" width="70" height="70" rx="14" fill="#ffe5ec" stroke="#ec4899" stroke-width="3"/>
        <text x="35" y="48" text-anchor="middle" font-size="32" font-weight="900" fill="#ec4899">03</text>

        <!-- 본문 -->
        <text x="100" y="35" font-size="36" font-weight="900" fill="#1a1a1a" font-family="'Nanum Pen Script', 'Nanum Myeongjo', 'Gamja Flower', 'Jua', cursive, 'Pretendard', 'Apple SD Gothic Neo', 'Noto Sans KR', system-ui, sans-serif">깜짝 이벤트 NO</text>
        <text x="100" y="66" font-size="22" font-weight="600" fill="#4b5563">예고된 사랑이 더 감동</text>
      </g>
    
      <g transform="translate(175, 560)">
        <!-- 체크박스 스타일 번호 -->
        <rect x="0" y="0" width="70" height="70" rx="14" fill="#ffe5ec" stroke="#ec4899" stroke-width="3"/>
        <text x="35" y="48" text-anchor="middle" font-size="32" font-weight="900" fill="#ec4899">04</text>

        <!-- 본문 -->
        <text x="100" y="35" font-size="36" font-weight="900" fill="#1a1a1a" font-family="'Nanum Pen Script', 'Nanum Myeongjo', 'Gamja Flower', 'Jua', cursive, 'Pretendard', 'Apple SD Gothic Neo', 'Noto Sans KR', system-ui, sans-serif">이름/기념일 각인</text>
        <text x="100" y="66" font-size="22" font-weight="600" fill="#4b5563">기억을 물건에 새기기</text>
      </g>
    
      <g transform="translate(175, 670)">
        <!-- 체크박스 스타일 번호 -->
        <rect x="0" y="0" width="70" height="70" rx="14" fill="#ffe5ec" stroke="#ec4899" stroke-width="3"/>
        <text x="35" y="48" text-anchor="middle" font-size="32" font-weight="900" fill="#ec4899">05</text>

        <!-- 본문 -->
        <text x="100" y="35" font-size="36" font-weight="900" fill="#1a1a1a" font-family="'Nanum Pen Script', 'Nanum Myeongjo', 'Gamja Flower', 'Jua', cursive, 'Pretendard', 'Apple SD Gothic Neo', 'Noto Sans KR', system-ui, sans-serif">10년 쓸 물건</text>
        <text x="100" y="66" font-size="22" font-weight="600" fill="#4b5563">소모보다 내구성</text>
      </g>
    

  <!-- 하단 사인 -->
  <g transform="translate(850, 800) rotate(-3)">
    <text font-size="28" font-weight="700" fill="#b76e79" font-family="'Nanum Pen Script', 'Nanum Myeongjo', 'Gamja Flower', 'Jua', cursive, 'Pretendard', 'Apple SD Gothic Neo', 'Noto Sans KR', system-ui, sans-serif">
      - 박서연 💕
    </text>
  </g>
  
<text x="1180" y="892" text-anchor="end" font-size="14" font-weight="600" fill="#9ca3af" opacity="0.85">192types.co.kr · 선물 가이드</text>
</svg>