<?xml version="1.0" encoding="UTF-8"?>
<svg xmlns="http://www.w3.org/2000/svg" viewBox="0 0 1200 900" width="1200" height="900" font-family="'Pretendard', 'Apple SD Gothic Neo', 'Noto Sans KR', system-ui, sans-serif">
<rect width="1200" height="900" fill="#fafafa"/>

  <text x="600" y="58" text-anchor="middle" font-size="32" font-weight="800" fill="#171717">솔로 적응력 · 4대 요소 분석</text>
  <text x="600" y="90" text-anchor="middle" font-size="15" font-weight="500" fill="#6b7280">1위 INTP vs 16위 ESFJ · 모든 축에서 정반대</text>
  <!-- grid circles -->
  
    <circle cx="600" cy="460" r="55" fill="none" stroke="#e5e7eb" stroke-width="1" stroke-dasharray="2 4"/>
    <text x="604" y="409" font-size="10" fill="#9ca3af" font-weight="500">25</text>
  
    <circle cx="600" cy="460" r="110" fill="none" stroke="#e5e7eb" stroke-width="1" stroke-dasharray="2 4"/>
    <text x="604" y="354" font-size="10" fill="#9ca3af" font-weight="500">50</text>
  
    <circle cx="600" cy="460" r="165" fill="none" stroke="#e5e7eb" stroke-width="1" stroke-dasharray="2 4"/>
    <text x="604" y="299" font-size="10" fill="#9ca3af" font-weight="500">75</text>
  
    <circle cx="600" cy="460" r="220" fill="none" stroke="#e5e7eb" stroke-width="1" stroke-dasharray="2 4"/>
    <text x="604" y="244" font-size="10" fill="#9ca3af" font-weight="500">100</text>
  
  <!-- axes -->
  <line x1="600" y1="460" x2="600" y2="240" stroke="#e5e7eb" stroke-width="1.5"/><line x1="600" y1="460" x2="820" y2="460" stroke="#e5e7eb" stroke-width="1.5"/><line x1="600" y1="460" x2="600" y2="680" stroke="#e5e7eb" stroke-width="1.5"/><line x1="600" y1="460" x2="380" y2="460" stroke="#e5e7eb" stroke-width="1.5"/>
  <!-- INTP polygon -->
  <path d="M 600.0 257.6 L 815.6 460.0 L 600.0 658.0 L 391.0 460.0 Z" fill="#0891b2" fill-opacity="0.22" stroke="#0891b2" stroke-width="3"/>
  <circle cx="600" cy="257.6" r="6" fill="#0891b2"/><circle cx="815.6" cy="460" r="6" fill="#0891b2"/><circle cx="600" cy="658" r="6" fill="#0891b2"/><circle cx="391" cy="460" r="6" fill="#0891b2"/>
  <!-- ESFJ polygon -->
  <path d="M 600.0 411.6 L 683.6 460.0 L 600.0 504.0 L 523.0 460.0 Z" fill="#e11d48" fill-opacity="0.18" stroke="#e11d48" stroke-width="3" stroke-dasharray="6 3"/>
  <circle cx="600" cy="411.6" r="6" fill="#e11d48"/><circle cx="683.6" cy="460" r="6" fill="#e11d48"/><circle cx="600" cy="504" r="6" fill="#e11d48"/><circle cx="523" cy="460" r="6" fill="#e11d48"/>
  <!-- axis labels -->
  <text x="600" y="182.39999999999998" text-anchor="middle" font-size="16" font-weight="800" fill="#171717">내향성</text><text x="881.6" y="464" text-anchor="middle" font-size="16" font-weight="800" fill="#171717">몰입력</text><text x="600" y="745.6" text-anchor="middle" font-size="16" font-weight="800" fill="#171717">자기완결성</text><text x="318.4" y="464.00000000000006" text-anchor="middle" font-size="16" font-weight="800" fill="#171717">상상력</text>
  <!-- value labels for INTP -->
  <text x="600" y="239.60000000000002" text-anchor="middle" font-size="12" font-weight="700" fill="#0e7490">92</text><text x="815.6" y="460" text-anchor="middle" font-size="12" font-weight="700" fill="#0e7490">98</text><text x="600" y="676" text-anchor="middle" font-size="12" font-weight="700" fill="#0e7490">90</text><text x="391" y="460" text-anchor="middle" font-size="12" font-weight="700" fill="#0e7490">95</text>
  <!-- Legend -->
  <g transform="translate(240, 790)">
    <rect x="0" y="0" width="720" height="70" rx="12" fill="#ffffff" stroke="#e5e7eb"/>
    <rect x="30" y="25" width="30" height="18" fill="#0891b2" fill-opacity="0.22" stroke="#0891b2" stroke-width="2"/>
    <text x="75" y="30" font-size="14" font-weight="800" fill="#0e7490">INTP</text>
    <text x="75" y="52" font-size="11" font-weight="500" fill="#6b7280">혼자놀기 1위 · 평균 94점</text>
    <rect x="400" y="25" width="30" height="18" fill="#e11d48" fill-opacity="0.18" stroke="#e11d48" stroke-width="2" stroke-dasharray="4 2"/>
    <text x="445" y="30" font-size="14" font-weight="800" fill="#be123c">ESFJ</text>
    <text x="445" y="52" font-size="11" font-weight="500" fill="#6b7280">혼자놀기 16위 · 평균 29점</text>
  </g>
  
<text x="1180" y="890" text-anchor="end" font-size="10" font-weight="500" fill="#9ca3af" opacity="0.8">192types.co.kr · 2026 MBTI 트렌드 시리즈</text>
</svg>