<?xml version="1.0" encoding="UTF-8"?>
<svg xmlns="http://www.w3.org/2000/svg" viewBox="0 0 1200 900" width="1200" height="900" font-family="'Pretendard', 'Apple SD Gothic Neo', 'Noto Sans KR', system-ui, sans-serif">
<rect width="1200" height="900" fill="#fafafa"/>

  <defs>
    <radialGradient id="heroBg" cx="50%" cy="50%" r="60%">
      <stop offset="0%" stop-color="#ffffff"/>
      <stop offset="100%" stop-color="#f3f4f6"/>
    </radialGradient>
  </defs>
  <rect width="1200" height="900" fill="url(#heroBg)"/>
  
    <circle cx="220" cy="260" r="63" fill="#0891b2" opacity="0.12"/>
    <circle cx="220" cy="260" r="55" fill="#0891b2"/>
    <text x="220" y="258" text-anchor="middle" font-size="23.099999999999998" font-weight="800" fill="#fff">INTP</text>
    <text x="220" y="279.8" text-anchor="middle" font-size="14.3" font-weight="600" fill="#fff" opacity="0.85">#1</text>
  
    <circle cx="980" cy="250" r="60" fill="#e11d48" opacity="0.12"/>
    <circle cx="980" cy="250" r="52" fill="#e11d48"/>
    <text x="980" y="248" text-anchor="middle" font-size="21.84" font-weight="800" fill="#fff">INFP</text>
    <text x="980" y="268.72" text-anchor="middle" font-size="13.52" font-weight="600" fill="#fff" opacity="0.85">#2</text>
  
    <circle cx="180" cy="600" r="58" fill="#06b6d4" opacity="0.12"/>
    <circle cx="180" cy="600" r="50" fill="#06b6d4"/>
    <text x="180" y="598" text-anchor="middle" font-size="21" font-weight="800" fill="#fff">INTJ</text>
    <text x="180" y="618" text-anchor="middle" font-size="13" font-weight="600" fill="#fff" opacity="0.85">#3</text>
  
    <circle cx="1010" cy="610" r="54" fill="#f43f5e" opacity="0.12"/>
    <circle cx="1010" cy="610" r="46" fill="#f43f5e"/>
    <text x="1010" y="608" text-anchor="middle" font-size="19.32" font-weight="800" fill="#fff">INFJ</text>
    <text x="1010" y="626.56" text-anchor="middle" font-size="11.96" font-weight="600" fill="#fff" opacity="0.85">#4</text>
  
    <circle cx="320" cy="770" r="48" fill="#d97706" opacity="0.12"/>
    <circle cx="320" cy="770" r="40" fill="#d97706"/>
    <text x="320" y="768" text-anchor="middle" font-size="16.8" font-weight="800" fill="#fff">ISTP</text>
    <text x="320" y="784.4" text-anchor="middle" font-size="10.4" font-weight="600" fill="#fff" opacity="0.85">#5</text>
  
    <circle cx="880" cy="780" r="46" fill="#f59e0b" opacity="0.12"/>
    <circle cx="880" cy="780" r="38" fill="#f59e0b"/>
    <text x="880" y="778" text-anchor="middle" font-size="15.959999999999999" font-weight="800" fill="#fff">ISFP</text>
    <text x="880" y="793.68" text-anchor="middle" font-size="9.88" font-weight="600" fill="#fff" opacity="0.85">#6</text>
  
    <circle cx="100" cy="420" r="44" fill="#059669" opacity="0.12"/>
    <circle cx="100" cy="420" r="36" fill="#059669"/>
    <text x="100" y="418" text-anchor="middle" font-size="15.12" font-weight="800" fill="#fff">ISTJ</text>
    <text x="100" y="432.96" text-anchor="middle" font-size="9.36" font-weight="600" fill="#fff" opacity="0.85">#7</text>
  
    <circle cx="1100" cy="430" r="42" fill="#10b981" opacity="0.12"/>
    <circle cx="1100" cy="430" r="34" fill="#10b981"/>
    <text x="1100" y="428" text-anchor="middle" font-size="14.28" font-weight="800" fill="#fff">ISFJ</text>
    <text x="1100" y="442.24" text-anchor="middle" font-size="8.84" font-weight="600" fill="#fff" opacity="0.85">#8</text>
  
  <rect x="140" y="280" width="920" height="340" rx="28" fill="#ffffff" stroke="#e5e7eb" stroke-width="2"/>
  <text x="600" y="345" text-anchor="middle" font-size="26" font-weight="700" fill="#6b7280" letter-spacing="6">2026 MBTI TREND REPORT</text>
  <text x="600" y="440" text-anchor="middle" font-size="74" font-weight="900" fill="#171717">혼자 잘 노는 MBTI</text>
  <text x="600" y="500" text-anchor="middle" font-size="28" font-weight="700" fill="#374151">내향 · 몰입 · 자기완결 랭킹</text>
  <line x1="380" y1="535" x2="820" y2="535" stroke="#e5e7eb" stroke-width="2"/>
  <text x="600" y="575" text-anchor="middle" font-size="18" font-weight="500" fill="#9ca3af">TOP 16 · 과학적 랭킹 · 기질론 기반 해석</text>
  
<text x="1180" y="890" text-anchor="end" font-size="10" font-weight="500" fill="#9ca3af" opacity="0.8">192types.co.kr · 2026 MBTI 트렌드 시리즈</text>
</svg>