<?xml version="1.0" encoding="UTF-8"?>
<svg xmlns="http://www.w3.org/2000/svg" viewBox="0 0 1200 900" width="1200" height="900" font-family="'Pretendard', 'Apple SD Gothic Neo', 'Noto Sans KR', system-ui, sans-serif">
<rect width="1200" height="900" fill="#fafafa"/>

  <text x="600" y="58" text-anchor="middle" font-size="32" font-weight="800" fill="#171717">4기질별 평균 점수</text>
  <text x="600" y="90" text-anchor="middle" font-size="15" font-weight="500" fill="#6b7280">혼자 놀기 능력은 기질마다 뚜렷하게 갈린다</text>
  
    <path d="M 600 290 A 180 180 0 0 1 770.4628738370918 527.8135679853763" fill="none" stroke="#0891b2" stroke-width="60" stroke-linecap="butt"/>
  
    <path d="M 770.4628738370918 527.8135679853763 A 180 180 0 0 1 521.9009269588396 632.1743962224355" fill="none" stroke="#e11d48" stroke-width="60" stroke-linecap="butt"/>
  
    <path d="M 521.9009269588396 632.1743962224355 A 180 180 0 0 1 430.29245321525525 410.0054288764085" fill="none" stroke="#d97706" stroke-width="60" stroke-linecap="butt"/>
  
    <path d="M 430.29245321525525 410.0054288764085 A 180 180 0 0 1 600 290" fill="none" stroke="#059669" stroke-width="60" stroke-linecap="butt"/>
  
  <!-- center text -->
  <text x="600" y="460" text-anchor="middle" font-size="15" font-weight="600" fill="#6b7280">16유형 평균</text>
  <text x="600" y="500" text-anchor="middle" font-size="56" font-weight="800" fill="#171717">61</text>
  <text x="600" y="525" text-anchor="middle" font-size="13" font-weight="500" fill="#9ca3af">/ 100점</text>
  <!-- labels -->
  
    <text x="795.0645300347046" y="322.17929651750495" text-anchor="middle" font-size="18" font-weight="800" fill="#0891b2">NT</text>
    <text x="795.0645300347046" y="342.17929651750495" text-anchor="middle" font-size="11" font-weight="600" fill="#374151">분석가형</text>
    <text x="795.0645300347046" y="360.17929651750495" text-anchor="middle" font-size="20" font-weight="800" fill="#171717">74</text>
  
    <text x="692.9091651209108" y="683.2868885328169" text-anchor="middle" font-size="18" font-weight="800" fill="#e11d48">NF</text>
    <text x="692.9091651209108" y="703.2868885328169" text-anchor="middle" font-size="11" font-weight="600" fill="#374151">이상주의형</text>
    <text x="692.9091651209108" y="721.2868885328169" text-anchor="middle" font-size="20" font-weight="800" fill="#171717">66</text>
  
    <text x="378.1219845839804" y="553.488503513002" text-anchor="middle" font-size="18" font-weight="800" fill="#d97706">SP</text>
    <text x="378.1219845839804" y="573.488503513002" text-anchor="middle" font-size="11" font-weight="600" fill="#374151">기회포착형</text>
    <text x="378.1219845839804" y="591.488503513002" text-anchor="middle" font-size="20" font-weight="800" fill="#171717">57</text>
  
    <text x="461.43280106668334" y="266.0430369193923" text-anchor="middle" font-size="18" font-weight="800" fill="#059669">SJ</text>
    <text x="461.43280106668334" y="286.0430369193923" text-anchor="middle" font-size="11" font-weight="600" fill="#374151">관리자형</text>
    <text x="461.43280106668334" y="304.0430369193923" text-anchor="middle" font-size="20" font-weight="800" fill="#171717">48</text>
  
  <!-- bottom ranking bar -->
  <g transform="translate(240, 770)">
    <rect x="0" y="0" width="720" height="80" rx="12" fill="#ffffff" stroke="#e5e7eb"/>
    <text x="360" y="25" text-anchor="middle" font-size="12" font-weight="700" fill="#6b7280" letter-spacing="3">혼자 놀기 기질 순위</text>
    
      <g transform="translate(60, 40)">
        <text x="0" y="0" font-size="16" font-weight="800" fill="#9ca3af">1</text>
        <circle cx="25" cy="-5" r="8" fill="#0891b2"/>
        <text x="40" y="0" font-size="14" font-weight="700" fill="#0891b2">NT</text>
        <text x="75" y="0" font-size="14" font-weight="700" fill="#171717">74점</text>
      </g>
    
      <g transform="translate(210, 40)">
        <text x="0" y="0" font-size="16" font-weight="800" fill="#9ca3af">2</text>
        <circle cx="25" cy="-5" r="8" fill="#e11d48"/>
        <text x="40" y="0" font-size="14" font-weight="700" fill="#e11d48">NF</text>
        <text x="75" y="0" font-size="14" font-weight="700" fill="#171717">66점</text>
      </g>
    
      <g transform="translate(360, 40)">
        <text x="0" y="0" font-size="16" font-weight="800" fill="#9ca3af">3</text>
        <circle cx="25" cy="-5" r="8" fill="#d97706"/>
        <text x="40" y="0" font-size="14" font-weight="700" fill="#d97706">SP</text>
        <text x="75" y="0" font-size="14" font-weight="700" fill="#171717">57점</text>
      </g>
    
      <g transform="translate(510, 40)">
        <text x="0" y="0" font-size="16" font-weight="800" fill="#9ca3af">4</text>
        <circle cx="25" cy="-5" r="8" fill="#059669"/>
        <text x="40" y="0" font-size="14" font-weight="700" fill="#059669">SJ</text>
        <text x="75" y="0" font-size="14" font-weight="700" fill="#171717">48점</text>
      </g>
    
  </g>
  
<text x="1180" y="890" text-anchor="end" font-size="10" font-weight="500" fill="#9ca3af" opacity="0.8">192types.co.kr · 2026 MBTI 트렌드 시리즈</text>
</svg>