<?xml version="1.0" encoding="UTF-8"?>
<svg xmlns="http://www.w3.org/2000/svg" viewBox="0 0 1200 900" width="1200" height="900" font-family="'Pretendard', 'Apple SD Gothic Neo', 'Noto Sans KR', system-ui, sans-serif">
<rect width="1200" height="900" fill="#fafafa"/>

  <text x="600" y="58" text-anchor="middle" font-size="32" font-weight="800" fill="#171717">한국 '혼자 문화' 성장 추이 2015–2026</text>
  <text x="600" y="90" text-anchor="middle" font-size="15" font-weight="500" fill="#6b7280">1인 가구 비율 (%) · 통계청 · 10년 새 2.7배 증가</text>
  <defs>
    <linearGradient id="areaGrad" x1="0" y1="0" x2="0" y2="1">
      <stop offset="0%" stop-color="#0891b2" stop-opacity="0.45"/>
      <stop offset="100%" stop-color="#0891b2" stop-opacity="0.05"/>
    </linearGradient>
  </defs>
  <!-- grid -->
  
    <line x1="130" y1="680" x2="1070" y2="680" stroke="#e5e7eb" stroke-dasharray="3 3"/>
    <text x="118" y="684" text-anchor="end" font-size="11" fill="#9ca3af" font-weight="500">0%</text>
  
    <line x1="130" y1="555" x2="1070" y2="555" stroke="#e5e7eb" stroke-dasharray="3 3"/>
    <text x="118" y="559" text-anchor="end" font-size="11" fill="#9ca3af" font-weight="500">20%</text>
  
    <line x1="130" y1="430" x2="1070" y2="430" stroke="#e5e7eb" stroke-dasharray="3 3"/>
    <text x="118" y="434" text-anchor="end" font-size="11" fill="#9ca3af" font-weight="500">40%</text>
  
    <line x1="130" y1="305" x2="1070" y2="305" stroke="#e5e7eb" stroke-dasharray="3 3"/>
    <text x="118" y="309" text-anchor="end" font-size="11" fill="#9ca3af" font-weight="500">60%</text>
  
    <line x1="130" y1="180" x2="1070" y2="180" stroke="#e5e7eb" stroke-dasharray="3 3"/>
    <text x="118" y="184" text-anchor="end" font-size="11" fill="#9ca3af" font-weight="500">80%</text>
  
  <text x="130" y="704" text-anchor="middle" font-size="11" fill="#6b7280" font-weight="500">2015</text><text x="215.45454545454544" y="704" text-anchor="middle" font-size="11" fill="#6b7280" font-weight="500">2016</text><text x="300.9090909090909" y="704" text-anchor="middle" font-size="11" fill="#6b7280" font-weight="500">2017</text><text x="386.3636363636364" y="704" text-anchor="middle" font-size="11" fill="#6b7280" font-weight="500">2018</text><text x="471.8181818181818" y="704" text-anchor="middle" font-size="11" fill="#6b7280" font-weight="500">2019</text><text x="557.2727272727273" y="704" text-anchor="middle" font-size="11" fill="#6b7280" font-weight="500">2020</text><text x="642.7272727272727" y="704" text-anchor="middle" font-size="11" fill="#6b7280" font-weight="500">2021</text><text x="728.1818181818181" y="704" text-anchor="middle" font-size="11" fill="#6b7280" font-weight="500">2022</text><text x="813.6363636363636" y="704" text-anchor="middle" font-size="11" fill="#6b7280" font-weight="500">2023</text><text x="899.0909090909091" y="704" text-anchor="middle" font-size="11" fill="#6b7280" font-weight="500">2024</text><text x="984.5454545454545" y="704" text-anchor="middle" font-size="11" fill="#6b7280" font-weight="500">2025</text><text x="1070" y="704" text-anchor="middle" font-size="11" fill="#6b7280" font-weight="500">2026</text>
  <!-- axis -->
  <line x1="130" y1="180" x2="130" y2="680" stroke="#9ca3af" stroke-width="1.5"/>
  <line x1="130" y1="680" x2="1070" y2="680" stroke="#9ca3af" stroke-width="1.5"/>
  <!-- area -->
  <path d="M 130 511.25 L 130 511.3 L 215.45454545454544 498.8 L 300.9090909090909 486.3 L 386.3636363636364 473.8 L 471.8181818181818 461.3 L 557.2727272727273 423.8 L 642.7272727272727 392.5 L 728.1818181818181 355.0 L 813.6363636363636 317.5 L 899.0909090909091 286.3 L 984.5454545454545 255.0 L 1070 217.5 L 1070 680 L 130 680 Z" fill="url(#areaGrad)"/>
  <!-- line -->
  <polyline points="130,511.3 215.45454545454544,498.8 300.9090909090909,486.3 386.3636363636364,473.8 471.8181818181818,461.3 557.2727272727273,423.8 642.7272727272727,392.5 728.1818181818181,355.0 813.6363636363636,317.5 899.0909090909091,286.3 984.5454545454545,255.0 1070,217.5" fill="none" stroke="#0891b2" stroke-width="4" stroke-linecap="round" stroke-linejoin="round"/>
  <!-- points -->
  <circle cx="130" cy="511.25" r="5" fill="#fff" stroke="#0891b2" stroke-width="3"/><circle cx="215.45454545454544" cy="498.75" r="5" fill="#fff" stroke="#0891b2" stroke-width="3"/><circle cx="300.9090909090909" cy="486.25" r="5" fill="#fff" stroke="#0891b2" stroke-width="3"/><circle cx="386.3636363636364" cy="473.75" r="5" fill="#fff" stroke="#0891b2" stroke-width="3"/><circle cx="471.8181818181818" cy="461.25" r="5" fill="#fff" stroke="#0891b2" stroke-width="3"/><circle cx="557.2727272727273" cy="423.75" r="5" fill="#fff" stroke="#0891b2" stroke-width="3"/><circle cx="642.7272727272727" cy="392.5" r="5" fill="#fff" stroke="#0891b2" stroke-width="3"/><circle cx="728.1818181818181" cy="355" r="5" fill="#fff" stroke="#0891b2" stroke-width="3"/><circle cx="813.6363636363636" cy="317.5" r="5" fill="#fff" stroke="#0891b2" stroke-width="3"/><circle cx="899.0909090909091" cy="286.25" r="5" fill="#fff" stroke="#0891b2" stroke-width="3"/><circle cx="984.5454545454545" cy="255" r="5" fill="#fff" stroke="#0891b2" stroke-width="3"/><circle cx="1070" cy="217.5" r="5" fill="#fff" stroke="#0891b2" stroke-width="3"/>
  <!-- event markers -->
  
      <line x1="300.9090909090909" y1="478.25" x2="300.9090909090909" y2="446.25" stroke="#e11d48" stroke-width="1.5" stroke-dasharray="3 2"/>
      <rect x="225.90909090909088" y="416.25" width="150" height="28" rx="6" fill="#e11d48"/>
      <text x="300.9090909090909" y="435.25" text-anchor="middle" font-size="11" font-weight="700" fill="#fff">혼밥 트렌드 확산</text>
    
      <line x1="557.2727272727273" y1="415.75" x2="557.2727272727273" y2="383.75" stroke="#e11d48" stroke-width="1.5" stroke-dasharray="3 2"/>
      <rect x="482.27272727272725" y="353.75" width="150" height="28" rx="6" fill="#e11d48"/>
      <text x="557.2727272727273" y="372.75" text-anchor="middle" font-size="11" font-weight="700" fill="#fff">팬데믹 사회적 거리두기</text>
    
      <line x1="728.1818181818181" y1="347" x2="728.1818181818181" y2="315" stroke="#e11d48" stroke-width="1.5" stroke-dasharray="3 2"/>
      <rect x="653.1818181818181" y="285" width="150" height="28" rx="6" fill="#e11d48"/>
      <text x="728.1818181818181" y="304" text-anchor="middle" font-size="11" font-weight="700" fill="#fff">MBTI 열풍</text>
    
      <line x1="1070" y1="209.5" x2="1070" y2="157.5" stroke="#e11d48" stroke-width="1.5" stroke-dasharray="3 2"/>
      <rect x="995" y="127.5" width="150" height="28" rx="6" fill="#e11d48"/>
      <text x="1070" y="146.5" text-anchor="middle" font-size="11" font-weight="700" fill="#fff">메타센싱 · 필코노미</text>
    
  <!-- highlight 2026 -->
  <circle cx="1070" cy="217.5" r="10" fill="#0891b2"/>
  <text x="1094" y="222.5" font-size="18" font-weight="800" fill="#0e7490">74%</text>
  <!-- insight box -->
  <g transform="translate(130, 760)">
    <rect x="0" y="0" width="940" height="90" rx="12" fill="#ecfeff" stroke="#0891b2" stroke-width="1"/>
    <text x="20" y="30" font-size="14" font-weight="800" fill="#0e7490">▶ 통찰: '혼자 놀기'는 이제 소수 취향이 아니라 주류 라이프스타일</text>
    <text x="20" y="54" font-size="13" font-weight="500" fill="#374151">2015년 27% → 2026년 74%. 한국은 OECD 1인 가구 증가율 1위.</text>
    <text x="20" y="76" font-size="13" font-weight="500" fill="#374151">혼자서도 잘 노는 능력은 이제 선택이 아닌 필수 생존 스킬이 됐다.</text>
  </g>
  
<text x="1180" y="890" text-anchor="end" font-size="10" font-weight="500" fill="#9ca3af" opacity="0.8">192types.co.kr · 2026 MBTI 트렌드 시리즈</text>
</svg>