<?xml version="1.0" encoding="UTF-8"?>
<svg xmlns="http://www.w3.org/2000/svg" viewBox="0 0 1200 900" width="1200" height="900" font-family="'Pretendard', 'Apple SD Gothic Neo', 'Noto Sans KR', system-ui, sans-serif">
<rect width="1200" height="900" fill="#fafafa"/>

  <text x="600" y="58" text-anchor="middle" font-size="34" font-weight="800" fill="#171717">혼자 잘 노는 MBTI 순위</text>
  <text x="600" y="90" text-anchor="middle" font-size="15" font-weight="500" fill="#6b7280">16유형 솔로 적응력 점수 · 내향성 × 몰입력 × 자기완결성</text>
  <!-- grid -->
  
    <line x1="420" y1="130" x2="420" y2="790" stroke="#e5e7eb" stroke-width="1" stroke-dasharray="3 3"/>
    <text x="420" y="125" text-anchor="middle" font-size="10" fill="#9ca3af" font-weight="500">20</text>
  
    <line x1="540" y1="130" x2="540" y2="790" stroke="#e5e7eb" stroke-width="1" stroke-dasharray="3 3"/>
    <text x="540" y="125" text-anchor="middle" font-size="10" fill="#9ca3af" font-weight="500">40</text>
  
    <line x1="660" y1="130" x2="660" y2="790" stroke="#e5e7eb" stroke-width="1" stroke-dasharray="3 3"/>
    <text x="660" y="125" text-anchor="middle" font-size="10" fill="#9ca3af" font-weight="500">60</text>
  
    <line x1="780" y1="130" x2="780" y2="790" stroke="#e5e7eb" stroke-width="1" stroke-dasharray="3 3"/>
    <text x="780" y="125" text-anchor="middle" font-size="10" fill="#9ca3af" font-weight="500">80</text>
  
    <line x1="900" y1="130" x2="900" y2="790" stroke="#e5e7eb" stroke-width="1" stroke-dasharray="3 3"/>
    <text x="900" y="125" text-anchor="middle" font-size="10" fill="#9ca3af" font-weight="500">100</text>
  
  
    <g>
      <text x="50" y="156" font-size="18" font-weight="800" fill="#171717">1</text>
      <circle cx="100" cy="150" r="14" fill="#f59e0b" stroke="#d97706" stroke-width="2"/><text x="100" y="155" text-anchor="middle" font-size="12" font-weight="800" fill="#fff">金</text>
      
      
      <text x="135" y="156" font-size="16" font-weight="700" fill="#0891b2">INTP</text>
      <text x="200" y="156" font-size="11" fill="#6b7280">논리적 탐구자</text>
      <rect x="300" y="135" width="570" height="30" rx="15" fill="#0891b2"/>
      <text x="888" y="156" font-size="16" font-weight="800" fill="#0891b2">95</text>
    </g>
    <g>
      <text x="50" y="196" font-size="18" font-weight="800" fill="#171717">2</text>
      
      <circle cx="100" cy="190" r="14" fill="#d1d5db" stroke="#9ca3af" stroke-width="2"/><text x="100" y="195" text-anchor="middle" font-size="12" font-weight="800" fill="#374151">銀</text>
      
      <text x="135" y="196" font-size="16" font-weight="700" fill="#e11d48">INFP</text>
      <text x="200" y="196" font-size="11" fill="#6b7280">상상 속 세계인</text>
      <rect x="300" y="175" width="552" height="30" rx="15" fill="#e11d48"/>
      <text x="870" y="196" font-size="16" font-weight="800" fill="#e11d48">92</text>
    </g>
    <g>
      <text x="50" y="236" font-size="18" font-weight="800" fill="#171717">3</text>
      
      
      <circle cx="100" cy="230" r="14" fill="#b45309" stroke="#92400e" stroke-width="2"/><text x="100" y="235" text-anchor="middle" font-size="12" font-weight="800" fill="#fff">銅</text>
      <text x="135" y="236" font-size="16" font-weight="700" fill="#0891b2">INTJ</text>
      <text x="200" y="236" font-size="11" fill="#6b7280">전략적 은둔자</text>
      <rect x="300" y="215" width="540" height="30" rx="15" fill="#0891b2"/>
      <text x="858" y="236" font-size="16" font-weight="800" fill="#0891b2">90</text>
    </g>
    <g>
      <text x="50" y="276" font-size="16" font-weight="700" fill="#171717">4</text>
      
      
      
      <text x="135" y="276" font-size="15" font-weight="700" fill="#e11d48">INFJ</text>
      <text x="200" y="276" font-size="11" fill="#6b7280">깊은 사색가</text>
      <rect x="300" y="258" width="516" height="24" rx="12" fill="#e11d48"/>
      <text x="834" y="276" font-size="14" font-weight="700" fill="#e11d48">86</text>
    </g>
    <g>
      <text x="50" y="316" font-size="16" font-weight="700" fill="#171717">5</text>
      
      
      
      <text x="135" y="316" font-size="15" font-weight="700" fill="#d97706">ISTP</text>
      <text x="200" y="316" font-size="11" fill="#6b7280">기계 만지는 장인</text>
      <rect x="300" y="298" width="492" height="24" rx="12" fill="#d97706"/>
      <text x="810" y="316" font-size="14" font-weight="700" fill="#d97706">82</text>
    </g>
    <g>
      <text x="50" y="356" font-size="16" font-weight="700" fill="#171717">6</text>
      
      
      
      <text x="135" y="356" font-size="15" font-weight="700" fill="#d97706">ISFP</text>
      <text x="200" y="356" font-size="11" fill="#6b7280">감각적 예술가</text>
      <rect x="300" y="338" width="468" height="24" rx="12" fill="#d97706"/>
      <text x="786" y="356" font-size="14" font-weight="700" fill="#d97706">78</text>
    </g>
    <g>
      <text x="50" y="396" font-size="16" font-weight="700" fill="#171717">7</text>
      
      
      
      <text x="135" y="396" font-size="15" font-weight="700" fill="#059669">ISTJ</text>
      <text x="200" y="396" font-size="11" fill="#6b7280">루틴의 완성자</text>
      <rect x="300" y="378" width="432" height="24" rx="12" fill="#059669"/>
      <text x="750" y="396" font-size="14" font-weight="700" fill="#059669">72</text>
    </g>
    <g>
      <text x="50" y="436" font-size="16" font-weight="700" fill="#171717">8</text>
      
      
      
      <text x="135" y="436" font-size="15" font-weight="700" fill="#059669">ISFJ</text>
      <text x="200" y="436" font-size="11" fill="#6b7280">조용한 돌봄이</text>
      <rect x="300" y="418" width="408" height="24" rx="12" fill="#059669"/>
      <text x="726" y="436" font-size="14" font-weight="700" fill="#059669">68</text>
    </g>
    <g>
      <text x="50" y="476" font-size="16" font-weight="700" fill="#171717">9</text>
      
      
      
      <text x="135" y="476" font-size="15" font-weight="700" fill="#06b6d4">ENTP</text>
      <text x="200" y="476" font-size="11" fill="#6b7280">아이디어 외톨이</text>
      <rect x="300" y="458" width="348" height="24" rx="12" fill="#06b6d4"/>
      <text x="666" y="476" font-size="14" font-weight="700" fill="#06b6d4">58</text>
    </g>
    <g>
      <text x="50" y="516" font-size="16" font-weight="700" fill="#171717">10</text>
      
      
      
      <text x="135" y="516" font-size="15" font-weight="700" fill="#06b6d4">ENTJ</text>
      <text x="200" y="516" font-size="11" fill="#6b7280">프로젝트 몰입형</text>
      <rect x="300" y="498" width="324" height="24" rx="12" fill="#06b6d4"/>
      <text x="642" y="516" font-size="14" font-weight="700" fill="#06b6d4">54</text>
    </g>
    <g>
      <text x="50" y="556" font-size="16" font-weight="700" fill="#171717">11</text>
      
      
      
      <text x="135" y="556" font-size="15" font-weight="700" fill="#f43f5e">ENFP</text>
      <text x="200" y="556" font-size="11" fill="#6b7280">금방 외로워짐</text>
      <rect x="300" y="538" width="288" height="24" rx="12" fill="#f43f5e"/>
      <text x="606" y="556" font-size="14" font-weight="700" fill="#f43f5e">48</text>
    </g>
    <g>
      <text x="50" y="596" font-size="16" font-weight="700" fill="#171717">12</text>
      
      
      
      <text x="135" y="596" font-size="15" font-weight="700" fill="#f59e0b">ESTP</text>
      <text x="200" y="596" font-size="11" fill="#6b7280">활동 없으면 지루</text>
      <rect x="300" y="578" width="252" height="24" rx="12" fill="#f59e0b"/>
      <text x="570" y="596" font-size="14" font-weight="700" fill="#f59e0b">42</text>
    </g>
    <g>
      <text x="50" y="636" font-size="16" font-weight="700" fill="#171717">13</text>
      
      
      
      <text x="135" y="636" font-size="15" font-weight="700" fill="#f43f5e">ENFJ</text>
      <text x="200" y="636" font-size="11" fill="#6b7280">관계 없인 공허</text>
      <rect x="300" y="618" width="228" height="24" rx="12" fill="#f43f5e"/>
      <text x="546" y="636" font-size="14" font-weight="700" fill="#f43f5e">38</text>
    </g>
    <g>
      <text x="50" y="676" font-size="16" font-weight="700" fill="#171717">14</text>
      
      
      
      <text x="135" y="676" font-size="15" font-weight="700" fill="#10b981">ESTJ</text>
      <text x="200" y="676" font-size="11" fill="#6b7280">일 없으면 불안</text>
      <rect x="300" y="658" width="192" height="24" rx="12" fill="#10b981"/>
      <text x="510" y="676" font-size="14" font-weight="700" fill="#10b981">32</text>
    </g>
    <g>
      <text x="50" y="716" font-size="16" font-weight="700" fill="#171717">15</text>
      
      
      
      <text x="135" y="716" font-size="15" font-weight="700" fill="#f59e0b">ESFP</text>
      <text x="200" y="716" font-size="11" fill="#6b7280">주목받아야 충전</text>
      <rect x="300" y="698" width="156" height="24" rx="12" fill="#f59e0b"/>
      <text x="474" y="716" font-size="14" font-weight="700" fill="#f59e0b">26</text>
    </g>
    <g>
      <text x="50" y="756" font-size="16" font-weight="700" fill="#171717">16</text>
      
      
      
      <text x="135" y="756" font-size="15" font-weight="700" fill="#10b981">ESFJ</text>
      <text x="200" y="756" font-size="11" fill="#6b7280">혼자 = 우울 신호</text>
      <rect x="300" y="738" width="132" height="24" rx="12" fill="#10b981"/>
      <text x="450" y="756" font-size="14" font-weight="700" fill="#10b981">22</text>
    </g>
  <!-- Divider I/E -->
  <line x1="30" y1="475" x2="1170" y2="475" stroke="#9ca3af" stroke-width="1" stroke-dasharray="6 4"/>
  <text x="60" y="470" font-size="10" font-weight="600" fill="#6b7280">▲ 내향형(I) · 혼자도 충전되는 유형</text>
  <text x="60" y="492" font-size="10" font-weight="600" fill="#9ca3af">▼ 외향형(E) · 혼자 있으면 방전되는 유형</text>
  <!-- Legend -->
  <g transform="translate(150, 822)">
    <rect x="0" y="0" width="900" height="56" fill="#ffffff" stroke="#e5e7eb" stroke-width="1" rx="8"/>
    <circle cx="35" cy="28" r="9" fill="#0891b2"/><text x="52" y="32" font-size="12" font-weight="600" fill="#374151">NT · 분석가형</text>
    <circle cx="215" cy="28" r="9" fill="#e11d48"/><text x="232" y="32" font-size="12" font-weight="600" fill="#374151">NF · 이상주의형</text>
    <circle cx="410" cy="28" r="9" fill="#059669"/><text x="427" y="32" font-size="12" font-weight="600" fill="#374151">SJ · 관리자형</text>
    <circle cx="595" cy="28" r="9" fill="#d97706"/><text x="612" y="32" font-size="12" font-weight="600" fill="#374151">SP · 기회포착형</text>
  </g>
  
<text x="1180" y="890" text-anchor="end" font-size="10" font-weight="500" fill="#9ca3af" opacity="0.8">192types.co.kr · 2026 MBTI 트렌드 시리즈</text>
</svg>