<?xml version="1.0" encoding="UTF-8"?>
<svg xmlns="http://www.w3.org/2000/svg" viewBox="0 0 1200 900" width="1200" height="900" font-family="'Pretendard', 'Apple SD Gothic Neo', 'Noto Sans KR', system-ui, sans-serif">
<rect width="1200" height="900" fill="#faf8f5"/>

  <rect x="0" y="0" width="1200" height="140" fill="#047857"/>
  <text x="600" y="70" text-anchor="middle" font-size="28" font-weight="700" fill="#ffffff" opacity="0.85" letter-spacing="6">MATRIX</text>
  <text x="600" y="115" text-anchor="middle" font-size="40" font-weight="900" fill="#ffffff">손빈아의 ISTJ 인지기능 DNA</text>

  
      <g transform="translate(60, 175)">
        <rect x="0" y="0" width="1080" height="115" rx="20" fill="#ffffff" stroke="#e5e7eb" stroke-width="2"/>
        <rect x="0" y="0" width="12" height="115" rx="6 0 0 6" fill="#047857"/>

        <text x="40" y="62" font-size="52">📚</text>

        <text x="125" y="48" font-size="30" font-weight="900" fill="#1a1a1a">Si 주기능 — 검증의 축적</text>
        <text x="125" y="82" font-size="22" font-weight="600" fill="#4b5563">공학도 출신 + 백두대간 단계 완주</text>
      </g>
    
      <g transform="translate(60, 310)">
        <rect x="0" y="0" width="1080" height="115" rx="20" fill="#ffffff" stroke="#e5e7eb" stroke-width="2"/>
        <rect x="0" y="0" width="12" height="115" rx="6 0 0 6" fill="#047857"/>

        <text x="40" y="62" font-size="52">⚙</text>

        <text x="125" y="48" font-size="30" font-weight="900" fill="#1a1a1a">Te 보조 — 체계적 실행</text>
        <text x="125" y="82" font-size="22" font-weight="600" fill="#4b5563">트로트 전향 후 5년 준비 · 커리어 설계</text>
      </g>
    
      <g transform="translate(60, 445)">
        <rect x="0" y="0" width="1080" height="115" rx="20" fill="#ffffff" stroke="#e5e7eb" stroke-width="2"/>
        <rect x="0" y="0" width="12" height="115" rx="6 0 0 6" fill="#047857"/>

        <text x="40" y="62" font-size="52">💚</text>

        <text x="125" y="48" font-size="30" font-weight="900" fill="#1a1a1a">Fi 3차 — 내면 가치</text>
        <text x="125" y="82" font-size="22" font-weight="600" fill="#4b5563">"엄마·가족" 중심 + 하동 애향심</text>
      </g>
    
      <g transform="translate(60, 580)">
        <rect x="0" y="0" width="1080" height="115" rx="20" fill="#ffffff" stroke="#e5e7eb" stroke-width="2"/>
        <rect x="0" y="0" width="12" height="115" rx="6 0 0 6" fill="#047857"/>

        <text x="40" y="62" font-size="52">✨</text>

        <text x="125" y="48" font-size="30" font-weight="900" fill="#1a1a1a">Ne 열등 — 보수적 변화</text>
        <text x="125" y="82" font-size="22" font-weight="600" fill="#4b5563">전향은 드물지만 한번 하면 끝까지</text>
      </g>
    
  
<text x="1180" y="892" text-anchor="end" font-size="14" font-weight="600" fill="#9ca3af" opacity="0.85">192types.co.kr · 셀럽 MBTI</text>
</svg>