<?xml version="1.0" encoding="UTF-8"?>
<svg xmlns="http://www.w3.org/2000/svg" viewBox="0 0 1200 900" width="1200" height="900" font-family="'Pretendard', 'Apple SD Gothic Neo', 'Noto Sans KR', system-ui, sans-serif">
<rect width="1200" height="900" fill="#faf8f5"/>

  <rect x="0" y="0" width="1200" height="140" fill="#047857"/>
  <text x="600" y="70" text-anchor="middle" font-size="28" font-weight="700" fill="#ffffff" opacity="0.85" letter-spacing="6">MATRIX</text>
  <text x="600" y="115" text-anchor="middle" font-size="40" font-weight="900" fill="#ffffff">ISTJ 손빈아 매력 포인트 4</text>

  
      <g transform="translate(60, 175)">
        <rect x="0" y="0" width="1080" height="115" rx="20" fill="#ffffff" stroke="#e5e7eb" stroke-width="2"/>
        <rect x="0" y="0" width="12" height="115" rx="6 0 0 6" fill="#047857"/>

        <text x="40" y="62" font-size="52">🏔</text>

        <text x="125" y="48" font-size="30" font-weight="900" fill="#1a1a1a">집념의 누적</text>
        <text x="125" y="82" font-size="22" font-weight="600" fill="#4b5563">한 번 시작하면 끝까지 가는 힘</text>
      </g>
    
      <g transform="translate(60, 310)">
        <rect x="0" y="0" width="1080" height="115" rx="20" fill="#ffffff" stroke="#e5e7eb" stroke-width="2"/>
        <rect x="0" y="0" width="12" height="115" rx="6 0 0 6" fill="#047857"/>

        <text x="40" y="62" font-size="52">🎼</text>

        <text x="125" y="48" font-size="30" font-weight="900" fill="#1a1a1a">진정성 보이스</text>
        <text x="125" y="82" font-size="22" font-weight="600" fill="#4b5563">Fi가 실리는 담담한 트로트 감성</text>
      </g>
    
      <g transform="translate(60, 445)">
        <rect x="0" y="0" width="1080" height="115" rx="20" fill="#ffffff" stroke="#e5e7eb" stroke-width="2"/>
        <rect x="0" y="0" width="12" height="115" rx="6 0 0 6" fill="#047857"/>

        <text x="40" y="62" font-size="52">⚡</text>

        <text x="125" y="48" font-size="30" font-weight="900" fill="#1a1a1a">체계적 성장</text>
        <text x="125" y="82" font-size="22" font-weight="600" fill="#4b5563">매 무대마다 한 단계 업그레이드</text>
      </g>
    
      <g transform="translate(60, 580)">
        <rect x="0" y="0" width="1080" height="115" rx="20" fill="#ffffff" stroke="#e5e7eb" stroke-width="2"/>
        <rect x="0" y="0" width="12" height="115" rx="6 0 0 6" fill="#047857"/>

        <text x="40" y="62" font-size="52">🌳</text>

        <text x="125" y="48" font-size="30" font-weight="900" fill="#1a1a1a">뿌리 있는 사람</text>
        <text x="125" y="82" font-size="22" font-weight="600" fill="#4b5563">고향·가족·초심 흔들림 없음</text>
      </g>
    
  
<text x="1180" y="892" text-anchor="end" font-size="14" font-weight="600" fill="#9ca3af" opacity="0.85">192types.co.kr · 셀럽 MBTI</text>
</svg>