<?xml version="1.0" encoding="UTF-8"?>
<svg xmlns="http://www.w3.org/2000/svg" viewBox="0 0 1200 900" width="1200" height="900" font-family="'Pretendard', 'Apple SD Gothic Neo', 'Noto Sans KR', system-ui, sans-serif">
<rect width="1200" height="900" fill="#faf8f5"/>

  <rect x="0" y="0" width="1200" height="140" fill="#047857"/>
  <text x="600" y="70" text-anchor="middle" font-size="28" font-weight="700" fill="#ffffff" opacity="0.85" letter-spacing="6">TIMELINE</text>
  <text x="600" y="115" text-anchor="middle" font-size="42" font-weight="900" fill="#ffffff">손빈아 타임라인 · ISTJ 증거</text>

  <line x1="160" y1="240" x2="160" y2="820" stroke="#047857" stroke-width="4"/>

  
      <g transform="translate(0, 240)">
        <circle cx="160" cy="0" r="22" fill="#047857"/>
        <circle cx="160" cy="0" r="12" fill="#ffffff"/>

        <rect x="220" y="-40" width="920" height="85" rx="16" fill="#ffffff" stroke="#047857" stroke-width="2"/>
        <text x="245" y="-5" font-size="28" font-weight="900" fill="#047857">2011</text>
        <text x="340" y="-5" font-size="24" font-weight="800" fill="#1a1a1a">창원기계공고 졸업</text>
        <text x="245" y="28" font-size="20" font-weight="600" fill="#4b5563">공학도 출발 · Si 검증 성향</text>
      </g>
    
      <g transform="translate(0, 355)">
        <circle cx="160" cy="0" r="22" fill="#047857"/>
        <circle cx="160" cy="0" r="12" fill="#ffffff"/>

        <rect x="220" y="-40" width="920" height="85" rx="16" fill="#ffffff" stroke="#047857" stroke-width="2"/>
        <text x="245" y="-5" font-size="28" font-weight="900" fill="#047857">2016</text>
        <text x="340" y="-5" font-size="24" font-weight="800" fill="#1a1a1a">연암공대 기계설계 졸업</text>
        <text x="245" y="28" font-size="20" font-weight="600" fill="#4b5563">체계적 전공 완주 · Te 실행</text>
      </g>
    
      <g transform="translate(0, 470)">
        <circle cx="160" cy="0" r="22" fill="#047857"/>
        <circle cx="160" cy="0" r="12" fill="#ffffff"/>

        <rect x="220" y="-40" width="920" height="85" rx="16" fill="#ffffff" stroke="#047857" stroke-width="2"/>
        <text x="245" y="-5" font-size="28" font-weight="900" fill="#047857">2018</text>
        <text x="340" y="-5" font-size="24" font-weight="800" fill="#1a1a1a">1집 앨범 데뷔</text>
        <text x="245" y="28" font-size="20" font-weight="600" fill="#4b5563">공학 → 트로트 전환 · 5년 준비</text>
      </g>
    
      <g transform="translate(0, 585)">
        <circle cx="160" cy="0" r="22" fill="#047857"/>
        <circle cx="160" cy="0" r="12" fill="#ffffff"/>

        <rect x="220" y="-40" width="920" height="85" rx="16" fill="#ffffff" stroke="#047857" stroke-width="2"/>
        <text x="245" y="-5" font-size="28" font-weight="900" fill="#047857">2023</text>
        <text x="340" y="-5" font-size="24" font-weight="800" fill="#1a1a1a">백두대간 완주 1호 가수</text>
        <text x="245" y="28" font-size="20" font-weight="600" fill="#4b5563">단계적 도전 완수 · 담즙질 지구력</text>
      </g>
    
      <g transform="translate(0, 700)">
        <circle cx="160" cy="0" r="22" fill="#047857"/>
        <circle cx="160" cy="0" r="12" fill="#ffffff"/>

        <rect x="220" y="-40" width="920" height="85" rx="16" fill="#ffffff" stroke="#047857" stroke-width="2"/>
        <text x="245" y="-5" font-size="28" font-weight="900" fill="#047857">2025</text>
        <text x="340" y="-5" font-size="24" font-weight="800" fill="#1a1a1a">미스터트롯3 준결승 1위</text>
        <text x="245" y="28" font-size="20" font-weight="600" fill="#4b5563">매 라운드 발전 · Si의 누적 힘</text>
      </g>
    
  
<text x="1180" y="892" text-anchor="end" font-size="14" font-weight="600" fill="#9ca3af" opacity="0.85">192types.co.kr · 셀럽 MBTI</text>
</svg>