<?xml version="1.0" encoding="UTF-8"?>
<svg xmlns="http://www.w3.org/2000/svg" viewBox="0 0 1200 900" width="1200" height="900" font-family="'Pretendard', 'Apple SD Gothic Neo', 'Noto Sans KR', system-ui, sans-serif">
<rect width="1200" height="900" fill="#fafafa"/>

  <text x="600" y="50" text-anchor="middle" font-size="39" font-weight="800" fill="#171717">스트레스 반응 4가지 모드 — 너는 어느 쪽이야?</text>
  <text x="600" y="78" text-anchor="middle" font-size="18" font-weight="500" fill="#6b7280">주기능이 과부하되면 4가지 반응 중 하나로 튀어나와 · 반응 모드 = 대처 전략의 출발점</text>

  
      <g transform="translate(60,115)">
        <rect width="520" height="340" rx="18" fill="#ffffff" stroke="#e5e7eb"/>
        <rect width="8" height="340" rx="4" fill="#dc2626"/>
        <text x="28" y="42" font-size="28" font-weight="800" fill="#dc2626">⚔ 공격 모드 (Attack)</text>
        <text x="28" y="66" font-size="17" font-weight="600" fill="#6b7280">ENTJ · ESTJ · ESTP · ENTP · INTJ</text>
        <text x="28" y="90" font-size="17" font-weight="700" fill="#374151">· Te/Se 과잉 → 외부로 폭발</text>
        
          <g transform="translate(28, 130)">
            <circle cx="8" cy="0" r="7" fill="#dc2626" opacity="0.25"/>
            <text x="8" y="4" text-anchor="middle" font-size="14" font-weight="800" fill="#dc2626">1</text>
            <text x="26" y="4" font-size="18" font-weight="600" fill="#374151">말투가 갑자기 날카로워짐</text>
          </g>
        
          <g transform="translate(28, 176)">
            <circle cx="8" cy="0" r="7" fill="#dc2626" opacity="0.25"/>
            <text x="8" y="4" text-anchor="middle" font-size="14" font-weight="800" fill="#dc2626">2</text>
            <text x="26" y="4" font-size="18" font-weight="600" fill="#374151">메일·카톡에 느낌표 증가</text>
          </g>
        
          <g transform="translate(28, 222)">
            <circle cx="8" cy="0" r="7" fill="#dc2626" opacity="0.25"/>
            <text x="8" y="4" text-anchor="middle" font-size="14" font-weight="800" fill="#dc2626">3</text>
            <text x="26" y="4" font-size="18" font-weight="600" fill="#374151">팀원에게 예민 → 갈등 유발</text>
          </g>
        
          <g transform="translate(28, 268)">
            <circle cx="8" cy="0" r="7" fill="#dc2626" opacity="0.25"/>
            <text x="8" y="4" text-anchor="middle" font-size="14" font-weight="800" fill="#dc2626">4</text>
            <text x="26" y="4" font-size="18" font-weight="600" fill="#374151">회의에서 즉각적인 이의 제기</text>
          </g>
        
      </g>
    
      <g transform="translate(620,115)">
        <rect width="520" height="340" rx="18" fill="#ffffff" stroke="#e5e7eb"/>
        <rect width="8" height="340" rx="4" fill="#7c3aed"/>
        <text x="28" y="42" font-size="28" font-weight="800" fill="#7c3aed">🏃 회피 모드 (Avoid)</text>
        <text x="28" y="66" font-size="17" font-weight="600" fill="#6b7280">ENFP · ESFP · ENTP · ISFP</text>
        <text x="28" y="90" font-size="17" font-weight="700" fill="#374151">· Ne/Se 주기능이 "지금" 탈출</text>
        
          <g transform="translate(28, 130)">
            <circle cx="8" cy="0" r="7" fill="#7c3aed" opacity="0.25"/>
            <text x="8" y="4" text-anchor="middle" font-size="14" font-weight="800" fill="#7c3aed">1</text>
            <text x="26" y="4" font-size="18" font-weight="600" fill="#374151">갑자기 새 프로젝트·취미 시작</text>
          </g>
        
          <g transform="translate(28, 176)">
            <circle cx="8" cy="0" r="7" fill="#7c3aed" opacity="0.25"/>
            <text x="8" y="4" text-anchor="middle" font-size="14" font-weight="800" fill="#7c3aed">2</text>
            <text x="26" y="4" font-size="18" font-weight="600" fill="#374151">일은 미루고 쇼핑/여행 충동</text>
          </g>
        
          <g transform="translate(28, 222)">
            <circle cx="8" cy="0" r="7" fill="#7c3aed" opacity="0.25"/>
            <text x="8" y="4" text-anchor="middle" font-size="14" font-weight="800" fill="#7c3aed">3</text>
            <text x="26" y="4" font-size="18" font-weight="600" fill="#374151">핸드폰 무한 스크롤 3시간+</text>
          </g>
        
          <g transform="translate(28, 268)">
            <circle cx="8" cy="0" r="7" fill="#7c3aed" opacity="0.25"/>
            <text x="8" y="4" text-anchor="middle" font-size="14" font-weight="800" fill="#7c3aed">4</text>
            <text x="26" y="4" font-size="18" font-weight="600" fill="#374151">본질 대화 회피 → 가벼운 농담</text>
          </g>
        
      </g>
    
      <g transform="translate(60,490)">
        <rect width="520" height="340" rx="18" fill="#ffffff" stroke="#e5e7eb"/>
        <rect width="8" height="340" rx="4" fill="#0369a1"/>
        <text x="28" y="42" font-size="28" font-weight="800" fill="#0369a1">🔬 분석 모드 (Analyze)</text>
        <text x="28" y="66" font-size="17" font-weight="600" fill="#6b7280">INTJ · INTP · INFJ · INFP</text>
        <text x="28" y="90" font-size="17" font-weight="700" fill="#374151">· Ti/Ni 주기능 과부하</text>
        
          <g transform="translate(28, 130)">
            <circle cx="8" cy="0" r="7" fill="#0369a1" opacity="0.25"/>
            <text x="8" y="4" text-anchor="middle" font-size="14" font-weight="800" fill="#0369a1">1</text>
            <text x="26" y="4" font-size="18" font-weight="600" fill="#374151">같은 상황을 50번 머릿속 재생</text>
          </g>
        
          <g transform="translate(28, 176)">
            <circle cx="8" cy="0" r="7" fill="#0369a1" opacity="0.25"/>
            <text x="8" y="4" text-anchor="middle" font-size="14" font-weight="800" fill="#0369a1">2</text>
            <text x="26" y="4" font-size="18" font-weight="600" fill="#374151">엑셀/노션에 원인 분해 문서화</text>
          </g>
        
          <g transform="translate(28, 222)">
            <circle cx="8" cy="0" r="7" fill="#0369a1" opacity="0.25"/>
            <text x="8" y="4" text-anchor="middle" font-size="14" font-weight="800" fill="#0369a1">3</text>
            <text x="26" y="4" font-size="18" font-weight="600" fill="#374151">새벽까지 머리가 안 꺼짐</text>
          </g>
        
          <g transform="translate(28, 268)">
            <circle cx="8" cy="0" r="7" fill="#0369a1" opacity="0.25"/>
            <text x="8" y="4" text-anchor="middle" font-size="14" font-weight="800" fill="#0369a1">4</text>
            <text x="26" y="4" font-size="18" font-weight="600" fill="#374151">결론 없이 반복되는 사고 루프</text>
          </g>
        
      </g>
    
      <g transform="translate(620,490)">
        <rect width="520" height="340" rx="18" fill="#ffffff" stroke="#e5e7eb"/>
        <rect width="8" height="340" rx="4" fill="#475569"/>
        <text x="28" y="42" font-size="28" font-weight="800" fill="#475569">🌑 은둔 모드 (Withdraw)</text>
        <text x="28" y="66" font-size="17" font-weight="600" fill="#6b7280">ISFJ · ISTJ · ISTP · ISFP</text>
        <text x="28" y="90" font-size="17" font-weight="700" fill="#374151">· Si 과잉 → 안전 공간 회귀</text>
        
          <g transform="translate(28, 130)">
            <circle cx="8" cy="0" r="7" fill="#475569" opacity="0.25"/>
            <text x="8" y="4" text-anchor="middle" font-size="14" font-weight="800" fill="#475569">1</text>
            <text x="26" y="4" font-size="18" font-weight="600" fill="#374151">약속 취소 + 방에만 있음</text>
          </g>
        
          <g transform="translate(28, 176)">
            <circle cx="8" cy="0" r="7" fill="#475569" opacity="0.25"/>
            <text x="8" y="4" text-anchor="middle" font-size="14" font-weight="800" fill="#475569">2</text>
            <text x="26" y="4" font-size="18" font-weight="600" fill="#374151">연락 응답 시간 3배 이상</text>
          </g>
        
          <g transform="translate(28, 222)">
            <circle cx="8" cy="0" r="7" fill="#475569" opacity="0.25"/>
            <text x="8" y="4" text-anchor="middle" font-size="14" font-weight="800" fill="#475569">3</text>
            <text x="26" y="4" font-size="18" font-weight="600" fill="#374151">말수 급격히 감소 · "괜찮아" 반복</text>
          </g>
        
          <g transform="translate(28, 268)">
            <circle cx="8" cy="0" r="7" fill="#475569" opacity="0.25"/>
            <text x="8" y="4" text-anchor="middle" font-size="14" font-weight="800" fill="#475569">4</text>
            <text x="26" y="4" font-size="18" font-weight="600" fill="#374151">루틴 몰입으로 외부 차단</text>
          </g>
        
      </g>
    
  
<text x="1180" y="892" text-anchor="end" font-size="10" font-weight="500" fill="#9ca3af" opacity="0.85">192types.co.kr · 스트레스 리포트</text>
</svg>