<?xml version="1.0" encoding="UTF-8"?>
<svg xmlns="http://www.w3.org/2000/svg" viewBox="0 0 1200 900" width="1200" height="900" font-family="'Pretendard', 'Apple SD Gothic Neo', 'Noto Sans KR', system-ui, sans-serif">
<rect width="1200" height="900" fill="#fafafa"/>

  <text x="600" y="50" text-anchor="middle" font-size="30" font-weight="800" fill="#171717">4가지 공부 DNA — 네 방법은?</text>
  <text x="600" y="80" text-anchor="middle" font-size="14" font-weight="500" fill="#6b7280">인지기능별 최적 공부법 · 암기 / 이해 / 적용 / 토론</text>

  
      <g transform="translate(60, 115)">
        <rect width="520" height="360" rx="20" fill="#ffffff" stroke="#e5e7eb"/>
        <rect width="8" height="360" rx="4" fill="#059669"/>
        <text x="30" y="45" font-size="24" font-weight="900" fill="#059669">📝 암기형 공부</text>
        <text x="30" y="72" font-size="13" font-weight="700" fill="#6b7280">ISTJ · ISFJ · ESTJ · ESFJ</text>

        <rect x="30" y="88" width="460" height="40" rx="12" fill="#059669" opacity="0.1"/>
        <text x="45" y="113" font-size="13" font-weight="700" fill="#059669">반복 + 체계화</text>

        
          <g transform="translate(30, 160)">
            <circle cx="10" cy="0" r="11" fill="#059669" opacity="0.2"/>
            <text x="10" y="5" text-anchor="middle" font-size="12" font-weight="900" fill="#059669">1</text>
            <text x="32" y="5" font-size="13" font-weight="600" fill="#374151">서브노트 · 요약 카드 최강</text>
          </g>
        
          <g transform="translate(30, 205)">
            <circle cx="10" cy="0" r="11" fill="#059669" opacity="0.2"/>
            <text x="10" y="5" text-anchor="middle" font-size="12" font-weight="900" fill="#059669">2</text>
            <text x="32" y="5" font-size="13" font-weight="600" fill="#374151">같은 내용 3~5회 반복 회독</text>
          </g>
        
          <g transform="translate(30, 250)">
            <circle cx="10" cy="0" r="11" fill="#059669" opacity="0.2"/>
            <text x="10" y="5" text-anchor="middle" font-size="12" font-weight="900" fill="#059669">3</text>
            <text x="32" y="5" font-size="13" font-weight="600" fill="#374151">시험 전날 총정리 페이지 제작</text>
          </g>
        
          <g transform="translate(30, 295)">
            <circle cx="10" cy="0" r="11" fill="#059669" opacity="0.2"/>
            <text x="10" y="5" text-anchor="middle" font-size="12" font-weight="900" fill="#059669">4</text>
            <text x="32" y="5" font-size="13" font-weight="600" fill="#374151">암기 과목에 강점</text>
          </g>
        
      </g>
    
      <g transform="translate(620, 115)">
        <rect width="520" height="360" rx="20" fill="#ffffff" stroke="#e5e7eb"/>
        <rect width="8" height="360" rx="4" fill="#0891b2"/>
        <text x="30" y="45" font-size="24" font-weight="900" fill="#0891b2">🧠 이해형 공부</text>
        <text x="30" y="72" font-size="13" font-weight="700" fill="#6b7280">INTJ · INTP · INFJ · INFP</text>

        <rect x="30" y="88" width="460" height="40" rx="12" fill="#0891b2" opacity="0.1"/>
        <text x="45" y="113" font-size="13" font-weight="700" fill="#0891b2">원리 + 구조 파악</text>

        
          <g transform="translate(30, 160)">
            <circle cx="10" cy="0" r="11" fill="#0891b2" opacity="0.2"/>
            <text x="10" y="5" text-anchor="middle" font-size="12" font-weight="900" fill="#0891b2">1</text>
            <text x="32" y="5" font-size="13" font-weight="600" fill="#374151">첫 학습 시 전체 구조부터</text>
          </g>
        
          <g transform="translate(30, 205)">
            <circle cx="10" cy="0" r="11" fill="#0891b2" opacity="0.2"/>
            <text x="10" y="5" text-anchor="middle" font-size="12" font-weight="900" fill="#0891b2">2</text>
            <text x="32" y="5" font-size="13" font-weight="600" fill="#374151">개념 간 연결고리 그리기</text>
          </g>
        
          <g transform="translate(30, 250)">
            <circle cx="10" cy="0" r="11" fill="#0891b2" opacity="0.2"/>
            <text x="10" y="5" text-anchor="middle" font-size="12" font-weight="900" fill="#0891b2">3</text>
            <text x="32" y="5" font-size="13" font-weight="600" fill="#374151">"왜?" 질문 무한 반복</text>
          </g>
        
          <g transform="translate(30, 295)">
            <circle cx="10" cy="0" r="11" fill="#0891b2" opacity="0.2"/>
            <text x="10" y="5" text-anchor="middle" font-size="12" font-weight="900" fill="#0891b2">4</text>
            <text x="32" y="5" font-size="13" font-weight="600" fill="#374151">이론 · 추상 과목 최강</text>
          </g>
        
      </g>
    
      <g transform="translate(60, 510)">
        <rect width="520" height="360" rx="20" fill="#ffffff" stroke="#e5e7eb"/>
        <rect width="8" height="360" rx="4" fill="#d97706"/>
        <text x="30" y="45" font-size="24" font-weight="900" fill="#d97706">🔧 적용형 공부</text>
        <text x="30" y="72" font-size="13" font-weight="700" fill="#6b7280">ISTP · ESTP · ISFP · ESFP</text>

        <rect x="30" y="88" width="460" height="40" rx="12" fill="#d97706" opacity="0.1"/>
        <text x="45" y="113" font-size="13" font-weight="700" fill="#d97706">실습 + 문제 풀이</text>

        
          <g transform="translate(30, 160)">
            <circle cx="10" cy="0" r="11" fill="#d97706" opacity="0.2"/>
            <text x="10" y="5" text-anchor="middle" font-size="12" font-weight="900" fill="#d97706">1</text>
            <text x="32" y="5" font-size="13" font-weight="600" fill="#374151">이론 먼저 X, 문제 풀이 시작</text>
          </g>
        
          <g transform="translate(30, 205)">
            <circle cx="10" cy="0" r="11" fill="#d97706" opacity="0.2"/>
            <text x="10" y="5" text-anchor="middle" font-size="12" font-weight="900" fill="#d97706">2</text>
            <text x="32" y="5" font-size="13" font-weight="600" fill="#374151">실험 · 실기 · 코딩 선호</text>
          </g>
        
          <g transform="translate(30, 250)">
            <circle cx="10" cy="0" r="11" fill="#d97706" opacity="0.2"/>
            <text x="10" y="5" text-anchor="middle" font-size="12" font-weight="900" fill="#d97706">3</text>
            <text x="32" y="5" font-size="13" font-weight="600" fill="#374151">손으로 익히는 게 최강</text>
          </g>
        
          <g transform="translate(30, 295)">
            <circle cx="10" cy="0" r="11" fill="#d97706" opacity="0.2"/>
            <text x="10" y="5" text-anchor="middle" font-size="12" font-weight="900" fill="#d97706">4</text>
            <text x="32" y="5" font-size="13" font-weight="600" fill="#374151">실기 · 기술 과목 최강</text>
          </g>
        
      </g>
    
      <g transform="translate(620, 510)">
        <rect width="520" height="360" rx="20" fill="#ffffff" stroke="#e5e7eb"/>
        <rect width="8" height="360" rx="4" fill="#f43f5e"/>
        <text x="30" y="45" font-size="24" font-weight="900" fill="#f43f5e">💬 토론형 공부</text>
        <text x="30" y="72" font-size="13" font-weight="700" fill="#6b7280">ENTJ · ENTP · ENFJ · ENFP</text>

        <rect x="30" y="88" width="460" height="40" rx="12" fill="#f43f5e" opacity="0.1"/>
        <text x="45" y="113" font-size="13" font-weight="700" fill="#f43f5e">대화 + 가르치기</text>

        
          <g transform="translate(30, 160)">
            <circle cx="10" cy="0" r="11" fill="#f43f5e" opacity="0.2"/>
            <text x="10" y="5" text-anchor="middle" font-size="12" font-weight="900" fill="#f43f5e">1</text>
            <text x="32" y="5" font-size="13" font-weight="600" fill="#374151">스터디 그룹에서 폭발</text>
          </g>
        
          <g transform="translate(30, 205)">
            <circle cx="10" cy="0" r="11" fill="#f43f5e" opacity="0.2"/>
            <text x="10" y="5" text-anchor="middle" font-size="12" font-weight="900" fill="#f43f5e">2</text>
            <text x="32" y="5" font-size="13" font-weight="600" fill="#374151">설명하면서 진짜 이해</text>
          </g>
        
          <g transform="translate(30, 250)">
            <circle cx="10" cy="0" r="11" fill="#f43f5e" opacity="0.2"/>
            <text x="10" y="5" text-anchor="middle" font-size="12" font-weight="900" fill="#f43f5e">3</text>
            <text x="32" y="5" font-size="13" font-weight="600" fill="#374151">글쓰기 · 발표로 정리</text>
          </g>
        
          <g transform="translate(30, 295)">
            <circle cx="10" cy="0" r="11" fill="#f43f5e" opacity="0.2"/>
            <text x="10" y="5" text-anchor="middle" font-size="12" font-weight="900" fill="#f43f5e">4</text>
            <text x="32" y="5" font-size="13" font-weight="600" fill="#374151">논술 · 인문학 과목 최강</text>
          </g>
        
      </g>
    
  
<text x="1180" y="892" text-anchor="end" font-size="10" font-weight="500" fill="#9ca3af" opacity="0.85">192types.co.kr · 공부법 리포트</text>
</svg>