<?xml version="1.0" encoding="UTF-8"?>
<svg xmlns="http://www.w3.org/2000/svg" viewBox="0 0 1200 900" width="1200" height="900" font-family="'Pretendard', 'Apple SD Gothic Neo', 'Noto Sans KR', system-ui, sans-serif">
<rect width="1200" height="900" fill="#fafafa"/>

  <text x="600" y="50" text-anchor="middle" font-size="30" font-weight="800" fill="#171717">16유형 공부 효율 랭킹</text>
  <text x="600" y="80" text-anchor="middle" font-size="14" font-weight="500" fill="#6b7280">학습 지속력 + 이해도 + 시험 성적 종합 100점</text>

  
      <text x="50" y="142" font-size="14" font-weight="800" fill="#9ca3af">01</text>
      <text x="95" y="142" font-size="18" font-weight="800" fill="#0891b2">INTJ</text>
      <rect x="170" y="125" width="705" height="30" rx="15" fill="#0891b2" opacity="0.25"/>
      <rect x="170" y="125" width="705" height="30" rx="15" fill="#0891b2" opacity="0.85"/>
      <text x="885" y="145" font-size="14" font-weight="800" fill="#0891b2">94</text>
      <text x="920" y="147" font-size="13" font-weight="600" fill="#6b7280">체계 + 장기 설계</text>
    
      <text x="50" y="189" font-size="14" font-weight="800" fill="#9ca3af">02</text>
      <text x="95" y="189" font-size="18" font-weight="800" fill="#059669">ISTJ</text>
      <rect x="170" y="172" width="690" height="30" rx="15" fill="#059669" opacity="0.25"/>
      <rect x="170" y="172" width="690" height="30" rx="15" fill="#059669" opacity="0.85"/>
      <text x="870" y="192" font-size="14" font-weight="800" fill="#059669">92</text>
      <text x="920" y="194" font-size="13" font-weight="600" fill="#6b7280">꾸준함 + 반복</text>
    
      <text x="50" y="236" font-size="14" font-weight="800" fill="#9ca3af">03</text>
      <text x="95" y="236" font-size="18" font-weight="800" fill="#0891b2">INTP</text>
      <rect x="170" y="219" width="660" height="30" rx="15" fill="#0891b2" opacity="0.25"/>
      <rect x="170" y="219" width="660" height="30" rx="15" fill="#0891b2" opacity="0.85"/>
      <text x="840" y="239" font-size="14" font-weight="800" fill="#0891b2">88</text>
      <text x="920" y="241" font-size="13" font-weight="600" fill="#6b7280">원리 이해 깊이</text>
    
      <text x="50" y="283" font-size="14" font-weight="800" fill="#9ca3af">04</text>
      <text x="95" y="283" font-size="18" font-weight="800" fill="#0891b2">ENTJ</text>
      <rect x="170" y="266" width="645" height="30" rx="15" fill="#0891b2" opacity="0.25"/>
      <rect x="170" y="266" width="645" height="30" rx="15" fill="#0891b2" opacity="0.85"/>
      <text x="825" y="286" font-size="14" font-weight="800" fill="#0891b2">86</text>
      <text x="920" y="288" font-size="13" font-weight="600" fill="#6b7280">목표 + 실행력</text>
    
      <text x="50" y="330" font-size="14" font-weight="800" fill="#9ca3af">05</text>
      <text x="95" y="330" font-size="18" font-weight="800" fill="#e11d48">INFJ</text>
      <rect x="170" y="313" width="600" height="30" rx="15" fill="#e11d48" opacity="0.25"/>
      <rect x="170" y="313" width="600" height="30" rx="15" fill="#e11d48" opacity="0.85"/>
      <text x="780" y="333" font-size="14" font-weight="800" fill="#e11d48">80</text>
      <text x="920" y="335" font-size="13" font-weight="600" fill="#6b7280">의미 + 집중</text>
    
      <text x="50" y="377" font-size="14" font-weight="800" fill="#9ca3af">06</text>
      <text x="95" y="377" font-size="18" font-weight="800" fill="#059669">ESTJ</text>
      <rect x="170" y="360" width="585" height="30" rx="15" fill="#059669" opacity="0.25"/>
      <rect x="170" y="360" width="585" height="30" rx="15" fill="#059669" opacity="0.85"/>
      <text x="765" y="380" font-size="14" font-weight="800" fill="#059669">78</text>
      <text x="920" y="382" font-size="13" font-weight="600" fill="#6b7280">실전 적용 + 관리</text>
    
      <text x="50" y="424" font-size="14" font-weight="800" fill="#9ca3af">07</text>
      <text x="95" y="424" font-size="18" font-weight="800" fill="#059669">ISFJ</text>
      <rect x="170" y="407" width="540" height="30" rx="15" fill="#059669" opacity="0.25"/>
      <rect x="170" y="407" width="540" height="30" rx="15" fill="#059669" opacity="0.85"/>
      <text x="720" y="427" font-size="14" font-weight="800" fill="#059669">72</text>
      <text x="920" y="429" font-size="13" font-weight="600" fill="#6b7280">반복 + 꼼꼼</text>
    
      <text x="50" y="471" font-size="14" font-weight="800" fill="#9ca3af">08</text>
      <text x="95" y="471" font-size="18" font-weight="800" fill="#0891b2">ENTP</text>
      <rect x="170" y="454" width="510" height="30" rx="15" fill="#0891b2" opacity="0.25"/>
      <rect x="170" y="454" width="510" height="30" rx="15" fill="#0891b2" opacity="0.85"/>
      <text x="690" y="474" font-size="14" font-weight="800" fill="#0891b2">68</text>
      <text x="920" y="476" font-size="13" font-weight="600" fill="#6b7280">아이디어 + 토론</text>
    
      <text x="50" y="518" font-size="14" font-weight="800" fill="#9ca3af">09</text>
      <text x="95" y="518" font-size="18" font-weight="800" fill="#e11d48">INFP</text>
      <rect x="170" y="501" width="465" height="30" rx="15" fill="#e11d48" opacity="0.25"/>
      <rect x="170" y="501" width="465" height="30" rx="15" fill="#e11d48" opacity="0.85"/>
      <text x="645" y="521" font-size="14" font-weight="800" fill="#e11d48">62</text>
      <text x="920" y="523" font-size="13" font-weight="600" fill="#6b7280">가치 + 이상 학습</text>
    
      <text x="50" y="565" font-size="14" font-weight="800" fill="#9ca3af">10</text>
      <text x="95" y="565" font-size="18" font-weight="800" fill="#d97706">ISTP</text>
      <rect x="170" y="548" width="435" height="30" rx="15" fill="#d97706" opacity="0.25"/>
      <rect x="170" y="548" width="435" height="30" rx="15" fill="#d97706" opacity="0.85"/>
      <text x="615" y="568" font-size="14" font-weight="800" fill="#d97706">58</text>
      <text x="920" y="570" font-size="13" font-weight="600" fill="#6b7280">실습 + 문제 해결</text>
    
      <text x="50" y="612" font-size="14" font-weight="800" fill="#9ca3af">11</text>
      <text x="95" y="612" font-size="18" font-weight="800" fill="#e11d48">ENFJ</text>
      <rect x="170" y="595" width="390" height="30" rx="15" fill="#e11d48" opacity="0.25"/>
      <rect x="170" y="595" width="390" height="30" rx="15" fill="#e11d48" opacity="0.85"/>
      <text x="570" y="615" font-size="14" font-weight="800" fill="#e11d48">52</text>
      <text x="920" y="617" font-size="13" font-weight="600" fill="#6b7280">가르칠 때 더 배움</text>
    
      <text x="50" y="659" font-size="14" font-weight="800" fill="#9ca3af">12</text>
      <text x="95" y="659" font-size="18" font-weight="800" fill="#059669">ESFJ</text>
      <rect x="170" y="642" width="360" height="30" rx="15" fill="#059669" opacity="0.25"/>
      <rect x="170" y="642" width="360" height="30" rx="15" fill="#059669" opacity="0.85"/>
      <text x="540" y="662" font-size="14" font-weight="800" fill="#059669">48</text>
      <text x="920" y="664" font-size="13" font-weight="600" fill="#6b7280">그룹 스터디 강점</text>
    
      <text x="50" y="706" font-size="14" font-weight="800" fill="#9ca3af">13</text>
      <text x="95" y="706" font-size="18" font-weight="800" fill="#e11d48">ENFP</text>
      <rect x="170" y="689" width="315" height="30" rx="15" fill="#e11d48" opacity="0.25"/>
      <rect x="170" y="689" width="315" height="30" rx="15" fill="#e11d48" opacity="0.85"/>
      <text x="495" y="709" font-size="14" font-weight="800" fill="#e11d48">42</text>
      <text x="920" y="711" font-size="13" font-weight="600" fill="#6b7280">관심만큼 폭발</text>
    
      <text x="50" y="753" font-size="14" font-weight="800" fill="#9ca3af">14</text>
      <text x="95" y="753" font-size="18" font-weight="800" fill="#d97706">ISFP</text>
      <rect x="170" y="736" width="270" height="30" rx="15" fill="#d97706" opacity="0.25"/>
      <rect x="170" y="736" width="270" height="30" rx="15" fill="#d97706" opacity="0.85"/>
      <text x="450" y="756" font-size="14" font-weight="800" fill="#d97706">36</text>
      <text x="920" y="758" font-size="13" font-weight="600" fill="#6b7280">감각 자극 필요</text>
    
      <text x="50" y="800" font-size="14" font-weight="800" fill="#9ca3af">15</text>
      <text x="95" y="800" font-size="18" font-weight="800" fill="#d97706">ESTP</text>
      <rect x="170" y="783" width="225" height="30" rx="15" fill="#d97706" opacity="0.25"/>
      <rect x="170" y="783" width="225" height="30" rx="15" fill="#d97706" opacity="0.85"/>
      <text x="405" y="803" font-size="14" font-weight="800" fill="#d97706">30</text>
      <text x="920" y="805" font-size="13" font-weight="600" fill="#6b7280">실전 외 지루</text>
    
      <text x="50" y="847" font-size="14" font-weight="800" fill="#9ca3af">16</text>
      <text x="95" y="847" font-size="18" font-weight="800" fill="#d97706">ESFP</text>
      <rect x="170" y="830" width="180" height="30" rx="15" fill="#d97706" opacity="0.25"/>
      <rect x="170" y="830" width="180" height="30" rx="15" fill="#d97706" opacity="0.85"/>
      <text x="360" y="850" font-size="14" font-weight="800" fill="#d97706">24</text>
      <text x="920" y="852" font-size="13" font-weight="600" fill="#6b7280">집중 유지 어려움</text>
    
  
<text x="1180" y="892" text-anchor="end" font-size="10" font-weight="500" fill="#9ca3af" opacity="0.85">192types.co.kr · 공부법 리포트</text>
</svg>