<?xml version="1.0" encoding="UTF-8"?>
<svg xmlns="http://www.w3.org/2000/svg" viewBox="0 0 1200 900" width="1200" height="900" font-family="'Pretendard', 'Apple SD Gothic Neo', 'Noto Sans KR', system-ui, sans-serif">
<rect width="1200" height="900" fill="#fafafa"/>

  <text x="600" y="50" text-anchor="middle" font-size="42" font-weight="800" fill="#171717">4기질별 집중력 곡선</text>
  <text x="600" y="80" text-anchor="middle" font-size="20" font-weight="500" fill="#6b7280">공부 시작 후 시간별 집중도 변화 · 네 기질에 맞는 타이머 설정</text>

  <!-- Axes -->
  <line x1="100" y1="640" x2="1120" y2="640" stroke="#6b7280" stroke-width="2"/>
  <line x1="100" y1="140" x2="100" y2="640" stroke="#6b7280" stroke-width="2"/>

  <!-- X labels (minutes) -->
  
      <line x1="100" y1="640" x2="100" y2="646" stroke="#6b7280" stroke-width="2"/>
      <text x="100" y="664" text-anchor="middle" font-size="17" font-weight="700" fill="#6b7280">0분</text>
    
      <line x1="355" y1="640" x2="355" y2="646" stroke="#6b7280" stroke-width="2"/>
      <text x="355" y="664" text-anchor="middle" font-size="17" font-weight="700" fill="#6b7280">30분</text>
    
      <line x1="610" y1="640" x2="610" y2="646" stroke="#6b7280" stroke-width="2"/>
      <text x="610" y="664" text-anchor="middle" font-size="17" font-weight="700" fill="#6b7280">60분</text>
    
      <line x1="865" y1="640" x2="865" y2="646" stroke="#6b7280" stroke-width="2"/>
      <text x="865" y="664" text-anchor="middle" font-size="17" font-weight="700" fill="#6b7280">90분</text>
    
      <line x1="1120" y1="640" x2="1120" y2="646" stroke="#6b7280" stroke-width="2"/>
      <text x="1120" y="664" text-anchor="middle" font-size="17" font-weight="700" fill="#6b7280">120분</text>
    

  <text x="90" y="130" text-anchor="end" font-size="17" font-weight="700" fill="#6b7280">집중도</text>

  <!-- Curves -->
  
    <polyline points="100,489.6513619459711 142.5,480.35432139091165 185,470.4823839548352 227.5,460 270,470.4823839548352 312.5,480.35432139091165 355,489.6513619459711 397.5,498.4069850080204 440,506.65272027729077 482.5,514.4182613072144 525,521.7315724332898 567.5,528.6189894748946 610,535.1053145726819 652.5,541.2139055030752 695,546.9667597914942 737.5,552.3845939272051 780,557.4869179650598 822.5,562.2921057827657 865,566.8174612466921 907.5,571.0792805244798 950,575.092910768846 992.5,578.872805383911 1035,582.4325760730653 1077.5,585.7850418558037 1120,588.9422752300413" fill="none" stroke="#0891b2" stroke-width="4" opacity="0.85"/>
  
    <polyline points="100,521.3950245679247 142.5,517.7829653165726 185,514.0609024841079 227.5,510.225485962735 270,506.2732636186859 312.5,502.2006781850682 355,498.00406406008375 397.5,493.6796440077402 440,489.22352575808327 482.5,484.63169850389124 525,479.9000292906777 567.5,475.0242592967536 610,470 652.5,475.0242592967536 695,479.9000292906777 737.5,484.63169850389124 780,489.22352575808327 822.5,493.6796440077402 865,498.00406406008375 907.5,502.2006781850682 950,506.2732636186859 992.5,510.225485962735 1035,514.0609024841079 1077.5,517.7829653165726 1120,521.3950245679247" fill="none" stroke="#0e7490" stroke-width="4" opacity="0.85"/>
  
    <polyline points="100,472.9459577177456 142.5,469.57124220675774 185,466.12835292023885 227.5,462.6159126565685 270,459.03251639280813 312.5,455.37673072267285 355,451.6470932831503 397.5,447.84211216953537 440,443.9602653386489 482.5,440 525,443.9602653386489 567.5,447.84211216953537 610,451.6470932831503 652.5,455.37673072267285 695,459.03251639280813 737.5,462.6159126565685 780,466.12835292023885 822.5,469.57124220675774 865,472.9459577177456 907.5,476.2538493844036 950,479.4962404075043 992.5,482.6744277866893 1035,485.78968283928674 1077.5,488.8432517088549 1120,491.8363558636564" fill="none" stroke="#059669" stroke-width="4" opacity="0.85"/>
  
    <polyline points="100,484.44115691518346 142.5,468.0808905731677 185,450 227.5,468.0808905731677 270,484.44115691518346 312.5,499.2445380704736 355,512.6391912532285 397.5,524.7591746545996 440,535.725789142135 482.5,545.6487922796322 525,554.6274968177279 567.5,562.7517646492862 610,570.1029061774259 652.5,576.7544940973648 695,582.7730997366816 737.5,588.2189593235377 780,593.1465768510948 822.5,597.6052695717983 865,601.6396615810155 907.5,605.2901304299804 950,608.5932112378986 992.5,611.5819623476993 1035,614.2862961850436 1077.5,616.7332786319334 1120,618.9473999111566" fill="none" stroke="#f43f5e" stroke-width="4" opacity="0.85"/>
  

  <!-- Legend + description -->
  
    <g transform="translate(80, 700)">
      <rect width="14" height="14" rx="3" fill="#0891b2"/>
      <text x="24" y="12" font-size="20" font-weight="800" fill="#0891b2">담즙질</text>
      <text x="100" y="12" font-size="17" font-weight="500" fill="#374151">15분 폭발 → 45분 후 급감 → 짧은 재시작</text>
    </g>
  
    <g transform="translate(640, 700)">
      <rect width="14" height="14" rx="3" fill="#0e7490"/>
      <text x="24" y="12" font-size="20" font-weight="800" fill="#0e7490">우울질</text>
      <text x="100" y="12" font-size="17" font-weight="500" fill="#374151">60분 피크 → 120분까지 완만 감소</text>
    </g>
  
    <g transform="translate(80, 750)">
      <rect width="14" height="14" rx="3" fill="#059669"/>
      <text x="24" y="12" font-size="20" font-weight="800" fill="#059669">점액질</text>
      <text x="100" y="12" font-size="17" font-weight="500" fill="#374151">45분 피크 → 2시간+ 장시간 유지</text>
    </g>
  
    <g transform="translate(640, 750)">
      <rect width="14" height="14" rx="3" fill="#f43f5e"/>
      <text x="24" y="12" font-size="20" font-weight="800" fill="#f43f5e">다혈질</text>
      <text x="100" y="12" font-size="17" font-weight="500" fill="#374151">10분 폭발 → 30분 후 급감 → 자극 필요</text>
    </g>
  
  
<text x="1180" y="892" text-anchor="end" font-size="10" font-weight="500" fill="#9ca3af" opacity="0.85">192types.co.kr · 공부법 리포트</text>
</svg>