<?xml version="1.0" encoding="UTF-8"?>
<svg xmlns="http://www.w3.org/2000/svg" viewBox="0 0 1200 900" width="1200" height="900" font-family="'Pretendard', 'Apple SD Gothic Neo', 'Noto Sans KR', system-ui, sans-serif">
<rect width="1200" height="900" fill="#faf8f5"/>

  <rect x="0" y="0" width="1200" height="140" fill="#e11d48"/>
  <text x="600" y="70" text-anchor="middle" font-size="28" font-weight="700" fill="#ffffff" opacity="0.85" letter-spacing="6">COMPARISON</text>
  <text x="600" y="115" text-anchor="middle" font-size="40" font-weight="900" fill="#ffffff">NF 이상주의형 — 가치·의미·감정</text>
  
      <g transform="translate(60, 175)">
        <rect x="0" y="0" width="1080" height="115" rx="20" fill="#ffffff" stroke="#e5e7eb" stroke-width="2"/>
        <rect x="0" y="0" width="12" height="115" rx="6 0 0 6" fill="#e11d48"/>
        <text x="40" y="62" font-size="52">🔮</text>
        <text x="125" y="48" font-size="30" font-weight="900" fill="#1a1a1a">INFJ · 옹호자</text>
        <text x="125" y="82" font-size="22" font-weight="600" fill="#4b5563">이상주의 · 깊은 통찰 · 조용한 헌신</text>
      </g>
    
      <g transform="translate(60, 310)">
        <rect x="0" y="0" width="1080" height="115" rx="20" fill="#ffffff" stroke="#e5e7eb" stroke-width="2"/>
        <rect x="0" y="0" width="12" height="115" rx="6 0 0 6" fill="#e11d48"/>
        <text x="40" y="62" font-size="52">🌿</text>
        <text x="125" y="48" font-size="30" font-weight="900" fill="#1a1a1a">INFP · 중재자</text>
        <text x="125" y="82" font-size="22" font-weight="600" fill="#4b5563">진정성 · 내면 세계 · 이상 현실</text>
      </g>
    
      <g transform="translate(60, 445)">
        <rect x="0" y="0" width="1080" height="115" rx="20" fill="#ffffff" stroke="#e5e7eb" stroke-width="2"/>
        <rect x="0" y="0" width="12" height="115" rx="6 0 0 6" fill="#e11d48"/>
        <text x="40" y="62" font-size="52">☀️</text>
        <text x="125" y="48" font-size="30" font-weight="900" fill="#1a1a1a">ENFJ · 선도자</text>
        <text x="125" y="82" font-size="22" font-weight="600" fill="#4b5563">따뜻한 리더 · 타인 돌봄 · 공감</text>
      </g>
    
      <g transform="translate(60, 580)">
        <rect x="0" y="0" width="1080" height="115" rx="20" fill="#ffffff" stroke="#e5e7eb" stroke-width="2"/>
        <rect x="0" y="0" width="12" height="115" rx="6 0 0 6" fill="#e11d48"/>
        <text x="40" y="62" font-size="52">✨</text>
        <text x="125" y="48" font-size="30" font-weight="900" fill="#1a1a1a">ENFP · 활동가</text>
        <text x="125" y="82" font-size="22" font-weight="600" fill="#4b5563">감정 폭발 · 자유 영혼 · 가능성</text>
      </g>
    
  
<text x="1180" y="892" text-anchor="end" font-size="14" font-weight="600" fill="#9ca3af" opacity="0.85">192types.co.kr · 16유형 요약</text>
</svg>