<?xml version="1.0" encoding="UTF-8"?>
<svg xmlns="http://www.w3.org/2000/svg" viewBox="0 0 1200 900" width="1200" height="900" font-family="'Pretendard', 'Apple SD Gothic Neo', 'Noto Sans KR', system-ui, sans-serif">
<rect width="1200" height="900" fill="#faf8f5"/>

  <rect x="0" y="0" width="1200" height="140" fill="#0e7490"/>
  <text x="600" y="70" text-anchor="middle" font-size="28" font-weight="700" fill="#ffffff" opacity="0.85" letter-spacing="6">COMPARISON</text>
  <text x="600" y="115" text-anchor="middle" font-size="40" font-weight="900" fill="#ffffff">3대 검사 차이 한눈에</text>
  
      <g transform="translate(60, 175)">
        <rect x="0" y="0" width="1080" height="115" rx="20" fill="#ffffff" stroke="#e5e7eb" stroke-width="2"/>
        <rect x="0" y="0" width="12" height="115" rx="6 0 0 6" fill="#0e7490"/>
        <text x="40" y="62" font-size="52">📜</text>
        <text x="125" y="48" font-size="30" font-weight="900" fill="#1a1a1a">MBTI® 원조 — 전문가 해석</text>
        <text x="125" y="82" font-size="22" font-weight="600" fill="#4b5563">공인 자격 상담사 필수 · 정밀 but 비쌈</text>
      </g>
    
      <g transform="translate(60, 310)">
        <rect x="0" y="0" width="1080" height="115" rx="20" fill="#ffffff" stroke="#e5e7eb" stroke-width="2"/>
        <rect x="0" y="0" width="12" height="115" rx="6 0 0 6" fill="#0e7490"/>
        <text x="40" y="62" font-size="52">🌐</text>
        <text x="125" y="48" font-size="30" font-weight="900" fill="#1a1a1a">16Personalities — 온라인 대중</text>
        <text x="125" y="82" font-size="22" font-weight="600" fill="#4b5563">NERIS 자체 알고리즘 · 공식 MBTI와 별개</text>
      </g>
    
      <g transform="translate(60, 445)">
        <rect x="0" y="0" width="1080" height="115" rx="20" fill="#ffffff" stroke="#e5e7eb" stroke-width="2"/>
        <rect x="0" y="0" width="12" height="115" rx="6 0 0 6" fill="#0e7490"/>
        <text x="40" y="62" font-size="52">🎯</text>
        <text x="125" y="48" font-size="30" font-weight="900" fill="#1a1a1a">192types — 기질 통합</text>
        <text x="125" y="82" font-size="22" font-weight="600" fill="#4b5563">16유형 × 4기질 = 192 조합 · 정밀 무료</text>
      </g>
    
  
<text x="1180" y="892" text-anchor="end" font-size="14" font-weight="600" fill="#9ca3af" opacity="0.85">192types.co.kr · 검사 가이드</text>
</svg>