<?xml version="1.0" encoding="UTF-8"?>
<svg xmlns="http://www.w3.org/2000/svg" viewBox="0 0 1200 900" width="1200" height="900" font-family="'Pretendard', 'Apple SD Gothic Neo', 'Noto Sans KR', system-ui, sans-serif">
<rect width="1200" height="900" fill="#fafafa"/>

  <text x="600" y="45" text-anchor="middle" font-size="42" font-weight="800" fill="#171717">16유형 재정 리스크 매트릭스</text>
  <text x="600" y="72" text-anchor="middle" font-size="18" font-weight="500" fill="#6b7280">가로 = 감정(좌) vs 논리(우), 세로 = 직관(상) vs 감각(하)</text>

  <!-- Axes -->
  <line x1="600" y1="110" x2="600" y2="780" stroke="#d1d5db" stroke-width="2" stroke-dasharray="8,6"/>
  <line x1="120" y1="445" x2="1080" y2="445" stroke="#d1d5db" stroke-width="2" stroke-dasharray="8,6"/>

  <text x="600" y="100" text-anchor="middle" font-size="18" font-weight="800" fill="#0891b2">직관 N (미래)</text>
  <text x="600" y="800" text-anchor="middle" font-size="18" font-weight="800" fill="#0891b2">감각 S (현재)</text>
  <text x="130" y="450" font-size="18" font-weight="800" fill="#e11d48">감정 F</text>
  <text x="1015" y="450" font-size="18" font-weight="800" fill="#0891b2">논리 T</text>

  <!-- Quadrant backgrounds -->
  <rect x="120" y="110" width="480" height="335" fill="#fff1f2" opacity="0.35"/>
  <rect x="600" y="110" width="480" height="335" fill="#ecfeff" opacity="0.35"/>
  <rect x="120" y="445" width="480" height="335" fill="#fffbeb" opacity="0.35"/>
  <rect x="600" y="445" width="480" height="335" fill="#ecfdf5" opacity="0.35"/>

  
      <circle cx="200" cy="220" r="28" fill="#dc2626" opacity="0.2"/>
      <circle cx="200" cy="220" r="22" fill="#dc2626" opacity="0.85" stroke="#fff" stroke-width="2"/>
      <text x="200" y="224" text-anchor="middle" font-size="14" font-weight="900" fill="#fff">ENFP</text>
    
      <circle cx="260" cy="270" r="28" fill="#dc2626" opacity="0.2"/>
      <circle cx="260" cy="270" r="22" fill="#dc2626" opacity="0.85" stroke="#fff" stroke-width="2"/>
      <text x="260" y="274" text-anchor="middle" font-size="14" font-weight="900" fill="#fff">ESFP</text>
    
      <circle cx="240" cy="320" r="28" fill="#dc2626" opacity="0.2"/>
      <circle cx="240" cy="320" r="22" fill="#dc2626" opacity="0.85" stroke="#fff" stroke-width="2"/>
      <text x="240" y="324" text-anchor="middle" font-size="14" font-weight="900" fill="#fff">INFP</text>
    
      <circle cx="220" cy="370" r="28" fill="#dc2626" opacity="0.2"/>
      <circle cx="220" cy="370" r="22" fill="#dc2626" opacity="0.85" stroke="#fff" stroke-width="2"/>
      <text x="220" y="374" text-anchor="middle" font-size="14" font-weight="900" fill="#fff">ISFP</text>
    
      <circle cx="330" cy="250" r="28" fill="#f59e0b" opacity="0.2"/>
      <circle cx="330" cy="250" r="22" fill="#f59e0b" opacity="0.85" stroke="#fff" stroke-width="2"/>
      <text x="330" y="254" text-anchor="middle" font-size="14" font-weight="900" fill="#fff">ENTP</text>
    
      <circle cx="340" cy="330" r="28" fill="#f59e0b" opacity="0.2"/>
      <circle cx="340" cy="330" r="22" fill="#f59e0b" opacity="0.85" stroke="#fff" stroke-width="2"/>
      <text x="340" y="334" text-anchor="middle" font-size="14" font-weight="900" fill="#fff">ESTP</text>
    
      <circle cx="310" cy="410" r="28" fill="#f59e0b" opacity="0.2"/>
      <circle cx="310" cy="410" r="22" fill="#f59e0b" opacity="0.85" stroke="#fff" stroke-width="2"/>
      <text x="310" y="414" text-anchor="middle" font-size="14" font-weight="900" fill="#fff">ENFJ</text>
    
      <circle cx="300" cy="460" r="28" fill="#f59e0b" opacity="0.2"/>
      <circle cx="300" cy="460" r="22" fill="#f59e0b" opacity="0.85" stroke="#fff" stroke-width="2"/>
      <text x="300" y="464" text-anchor="middle" font-size="14" font-weight="900" fill="#fff">INFJ</text>
    
      <circle cx="780" cy="250" r="28" fill="#84cc16" opacity="0.2"/>
      <circle cx="780" cy="250" r="22" fill="#84cc16" opacity="0.85" stroke="#fff" stroke-width="2"/>
      <text x="780" y="254" text-anchor="middle" font-size="14" font-weight="900" fill="#fff">ESFJ</text>
    
      <circle cx="760" cy="310" r="28" fill="#16a34a" opacity="0.2"/>
      <circle cx="760" cy="310" r="22" fill="#16a34a" opacity="0.85" stroke="#fff" stroke-width="2"/>
      <text x="760" y="314" text-anchor="middle" font-size="14" font-weight="900" fill="#fff">ISFJ</text>
    
      <circle cx="880" cy="250" r="28" fill="#16a34a" opacity="0.2"/>
      <circle cx="880" cy="250" r="22" fill="#16a34a" opacity="0.85" stroke="#fff" stroke-width="2"/>
      <text x="880" y="254" text-anchor="middle" font-size="14" font-weight="900" fill="#fff">ENTJ</text>
    
      <circle cx="890" cy="330" r="28" fill="#16a34a" opacity="0.2"/>
      <circle cx="890" cy="330" r="22" fill="#16a34a" opacity="0.85" stroke="#fff" stroke-width="2"/>
      <text x="890" y="334" text-anchor="middle" font-size="14" font-weight="900" fill="#fff">INTP</text>
    
      <circle cx="870" cy="420" r="28" fill="#16a34a" opacity="0.2"/>
      <circle cx="870" cy="420" r="22" fill="#16a34a" opacity="0.85" stroke="#fff" stroke-width="2"/>
      <text x="870" y="424" text-anchor="middle" font-size="14" font-weight="900" fill="#fff">ESTJ</text>
    
      <circle cx="890" cy="490" r="28" fill="#16a34a" opacity="0.2"/>
      <circle cx="890" cy="490" r="22" fill="#16a34a" opacity="0.85" stroke="#fff" stroke-width="2"/>
      <text x="890" y="494" text-anchor="middle" font-size="14" font-weight="900" fill="#fff">ISTJ</text>
    
      <circle cx="830" cy="560" r="28" fill="#16a34a" opacity="0.2"/>
      <circle cx="830" cy="560" r="22" fill="#16a34a" opacity="0.85" stroke="#fff" stroke-width="2"/>
      <text x="830" y="564" text-anchor="middle" font-size="14" font-weight="900" fill="#fff">ISTP</text>
    
      <circle cx="820" cy="640" r="28" fill="#16a34a" opacity="0.2"/>
      <circle cx="820" cy="640" r="22" fill="#16a34a" opacity="0.85" stroke="#fff" stroke-width="2"/>
      <text x="820" y="644" text-anchor="middle" font-size="14" font-weight="900" fill="#fff">INTJ</text>
    

  <!-- Legend -->
  <g transform="translate(120, 810)">
    <circle cx="15" cy="12" r="10" fill="#16a34a"/>
    <text x="35" y="17" font-size="17" font-weight="700" fill="#374151">LOW · 재정 안정 DNA</text>

    <circle cx="240" cy="12" r="10" fill="#84cc16"/>
    <text x="260" y="17" font-size="17" font-weight="700" fill="#374151">LOW-MID · 안정형</text>

    <circle cx="460" cy="12" r="10" fill="#f59e0b"/>
    <text x="480" y="17" font-size="17" font-weight="700" fill="#374151">MID · 관리 필요</text>

    <circle cx="670" cy="12" r="10" fill="#dc2626"/>
    <text x="690" y="17" font-size="17" font-weight="700" fill="#374151">HIGH · 시스템 필수</text>
  </g>
  
<text x="1180" y="892" text-anchor="end" font-size="10" font-weight="500" fill="#9ca3af" opacity="0.85">192types.co.kr · 경제학 리포트</text>
</svg>